G04*
G04 #@! TF.GenerationSoftware,Altium Limited,Altium Designer,25.1.2 (22)*
G04*
G04 Layer_Color=16711935*
%FSLAX25Y25*%
%MOIN*%
G70*
G04*
G04 #@! TF.SameCoordinates,E7EE586C-05D5-46D5-8D4D-84EA4DFC6535*
G04*
G04*
G04 #@! TF.FilePolarity,Negative*
G04*
G01*
G75*
%ADD16R,0.04758X0.03985*%
%ADD21R,0.03985X0.04758*%
%ADD28R,0.04934X0.04343*%
%ADD29R,0.04343X0.04934*%
%ADD30R,0.06312X0.06706*%
%ADD31R,0.06706X0.06312*%
%ADD34C,0.05700*%
%ADD35C,0.02362*%
%ADD36C,0.03150*%
%ADD44R,0.03543X0.02953*%
%ADD45R,0.01772X0.01378*%
%ADD46R,0.01378X0.01772*%
%ADD47R,0.02953X0.03543*%
%ADD49R,0.04500X0.08000*%
%ADD51R,0.05512X0.03937*%
%ADD52R,0.03937X0.09843*%
%ADD53R,0.02362X0.03150*%
%ADD55R,0.00900X0.02800*%
%ADD57R,0.05750X0.02100*%
%ADD58R,0.17100X0.13600*%
%ADD59R,0.01700X0.03400*%
%ADD60R,0.02000X0.04700*%
G04:AMPARAMS|DCode=63|XSize=21.78mil|YSize=41.47mil|CornerRadius=6mil|HoleSize=0mil|Usage=FLASHONLY|Rotation=90.000|XOffset=0mil|YOffset=0mil|HoleType=Round|Shape=RoundedRectangle|*
%AMROUNDEDRECTD63*
21,1,0.02178,0.02947,0,0,90.0*
21,1,0.00978,0.04147,0,0,90.0*
1,1,0.01200,0.01473,0.00489*
1,1,0.01200,0.01473,-0.00489*
1,1,0.01200,-0.01473,-0.00489*
1,1,0.01200,-0.01473,0.00489*
%
%ADD63ROUNDEDRECTD63*%
G04:AMPARAMS|DCode=64|XSize=76.9mil|YSize=67.06mil|CornerRadius=6.07mil|HoleSize=0mil|Usage=FLASHONLY|Rotation=90.000|XOffset=0mil|YOffset=0mil|HoleType=Round|Shape=RoundedRectangle|*
%AMROUNDEDRECTD64*
21,1,0.07690,0.05492,0,0,90.0*
21,1,0.06476,0.06706,0,0,90.0*
1,1,0.01213,0.02746,0.03238*
1,1,0.01213,0.02746,-0.03238*
1,1,0.01213,-0.02746,-0.03238*
1,1,0.01213,-0.02746,0.03238*
%
%ADD64ROUNDEDRECTD64*%
%ADD65R,0.04540X0.03950*%
%ADD66R,0.06902X0.03162*%
%ADD67R,0.05721X0.11430*%
%ADD68R,0.09265X0.05721*%
%ADD69R,0.03162X0.04737*%
G36*
X558052Y312008D02*
X558104Y311997D01*
X558153Y311981D01*
X558200Y311957D01*
X558244Y311928D01*
X558283Y311894D01*
X558318Y311854D01*
X558347Y311811D01*
X558370Y311764D01*
X558387Y311714D01*
X558397Y311663D01*
X558401Y311610D01*
Y307575D01*
X558397Y307523D01*
X558387Y307471D01*
X558370Y307421D01*
X558347Y307374D01*
X558318Y307331D01*
X558283Y307291D01*
X558244Y307257D01*
X558200Y307228D01*
X558153Y307205D01*
X558104Y307188D01*
X558052Y307177D01*
X558000Y307174D01*
X556898D01*
X556845Y307177D01*
X556794Y307188D01*
X556744Y307205D01*
X556697Y307228D01*
X556654Y307257D01*
X556614Y307291D01*
X556580Y307331D01*
X556551Y307374D01*
X556527Y307421D01*
X556510Y307471D01*
X556500Y307523D01*
X556497Y307575D01*
Y311610D01*
X556500Y311663D01*
X556510Y311714D01*
X556527Y311764D01*
X556551Y311811D01*
X556580Y311854D01*
X556614Y311894D01*
X556654Y311928D01*
X556697Y311957D01*
X556744Y311981D01*
X556794Y311997D01*
X556845Y312008D01*
X556898Y312011D01*
X558000D01*
X558052Y312008D01*
D02*
G37*
G36*
X560611D02*
X560663Y311997D01*
X560712Y311981D01*
X560759Y311957D01*
X560803Y311928D01*
X560843Y311894D01*
X560877Y311854D01*
X560906Y311811D01*
X560929Y311764D01*
X560946Y311714D01*
X560956Y311663D01*
X560960Y311610D01*
Y307575D01*
X560956Y307523D01*
X560946Y307471D01*
X560929Y307421D01*
X560906Y307374D01*
X560877Y307331D01*
X560843Y307291D01*
X560803Y307257D01*
X560759Y307228D01*
X560712Y307205D01*
X560663Y307188D01*
X560611Y307177D01*
X560559Y307174D01*
X559457D01*
X559404Y307177D01*
X559353Y307188D01*
X559303Y307205D01*
X559256Y307228D01*
X559213Y307257D01*
X559173Y307291D01*
X559139Y307331D01*
X559110Y307374D01*
X559086Y307421D01*
X559069Y307471D01*
X559059Y307523D01*
X559056Y307575D01*
Y311610D01*
X559059Y311663D01*
X559069Y311714D01*
X559086Y311764D01*
X559110Y311811D01*
X559139Y311854D01*
X559173Y311894D01*
X559213Y311928D01*
X559256Y311957D01*
X559303Y311981D01*
X559353Y311997D01*
X559404Y312008D01*
X559457Y312011D01*
X560559D01*
X560611Y312008D01*
D02*
G37*
G36*
Y322933D02*
X560663Y322923D01*
X560712Y322906D01*
X560759Y322883D01*
X560803Y322853D01*
X560843Y322819D01*
X560877Y322779D01*
X560906Y322736D01*
X560929Y322689D01*
X560946Y322639D01*
X560956Y322588D01*
X560960Y322535D01*
Y318500D01*
X560956Y318448D01*
X560946Y318396D01*
X560929Y318347D01*
X560906Y318300D01*
X560877Y318256D01*
X560843Y318217D01*
X560803Y318182D01*
X560759Y318153D01*
X560712Y318130D01*
X560663Y318113D01*
X560611Y318103D01*
X560559Y318099D01*
X559457D01*
X559404Y318103D01*
X559353Y318113D01*
X559303Y318130D01*
X559256Y318153D01*
X559213Y318182D01*
X559173Y318217D01*
X559139Y318256D01*
X559110Y318300D01*
X559086Y318347D01*
X559069Y318396D01*
X559059Y318448D01*
X559056Y318500D01*
Y322535D01*
X559059Y322588D01*
X559069Y322639D01*
X559086Y322689D01*
X559110Y322736D01*
X559139Y322779D01*
X559173Y322819D01*
X559213Y322853D01*
X559256Y322883D01*
X559303Y322906D01*
X559353Y322923D01*
X559404Y322933D01*
X559457Y322936D01*
X560559D01*
X560611Y322933D01*
D02*
G37*
G36*
X558052D02*
X558104Y322923D01*
X558153Y322906D01*
X558200Y322883D01*
X558244Y322853D01*
X558283Y322819D01*
X558318Y322779D01*
X558347Y322736D01*
X558370Y322689D01*
X558387Y322639D01*
X558397Y322588D01*
X558401Y322535D01*
Y318500D01*
X558397Y318448D01*
X558387Y318396D01*
X558370Y318347D01*
X558347Y318300D01*
X558318Y318256D01*
X558283Y318217D01*
X558244Y318182D01*
X558200Y318153D01*
X558153Y318130D01*
X558104Y318113D01*
X558052Y318103D01*
X558000Y318099D01*
X556898D01*
X556845Y318103D01*
X556794Y318113D01*
X556744Y318130D01*
X556697Y318153D01*
X556654Y318182D01*
X556614Y318217D01*
X556580Y318256D01*
X556551Y318300D01*
X556527Y318347D01*
X556510Y318396D01*
X556500Y318448D01*
X556497Y318500D01*
Y322535D01*
X556500Y322588D01*
X556510Y322639D01*
X556527Y322689D01*
X556551Y322736D01*
X556580Y322779D01*
X556614Y322819D01*
X556654Y322853D01*
X556697Y322883D01*
X556744Y322906D01*
X556794Y322923D01*
X556845Y322933D01*
X556898Y322936D01*
X558000D01*
X558052Y322933D01*
D02*
G37*
D16*
X556228Y328055D02*
D03*
X562542D02*
D03*
X618343Y376500D02*
D03*
X624657D02*
D03*
X564343Y442000D02*
D03*
X570657D02*
D03*
X552657D02*
D03*
X546343D02*
D03*
X388843Y354500D02*
D03*
X395157D02*
D03*
X444657Y453000D02*
D03*
X438343D02*
D03*
X443588Y344589D02*
D03*
X449902D02*
D03*
X497964Y408411D02*
D03*
X504278D02*
D03*
X496686Y337000D02*
D03*
X503000D02*
D03*
D21*
X527000Y441343D02*
D03*
Y447657D02*
D03*
X536500Y441186D02*
D03*
Y447500D02*
D03*
X514362Y344203D02*
D03*
Y337889D02*
D03*
X444340Y408797D02*
D03*
Y415111D02*
D03*
D28*
X579500Y386209D02*
D03*
Y380500D02*
D03*
X520768Y463854D02*
D03*
Y458146D02*
D03*
X511500Y463854D02*
D03*
Y458146D02*
D03*
X579500Y402209D02*
D03*
Y396500D02*
D03*
X391461Y412237D02*
D03*
Y406529D02*
D03*
D29*
X636360Y342009D02*
D03*
X642069D02*
D03*
X627683Y341661D02*
D03*
X621974D02*
D03*
X627892Y323126D02*
D03*
X622183D02*
D03*
X622035Y332393D02*
D03*
X627744D02*
D03*
X603354Y422500D02*
D03*
X597646D02*
D03*
X603354Y431768D02*
D03*
X597646D02*
D03*
D30*
X454729Y453539D02*
D03*
X462209D02*
D03*
D31*
X401516Y406774D02*
D03*
Y414255D02*
D03*
D34*
X602689Y408862D02*
D03*
Y398075D02*
D03*
X602689Y387287D02*
D03*
X602689Y376500D02*
D03*
X602689Y365713D02*
D03*
X602689Y354925D02*
D03*
Y344138D02*
D03*
X591508Y414256D02*
D03*
Y403469D02*
D03*
Y392681D02*
D03*
Y381894D02*
D03*
Y371106D02*
D03*
Y360319D02*
D03*
Y349532D02*
D03*
Y338744D02*
D03*
D35*
X438551Y461795D02*
D03*
X462209Y462025D02*
D03*
X511579Y451692D02*
D03*
X509500Y403816D02*
D03*
X452618Y414109D02*
D03*
X401500Y421316D02*
D03*
X407610Y393277D02*
D03*
X400000Y378000D02*
D03*
X391500D02*
D03*
X395157Y346973D02*
D03*
X449902Y348718D02*
D03*
X503000Y328816D02*
D03*
X520000Y339316D02*
D03*
X487633Y359857D02*
D03*
X449712Y390212D02*
D03*
X442046Y385239D02*
D03*
X441000Y388000D02*
D03*
X444244Y383228D02*
D03*
X487500Y392316D02*
D03*
X549055Y327871D02*
D03*
X570441Y311027D02*
D03*
X616550Y323254D02*
D03*
X638500Y337500D02*
D03*
X649268Y332548D02*
D03*
X579500Y373316D02*
D03*
X555000Y397316D02*
D03*
X575521Y429328D02*
D03*
X420500Y411316D02*
D03*
X396500Y387000D02*
D03*
X423029Y306345D02*
D03*
X544496Y345996D02*
D03*
X563418Y337734D02*
D03*
X555500Y334500D02*
D03*
X537140Y347852D02*
D03*
X556500Y431816D02*
D03*
X539464Y405757D02*
D03*
X530272Y387500D02*
D03*
Y382816D02*
D03*
X524869Y410947D02*
D03*
X527113Y363703D02*
D03*
X518500Y327816D02*
D03*
X489989Y327809D02*
D03*
X472439Y328816D02*
D03*
X449500Y340500D02*
D03*
X426500Y350816D02*
D03*
X442365Y379451D02*
D03*
X431000Y396316D02*
D03*
X430361Y400573D02*
D03*
X492000Y404816D02*
D03*
X449000Y424000D02*
D03*
X500500Y438000D02*
D03*
X513500Y425500D02*
D03*
X630500Y400500D02*
D03*
X625500D02*
D03*
X620000D02*
D03*
X630500Y405500D02*
D03*
X625500D02*
D03*
X620000D02*
D03*
X630500Y409500D02*
D03*
X625500D02*
D03*
X620000D02*
D03*
X578500Y432000D02*
D03*
X558000Y351500D02*
D03*
X551000Y350000D02*
D03*
X520472Y453472D02*
D03*
X519000Y418000D02*
D03*
X510500Y414000D02*
D03*
X504000Y452000D02*
D03*
X494900Y454500D02*
D03*
X521500Y413592D02*
D03*
X535000Y421000D02*
D03*
X475341Y324228D02*
D03*
X479957Y326500D02*
D03*
X563000Y397500D02*
D03*
X559674Y429555D02*
D03*
X563000Y407000D02*
D03*
X529728Y348636D02*
D03*
Y353942D02*
D03*
X542000Y395000D02*
D03*
X539500Y402000D02*
D03*
X510470Y409488D02*
D03*
X498000Y393000D02*
D03*
X507000D02*
D03*
X515500D02*
D03*
X427223Y326020D02*
D03*
X527500Y346500D02*
D03*
X538000Y389500D02*
D03*
X465439Y322579D02*
D03*
X440223Y331020D02*
D03*
X398500Y401500D02*
D03*
X421000Y408000D02*
D03*
X434500Y421500D02*
D03*
X393500Y367500D02*
D03*
X409000Y372132D02*
D03*
X403500Y357000D02*
D03*
X388351Y399032D02*
D03*
X426000Y396500D02*
D03*
X451285Y406219D02*
D03*
X454500Y409429D02*
D03*
X457500Y408500D02*
D03*
X458957Y412705D02*
D03*
X431892Y361615D02*
D03*
X426500Y344000D02*
D03*
X466874Y438339D02*
D03*
X463500Y445000D02*
D03*
X461488Y326331D02*
D03*
X515091Y377480D02*
D03*
X500500Y425000D02*
D03*
X495000Y424000D02*
D03*
X490500D02*
D03*
X475035Y427236D02*
D03*
X426177Y367824D02*
D03*
X423772Y386000D02*
D03*
Y382500D02*
D03*
X424272Y389500D02*
D03*
X423000Y393500D02*
D03*
X453500Y436500D02*
D03*
X457564Y436566D02*
D03*
X460500Y447000D02*
D03*
X486846Y444710D02*
D03*
X468000Y446000D02*
D03*
X506728Y327000D02*
D03*
X509000Y323000D02*
D03*
X471500Y446000D02*
D03*
X474640Y436685D02*
D03*
X475500Y446000D02*
D03*
X477512Y435997D02*
D03*
X453500Y328000D02*
D03*
X449500Y328500D02*
D03*
X474394Y412106D02*
D03*
X490000Y439500D02*
D03*
X497500Y441500D02*
D03*
X493000Y442000D02*
D03*
X471211Y362864D02*
D03*
X527000Y379500D02*
D03*
X507976Y425476D02*
D03*
X463500Y412000D02*
D03*
X466141Y413320D02*
D03*
X461412Y409912D02*
D03*
X505000Y425000D02*
D03*
X457500Y341000D02*
D03*
X498000Y378000D02*
D03*
X507500Y345000D02*
D03*
X507000Y340000D02*
D03*
X509772Y364913D02*
D03*
X512500Y362500D02*
D03*
X507081Y377361D02*
D03*
X473500Y387000D02*
D03*
X466000Y359000D02*
D03*
X498500Y361000D02*
D03*
X500019Y363532D02*
D03*
X496500Y358500D02*
D03*
X502000Y366000D02*
D03*
X503500Y369000D02*
D03*
X459000Y392500D02*
D03*
X456000Y391500D02*
D03*
X453000Y391000D02*
D03*
X465500Y345000D02*
D03*
X462000Y360500D02*
D03*
X468500Y386500D02*
D03*
X491000Y324500D02*
D03*
X484500Y326500D02*
D03*
X491000Y342000D02*
D03*
X494000Y348500D02*
D03*
D36*
X558500Y441500D02*
D03*
X536000Y453000D02*
D03*
X459500Y317000D02*
D03*
Y311000D02*
D03*
Y305500D02*
D03*
X507500Y308500D02*
D03*
Y316500D02*
D03*
X547500Y299000D02*
D03*
Y305000D02*
D03*
Y310500D02*
D03*
X568500Y369000D02*
D03*
X559167D02*
D03*
X549333D02*
D03*
X539500D02*
D03*
X626500Y314500D02*
D03*
X622000D02*
D03*
X616000D02*
D03*
X610500D02*
D03*
X616000Y319500D02*
D03*
X610500D02*
D03*
D44*
X572638Y367822D02*
D03*
X572638Y363097D02*
D03*
X572626Y351269D02*
D03*
Y355993D02*
D03*
D45*
X564146Y358531D02*
D03*
Y360500D02*
D03*
Y362469D02*
D03*
X554500D02*
D03*
Y360500D02*
D03*
Y358531D02*
D03*
D46*
X563260Y365323D02*
D03*
X561291Y365323D02*
D03*
X559323D02*
D03*
X557354D02*
D03*
X555386Y365323D02*
D03*
Y355677D02*
D03*
X557354D02*
D03*
X559323D02*
D03*
X561291D02*
D03*
X563260D02*
D03*
D47*
X558307Y346803D02*
D03*
X563031D02*
D03*
D49*
X610250Y332500D02*
D03*
X599750D02*
D03*
D51*
X502831Y457760D02*
D03*
Y465240D02*
D03*
X494169Y461500D02*
D03*
D52*
X614746Y365578D02*
D03*
X626557D02*
D03*
X649521Y389764D02*
D03*
X637710D02*
D03*
X614719Y352700D02*
D03*
X626531D02*
D03*
X619347Y389764D02*
D03*
X631158D02*
D03*
X649405Y403000D02*
D03*
X637595D02*
D03*
D53*
X644858Y332732D02*
D03*
X638165D02*
D03*
D55*
X635531Y359000D02*
D03*
X637500D02*
D03*
X639469D02*
D03*
Y352700D02*
D03*
X637500Y352700D02*
D03*
X635531Y352700D02*
D03*
D57*
X569725Y414500D02*
D03*
Y419500D02*
D03*
Y424500D02*
D03*
Y429500D02*
D03*
X548275D02*
D03*
Y424500D02*
D03*
Y419500D02*
D03*
Y414500D02*
D03*
D58*
X396000Y378000D02*
D03*
D59*
X388500Y362550D02*
D03*
X393500D02*
D03*
X398500D02*
D03*
X403500D02*
D03*
Y393450D02*
D03*
X398500D02*
D03*
X393500D02*
D03*
X388500D02*
D03*
D60*
X515795Y399100D02*
D03*
X512646D02*
D03*
X509496D02*
D03*
X506347D02*
D03*
X503197D02*
D03*
X500047D02*
D03*
X496898D02*
D03*
X493748D02*
D03*
X490598D02*
D03*
X487449D02*
D03*
X484299D02*
D03*
X481150D02*
D03*
X478000D02*
D03*
X474850D02*
D03*
X471701D02*
D03*
X468551D02*
D03*
X465402D02*
D03*
X462252D02*
D03*
X459102D02*
D03*
X455953D02*
D03*
X452803D02*
D03*
X449653D02*
D03*
X446504D02*
D03*
X443354D02*
D03*
X440205D02*
D03*
X440205Y353900D02*
D03*
X443354D02*
D03*
X446504D02*
D03*
X449653D02*
D03*
X452803D02*
D03*
X455953D02*
D03*
X459102D02*
D03*
X462252D02*
D03*
X465402D02*
D03*
X468551D02*
D03*
X471701D02*
D03*
X474850D02*
D03*
X478000D02*
D03*
X481150D02*
D03*
X484299D02*
D03*
X487449D02*
D03*
X490598D02*
D03*
X493748D02*
D03*
X496898D02*
D03*
X500047D02*
D03*
X503197D02*
D03*
X506347D02*
D03*
X509496D02*
D03*
X512646D02*
D03*
X515795D02*
D03*
D63*
X564535Y318894D02*
D03*
Y316335D02*
D03*
Y313776D02*
D03*
Y311216D02*
D03*
X552921Y318894D02*
D03*
Y316335D02*
D03*
Y313776D02*
D03*
Y311216D02*
D03*
D64*
X558728Y315055D02*
D03*
D65*
X546807Y355399D02*
D03*
Y360517D02*
D03*
D66*
X569130Y407500D02*
D03*
Y402500D02*
D03*
Y397500D02*
D03*
Y392500D02*
D03*
X547870Y407500D02*
D03*
Y402500D02*
D03*
Y397500D02*
D03*
Y392500D02*
D03*
D67*
X472780Y461500D02*
D03*
X484000D02*
D03*
D68*
X637500Y380004D02*
D03*
Y367996D02*
D03*
D69*
X588461Y422500D02*
D03*
X583539D02*
D03*
X588461Y432000D02*
D03*
X583539D02*
D03*
M02*
