G04*
G04 #@! TF.GenerationSoftware,Altium Limited,Altium Designer,25.1.2 (22)*
G04*
G04 Layer_Color=255*
%FSLAX25Y25*%
%MOIN*%
G70*
G04*
G04 #@! TF.SameCoordinates,306FC79E-9B49-4897-B38B-A4FC230E2DB4*
G04*
G04*
G04 #@! TF.FilePolarity,Positive*
G04*
G01*
G75*
%ADD16R,0.01200X0.04700*%
%ADD17R,0.01378X0.05315*%
%ADD18R,0.05315X0.01378*%
%ADD19R,0.04134X0.03543*%
%ADD20R,0.03347X0.01575*%
G04:AMPARAMS|DCode=21|XSize=61.02mil|YSize=23.62mil|CornerRadius=2.01mil|HoleSize=0mil|Usage=FLASHONLY|Rotation=0.000|XOffset=0mil|YOffset=0mil|HoleType=Round|Shape=RoundedRectangle|*
%AMROUNDEDRECTD21*
21,1,0.06102,0.01961,0,0,0.0*
21,1,0.05701,0.02362,0,0,0.0*
1,1,0.00402,0.02850,-0.00980*
1,1,0.00402,-0.02850,-0.00980*
1,1,0.00402,-0.02850,0.00980*
1,1,0.00402,0.02850,0.00980*
%
%ADD21ROUNDEDRECTD21*%
%ADD22R,0.03150X0.03740*%
%ADD23R,0.04758X0.03985*%
%ADD24R,0.06102X0.03937*%
%ADD25R,0.03740X0.03150*%
%ADD26R,0.03150X0.03150*%
%ADD27R,0.03543X0.04134*%
%ADD28R,0.05512X0.05906*%
%ADD29R,0.05906X0.05512*%
%ADD30R,0.03985X0.04758*%
%ADD31R,0.03347X0.01378*%
%ADD32R,0.10236X0.07480*%
%ADD33C,0.05500*%
%ADD34C,0.12598*%
%ADD35R,0.09843X0.09843*%
%ADD36C,0.09843*%
%ADD37R,0.05512X0.05512*%
%ADD38C,0.05512*%
%ADD39C,0.05984*%
%ADD40R,0.05984X0.05984*%
%ADD41C,0.02953*%
%ADD45R,0.09400X0.06300*%
%ADD48C,0.12600*%
D16*
X442271Y432298D02*
D03*
X444246D02*
D03*
X446221D02*
D03*
X448196D02*
D03*
X450171D02*
D03*
X452146D02*
D03*
X454121D02*
D03*
X456096D02*
D03*
X458071D02*
D03*
X460046D02*
D03*
X462021D02*
D03*
X463996D02*
D03*
X465971D02*
D03*
X467946D02*
D03*
X469921D02*
D03*
X471896D02*
D03*
X473871D02*
D03*
X475846D02*
D03*
X477821D02*
D03*
X479796D02*
D03*
X481771D02*
D03*
X483746D02*
D03*
X485721D02*
D03*
X487696D02*
D03*
X489671D02*
D03*
X491646D02*
D03*
X493621D02*
D03*
X495596D02*
D03*
X497571D02*
D03*
X499546D02*
D03*
X501521D02*
D03*
X503496D02*
D03*
X505471D02*
D03*
X507446D02*
D03*
X509421D02*
D03*
X511396D02*
D03*
X513371D02*
D03*
X515346D02*
D03*
X517321D02*
D03*
X519296D02*
D03*
D17*
X443760Y418513D02*
D03*
X445728Y418513D02*
D03*
X447697D02*
D03*
X449665D02*
D03*
X451634D02*
D03*
X453602D02*
D03*
X455571D02*
D03*
X457539Y418513D02*
D03*
X459508D02*
D03*
X461476Y418513D02*
D03*
X463445D02*
D03*
X465413D02*
D03*
X467382D02*
D03*
X469350D02*
D03*
X471319Y418513D02*
D03*
X473287Y418513D02*
D03*
X475256D02*
D03*
X477224D02*
D03*
X479193D02*
D03*
X481161D02*
D03*
X483130D02*
D03*
X485098Y418513D02*
D03*
X487067Y418513D02*
D03*
X489035D02*
D03*
X491004D02*
D03*
X492972D02*
D03*
X494941D02*
D03*
X496909Y418513D02*
D03*
X498878D02*
D03*
X500846Y418513D02*
D03*
X502815D02*
D03*
X504783D02*
D03*
X506752D02*
D03*
X508720D02*
D03*
X510689D02*
D03*
X512657Y418513D02*
D03*
Y334852D02*
D03*
X510689Y334852D02*
D03*
X508720D02*
D03*
X506752D02*
D03*
X504783D02*
D03*
X502815D02*
D03*
X500846D02*
D03*
X498878Y334852D02*
D03*
X496909D02*
D03*
X494941Y334852D02*
D03*
X492972D02*
D03*
X491004D02*
D03*
X489035D02*
D03*
X487067D02*
D03*
X485098Y334852D02*
D03*
X483130Y334852D02*
D03*
X481161D02*
D03*
X479193D02*
D03*
X477224D02*
D03*
X475256D02*
D03*
X473287D02*
D03*
X471319Y334852D02*
D03*
X469350Y334852D02*
D03*
X467382D02*
D03*
X465413D02*
D03*
X463445D02*
D03*
X461476D02*
D03*
X459508Y334852D02*
D03*
X457539D02*
D03*
X455571Y334852D02*
D03*
X453602D02*
D03*
X451634D02*
D03*
X449665D02*
D03*
X447697D02*
D03*
X445728D02*
D03*
X443760Y334852D02*
D03*
D18*
X520039Y411131D02*
D03*
X520039Y409163D02*
D03*
Y407194D02*
D03*
Y405226D02*
D03*
Y403257D02*
D03*
Y401289D02*
D03*
Y399320D02*
D03*
X520039Y397352D02*
D03*
Y395383D02*
D03*
X520039Y393415D02*
D03*
Y391446D02*
D03*
Y389478D02*
D03*
Y387509D02*
D03*
Y385541D02*
D03*
X520039Y383572D02*
D03*
X520039Y381604D02*
D03*
Y379635D02*
D03*
Y377667D02*
D03*
Y375698D02*
D03*
Y373730D02*
D03*
Y371761D02*
D03*
X520039Y369793D02*
D03*
X520039Y367824D02*
D03*
Y365856D02*
D03*
Y363887D02*
D03*
Y361918D02*
D03*
Y359950D02*
D03*
X520039Y357981D02*
D03*
Y356013D02*
D03*
X520039Y354045D02*
D03*
Y352076D02*
D03*
Y350108D02*
D03*
Y348139D02*
D03*
Y346170D02*
D03*
Y344202D02*
D03*
X520039Y342233D02*
D03*
X436378D02*
D03*
X436378Y344202D02*
D03*
Y346170D02*
D03*
Y348139D02*
D03*
Y350108D02*
D03*
Y352076D02*
D03*
Y354045D02*
D03*
X436378Y356013D02*
D03*
Y357981D02*
D03*
X436378Y359950D02*
D03*
Y361918D02*
D03*
Y363887D02*
D03*
Y365856D02*
D03*
Y367824D02*
D03*
X436378Y369793D02*
D03*
X436378Y371761D02*
D03*
Y373730D02*
D03*
Y375698D02*
D03*
Y377667D02*
D03*
Y379635D02*
D03*
Y381604D02*
D03*
X436378Y383572D02*
D03*
X436378Y385541D02*
D03*
Y387509D02*
D03*
Y389478D02*
D03*
Y391446D02*
D03*
Y393415D02*
D03*
X436378Y395383D02*
D03*
Y397352D02*
D03*
X436378Y399320D02*
D03*
Y401289D02*
D03*
Y403257D02*
D03*
Y405226D02*
D03*
Y407194D02*
D03*
Y409163D02*
D03*
X436378Y411131D02*
D03*
D19*
X423000Y454854D02*
D03*
Y449146D02*
D03*
X548995Y358778D02*
D03*
Y364487D02*
D03*
X558262Y364351D02*
D03*
Y358642D02*
D03*
X583102Y283146D02*
D03*
Y288854D02*
D03*
X431918Y302643D02*
D03*
Y296935D02*
D03*
D20*
X558232Y337918D02*
D03*
X558232Y340477D02*
D03*
X558232Y343037D02*
D03*
X550752D02*
D03*
Y340477D02*
D03*
Y337918D02*
D03*
D21*
X574130Y293500D02*
D03*
Y288500D02*
D03*
Y283500D02*
D03*
Y278500D02*
D03*
X552870D02*
D03*
Y283500D02*
D03*
Y288500D02*
D03*
Y293500D02*
D03*
D22*
X449903Y292355D02*
D03*
X444785D02*
D03*
Y285390D02*
D03*
X449903D02*
D03*
D23*
X559449Y302792D02*
D03*
X553135D02*
D03*
X534684Y309810D02*
D03*
X540998D02*
D03*
X541843Y412000D02*
D03*
X548157D02*
D03*
X422157Y416000D02*
D03*
X415843D02*
D03*
X411639Y332941D02*
D03*
X405325D02*
D03*
X411295Y368059D02*
D03*
X404981D02*
D03*
X448157Y318500D02*
D03*
X441843D02*
D03*
X473843Y319500D02*
D03*
X480157D02*
D03*
X516665D02*
D03*
X522979D02*
D03*
D24*
X515665Y279153D02*
D03*
Y285846D02*
D03*
X536335Y279153D02*
D03*
Y285846D02*
D03*
X480665Y279153D02*
D03*
Y285846D02*
D03*
X501335Y279153D02*
D03*
Y285846D02*
D03*
D25*
X501500Y302941D02*
D03*
Y308059D02*
D03*
D26*
X520547Y299500D02*
D03*
X526453D02*
D03*
D27*
X541500D02*
D03*
X535791D02*
D03*
X422124Y426169D02*
D03*
X416415D02*
D03*
D28*
X516289Y309618D02*
D03*
X523769D02*
D03*
X549076Y421929D02*
D03*
X541596D02*
D03*
X534191Y319693D02*
D03*
X541671D02*
D03*
X449289Y308618D02*
D03*
X441809D02*
D03*
D29*
X549382Y375050D02*
D03*
Y382530D02*
D03*
X560225Y375271D02*
D03*
Y382751D02*
D03*
X407118Y379841D02*
D03*
Y387321D02*
D03*
D30*
X567500Y363657D02*
D03*
Y357343D02*
D03*
X539500Y364157D02*
D03*
Y357843D02*
D03*
X432124Y318143D02*
D03*
Y311829D02*
D03*
X570107Y375455D02*
D03*
Y381769D02*
D03*
X417000Y379843D02*
D03*
Y386157D02*
D03*
X539500Y375343D02*
D03*
Y381657D02*
D03*
D31*
X544339Y343059D02*
D03*
Y340500D02*
D03*
Y337941D02*
D03*
X536661D02*
D03*
Y340500D02*
D03*
Y343059D02*
D03*
D32*
X411530Y342035D02*
D03*
Y358965D02*
D03*
D33*
X638590Y410272D02*
D03*
Y399484D02*
D03*
Y388697D02*
D03*
Y377909D02*
D03*
Y367122D02*
D03*
Y356335D02*
D03*
Y345547D02*
D03*
X627410Y415665D02*
D03*
Y404878D02*
D03*
Y394091D02*
D03*
Y383303D02*
D03*
Y372516D02*
D03*
Y361728D02*
D03*
Y350941D02*
D03*
Y340154D02*
D03*
D34*
X411110Y438321D02*
D03*
X411000Y313500D02*
D03*
X645000Y263500D02*
D03*
Y489000D02*
D03*
D35*
X576563Y458005D02*
D03*
D36*
X560972D02*
D03*
D37*
X649000Y468000D02*
D03*
X648842Y283500D02*
D03*
D38*
X639157Y468000D02*
D03*
X629315D02*
D03*
X619472D02*
D03*
X609630D02*
D03*
X599787D02*
D03*
X599630Y283500D02*
D03*
X609472D02*
D03*
X619315Y283500D02*
D03*
X629157D02*
D03*
X639000Y283500D02*
D03*
D39*
X469500Y285000D02*
D03*
Y295000D02*
D03*
X459500D02*
D03*
D40*
Y285000D02*
D03*
D41*
X526000Y277087D02*
D03*
Y287913D02*
D03*
X491000Y277087D02*
D03*
Y287913D02*
D03*
D45*
X434134Y444497D02*
D03*
X527434D02*
D03*
D48*
X633000Y443500D02*
D03*
Y312319D02*
D03*
M02*
