G04*
G04 #@! TF.GenerationSoftware,Altium Limited,Altium Designer,25.1.2 (22)*
G04*
G04 Layer_Physical_Order=1*
G04 Layer_Color=255*
%FSLAX25Y25*%
%MOIN*%
G70*
G04*
G04 #@! TF.SameCoordinates,DC4E0951-A455-47C2-8868-B8DD7EE8088A*
G04*
G04*
G04 #@! TF.FilePolarity,Positive*
G04*
G01*
G75*
%ADD15C,0.01000*%
%ADD16R,0.03347X0.01575*%
%ADD17R,0.04134X0.03543*%
G04:AMPARAMS|DCode=18|XSize=61.02mil|YSize=23.62mil|CornerRadius=2.01mil|HoleSize=0mil|Usage=FLASHONLY|Rotation=0.000|XOffset=0mil|YOffset=0mil|HoleType=Round|Shape=RoundedRectangle|*
%AMROUNDEDRECTD18*
21,1,0.06102,0.01961,0,0,0.0*
21,1,0.05701,0.02362,0,0,0.0*
1,1,0.00402,0.02850,-0.00980*
1,1,0.00402,-0.02850,-0.00980*
1,1,0.00402,-0.02850,0.00980*
1,1,0.00402,0.02850,0.00980*
%
%ADD18ROUNDEDRECTD18*%
%ADD19R,0.03150X0.03740*%
%ADD20R,0.03543X0.04134*%
%ADD21R,0.04758X0.03985*%
%ADD22R,0.06102X0.03937*%
%ADD23R,0.03740X0.03150*%
%ADD24R,0.03150X0.03150*%
%ADD25R,0.05512X0.05906*%
%ADD26R,0.05906X0.05512*%
%ADD27R,0.03985X0.04758*%
%ADD28R,0.03347X0.01378*%
%ADD29R,0.01200X0.04700*%
%ADD30R,0.05315X0.01378*%
%ADD31R,0.01378X0.05315*%
%ADD32R,0.10236X0.07480*%
%ADD33C,0.12598*%
%ADD34R,0.09843X0.09843*%
%ADD35C,0.09843*%
%ADD36C,0.05500*%
%ADD37R,0.05512X0.05512*%
%ADD38C,0.05512*%
%ADD39C,0.05984*%
%ADD40R,0.05984X0.05984*%
%ADD41C,0.02953*%
%ADD42C,0.02362*%
%ADD43C,0.03150*%
%ADD44C,0.02800*%
%ADD45R,0.09400X0.06300*%
%ADD46C,0.01500*%
%ADD47C,0.01181*%
%ADD48C,0.12600*%
G36*
X480500Y478500D02*
X480500Y478500D01*
X658578Y478500D01*
X659164Y477914D01*
Y438858D01*
X658664Y438706D01*
X658466Y439002D01*
X657002Y440466D01*
X657002Y440466D01*
X647467Y450002D01*
X647467Y450002D01*
X632598Y464870D01*
X632155Y465166D01*
X631960Y465205D01*
X631795Y465748D01*
X631993Y465945D01*
X632433Y466708D01*
X632661Y467559D01*
Y468441D01*
X632433Y469292D01*
X631993Y470055D01*
X631370Y470678D01*
X630607Y471118D01*
X629755Y471347D01*
X628874D01*
X628023Y471118D01*
X627260Y470678D01*
X626637Y470055D01*
X626197Y469292D01*
X625969Y468441D01*
Y467559D01*
X626197Y466708D01*
X626637Y465945D01*
X626812Y465770D01*
X626605Y465270D01*
X622183D01*
X621975Y465770D01*
X622150Y465945D01*
X622591Y466708D01*
X622819Y467559D01*
Y468441D01*
X622591Y469292D01*
X622150Y470055D01*
X621527Y470678D01*
X620764Y471118D01*
X619913Y471347D01*
X619032D01*
X618181Y471118D01*
X617418Y470678D01*
X616795Y470055D01*
X616354Y469292D01*
X616126Y468441D01*
Y468193D01*
X615626Y467986D01*
X615413Y468199D01*
X614970Y468495D01*
X614447Y468599D01*
X612934D01*
X612748Y469292D01*
X612308Y470055D01*
X611685Y470678D01*
X610922Y471118D01*
X610071Y471347D01*
X609189D01*
X608338Y471118D01*
X607575Y470678D01*
X606952Y470055D01*
X606511Y469292D01*
X606284Y468441D01*
Y467559D01*
X606511Y466708D01*
X606952Y465945D01*
X607575Y465322D01*
X608338Y464882D01*
X609189Y464653D01*
X610071D01*
X610922Y464882D01*
X611685Y465322D01*
X612228Y465866D01*
X613881D01*
X619309Y460437D01*
X619753Y460141D01*
X620276Y460037D01*
X630030D01*
X643034Y447034D01*
X643034Y447034D01*
X653633Y436434D01*
Y282816D01*
X652651Y281834D01*
X652189Y282025D01*
Y286846D01*
X645496D01*
Y280154D01*
X645117Y279861D01*
X640280D01*
X640214Y280361D01*
X640292Y280382D01*
X641055Y280822D01*
X641678Y281445D01*
X642118Y282208D01*
X642346Y283059D01*
Y283941D01*
X642118Y284792D01*
X641678Y285555D01*
X641055Y286178D01*
X640292Y286618D01*
X639441Y286846D01*
X638559D01*
X637708Y286618D01*
X637196Y286322D01*
X636696Y286611D01*
Y287944D01*
X636591Y288467D01*
X636295Y288910D01*
X633233Y291972D01*
X632790Y292269D01*
X632267Y292373D01*
X614818D01*
X614037Y293154D01*
X613594Y293450D01*
X613071Y293554D01*
X605874D01*
X605351Y293450D01*
X604908Y293154D01*
X604127Y292373D01*
X597807D01*
X597284Y292269D01*
X596841Y291972D01*
X593111Y288243D01*
X585760D01*
Y291216D01*
X580445D01*
Y288347D01*
X580341Y288243D01*
X578190D01*
X577787Y288646D01*
Y289480D01*
X577726Y289789D01*
X577551Y290051D01*
X577289Y290226D01*
X576980Y290287D01*
X571279D01*
X570971Y290226D01*
X570709Y290051D01*
X570534Y289789D01*
X570473Y289480D01*
Y287520D01*
X570534Y287211D01*
X570709Y286949D01*
X570971Y286774D01*
X571279Y286713D01*
X575854D01*
X576407Y286160D01*
X576386Y285950D01*
X576274Y285586D01*
X575910Y285343D01*
X575854Y285287D01*
X571279D01*
X570971Y285226D01*
X570709Y285051D01*
X570534Y284789D01*
X570473Y284480D01*
Y282520D01*
X570534Y282211D01*
X570709Y281949D01*
X570971Y281774D01*
X571279Y281713D01*
X576980D01*
X577289Y281774D01*
X577551Y281949D01*
X577726Y282211D01*
X577787Y282520D01*
Y283009D01*
X580341D01*
X580445Y282906D01*
Y280784D01*
X585760D01*
Y283009D01*
X594713D01*
X595236Y283113D01*
X595679Y283410D01*
X599409Y287139D01*
X604732D01*
X604923Y286677D01*
X602760Y284514D01*
X602464Y284070D01*
X602360Y283547D01*
Y278631D01*
X602464Y278108D01*
X602760Y277665D01*
X605397Y275028D01*
X605418Y275013D01*
X605266Y274514D01*
X484373Y274514D01*
X484324Y275013D01*
X484594Y275067D01*
X484955Y275308D01*
X490375Y280728D01*
X490852D01*
X491504Y280998D01*
X492002Y281496D01*
X492272Y282148D01*
Y282852D01*
X492002Y283504D01*
X491504Y284002D01*
X490852Y284272D01*
X490148D01*
X489496Y284002D01*
X488998Y283504D01*
X488728Y282852D01*
Y282227D01*
X483708Y277206D01*
X477623D01*
X475043Y279786D01*
X474682Y280027D01*
X474257Y280112D01*
X474257Y280112D01*
X456458D01*
X452069Y284501D01*
Y287850D01*
X447738D01*
Y282929D01*
X450496D01*
X455212Y278214D01*
X455212Y278214D01*
X455572Y277973D01*
X455998Y277888D01*
X455998Y277888D01*
X473796D01*
X476376Y275308D01*
X476376Y275308D01*
X476737Y275067D01*
X477162Y274983D01*
X477163Y274983D01*
X479942D01*
X479950Y274483D01*
X477865Y274421D01*
X471596Y274622D01*
X465352Y275208D01*
X459155Y276176D01*
X453029Y277522D01*
X446998Y279243D01*
X441083Y281330D01*
X435308Y283777D01*
X429695Y286574D01*
X424263Y289710D01*
X419034Y293174D01*
X414028Y296953D01*
X409264Y301032D01*
X404759Y305395D01*
X400530Y310028D01*
X396594Y314911D01*
X392966Y320026D01*
X389658Y325355D01*
X386684Y330877D01*
X384054Y336571D01*
X381779Y342416D01*
X379868Y348390D01*
X378327Y354469D01*
X377162Y360632D01*
X376378Y366855D01*
X375977Y373114D01*
X375962Y379386D01*
X376331Y385647D01*
X377085Y391874D01*
X378220Y398042D01*
X379731Y404129D01*
X381613Y410112D01*
X383860Y415968D01*
X386461Y421675D01*
X389408Y427211D01*
X392690Y432556D01*
X396293Y437690D01*
X400206Y442592D01*
X404411Y447245D01*
X408895Y451631D01*
X413639Y455733D01*
X418627Y459536D01*
X423839Y463025D01*
X429255Y466188D01*
X434855Y469013D01*
X440618Y471488D01*
X446522Y473604D01*
X452545Y475354D01*
X458664Y476731D01*
X464856Y477729D01*
X471097Y478345D01*
X477365Y478577D01*
X480500Y478500D01*
D02*
G37*
%LPC*%
G36*
X484431Y473165D02*
X483569D01*
X482773Y472836D01*
X482164Y472227D01*
X481835Y471431D01*
Y470569D01*
X482164Y469773D01*
X482773Y469164D01*
X483569Y468835D01*
X484431D01*
X485227Y469164D01*
X485836Y469773D01*
X486165Y470569D01*
Y471431D01*
X485836Y472227D01*
X485227Y472836D01*
X484431Y473165D01*
D02*
G37*
G36*
X652347Y471347D02*
X645653D01*
Y464653D01*
X652347D01*
Y471347D01*
D02*
G37*
G36*
X639598D02*
X638717D01*
X637866Y471118D01*
X637103Y470678D01*
X636480Y470055D01*
X636039Y469292D01*
X635811Y468441D01*
Y467559D01*
X636039Y466708D01*
X636480Y465945D01*
X637103Y465322D01*
X637866Y464882D01*
X638717Y464653D01*
X639598D01*
X640449Y464882D01*
X641212Y465322D01*
X641835Y465945D01*
X642276Y466708D01*
X642504Y467559D01*
Y468441D01*
X642276Y469292D01*
X641835Y470055D01*
X641212Y470678D01*
X640449Y471118D01*
X639598Y471347D01*
D02*
G37*
G36*
X609431Y461165D02*
X608569D01*
X607773Y460836D01*
X607164Y460227D01*
X606835Y459431D01*
Y458569D01*
X607164Y457773D01*
X607773Y457164D01*
X608569Y456835D01*
X609431D01*
X610227Y457164D01*
X610836Y457773D01*
X611165Y458569D01*
Y459431D01*
X610836Y460227D01*
X610227Y460836D01*
X609431Y461165D01*
D02*
G37*
G36*
X582075Y463517D02*
X571051D01*
Y452493D01*
X582075D01*
Y463517D01*
D02*
G37*
G36*
X609431Y453665D02*
X608569D01*
X607773Y453336D01*
X607164Y452727D01*
X606835Y451931D01*
Y451069D01*
X607164Y450273D01*
X607773Y449664D01*
X608569Y449335D01*
X609431D01*
X610227Y449664D01*
X610836Y450273D01*
X611165Y451069D01*
Y451931D01*
X610836Y452727D01*
X610227Y453336D01*
X609431Y453665D01*
D02*
G37*
G36*
X603931D02*
X603069D01*
X602273Y453336D01*
X601664Y452727D01*
X601335Y451931D01*
Y451069D01*
X601664Y450273D01*
X602273Y449664D01*
X603069Y449335D01*
X603931D01*
X604727Y449664D01*
X605336Y450273D01*
X605665Y451069D01*
Y451931D01*
X605336Y452727D01*
X604727Y453336D01*
X603931Y453665D01*
D02*
G37*
G36*
X467852Y468772D02*
X467148D01*
X466496Y468502D01*
X465998Y468004D01*
X465728Y467352D01*
Y466648D01*
X465998Y465996D01*
X466496Y465498D01*
X467148Y465228D01*
X467699D01*
X478993Y453934D01*
X478993Y453934D01*
X479354Y453693D01*
X479779Y453609D01*
X479780Y453609D01*
X487032D01*
X496921Y443719D01*
X496804Y443129D01*
X496496Y443002D01*
X495998Y442504D01*
X495728Y441852D01*
Y441487D01*
X495285Y441353D01*
X495276Y441354D01*
X495162Y441410D01*
X494772Y441801D01*
Y442352D01*
X494502Y443004D01*
X494004Y443502D01*
X493352Y443772D01*
X492648D01*
X491996Y443502D01*
X491498Y443004D01*
X491228Y442352D01*
Y441648D01*
X491348Y441359D01*
X491129Y441132D01*
X490944Y441026D01*
X490352Y441272D01*
X489648D01*
X488996Y441002D01*
X488612Y440617D01*
X488112Y440778D01*
Y443470D01*
X488348Y443706D01*
X488618Y444358D01*
Y445062D01*
X488348Y445714D01*
X487850Y446212D01*
X487199Y446482D01*
X486494D01*
X485843Y446212D01*
X485345Y445714D01*
X485075Y445062D01*
Y444358D01*
X485345Y443706D01*
X485843Y443208D01*
X485888Y443189D01*
Y439288D01*
X485888Y439287D01*
X485973Y438862D01*
X486214Y438501D01*
X489363Y435352D01*
Y434441D01*
X483587D01*
Y444525D01*
X483587Y444525D01*
X483502Y444950D01*
X483261Y445311D01*
X483261Y445311D01*
X478015Y450558D01*
X477654Y450799D01*
X477228Y450884D01*
X477228Y450884D01*
X452630D01*
X452205Y450799D01*
X451844Y450558D01*
X451844Y450558D01*
X438802Y437516D01*
X438302Y437723D01*
Y446850D01*
X438253Y446968D01*
Y447440D01*
X437780D01*
X437663Y447489D01*
X431362D01*
X431245Y447440D01*
X427672D01*
Y439959D01*
X430723D01*
Y437450D01*
X430910Y436998D01*
X431362Y436811D01*
X437390D01*
X437597Y436311D01*
X437033Y435747D01*
X436792Y435386D01*
X436707Y434961D01*
X436707Y434961D01*
Y422108D01*
X436207Y422009D01*
X436002Y422504D01*
X435504Y423002D01*
X434852Y423272D01*
X434148D01*
X433496Y423002D01*
X432998Y422504D01*
X432908Y422287D01*
X432351Y422222D01*
X432351Y422222D01*
X427617Y426955D01*
X427256Y427196D01*
X426831Y427281D01*
X426831Y427281D01*
X424486D01*
Y428827D01*
X419762D01*
Y423512D01*
X424486D01*
Y425057D01*
X426370D01*
X430452Y420975D01*
Y404215D01*
X429835Y403598D01*
X429594Y403237D01*
X429510Y402812D01*
X429510Y402812D01*
Y402138D01*
X429357Y402075D01*
X428859Y401577D01*
X428589Y400926D01*
Y400221D01*
X428859Y399570D01*
X429357Y399071D01*
X430009Y398802D01*
X430713D01*
X431080Y398487D01*
X430713Y398087D01*
X430648D01*
X429996Y397818D01*
X429498Y397319D01*
X429228Y396668D01*
Y395963D01*
X429498Y395312D01*
X429741Y395069D01*
X429534Y394569D01*
X427228D01*
X427142Y394733D01*
X427075Y395069D01*
X427502Y395496D01*
X427772Y396148D01*
Y396852D01*
X427502Y397504D01*
X427004Y398002D01*
X426352Y398272D01*
X426183D01*
X426159Y398325D01*
X426412Y398960D01*
X426504Y398998D01*
X427002Y399496D01*
X427272Y400148D01*
Y400852D01*
X427002Y401504D01*
X426504Y402002D01*
X425852Y402272D01*
X425148D01*
X424496Y402002D01*
X423998Y401504D01*
X423728Y400852D01*
Y400576D01*
X423509Y400131D01*
X423266Y400112D01*
X400271D01*
X400050Y400612D01*
X400272Y401148D01*
Y401699D01*
X404357Y405785D01*
X419290D01*
X419681Y405395D01*
X420332Y405125D01*
X421036D01*
X421688Y405395D01*
X422186Y405893D01*
X422456Y406544D01*
Y407249D01*
X422186Y407900D01*
X421688Y408399D01*
X421036Y408668D01*
X420332D01*
X419681Y408399D01*
X419290Y408009D01*
X403897D01*
X403471Y407924D01*
X403110Y407683D01*
X403110Y407683D01*
X398699Y403272D01*
X398148D01*
X397496Y403002D01*
X396998Y402504D01*
X396728Y401852D01*
Y401148D01*
X396950Y400612D01*
X396729Y400112D01*
X389776D01*
X389354Y400534D01*
X388703Y400804D01*
X387998D01*
X387347Y400534D01*
X386849Y400036D01*
X386579Y399385D01*
Y398680D01*
X386849Y398029D01*
X387347Y397530D01*
X387998Y397261D01*
X388703D01*
X389354Y397530D01*
X389712Y397888D01*
X423039D01*
X424228Y396699D01*
Y396148D01*
X424498Y395496D01*
X424775Y395219D01*
X424586Y394710D01*
X424319Y394687D01*
X424004Y395002D01*
X423352Y395272D01*
X422648D01*
X421996Y395002D01*
X421498Y394504D01*
X421228Y393852D01*
Y393148D01*
X421498Y392496D01*
X421996Y391998D01*
X422648Y391728D01*
X423352D01*
X424004Y391998D01*
X424351Y392345D01*
X424837D01*
X425044Y391845D01*
X424471Y391272D01*
X423919D01*
X423268Y391002D01*
X422770Y390504D01*
X422500Y389852D01*
Y389148D01*
X422770Y388496D01*
X423090Y388176D01*
X423014Y387608D01*
X423010Y387602D01*
X422768Y387502D01*
X422270Y387004D01*
X422000Y386352D01*
Y385648D01*
X422270Y384996D01*
X422736Y384530D01*
X422753Y384250D01*
X422736Y383970D01*
X422270Y383504D01*
X422000Y382852D01*
Y382148D01*
X422270Y381496D01*
X422768Y380998D01*
X423419Y380728D01*
X424124D01*
X424775Y380998D01*
X425206Y381429D01*
X425425Y381473D01*
X425786Y381714D01*
X430281Y386208D01*
X433130D01*
Y384261D01*
X433130D01*
Y382293D01*
X439626D01*
Y382293D01*
X440126Y382374D01*
X440319Y382181D01*
X440680Y381940D01*
X441105Y381855D01*
X441105Y381855D01*
X443112D01*
X443240Y381726D01*
X443892Y381457D01*
X444596D01*
X444904Y381584D01*
X445404Y381250D01*
Y381022D01*
X445404Y381022D01*
X445489Y380597D01*
X445729Y380236D01*
X464767Y361199D01*
X464662Y360673D01*
X464213Y360435D01*
X463772Y360618D01*
Y360852D01*
X463502Y361504D01*
X463004Y362002D01*
X462352Y362272D01*
X461648D01*
X460996Y362002D01*
X460498Y361504D01*
X460228Y360852D01*
Y360301D01*
X459039Y359112D01*
X439626D01*
Y359261D01*
X439626D01*
Y364576D01*
Y368513D01*
X439626D01*
Y371072D01*
X439626D01*
Y374418D01*
Y378523D01*
X440832D01*
X440863Y378447D01*
X441361Y377949D01*
X442013Y377679D01*
X442717D01*
X443368Y377949D01*
X443867Y378447D01*
X444137Y379098D01*
Y379803D01*
X443867Y380454D01*
X443368Y380953D01*
X442717Y381222D01*
X442013D01*
X441361Y380953D01*
X441156Y380747D01*
X439626D01*
Y380915D01*
X433130D01*
Y378779D01*
X420737D01*
X420737Y378779D01*
X420311Y378694D01*
X420083Y378541D01*
X419646Y378710D01*
X419583Y378763D01*
Y382812D01*
X414417D01*
Y380955D01*
X410661D01*
Y383188D01*
X404970D01*
X404862Y383209D01*
X404862Y383209D01*
X401863D01*
X398272Y386801D01*
Y387352D01*
X398002Y388004D01*
X397504Y388502D01*
X396852Y388772D01*
X396148D01*
X395496Y388502D01*
X394998Y388004D01*
X394728Y387352D01*
Y386648D01*
X394998Y385996D01*
X395496Y385498D01*
X396148Y385228D01*
X396699D01*
X400617Y381311D01*
X400977Y381070D01*
X401403Y380985D01*
X401403Y380985D01*
X403575D01*
Y377107D01*
X401995D01*
X401995Y377107D01*
X401569Y377022D01*
X401208Y376781D01*
X393699Y369272D01*
X393148D01*
X392496Y369002D01*
X391998Y368504D01*
X391728Y367852D01*
Y367148D01*
X391998Y366496D01*
X392496Y365998D01*
X393148Y365728D01*
X393852D01*
X394504Y365998D01*
X395002Y366496D01*
X395272Y367148D01*
Y367699D01*
X402455Y374883D01*
X403665D01*
X403857Y374421D01*
X400725Y371290D01*
X400484Y370929D01*
X400400Y370503D01*
X400400Y370503D01*
Y358988D01*
X400400Y358988D01*
X400484Y358563D01*
X400725Y358202D01*
X401728Y357199D01*
Y356648D01*
X401998Y355996D01*
X402496Y355498D01*
X403148Y355228D01*
X403852D01*
X404504Y355498D01*
X405002Y355996D01*
X405272Y356648D01*
Y357352D01*
X405002Y358004D01*
X404504Y358502D01*
X403852Y358772D01*
X403301D01*
X402624Y359449D01*
Y370043D01*
X405873Y373292D01*
X407022D01*
X407356Y372792D01*
X407228Y372485D01*
Y371780D01*
X407498Y371129D01*
X407996Y370631D01*
X408325Y370494D01*
Y365476D01*
X410418D01*
Y363295D01*
X405821D01*
Y354634D01*
X417239D01*
Y357853D01*
X421770D01*
X421770Y357853D01*
X422196Y357937D01*
X422259Y357979D01*
X422577Y357591D01*
X415362Y350375D01*
X415121Y350015D01*
X415036Y349589D01*
X415036Y349589D01*
Y346366D01*
X405821D01*
Y337705D01*
X410527D01*
Y335524D01*
X408670D01*
Y330358D01*
X414608D01*
Y335524D01*
X412751D01*
Y337705D01*
X417239D01*
Y345168D01*
X417260Y345276D01*
X417260Y345276D01*
Y349129D01*
X421455Y353323D01*
X421917Y353132D01*
Y342009D01*
X421917Y342009D01*
X422002Y341584D01*
X422243Y341223D01*
X427200Y336266D01*
Y321955D01*
X427200Y321955D01*
X427284Y321530D01*
X427525Y321169D01*
X429541Y319153D01*
Y316746D01*
X428254Y315460D01*
X428013Y315099D01*
X427929Y314674D01*
X427929Y314674D01*
Y308999D01*
X427929Y308999D01*
X428013Y308573D01*
X428254Y308212D01*
X429239Y307228D01*
Y303915D01*
X429239Y303915D01*
X429260Y303807D01*
Y300281D01*
X434575D01*
Y305005D01*
X431463D01*
Y307688D01*
X431378Y308114D01*
X431137Y308475D01*
X431137Y308475D01*
X430153Y309459D01*
Y314213D01*
X431113Y315174D01*
X434706D01*
Y321112D01*
X430727D01*
X429423Y322416D01*
Y336726D01*
X429423Y336727D01*
X429339Y337152D01*
X429098Y337513D01*
X424141Y342470D01*
Y353760D01*
X430286Y359905D01*
X430328Y359967D01*
X430888Y360114D01*
X431539Y359844D01*
X432244D01*
X432630Y360003D01*
X433130Y359695D01*
Y358670D01*
X433130D01*
Y355324D01*
X433130D01*
Y355156D01*
X429545D01*
X429544Y355156D01*
X429119Y355072D01*
X428758Y354831D01*
X428758Y354831D01*
X426515Y352587D01*
X426148D01*
X425496Y352318D01*
X424998Y351819D01*
X424728Y351168D01*
Y350463D01*
X424998Y349812D01*
X425496Y349314D01*
X426148Y349044D01*
X426852D01*
X427070Y349134D01*
X427151Y349080D01*
X427577Y348996D01*
X427577Y348996D01*
X433130D01*
Y345112D01*
X427894D01*
X427504Y345502D01*
X426852Y345772D01*
X426148D01*
X425496Y345502D01*
X424998Y345004D01*
X424728Y344352D01*
Y343648D01*
X424998Y342996D01*
X425496Y342498D01*
X426148Y342228D01*
X426852D01*
X427504Y342498D01*
X427894Y342888D01*
X433130D01*
Y340954D01*
X435266D01*
Y340122D01*
X435266Y340122D01*
X435351Y339697D01*
X435388Y339640D01*
Y306676D01*
X435388Y306676D01*
X435473Y306250D01*
X435714Y305890D01*
X443674Y297930D01*
Y294815D01*
X442620D01*
Y289894D01*
X443674D01*
Y287850D01*
X442620D01*
Y282929D01*
X446951D01*
Y287850D01*
X445897D01*
Y289894D01*
X446951D01*
Y294815D01*
X445897D01*
Y298390D01*
X445897Y298390D01*
X445813Y298816D01*
X445572Y299177D01*
X445572Y299177D01*
X437612Y307136D01*
Y340000D01*
X437527Y340425D01*
X437508Y340454D01*
X437614Y340954D01*
X439626D01*
Y343513D01*
X439626D01*
Y346860D01*
Y351387D01*
X433130D01*
Y351219D01*
X428945D01*
X428754Y351681D01*
X430005Y352933D01*
X433130D01*
Y352765D01*
X439626D01*
Y354733D01*
X439626D01*
Y354901D01*
X462834D01*
X463061Y354422D01*
X463061Y354421D01*
X457762Y349122D01*
X453641D01*
X453215Y349037D01*
X452854Y348796D01*
X452854Y348796D01*
X443069Y339011D01*
X442828Y338650D01*
X442743Y338224D01*
X442480Y338100D01*
Y331604D01*
X445039D01*
Y337836D01*
X446119Y338915D01*
X446535Y338720D01*
X446585Y338675D01*
Y338100D01*
X446417D01*
Y331604D01*
X448471D01*
Y329976D01*
X447998Y329504D01*
X447728Y328852D01*
Y328148D01*
X447998Y327496D01*
X448496Y326998D01*
X449148Y326728D01*
X449852D01*
X450504Y326998D01*
X451002Y327496D01*
X451272Y328148D01*
Y328852D01*
X451002Y329504D01*
X450695Y329811D01*
Y331604D01*
X452679D01*
Y329142D01*
X452541Y329004D01*
X452272Y328352D01*
Y327648D01*
X452541Y326996D01*
X453040Y326498D01*
X453691Y326228D01*
X454396D01*
X455047Y326498D01*
X455545Y326996D01*
X455815Y327648D01*
Y328352D01*
X455545Y329004D01*
X455047Y329502D01*
X454903Y329561D01*
Y331604D01*
X456850D01*
Y331604D01*
X460197D01*
Y331604D01*
X460370D01*
Y327718D01*
X459986Y327334D01*
X459717Y326683D01*
Y325978D01*
X459844Y325671D01*
X459510Y325171D01*
X445130D01*
X444272Y326029D01*
Y326581D01*
X444002Y327232D01*
X443504Y327730D01*
X442852Y328000D01*
X442148D01*
X441496Y327730D01*
X440998Y327232D01*
X440728Y326581D01*
Y325876D01*
X440998Y325225D01*
X441496Y324726D01*
X442148Y324457D01*
X442699D01*
X443883Y323273D01*
X444244Y323032D01*
X444315Y322856D01*
X444383Y322494D01*
X444258Y322307D01*
X444197Y322000D01*
Y312161D01*
X444258Y311854D01*
X444352Y311713D01*
Y305523D01*
X444258Y305382D01*
X444197Y305075D01*
Y302500D01*
X444258Y302193D01*
X444432Y301932D01*
X444693Y301758D01*
X445000Y301697D01*
X463000D01*
X463307Y301758D01*
X463568Y301932D01*
X463742Y302193D01*
X463803Y302500D01*
Y321002D01*
X464303Y321209D01*
X464435Y321077D01*
X465086Y320808D01*
X465791D01*
X466442Y321077D01*
X466940Y321576D01*
X467210Y322227D01*
Y322932D01*
X466940Y323583D01*
X466538Y323985D01*
Y331604D01*
X470630D01*
Y338100D01*
X470462D01*
Y339964D01*
X473682Y343184D01*
X474144Y342992D01*
Y338100D01*
X472008D01*
Y331604D01*
X472176D01*
Y330587D01*
X472086D01*
X471435Y330317D01*
X470937Y329819D01*
X470667Y329168D01*
Y328463D01*
X470937Y327812D01*
X471327Y327422D01*
Y323918D01*
X471327Y323918D01*
X471412Y323492D01*
X471653Y323131D01*
X472239Y322545D01*
X472048Y322083D01*
X470874D01*
Y316917D01*
X476812D01*
Y322083D01*
X476097D01*
X475998Y322583D01*
X476344Y322726D01*
X476843Y323225D01*
X477112Y323876D01*
Y324581D01*
X476843Y325232D01*
X476453Y325622D01*
Y325650D01*
X481120Y330317D01*
X481120Y330317D01*
X481759Y330956D01*
X481759Y330956D01*
X482000Y331317D01*
X482057Y331604D01*
X484409D01*
Y331604D01*
X485787D01*
Y331604D01*
X487324D01*
X487531Y331104D01*
X484699Y328272D01*
X484148D01*
X483496Y328002D01*
X482998Y327504D01*
X482728Y326852D01*
Y326148D01*
X482998Y325496D01*
X483496Y324998D01*
X484148Y324728D01*
X484852D01*
X485504Y324998D01*
X486002Y325496D01*
X486272Y326148D01*
Y326699D01*
X489822Y330249D01*
X489822Y330249D01*
X490063Y330610D01*
X490147Y331035D01*
Y331604D01*
X490315D01*
Y338100D01*
X489325D01*
X489134Y338562D01*
X490801Y340228D01*
X491352D01*
X492004Y340498D01*
X492502Y340996D01*
X492772Y341648D01*
Y342352D01*
X492502Y343004D01*
X492004Y343502D01*
X491493Y343713D01*
X491306Y344234D01*
X493801Y346728D01*
X494352D01*
X495004Y346998D01*
X495297Y347292D01*
X495797Y347085D01*
Y338100D01*
X495630D01*
Y338100D01*
X491693D01*
Y331604D01*
X491860D01*
Y329302D01*
X491330Y328772D01*
X491148D01*
X490496Y328502D01*
X489998Y328004D01*
X489728Y327352D01*
Y326648D01*
X489998Y325996D01*
X490496Y325498D01*
X490852Y325351D01*
X491146Y325210D01*
X491102Y324747D01*
X491000Y324500D01*
Y323795D01*
X491270Y323144D01*
X491768Y322646D01*
X492419Y322376D01*
X493124D01*
X493775Y322646D01*
X494274Y323144D01*
X494543Y323795D01*
Y324347D01*
X495727Y325531D01*
X495727Y325531D01*
X495968Y325891D01*
X496053Y326317D01*
X496053Y326317D01*
Y331604D01*
X496220D01*
Y331604D01*
X499567D01*
Y331604D01*
X505628D01*
Y328405D01*
X505226Y328004D01*
X504957Y327352D01*
Y326648D01*
X505226Y325996D01*
X505725Y325498D01*
X506376Y325228D01*
X507081D01*
X507388Y325356D01*
X507888Y325022D01*
Y324538D01*
X507810Y324446D01*
X507694Y324352D01*
X507456Y324229D01*
X507437Y324242D01*
X507359Y324257D01*
X507286Y324287D01*
X507207D01*
X507130Y324303D01*
X498500D01*
X498193Y324242D01*
X497932Y324068D01*
X497758Y323807D01*
X497697Y323500D01*
Y307438D01*
X497281Y307160D01*
X497234Y307179D01*
X496443D01*
X495711Y306876D01*
X495151Y306316D01*
X494848Y305585D01*
Y304793D01*
X495151Y304061D01*
X495711Y303502D01*
X496443Y303198D01*
X497234D01*
X497903Y303475D01*
X497932Y303432D01*
X498193Y303258D01*
X498500Y303197D01*
X499039D01*
Y300776D01*
X500388D01*
Y291394D01*
X499998Y291004D01*
X499728Y290352D01*
Y289648D01*
X499998Y288996D01*
X500089Y288906D01*
X499882Y288405D01*
X497693D01*
Y283287D01*
X504976D01*
Y288405D01*
X503118D01*
X502911Y288906D01*
X503002Y288996D01*
X503272Y289648D01*
Y290352D01*
X503002Y291004D01*
X502612Y291394D01*
Y300776D01*
X503961D01*
Y303197D01*
X520000D01*
X520307Y303258D01*
X520568Y303432D01*
X520742Y303693D01*
X520803Y304000D01*
Y323500D01*
X520742Y323807D01*
X520688Y323888D01*
X520920Y324388D01*
X528120D01*
X530844Y321663D01*
Y316149D01*
X537537D01*
Y323236D01*
X532417D01*
X529366Y326286D01*
X529006Y326527D01*
X528580Y326612D01*
X528580Y326612D01*
X520455D01*
X520126Y327112D01*
X520272Y327463D01*
Y328168D01*
X520002Y328819D01*
X519504Y329318D01*
X518852Y329587D01*
X518148D01*
X517708Y329405D01*
X513937Y333176D01*
Y338100D01*
X511378D01*
Y338100D01*
X508258D01*
X508241Y338127D01*
X508105Y338600D01*
X508502Y338996D01*
X508772Y339648D01*
Y340352D01*
X508502Y341004D01*
X508004Y341502D01*
X507851Y341565D01*
Y342548D01*
X507815Y342728D01*
X507839Y343048D01*
X508123Y343340D01*
X508504Y343498D01*
X509002Y343996D01*
X509272Y344648D01*
Y345352D01*
X509002Y346004D01*
X508612Y346394D01*
Y362934D01*
X509112Y363268D01*
X509419Y363141D01*
X510124D01*
X510270Y363201D01*
X510652Y362819D01*
X510623Y362747D01*
Y362042D01*
X510892Y361391D01*
X511391Y360892D01*
X512042Y360623D01*
X512747D01*
X513398Y360892D01*
X513896Y361391D01*
X514166Y362042D01*
Y362594D01*
X516291Y364719D01*
X516791Y364684D01*
Y362608D01*
X523287D01*
Y362775D01*
X525580D01*
X525611Y362699D01*
X526109Y362201D01*
X526761Y361931D01*
X527465D01*
X528117Y362201D01*
X528444Y362528D01*
X528969Y362498D01*
X529032Y362463D01*
X529496Y361998D01*
X530148Y361728D01*
X530455D01*
X530579Y361562D01*
X530329Y361062D01*
X523287D01*
Y361230D01*
X516791D01*
Y359261D01*
X516791D01*
Y354733D01*
X516791D01*
Y349921D01*
X516291Y349714D01*
X516004Y350002D01*
X515352Y350272D01*
X514648D01*
X513996Y350002D01*
X513498Y349504D01*
X513228Y348852D01*
Y348148D01*
X513498Y347496D01*
X513996Y346998D01*
X514648Y346728D01*
X515352D01*
X516004Y346998D01*
X516291Y347286D01*
X516791Y347079D01*
Y343513D01*
X516791D01*
Y340954D01*
X521715D01*
X526242Y336427D01*
Y334979D01*
X526242Y334979D01*
X526327Y334553D01*
X526568Y334193D01*
X530275Y330485D01*
X530275Y330485D01*
X530636Y330244D01*
X531061Y330160D01*
X532093D01*
X539303Y322950D01*
X539664Y322709D01*
X540090Y322624D01*
X544418D01*
X561807Y305235D01*
Y300808D01*
X559851Y298852D01*
X551803D01*
Y300209D01*
X556105D01*
Y305375D01*
X551803D01*
Y313500D01*
X551742Y313807D01*
X551568Y314068D01*
X551307Y314242D01*
X551000Y314303D01*
X538000D01*
X537693Y314242D01*
X537432Y314068D01*
X537258Y313807D01*
X537197Y313500D01*
Y302157D01*
X533429D01*
Y300612D01*
X528618D01*
Y301665D01*
X524287D01*
Y297335D01*
X528618D01*
Y298388D01*
X533429D01*
Y296843D01*
X537197D01*
Y294500D01*
X537258Y294193D01*
X537432Y293932D01*
X537693Y293758D01*
X538000Y293697D01*
X538788D01*
X538866Y293713D01*
X538945D01*
X539018Y293743D01*
X539096Y293758D01*
X539161Y293802D01*
X539234Y293832D01*
X539290Y293888D01*
X539356Y293932D01*
X539400Y293998D01*
X539456Y294054D01*
X539502Y294123D01*
X539532Y294196D01*
X539576Y294262D01*
X539592Y294340D01*
X539622Y294413D01*
Y294492D01*
X539638Y294569D01*
Y295271D01*
X539845Y295772D01*
X540228Y296155D01*
X540729Y296362D01*
X541271D01*
X541772Y296155D01*
X542155Y295772D01*
X542362Y295271D01*
Y294569D01*
X542378Y294492D01*
Y294413D01*
X542408Y294340D01*
X542424Y294262D01*
X542468Y294196D01*
X542498Y294123D01*
X542544Y294054D01*
X542600Y293998D01*
X542644Y293932D01*
X542710Y293888D01*
X542766Y293832D01*
X542839Y293802D01*
X542904Y293758D01*
X542982Y293743D01*
X543055Y293713D01*
X543134D01*
X543212Y293697D01*
X545117D01*
X545227Y293583D01*
X545446Y293197D01*
X545388Y292904D01*
X545388Y292904D01*
Y281086D01*
X545388Y281086D01*
X545473Y280660D01*
X545714Y280299D01*
X548118Y277895D01*
X548118Y277895D01*
X548479Y277654D01*
X548905Y277569D01*
X549266Y277255D01*
X549274Y277211D01*
X549449Y276949D01*
X549711Y276774D01*
X550020Y276713D01*
X555721D01*
X556029Y276774D01*
X556291Y276949D01*
X556466Y277211D01*
X556527Y277520D01*
Y279480D01*
X556466Y279789D01*
X556291Y280051D01*
X556029Y280226D01*
X555721Y280287D01*
X550020D01*
X549711Y280226D01*
X549449Y280051D01*
X549138Y280020D01*
X547612Y281546D01*
Y292444D01*
X548751Y293583D01*
X549213Y293391D01*
Y292520D01*
X549274Y292211D01*
X549449Y291949D01*
X549711Y291774D01*
X550020Y291713D01*
X555721D01*
X556029Y291774D01*
X556291Y291949D01*
X556466Y292211D01*
X556501Y292388D01*
X558320D01*
X558320Y292388D01*
X558746Y292473D01*
X559107Y292714D01*
X565295Y298902D01*
X565295Y298902D01*
X565536Y299263D01*
X565621Y299689D01*
X565621Y299689D01*
Y306355D01*
X565621Y306355D01*
X565536Y306780D01*
X565295Y307141D01*
X542223Y330213D01*
X541863Y330454D01*
X541437Y330539D01*
X541437Y330539D01*
X539482D01*
X538545Y331476D01*
X538828Y331900D01*
X538932Y331857D01*
X539637D01*
X540288Y332127D01*
X540787Y332625D01*
X541056Y333276D01*
X541555Y333459D01*
X541644D01*
X544161Y330942D01*
X544161Y330942D01*
X544522Y330701D01*
X544947Y330616D01*
X544947Y330616D01*
X562228D01*
X562228Y330616D01*
X562654Y330701D01*
X563015Y330942D01*
X566786Y334714D01*
X567027Y335074D01*
X567112Y335500D01*
X567112Y335500D01*
Y339500D01*
X567027Y339926D01*
X566786Y340286D01*
X563931Y343142D01*
X563570Y343383D01*
X563145Y343467D01*
X563145Y343467D01*
X560496D01*
Y344414D01*
X559374D01*
Y350369D01*
X559502Y350496D01*
X559772Y351148D01*
Y351852D01*
X559502Y352504D01*
X559374Y352631D01*
Y356280D01*
X560920D01*
Y360197D01*
X580000D01*
X580307Y360258D01*
X580568Y360432D01*
X580742Y360693D01*
X580803Y361000D01*
Y366622D01*
X580787Y366700D01*
Y366779D01*
X580757Y366852D01*
X580742Y366929D01*
X580698Y366995D01*
X580667Y367068D01*
Y367359D01*
X580698Y367432D01*
X580742Y367498D01*
X580757Y367576D01*
X580787Y367649D01*
Y367728D01*
X580803Y367805D01*
Y378500D01*
X580742Y378807D01*
X580568Y379068D01*
X580307Y379242D01*
X580000Y379303D01*
X534000D01*
X533693Y379242D01*
X533432Y379068D01*
X533258Y378807D01*
X533197Y378500D01*
Y363029D01*
X532735Y362837D01*
X532272Y363301D01*
Y363852D01*
X532002Y364504D01*
X531504Y365002D01*
X530852Y365272D01*
X530148D01*
X529496Y365002D01*
X529169Y364675D01*
X528644Y364705D01*
X528581Y364740D01*
X528117Y365205D01*
X527465Y365474D01*
X526761D01*
X526109Y365205D01*
X525904Y364999D01*
X523287D01*
Y369104D01*
X523287D01*
Y370481D01*
X523287D01*
Y374418D01*
Y378456D01*
X525539D01*
X525996Y377998D01*
X526648Y377728D01*
X527352D01*
X528004Y377998D01*
X528502Y378496D01*
X528772Y379148D01*
Y379852D01*
X528502Y380504D01*
X528004Y381002D01*
X527352Y381272D01*
X526648D01*
X525996Y381002D01*
X525674Y380679D01*
X523287D01*
Y382883D01*
X516791D01*
Y382716D01*
X500286D01*
X500025Y382890D01*
X499600Y382974D01*
X499600Y382974D01*
X473598D01*
X470272Y386301D01*
Y386852D01*
X470002Y387504D01*
X469504Y388002D01*
X468852Y388272D01*
X468148D01*
X467496Y388002D01*
X466998Y387504D01*
X466787Y386993D01*
X466266Y386806D01*
X460772Y392301D01*
Y392852D01*
X460502Y393504D01*
X460004Y394002D01*
X459352Y394272D01*
X458648D01*
X457996Y394002D01*
X457498Y393504D01*
X457413Y393299D01*
X457003Y393002D01*
X456352Y393272D01*
X455648D01*
X454996Y393002D01*
X454498Y392504D01*
X454278Y392460D01*
X453963Y392519D01*
X453352Y392772D01*
X452648D01*
X451996Y392502D01*
X451498Y392004D01*
X451391Y391745D01*
X450801Y391628D01*
X450715Y391714D01*
X450064Y391984D01*
X449360D01*
X448840Y391769D01*
X448340Y391999D01*
Y398489D01*
X454343Y404491D01*
X454343Y404491D01*
X454584Y404852D01*
X454668Y405278D01*
Y407160D01*
X454668Y407160D01*
X454852Y407657D01*
X455347Y407862D01*
X455504Y407927D01*
X455934Y407650D01*
X455998Y407496D01*
X456496Y406998D01*
X457148Y406728D01*
X457852D01*
X458504Y406998D01*
X459002Y407496D01*
X459272Y408148D01*
Y408852D01*
X459002Y409504D01*
X458504Y410002D01*
X458351Y410065D01*
Y410764D01*
X458604Y410933D01*
X459309D01*
X459390Y410967D01*
X459773Y410584D01*
X459640Y410264D01*
Y409560D01*
X459910Y408909D01*
X460408Y408410D01*
X461060Y408140D01*
X461764D01*
X462416Y408410D01*
X462914Y408909D01*
X463184Y409560D01*
Y410228D01*
X463852D01*
X464504Y410498D01*
X464734Y410729D01*
X465299Y410673D01*
X465797Y410174D01*
X466448Y409904D01*
X467153D01*
X467460Y410032D01*
X467961Y409698D01*
Y391428D01*
X467961Y391428D01*
X468045Y391002D01*
X468286Y390641D01*
X471728Y387199D01*
Y386648D01*
X471998Y385996D01*
X472496Y385498D01*
X473148Y385228D01*
X473852D01*
X474504Y385498D01*
X475002Y385996D01*
X475272Y386648D01*
Y387352D01*
X475002Y388004D01*
X474504Y388502D01*
X473852Y388772D01*
X473301D01*
X470184Y391888D01*
Y412252D01*
X470646Y412444D01*
X471011Y412079D01*
Y411165D01*
X471011Y411165D01*
X471095Y410739D01*
X471336Y410379D01*
X477685Y404030D01*
X477685Y404029D01*
X478046Y403788D01*
X478472Y403704D01*
X490606D01*
X490996Y403314D01*
X491648Y403044D01*
X492352D01*
X493004Y403314D01*
X493502Y403812D01*
X493772Y404463D01*
Y405168D01*
X493502Y405819D01*
X493004Y406318D01*
X492352Y406587D01*
X491985D01*
X490147Y408425D01*
Y415265D01*
X490315D01*
Y421344D01*
X490315Y421761D01*
X490394Y422228D01*
X490852Y422228D01*
X491504Y422498D01*
X492002Y422996D01*
X492272Y423648D01*
Y424199D01*
X492873Y424800D01*
X493296Y424517D01*
X493228Y424352D01*
Y423648D01*
X493498Y422996D01*
X493996Y422498D01*
X494648Y422228D01*
X494569Y421761D01*
X491693D01*
Y415265D01*
X495630D01*
Y415265D01*
X499888D01*
Y411461D01*
X497214Y408786D01*
X496973Y408426D01*
X496888Y408000D01*
X496888Y408000D01*
Y394394D01*
X496498Y394004D01*
X496228Y393352D01*
Y392648D01*
X496498Y391996D01*
X496996Y391498D01*
X497648Y391228D01*
X498352D01*
X499004Y391498D01*
X499502Y391996D01*
X499772Y392648D01*
Y393352D01*
X499502Y394004D01*
X499112Y394394D01*
Y407539D01*
X501786Y410214D01*
X502027Y410574D01*
X502037Y410624D01*
X502580Y410789D01*
X505969Y407400D01*
Y394475D01*
X505498Y394004D01*
X505228Y393352D01*
Y392648D01*
X505498Y391996D01*
X505996Y391498D01*
X506648Y391228D01*
X507352D01*
X508004Y391498D01*
X508502Y391996D01*
X508772Y392648D01*
Y393352D01*
X508502Y394004D01*
X508193Y394313D01*
Y406595D01*
X508693Y406802D01*
X508996Y406498D01*
X509648Y406228D01*
X510352D01*
X511004Y406498D01*
X511052Y406546D01*
X511432Y406330D01*
X511490Y406277D01*
Y405593D01*
X511760Y404942D01*
X512258Y404443D01*
X512909Y404174D01*
X513614D01*
X514265Y404443D01*
X514679Y404858D01*
X515076Y404763D01*
X515179Y404704D01*
Y394772D01*
X515148D01*
X514496Y394502D01*
X513998Y394004D01*
X513728Y393352D01*
Y392648D01*
X513998Y391996D01*
X514496Y391498D01*
X515148Y391228D01*
X515852D01*
X516291Y391410D01*
X516791Y391132D01*
Y388198D01*
Y384261D01*
X523287D01*
Y384429D01*
X527086D01*
X528500Y383015D01*
Y382463D01*
X528770Y381812D01*
X529268Y381314D01*
X529919Y381044D01*
X530624D01*
X531275Y381314D01*
X531774Y381812D01*
X532043Y382463D01*
Y383168D01*
X531774Y383819D01*
X531275Y384318D01*
X530624Y384587D01*
X530072D01*
X529621Y385039D01*
X529904Y385463D01*
X529919Y385457D01*
X530624D01*
X531275Y385726D01*
X531774Y386225D01*
X532043Y386876D01*
Y387581D01*
X531916Y387888D01*
X532250Y388388D01*
X536606D01*
X536996Y387998D01*
X537648Y387728D01*
X538352D01*
X539004Y387998D01*
X539502Y388496D01*
X539772Y389148D01*
Y389852D01*
X539502Y390504D01*
X539004Y391002D01*
X538352Y391272D01*
X537648D01*
X536996Y391002D01*
X536606Y390612D01*
X528516D01*
X528403Y390589D01*
X523287D01*
Y394694D01*
X523287D01*
Y398041D01*
X523287D01*
Y400177D01*
X535251D01*
X540228Y395199D01*
Y394648D01*
X540498Y393996D01*
X540996Y393498D01*
X541648Y393228D01*
X542352D01*
X543004Y393498D01*
X543502Y393996D01*
X543772Y394648D01*
Y395352D01*
X543502Y396004D01*
X543004Y396502D01*
X542352Y396772D01*
X541801D01*
X537924Y400649D01*
X538131Y401149D01*
X538707D01*
X538770Y400996D01*
X539268Y400498D01*
X539919Y400228D01*
X540624D01*
X541275Y400498D01*
X541774Y400996D01*
X542043Y401648D01*
Y402352D01*
X541774Y403004D01*
X541275Y403502D01*
X541020Y403608D01*
Y404149D01*
X541275Y404255D01*
X541774Y404753D01*
X542043Y405404D01*
Y406109D01*
X541980Y406261D01*
X542629Y406910D01*
X542629Y406910D01*
X542870Y407271D01*
X542955Y407697D01*
X542955Y407697D01*
Y409417D01*
X544812D01*
Y414583D01*
X538874D01*
Y409970D01*
X538577Y409772D01*
X537872D01*
X537221Y409502D01*
X536723Y409004D01*
X536453Y408352D01*
Y407801D01*
X534989Y406337D01*
X528611D01*
X528404Y406838D01*
X539952Y418385D01*
X544942D01*
Y425472D01*
X538249D01*
Y420088D01*
X526559Y408398D01*
X523287D01*
Y408474D01*
X517403D01*
Y409852D01*
X520121D01*
X520228Y409830D01*
X520228Y409830D01*
X523534D01*
X523573Y409738D01*
X524071Y409239D01*
X524722Y408969D01*
X525427D01*
X526078Y409239D01*
X526577Y409738D01*
X526846Y410389D01*
Y411094D01*
X526577Y411745D01*
X526433Y411888D01*
X526640Y412388D01*
X527500D01*
X527500Y412388D01*
X527925Y412473D01*
X528286Y412714D01*
X534801Y419228D01*
X535352D01*
X536004Y419498D01*
X536502Y419996D01*
X536772Y420648D01*
Y421352D01*
X536502Y422004D01*
X536004Y422502D01*
X535352Y422772D01*
X534648D01*
X533996Y422502D01*
X533498Y422004D01*
X533228Y421352D01*
Y420801D01*
X527039Y414612D01*
X524778D01*
X524617Y415112D01*
X525002Y415496D01*
X525272Y416148D01*
Y416852D01*
X525002Y417504D01*
X524873Y417633D01*
Y418300D01*
X532447Y425875D01*
X532999D01*
X533650Y426145D01*
X534148Y426643D01*
X534276Y426950D01*
X534405Y427027D01*
X534880Y427106D01*
X535080Y426973D01*
X535505Y426888D01*
X539106D01*
X539496Y426498D01*
X540148Y426228D01*
X540852D01*
X541504Y426498D01*
X542002Y426996D01*
X542272Y427648D01*
Y428352D01*
X542095Y428779D01*
X542090Y429019D01*
X542250Y429222D01*
X542328Y429291D01*
X542541Y429326D01*
X542766Y429326D01*
X545456D01*
X548006Y426776D01*
X548006Y426776D01*
X548367Y426535D01*
X548793Y426451D01*
X548793Y426451D01*
X553677D01*
X556417Y423711D01*
Y419345D01*
X561583D01*
Y425283D01*
X557990D01*
X554924Y428349D01*
X554563Y428590D01*
X554138Y428675D01*
X554138Y428675D01*
X549526D01*
X549413Y428826D01*
X549666Y429326D01*
X552737D01*
Y430872D01*
X554973D01*
X554998Y430812D01*
X555496Y430314D01*
X556148Y430044D01*
X556852D01*
X557504Y430314D01*
X558002Y430812D01*
X558272Y431463D01*
Y432168D01*
X558002Y432819D01*
X557504Y433318D01*
X556852Y433587D01*
X556148D01*
X555496Y433318D01*
X555275Y433096D01*
X552737D01*
Y434641D01*
X548013D01*
Y430568D01*
X547551Y430377D01*
X547029Y430899D01*
Y434641D01*
X544507D01*
Y435960D01*
X544422Y436385D01*
X544181Y436746D01*
X544181Y436746D01*
X523369Y457558D01*
X523009Y457799D01*
X522583Y457884D01*
X522583Y457884D01*
X493959D01*
X493959Y457884D01*
X493534Y457799D01*
X493173Y457558D01*
X493173Y457558D01*
X491842Y456227D01*
X491601Y455866D01*
X491516Y455441D01*
X491516Y455441D01*
Y452922D01*
X491054Y452731D01*
X488278Y455507D01*
X487918Y455748D01*
X487492Y455832D01*
X487492Y455832D01*
X480240D01*
X469272Y466801D01*
Y467352D01*
X469002Y468004D01*
X468504Y468502D01*
X467852Y468772D01*
D02*
G37*
G36*
X583892Y441232D02*
X583187D01*
X582536Y440963D01*
X582037Y440464D01*
X581768Y439813D01*
Y439108D01*
X582037Y438457D01*
X582536Y437959D01*
X583187Y437689D01*
X583892D01*
X584543Y437959D01*
X585041Y438457D01*
X585311Y439108D01*
Y439813D01*
X585041Y440464D01*
X584543Y440963D01*
X583892Y441232D01*
D02*
G37*
G36*
X633588Y450269D02*
X632231D01*
X630899Y450004D01*
X629646Y449484D01*
X628517Y448730D01*
X627557Y447770D01*
X626803Y446642D01*
X626284Y445388D01*
X626019Y444057D01*
Y442699D01*
X626284Y441368D01*
X626803Y440114D01*
X627557Y438985D01*
X628517Y438026D01*
X629646Y437272D01*
X630899Y436752D01*
X632231Y436487D01*
X633588D01*
X634919Y436752D01*
X636173Y437272D01*
X637302Y438026D01*
X638262Y438985D01*
X639016Y440114D01*
X639535Y441368D01*
X639800Y442699D01*
Y444057D01*
X639535Y445388D01*
X639016Y446642D01*
X638262Y447770D01*
X637302Y448730D01*
X636173Y449484D01*
X634919Y450004D01*
X633588Y450269D01*
D02*
G37*
G36*
X411789Y445211D02*
X410432D01*
X409101Y444946D01*
X407847Y444427D01*
X406718Y443673D01*
X405759Y442713D01*
X405005Y441585D01*
X404485Y440331D01*
X404220Y439000D01*
Y437643D01*
X404485Y436312D01*
X405005Y435058D01*
X405759Y433929D01*
X406718Y432970D01*
X407847Y432216D01*
X409101Y431696D01*
X410432Y431432D01*
X411789D01*
X413120Y431696D01*
X414374Y432216D01*
X415502Y432970D01*
X416462Y433929D01*
X417216Y435058D01*
X417735Y436312D01*
X418000Y437643D01*
Y439000D01*
X417735Y440331D01*
X417216Y441585D01*
X416462Y442713D01*
X415502Y443673D01*
X414374Y444427D01*
X413120Y444946D01*
X411789Y445211D01*
D02*
G37*
G36*
X600852Y419772D02*
X600148D01*
X599496Y419502D01*
X598998Y419004D01*
X598728Y418352D01*
Y417648D01*
X598998Y416996D01*
X599496Y416498D01*
X600095Y416250D01*
X600123Y416000D01*
X600095Y415750D01*
X599496Y415502D01*
X598998Y415004D01*
X598728Y414352D01*
Y413648D01*
X598998Y412996D01*
X599496Y412498D01*
X600148Y412228D01*
X600852D01*
X601504Y412498D01*
X602002Y412996D01*
X602272Y413648D01*
Y414352D01*
X602002Y415004D01*
X601504Y415502D01*
X600905Y415750D01*
X600877Y416000D01*
X600905Y416250D01*
X601504Y416498D01*
X602002Y416996D01*
X602272Y417648D01*
Y418352D01*
X602002Y419004D01*
X601504Y419502D01*
X600852Y419772D01*
D02*
G37*
G36*
X595852D02*
X595148D01*
X594496Y419502D01*
X593998Y419004D01*
X593728Y418352D01*
Y417648D01*
X593998Y416996D01*
X594496Y416498D01*
X595095Y416250D01*
X595123Y416000D01*
X595095Y415750D01*
X594496Y415502D01*
X593998Y415004D01*
X593728Y414352D01*
Y413648D01*
X593998Y412996D01*
X594496Y412498D01*
X595148Y412228D01*
X595852D01*
X596504Y412498D01*
X597002Y412996D01*
X597272Y413648D01*
Y414352D01*
X597002Y415004D01*
X596504Y415502D01*
X595905Y415750D01*
X595877Y416000D01*
X595905Y416250D01*
X596504Y416498D01*
X597002Y416996D01*
X597272Y417648D01*
Y418352D01*
X597002Y419004D01*
X596504Y419502D01*
X595852Y419772D01*
D02*
G37*
G36*
X590352D02*
X589648D01*
X588996Y419502D01*
X588498Y419004D01*
X588228Y418352D01*
Y417648D01*
X588498Y416996D01*
X588996Y416498D01*
X589595Y416250D01*
X589623Y416000D01*
X589595Y415750D01*
X588996Y415502D01*
X588498Y415004D01*
X588228Y414352D01*
Y413648D01*
X588498Y412996D01*
X588996Y412498D01*
X589648Y412228D01*
X590352D01*
X591004Y412498D01*
X591502Y412996D01*
X591772Y413648D01*
Y414352D01*
X591502Y415004D01*
X591004Y415502D01*
X590405Y415750D01*
X590377Y416000D01*
X590405Y416250D01*
X591004Y416498D01*
X591502Y416996D01*
X591772Y417648D01*
Y418352D01*
X591502Y419004D01*
X591004Y419502D01*
X590352Y419772D01*
D02*
G37*
G36*
X627759Y418884D02*
X626879D01*
X626029Y418656D01*
X625268Y418216D01*
X624646Y417594D01*
X624206Y416833D01*
X623978Y415983D01*
Y415103D01*
X624206Y414254D01*
X624646Y413492D01*
X625268Y412870D01*
X626029Y412430D01*
X626879Y412203D01*
X627759D01*
X628608Y412430D01*
X629370Y412870D01*
X629992Y413492D01*
X630432Y414254D01*
X630659Y415103D01*
Y415983D01*
X630432Y416833D01*
X629992Y417594D01*
X629370Y418216D01*
X628608Y418656D01*
X627759Y418884D01*
D02*
G37*
G36*
X425126Y418583D02*
X419188D01*
Y413417D01*
X420822D01*
Y412753D01*
X420432Y412363D01*
X420163Y411712D01*
Y411007D01*
X420432Y410356D01*
X420931Y409858D01*
X421582Y409588D01*
X422287D01*
X422938Y409858D01*
X423436Y410356D01*
X423706Y411007D01*
Y411712D01*
X423436Y412363D01*
X423046Y412753D01*
Y413417D01*
X425126D01*
Y418583D01*
D02*
G37*
G36*
X600852Y410772D02*
X600148D01*
X599496Y410502D01*
X598998Y410004D01*
X598728Y409352D01*
Y408648D01*
X598998Y407996D01*
X599496Y407498D01*
X600148Y407228D01*
X600852D01*
X601504Y407498D01*
X602002Y407996D01*
X602272Y408648D01*
Y409352D01*
X602002Y410004D01*
X601504Y410502D01*
X600852Y410772D01*
D02*
G37*
G36*
X595852D02*
X595148D01*
X594496Y410502D01*
X593998Y410004D01*
X593728Y409352D01*
Y408648D01*
X593998Y407996D01*
X594496Y407498D01*
X595148Y407228D01*
X595852D01*
X596504Y407498D01*
X597002Y407996D01*
X597272Y408648D01*
Y409352D01*
X597002Y410004D01*
X596504Y410502D01*
X595852Y410772D01*
D02*
G37*
G36*
X590352Y411293D02*
X589648D01*
X588996Y411024D01*
X588498Y410525D01*
X588228Y409874D01*
Y409169D01*
X588354Y408867D01*
X588020Y408367D01*
X587227D01*
X586704Y408263D01*
X586260Y407967D01*
X585514Y407220D01*
X585351D01*
X584881Y407690D01*
X584230Y407960D01*
X583525D01*
X582874Y407690D01*
X582376Y407192D01*
X582106Y406541D01*
Y405836D01*
X582376Y405185D01*
X582511Y405049D01*
X582496Y404502D01*
X581998Y404004D01*
X581728Y403352D01*
Y402648D01*
X581998Y401996D01*
X582496Y401498D01*
X583148Y401228D01*
X583852D01*
X584504Y401498D01*
X584992Y401987D01*
X587116D01*
X587639Y402091D01*
X588082Y402387D01*
X588829Y403133D01*
X588939D01*
X610042Y382030D01*
X610485Y381734D01*
X611009Y381630D01*
X616140D01*
X616218Y381552D01*
Y380792D01*
X616322Y380269D01*
X616618Y379826D01*
X620435Y376009D01*
X620878Y375713D01*
X621401Y375609D01*
X622171D01*
X624183Y373597D01*
X623978Y372833D01*
Y371954D01*
X624206Y371104D01*
X624646Y370342D01*
X625268Y369721D01*
X626029Y369281D01*
X626879Y369053D01*
X627759D01*
X628608Y369281D01*
X629370Y369721D01*
X629992Y370342D01*
X630432Y371104D01*
X630659Y371954D01*
Y372833D01*
X630432Y373683D01*
X629992Y374445D01*
X629370Y375067D01*
X628608Y375507D01*
X627759Y375734D01*
X626879D01*
X626116Y375530D01*
X623703Y377942D01*
X623260Y378239D01*
X622737Y378343D01*
X621968D01*
X618952Y381359D01*
Y382118D01*
X618847Y382641D01*
X618551Y383084D01*
X617693Y383943D01*
X617622Y384045D01*
Y384449D01*
X617693Y384551D01*
X618551Y385409D01*
X618847Y385852D01*
X618952Y386375D01*
Y388641D01*
X622885Y392575D01*
X624266D01*
X624646Y391917D01*
X625268Y391295D01*
X626029Y390856D01*
X626879Y390628D01*
X627759D01*
X628608Y390856D01*
X629370Y391295D01*
X629992Y391917D01*
X630432Y392679D01*
X630659Y393529D01*
Y394408D01*
X630432Y395258D01*
X629992Y396020D01*
X629370Y396642D01*
X628608Y397081D01*
X627759Y397309D01*
X626879D01*
X626029Y397081D01*
X625268Y396642D01*
X624646Y396020D01*
X624235Y395309D01*
X622319D01*
X621796Y395205D01*
X621352Y394908D01*
X616618Y390174D01*
X616322Y389731D01*
X616218Y389208D01*
Y386941D01*
X616140Y386863D01*
X612610D01*
X591507Y407967D01*
X591501Y407971D01*
X591452Y408468D01*
X591502Y408518D01*
X591772Y409169D01*
Y409874D01*
X591502Y410525D01*
X591004Y411024D01*
X590352Y411293D01*
D02*
G37*
G36*
X627759Y408097D02*
X626879D01*
X626029Y407869D01*
X625268Y407429D01*
X624646Y406807D01*
X624206Y406045D01*
X623978Y405196D01*
Y404316D01*
X624206Y403467D01*
X624646Y402705D01*
X625268Y402083D01*
X626029Y401643D01*
X626879Y401415D01*
X627759D01*
X628608Y401643D01*
X629370Y402083D01*
X629992Y402705D01*
X630432Y403467D01*
X630659Y404316D01*
Y405196D01*
X630432Y406045D01*
X629992Y406807D01*
X629370Y407429D01*
X628608Y407869D01*
X627759Y408097D01*
D02*
G37*
G36*
X638940Y402703D02*
X638060D01*
X637211Y402475D01*
X636449Y402035D01*
X635827Y401413D01*
X635387Y400652D01*
X635159Y399802D01*
Y398922D01*
X635387Y398073D01*
X635827Y397311D01*
X636449Y396689D01*
X637211Y396249D01*
X638060Y396022D01*
X638940D01*
X639789Y396249D01*
X640551Y396689D01*
X641173Y397311D01*
X641613Y398073D01*
X641841Y398922D01*
Y399802D01*
X641613Y400652D01*
X641173Y401413D01*
X640551Y402035D01*
X639789Y402475D01*
X638940Y402703D01*
D02*
G37*
G36*
Y391915D02*
X638060D01*
X637211Y391688D01*
X636449Y391248D01*
X635827Y390626D01*
X635387Y389864D01*
X635159Y389015D01*
Y388135D01*
X635387Y387285D01*
X635827Y386524D01*
X636449Y385902D01*
X637211Y385462D01*
X638060Y385234D01*
X638940D01*
X639789Y385462D01*
X640551Y385902D01*
X641173Y386524D01*
X641613Y387285D01*
X641841Y388135D01*
Y389015D01*
X641613Y389864D01*
X641173Y390626D01*
X640551Y391248D01*
X639789Y391688D01*
X638940Y391915D01*
D02*
G37*
G36*
X627759Y386522D02*
X626879D01*
X626029Y386294D01*
X625268Y385854D01*
X624646Y385232D01*
X624206Y384471D01*
X623978Y383621D01*
Y382741D01*
X624206Y381892D01*
X624646Y381130D01*
X625268Y380508D01*
X626029Y380068D01*
X626879Y379840D01*
X627759D01*
X628608Y380068D01*
X629370Y380508D01*
X629992Y381130D01*
X630432Y381892D01*
X630659Y382741D01*
Y383621D01*
X630432Y384471D01*
X629992Y385232D01*
X629370Y385854D01*
X628608Y386294D01*
X627759Y386522D01*
D02*
G37*
G36*
X638940Y381128D02*
X638060D01*
X637211Y380900D01*
X636449Y380461D01*
X635827Y379838D01*
X635387Y379077D01*
X635159Y378227D01*
Y377348D01*
X635387Y376498D01*
X635827Y375736D01*
X636449Y375114D01*
X637211Y374675D01*
X638060Y374447D01*
X638940D01*
X639789Y374675D01*
X640551Y375114D01*
X641173Y375736D01*
X641613Y376498D01*
X641841Y377348D01*
Y378227D01*
X641613Y379077D01*
X641173Y379838D01*
X640551Y380461D01*
X639789Y380900D01*
X638940Y381128D01*
D02*
G37*
G36*
Y370340D02*
X638060D01*
X637211Y370113D01*
X636449Y369673D01*
X635827Y369051D01*
X635387Y368289D01*
X635159Y367440D01*
Y366560D01*
X635387Y365711D01*
X635827Y364949D01*
X636449Y364327D01*
X637211Y363887D01*
X638060Y363660D01*
X638940D01*
X639789Y363887D01*
X640551Y364327D01*
X641173Y364949D01*
X641613Y365711D01*
X641841Y366560D01*
Y367440D01*
X641613Y368289D01*
X641173Y369051D01*
X640551Y369673D01*
X639789Y370113D01*
X638940Y370340D01*
D02*
G37*
G36*
X627759Y364947D02*
X626879D01*
X626029Y364719D01*
X625268Y364279D01*
X624646Y363657D01*
X624206Y362896D01*
X623978Y362046D01*
Y361167D01*
X624206Y360317D01*
X624646Y359555D01*
X625268Y358933D01*
X626029Y358493D01*
X626879Y358266D01*
X627759D01*
X628608Y358493D01*
X629370Y358933D01*
X629992Y359555D01*
X630432Y360317D01*
X630659Y361167D01*
Y362046D01*
X630432Y362896D01*
X629992Y363657D01*
X629370Y364279D01*
X628608Y364719D01*
X627759Y364947D01*
D02*
G37*
G36*
X638940Y359553D02*
X638060D01*
X637211Y359326D01*
X636449Y358886D01*
X635827Y358264D01*
X635387Y357502D01*
X635159Y356652D01*
Y355773D01*
X635387Y354923D01*
X635827Y354162D01*
X636449Y353539D01*
X637211Y353100D01*
X638060Y352872D01*
X638940D01*
X639789Y353100D01*
X640551Y353539D01*
X641173Y354162D01*
X641613Y354923D01*
X641841Y355773D01*
Y356652D01*
X641613Y357502D01*
X641173Y358264D01*
X640551Y358886D01*
X639789Y359326D01*
X638940Y359553D01*
D02*
G37*
G36*
X601352Y356272D02*
X600648D01*
X599996Y356002D01*
X599498Y355504D01*
X599228Y354852D01*
Y354148D01*
X599498Y353496D01*
X599996Y352998D01*
X600648Y352728D01*
X601352D01*
X602004Y352998D01*
X602502Y353496D01*
X602772Y354148D01*
Y354852D01*
X602502Y355504D01*
X602004Y356002D01*
X601352Y356272D01*
D02*
G37*
G36*
X627759Y354159D02*
X626879D01*
X626029Y353932D01*
X625268Y353492D01*
X624646Y352870D01*
X624206Y352108D01*
X623978Y351259D01*
Y350379D01*
X624206Y349530D01*
X624646Y348768D01*
X625268Y348146D01*
X626029Y347706D01*
X626879Y347478D01*
X627759D01*
X628608Y347706D01*
X629370Y348146D01*
X629992Y348768D01*
X630432Y349530D01*
X630659Y350379D01*
Y351259D01*
X630432Y352108D01*
X629992Y352870D01*
X629370Y353492D01*
X628608Y353932D01*
X627759Y354159D01*
D02*
G37*
G36*
X638940Y348766D02*
X638060D01*
X637211Y348538D01*
X636449Y348098D01*
X635827Y347476D01*
X635387Y346715D01*
X635159Y345865D01*
Y344985D01*
X635387Y344136D01*
X635827Y343374D01*
X636449Y342752D01*
X637211Y342312D01*
X638060Y342085D01*
X638940D01*
X639789Y342312D01*
X640551Y342752D01*
X641173Y343374D01*
X641613Y344136D01*
X641841Y344985D01*
Y345865D01*
X641613Y346715D01*
X641173Y347476D01*
X640551Y348098D01*
X639789Y348538D01*
X638940Y348766D01*
D02*
G37*
G36*
X627759Y343372D02*
X626879D01*
X626029Y343144D01*
X625268Y342705D01*
X624646Y342083D01*
X624206Y341321D01*
X623978Y340471D01*
Y339592D01*
X624206Y338742D01*
X624646Y337980D01*
X625268Y337358D01*
X626029Y336919D01*
X626879Y336691D01*
X627759D01*
X628608Y336919D01*
X629370Y337358D01*
X629992Y337980D01*
X630432Y338742D01*
X630659Y339592D01*
Y340471D01*
X630432Y341321D01*
X629992Y342083D01*
X629370Y342705D01*
X628608Y343144D01*
X627759Y343372D01*
D02*
G37*
G36*
X568101Y330802D02*
X567309D01*
X566577Y330499D01*
X566017Y329939D01*
X565714Y329207D01*
Y328415D01*
X566017Y327683D01*
X566577Y327123D01*
X567309Y326820D01*
X568101D01*
X568832Y327123D01*
X569392Y327683D01*
X569695Y328415D01*
Y329207D01*
X569392Y329939D01*
X568832Y330499D01*
X568101Y330802D01*
D02*
G37*
G36*
X594931Y326165D02*
X594069D01*
X593273Y325836D01*
X592664Y325227D01*
X592335Y324431D01*
Y323569D01*
X592664Y322773D01*
X593273Y322164D01*
X594069Y321835D01*
X594931D01*
X595727Y322164D01*
X596336Y322773D01*
X596665Y323569D01*
Y324431D01*
X596336Y325227D01*
X595727Y325836D01*
X594931Y326165D01*
D02*
G37*
G36*
X588931D02*
X588069D01*
X587273Y325836D01*
X586664Y325227D01*
X586335Y324431D01*
Y323569D01*
X586664Y322773D01*
X587273Y322164D01*
X588069Y321835D01*
X588931D01*
X589727Y322164D01*
X590336Y322773D01*
X590665Y323569D01*
Y324431D01*
X590336Y325227D01*
X589727Y325836D01*
X588931Y326165D01*
D02*
G37*
G36*
X570479Y343958D02*
X569774D01*
X569123Y343689D01*
X568625Y343190D01*
X568355Y342539D01*
Y341834D01*
X568625Y341183D01*
X569123Y340685D01*
X569774Y340415D01*
X570479D01*
X570503Y340425D01*
X577888Y333039D01*
Y310394D01*
X577498Y310004D01*
X577228Y309352D01*
Y308648D01*
X577498Y307996D01*
X577996Y307498D01*
X578648Y307228D01*
X579352D01*
X580004Y307498D01*
X580502Y307996D01*
X580772Y308648D01*
Y309352D01*
X580502Y310004D01*
X580112Y310394D01*
Y322800D01*
X580612Y322900D01*
X580664Y322773D01*
X581273Y322164D01*
X582069Y321835D01*
X582931D01*
X583727Y322164D01*
X584336Y322773D01*
X584665Y323569D01*
Y324431D01*
X584336Y325227D01*
X583727Y325836D01*
X582931Y326165D01*
X582069D01*
X581273Y325836D01*
X580664Y325227D01*
X580612Y325100D01*
X580112Y325200D01*
Y333500D01*
X580112Y333500D01*
X580027Y333926D01*
X579786Y334286D01*
X579786Y334286D01*
X571898Y342174D01*
Y342539D01*
X571629Y343190D01*
X571130Y343689D01*
X570479Y343958D01*
D02*
G37*
G36*
X411679Y320390D02*
X410321D01*
X408990Y320125D01*
X407736Y319606D01*
X406608Y318852D01*
X405648Y317892D01*
X404894Y316763D01*
X404375Y315510D01*
X404110Y314179D01*
Y312821D01*
X404375Y311490D01*
X404894Y310237D01*
X405648Y309108D01*
X406608Y308148D01*
X407736Y307394D01*
X408990Y306875D01*
X410321Y306610D01*
X411679D01*
X413010Y306875D01*
X414263Y307394D01*
X415392Y308148D01*
X416352Y309108D01*
X417106Y310237D01*
X417625Y311490D01*
X417890Y312821D01*
Y314179D01*
X417625Y315510D01*
X417106Y316763D01*
X416352Y317892D01*
X415392Y318852D01*
X414263Y319606D01*
X413010Y320125D01*
X411679Y320390D01*
D02*
G37*
G36*
X633588Y319087D02*
X632231D01*
X630899Y318823D01*
X629646Y318303D01*
X628517Y317549D01*
X627557Y316589D01*
X626803Y315461D01*
X626284Y314207D01*
X626019Y312876D01*
Y311518D01*
X626284Y310187D01*
X626803Y308933D01*
X627557Y307804D01*
X628517Y306845D01*
X629646Y306090D01*
X630899Y305571D01*
X632231Y305306D01*
X633588D01*
X634919Y305571D01*
X636173Y306090D01*
X637302Y306845D01*
X638262Y307804D01*
X639016Y308933D01*
X639535Y310187D01*
X639800Y311518D01*
Y312876D01*
X639535Y314207D01*
X639016Y315461D01*
X638262Y316589D01*
X637302Y317549D01*
X636173Y318303D01*
X634919Y318823D01*
X633588Y319087D01*
D02*
G37*
G36*
X473612Y307179D02*
X472821D01*
X472089Y306876D01*
X471529Y306316D01*
X471226Y305585D01*
Y304793D01*
X471529Y304061D01*
X472089Y303502D01*
X472821Y303198D01*
X473612D01*
X474344Y303502D01*
X474904Y304061D01*
X475207Y304793D01*
Y305585D01*
X474904Y306316D01*
X474344Y306876D01*
X473612Y307179D01*
D02*
G37*
G36*
X609278Y305346D02*
X608573D01*
X607922Y305076D01*
X607424Y304578D01*
X607154Y303927D01*
Y303222D01*
X607424Y302571D01*
X607922Y302072D01*
X608573Y301803D01*
X609278D01*
X609929Y302072D01*
X610428Y302571D01*
X610697Y303222D01*
Y303927D01*
X610428Y304578D01*
X609929Y305076D01*
X609278Y305346D01*
D02*
G37*
G36*
X434575Y299297D02*
X429260D01*
Y298112D01*
X427883D01*
X427836Y298227D01*
X427227Y298836D01*
X426431Y299165D01*
X425569D01*
X424773Y298836D01*
X424164Y298227D01*
X423835Y297431D01*
Y296569D01*
X424164Y295773D01*
X424773Y295164D01*
X425569Y294835D01*
X426431D01*
X427227Y295164D01*
X427836Y295773D01*
X427883Y295888D01*
X429260D01*
Y294572D01*
X434575D01*
Y299297D01*
D02*
G37*
G36*
X572124Y299919D02*
X571419D01*
X570768Y299650D01*
X570270Y299151D01*
X570207Y298999D01*
X569127D01*
X568702Y298914D01*
X568341Y298673D01*
X568341Y298673D01*
X560833Y291165D01*
X560069D01*
X559273Y290836D01*
X558664Y290227D01*
X558335Y289431D01*
Y288667D01*
X554955Y285287D01*
X550020D01*
X549711Y285226D01*
X549449Y285051D01*
X549274Y284789D01*
X549213Y284480D01*
Y282520D01*
X549274Y282211D01*
X549449Y281949D01*
X549711Y281774D01*
X550020Y281713D01*
X555721D01*
X556029Y281774D01*
X556291Y281949D01*
X556466Y282211D01*
X556527Y282520D01*
Y283715D01*
X559771Y286958D01*
X560069Y286835D01*
X560931D01*
X561727Y287164D01*
X562336Y287773D01*
X562665Y288569D01*
Y289431D01*
X562542Y289729D01*
X569588Y296775D01*
X570639D01*
X570768Y296646D01*
X571419Y296376D01*
X572124D01*
X572775Y296646D01*
X573274Y297144D01*
X573543Y297795D01*
Y298500D01*
X573274Y299151D01*
X572775Y299650D01*
X572124Y299919D01*
D02*
G37*
G36*
X576980Y295287D02*
X571279D01*
X570971Y295226D01*
X570709Y295051D01*
X570534Y294789D01*
X570473Y294480D01*
Y292520D01*
X570534Y292211D01*
X570709Y291949D01*
X570971Y291774D01*
X571279Y291713D01*
X576980D01*
X577289Y291774D01*
X577551Y291949D01*
X577726Y292211D01*
X577787Y292520D01*
Y294480D01*
X577726Y294789D01*
X577551Y295051D01*
X577289Y295226D01*
X576980Y295287D01*
D02*
G37*
G36*
X469972Y298583D02*
X469028D01*
X468117Y298339D01*
X467300Y297867D01*
X466633Y297200D01*
X466161Y296383D01*
X465917Y295472D01*
Y294528D01*
X466161Y293617D01*
X466633Y292800D01*
X467300Y292133D01*
X468117Y291662D01*
X469028Y291417D01*
X469972D01*
X470883Y291662D01*
X471700Y292133D01*
X472367Y292800D01*
X472838Y293617D01*
X473083Y294528D01*
Y295472D01*
X472838Y296383D01*
X472367Y297200D01*
X471700Y297867D01*
X470883Y298339D01*
X469972Y298583D01*
D02*
G37*
G36*
X459972D02*
X459028D01*
X458117Y298339D01*
X457300Y297867D01*
X456633Y297200D01*
X456161Y296383D01*
X455917Y295472D01*
Y294528D01*
X456161Y293617D01*
X456633Y292800D01*
X457300Y292133D01*
X458117Y291662D01*
X459028Y291417D01*
X459972D01*
X460883Y291662D01*
X461700Y292133D01*
X462367Y292800D01*
X462839Y293617D01*
X463083Y294528D01*
Y295472D01*
X462839Y296383D01*
X462367Y297200D01*
X461700Y297867D01*
X460883Y298339D01*
X459972Y298583D01*
D02*
G37*
G36*
X526762Y295369D02*
X525970D01*
X525239Y295065D01*
X524679Y294506D01*
X524376Y293774D01*
Y292982D01*
X524679Y292250D01*
X525239Y291690D01*
X525970Y291387D01*
X526762D01*
X527494Y291690D01*
X528054Y292250D01*
X528357Y292982D01*
Y293774D01*
X528054Y294506D01*
X527494Y295065D01*
X526762Y295369D01*
D02*
G37*
G36*
X491329D02*
X490537D01*
X489806Y295065D01*
X489246Y294506D01*
X488942Y293774D01*
Y292982D01*
X489246Y292250D01*
X489806Y291690D01*
X490537Y291387D01*
X491329D01*
X492061Y291690D01*
X492621Y292250D01*
X492924Y292982D01*
Y293774D01*
X492621Y294506D01*
X492061Y295065D01*
X491329Y295369D01*
D02*
G37*
G36*
X479518D02*
X478726D01*
X477994Y295065D01*
X477434Y294506D01*
X477132Y293774D01*
Y292982D01*
X477434Y292250D01*
X477994Y291690D01*
X478726Y291387D01*
X479518D01*
X480250Y291690D01*
X480810Y292250D01*
X481113Y292982D01*
Y293774D01*
X480810Y294506D01*
X480250Y295065D01*
X479518Y295369D01*
D02*
G37*
G36*
X526411Y289980D02*
X525589D01*
X524829Y289666D01*
X524248Y289084D01*
X523933Y288324D01*
Y287502D01*
X524248Y286743D01*
X524829Y286161D01*
X525589Y285846D01*
X526411D01*
X527171Y286161D01*
X527752Y286743D01*
X528067Y287502D01*
Y288324D01*
X527752Y289084D01*
X527171Y289666D01*
X526411Y289980D01*
D02*
G37*
G36*
X491411Y289980D02*
X490589D01*
X489829Y289666D01*
X489248Y289084D01*
X488933Y288324D01*
Y287502D01*
X489248Y286743D01*
X489829Y286161D01*
X490589Y285846D01*
X491411D01*
X492171Y286161D01*
X492752Y286743D01*
X493067Y287502D01*
Y288324D01*
X492752Y289084D01*
X492171Y289666D01*
X491411Y289980D01*
D02*
G37*
G36*
X539976Y288405D02*
X532693D01*
Y283287D01*
X539976D01*
Y284888D01*
X540654D01*
X540664Y284864D01*
X541273Y284255D01*
X542069Y283925D01*
X542931D01*
X543727Y284255D01*
X544336Y284864D01*
X544665Y285660D01*
Y286521D01*
X544336Y287317D01*
X543727Y287926D01*
X542931Y288256D01*
X542069D01*
X541273Y287926D01*
X540664Y287317D01*
X540579Y287112D01*
X539976D01*
Y288405D01*
D02*
G37*
G36*
X519307D02*
X512024D01*
Y283287D01*
X519307D01*
Y288405D01*
D02*
G37*
G36*
X484307Y288405D02*
X477024D01*
Y283287D01*
X484307D01*
Y288405D01*
D02*
G37*
G36*
X463083Y288583D02*
X455917D01*
Y281417D01*
X463083D01*
Y288583D01*
D02*
G37*
G36*
X576980Y280287D02*
X571279D01*
X570971Y280226D01*
X570709Y280051D01*
X570534Y279789D01*
X570473Y279480D01*
Y277520D01*
X570534Y277211D01*
X570709Y276949D01*
X570971Y276774D01*
X571279Y276713D01*
X576980D01*
X577289Y276774D01*
X577551Y276949D01*
X577726Y277211D01*
X577787Y277520D01*
Y279480D01*
X577726Y279789D01*
X577551Y280051D01*
X577289Y280226D01*
X576980Y280287D01*
D02*
G37*
G36*
X539976Y281713D02*
X532693D01*
Y276594D01*
X539976D01*
Y281713D01*
D02*
G37*
G36*
X504976Y281713D02*
X497693D01*
Y276594D01*
X504976D01*
Y281713D01*
D02*
G37*
G36*
X526411Y279153D02*
X525589D01*
X524829Y278839D01*
X524248Y278257D01*
X523933Y277498D01*
Y276676D01*
X524248Y275916D01*
X524829Y275334D01*
X525589Y275020D01*
X526411D01*
X527171Y275334D01*
X527752Y275916D01*
X528067Y276676D01*
Y277498D01*
X527752Y278257D01*
X527171Y278839D01*
X526411Y279153D01*
D02*
G37*
G36*
X491411D02*
X490589D01*
X489829Y278839D01*
X489248Y278257D01*
X488933Y277498D01*
Y276676D01*
X489248Y275916D01*
X489829Y275334D01*
X490589Y275020D01*
X491411D01*
X492171Y275334D01*
X492752Y275916D01*
X493067Y276676D01*
Y277498D01*
X492752Y278257D01*
X492171Y278839D01*
X491411Y279153D01*
D02*
G37*
%LPD*%
G36*
X519917Y455160D02*
X519468Y454974D01*
X518970Y454475D01*
X518700Y453824D01*
Y453120D01*
X518970Y452468D01*
X519360Y452078D01*
Y438890D01*
X519072Y438743D01*
X518860Y438713D01*
X505772Y451801D01*
Y452352D01*
X505502Y453004D01*
X505004Y453502D01*
X504352Y453772D01*
X503648D01*
X502996Y453502D01*
X502498Y453004D01*
X502228Y452352D01*
Y451648D01*
X502498Y450996D01*
X502996Y450498D01*
X503648Y450228D01*
X504199D01*
X517013Y437414D01*
Y434486D01*
X516513Y434459D01*
X496672Y454301D01*
Y454852D01*
X496544Y455160D01*
X496878Y455660D01*
X519818D01*
X519917Y455160D01*
D02*
G37*
G36*
X527863Y437450D02*
X521562Y437450D01*
Y446850D01*
X527863D01*
X527863Y437450D01*
D02*
G37*
G36*
X437663Y437450D02*
X431362D01*
X431362Y446850D01*
X437663D01*
Y437450D01*
D02*
G37*
G36*
X513102Y434725D02*
X512984Y434441D01*
X512985D01*
Y428559D01*
X517578D01*
X517907Y428059D01*
X517868Y427863D01*
X517868Y427863D01*
Y423000D01*
X517406Y422809D01*
X516701Y423515D01*
X516340Y423756D01*
X515914Y423840D01*
X515914Y423840D01*
X512053D01*
X511846Y424340D01*
X512002Y424496D01*
X512272Y425148D01*
Y425852D01*
X512002Y426504D01*
X511504Y427002D01*
X511437Y427030D01*
Y431400D01*
X511416Y431507D01*
Y434441D01*
X509441D01*
Y434441D01*
X509362D01*
Y436535D01*
X509362Y436535D01*
X509277Y436960D01*
X509036Y437321D01*
X509036Y437321D01*
X494019Y452338D01*
X494041Y452401D01*
X494548Y452728D01*
X495099D01*
X513102Y434725D01*
D02*
G37*
G36*
X451856Y437160D02*
X451728Y436852D01*
Y436148D01*
X451998Y435496D01*
X452496Y434998D01*
X453148Y434728D01*
X453354D01*
X453734Y434441D01*
Y428559D01*
X453977D01*
X453998Y428457D01*
X454239Y428096D01*
X456121Y426214D01*
X456121Y426214D01*
X456138Y426202D01*
X455987Y425702D01*
X454510D01*
X454085Y425618D01*
X453724Y425377D01*
X453724Y425377D01*
X451037Y422689D01*
X450796Y422329D01*
X450711Y421903D01*
X450250Y421761D01*
X449431D01*
X449352Y422228D01*
X450004Y422498D01*
X450502Y422996D01*
X450772Y423648D01*
Y424352D01*
X450502Y425004D01*
X450004Y425502D01*
X449352Y425772D01*
X448648D01*
X448049Y425524D01*
X445475Y428097D01*
X445666Y428559D01*
X452166D01*
Y434441D01*
X441885D01*
Y428559D01*
X442116D01*
X442148Y428400D01*
X442389Y428039D01*
X445388Y425040D01*
X445265Y424455D01*
X445095Y424341D01*
X445095Y424341D01*
X443163Y422408D01*
X442921Y422048D01*
X442865Y421761D01*
X442480D01*
Y415265D01*
X445039D01*
Y415265D01*
X446585D01*
Y410489D01*
X446585Y410489D01*
X446670Y410063D01*
X446674Y410056D01*
Y409718D01*
X446674Y409718D01*
X446759Y409292D01*
X447000Y408931D01*
X449513Y406418D01*
Y405866D01*
X449783Y405215D01*
X450281Y404717D01*
X450589Y404589D01*
X450706Y404000D01*
X446442Y399736D01*
X446201Y399375D01*
X446116Y398950D01*
X446116Y398950D01*
Y390571D01*
X445654Y390380D01*
X442828Y393206D01*
Y393583D01*
X442828Y393584D01*
Y412931D01*
X442744Y413356D01*
X442503Y413717D01*
X442503Y413717D01*
X440521Y415698D01*
Y433841D01*
X444340Y437660D01*
X451522D01*
X451856Y437160D01*
D02*
G37*
G36*
X496295Y377228D02*
X496498Y376738D01*
X496996Y376239D01*
X497648Y375970D01*
X498352D01*
X498427Y376001D01*
X503194Y371234D01*
X503007Y370713D01*
X502496Y370502D01*
X501998Y370004D01*
X501728Y369352D01*
Y368648D01*
X501884Y368272D01*
X501654Y367785D01*
X501599Y367752D01*
X500996Y367502D01*
X500498Y367004D01*
X500228Y366352D01*
Y365648D01*
X499999Y365304D01*
X499667D01*
X499016Y365034D01*
X498517Y364535D01*
X498247Y363884D01*
Y363180D01*
X498362Y362903D01*
X498148Y362403D01*
X497496Y362133D01*
X496998Y361635D01*
X496728Y360984D01*
Y360279D01*
X496388Y359793D01*
X496148D01*
X495496Y359524D01*
X494998Y359025D01*
X494728Y358374D01*
Y357669D01*
X494998Y357018D01*
X495388Y356628D01*
Y355250D01*
X495388Y355250D01*
X495473Y354824D01*
X495714Y354464D01*
X495797Y354380D01*
Y349915D01*
X495297Y349708D01*
X495004Y350002D01*
X494352Y350272D01*
X493648D01*
X492996Y350002D01*
X492498Y349504D01*
X492228Y348852D01*
Y348301D01*
X484312Y340385D01*
X484071Y340024D01*
X483987Y339598D01*
X483987Y339598D01*
Y338100D01*
X483819D01*
Y338100D01*
X480305D01*
Y367412D01*
X480805Y367660D01*
X481295Y367457D01*
X482000D01*
X482651Y367726D01*
X483041Y368116D01*
X486016D01*
X486016Y368116D01*
X486441Y368201D01*
X486802Y368442D01*
X495766Y377407D01*
X496295Y377228D01*
D02*
G37*
G36*
X580000Y367805D02*
X579500Y367706D01*
X579288Y368217D01*
X578790Y368716D01*
X578139Y368985D01*
X577434D01*
X576783Y368716D01*
X576284Y368217D01*
X576015Y367566D01*
Y366861D01*
X576284Y366210D01*
X576783Y365712D01*
X577434Y365442D01*
X578139D01*
X578790Y365712D01*
X579288Y366210D01*
X579500Y366722D01*
X580000Y366622D01*
Y361000D01*
X560920D01*
Y361004D01*
X555605D01*
Y361000D01*
X551652D01*
Y361140D01*
X546337D01*
Y361000D01*
X534573D01*
X534000Y361573D01*
Y378500D01*
X580000D01*
Y367805D01*
D02*
G37*
G36*
X546337Y356416D02*
X549640D01*
Y351146D01*
X549498Y351004D01*
X549228Y350352D01*
Y349648D01*
X549498Y348996D01*
X549640Y348854D01*
Y346291D01*
X549178Y346100D01*
X546767Y348511D01*
X546864Y349002D01*
X547028Y349070D01*
X547527Y349568D01*
X547797Y350219D01*
Y350924D01*
X547527Y351575D01*
X547028Y352074D01*
X546377Y352343D01*
X545673D01*
X545021Y352074D01*
X544631Y351684D01*
X543800D01*
X540324Y355160D01*
X539963Y355401D01*
X539538Y355486D01*
X539538Y355486D01*
X537529D01*
Y357583D01*
X537529Y357583D01*
X537444Y358008D01*
X537203Y358369D01*
X537203Y358369D01*
X535837Y359735D01*
X536029Y360197D01*
X546337D01*
Y356416D01*
D02*
G37*
G36*
X555605Y356280D02*
X557151D01*
Y353066D01*
X556996Y353002D01*
X556498Y352504D01*
X556228Y351852D01*
Y351148D01*
X556498Y350496D01*
X556996Y349998D01*
X557151Y349934D01*
Y344414D01*
X555969D01*
Y341658D01*
X558924D01*
X559013Y341569D01*
X559374Y341328D01*
X559799Y341244D01*
X562684D01*
X563960Y339968D01*
X563830Y339650D01*
X563715Y339506D01*
X563066D01*
X562415Y339236D01*
X562209Y339030D01*
X560496D01*
Y339296D01*
X555969D01*
Y338931D01*
X555507Y338739D01*
X553269Y340976D01*
X553016Y341146D01*
Y344414D01*
X551864D01*
Y348440D01*
X552004Y348498D01*
X552502Y348996D01*
X552772Y349648D01*
Y350352D01*
X552502Y351004D01*
X552004Y351502D01*
X551864Y351560D01*
Y357316D01*
X551864Y357316D01*
X551779Y357742D01*
X551652Y357932D01*
Y360197D01*
X555605D01*
Y356280D01*
D02*
G37*
G36*
X535611Y351997D02*
X535611Y351997D01*
X535972Y351756D01*
X536397Y351671D01*
X536397Y351671D01*
X538418D01*
X541664Y348426D01*
X541427Y348189D01*
X541186Y347829D01*
X541102Y347403D01*
X541102Y347403D01*
Y345299D01*
X540789Y344986D01*
X540548Y344625D01*
X540463Y344200D01*
X540463Y344200D01*
Y339359D01*
X540463Y339359D01*
X540548Y338934D01*
X540789Y338573D01*
X541427Y337934D01*
X541427Y337934D01*
X541788Y337693D01*
X542075Y337636D01*
Y336661D01*
X546602D01*
Y338363D01*
X546805Y338488D01*
X547102Y338552D01*
X548235Y337420D01*
X548488Y337250D01*
Y336540D01*
X553016D01*
Y337432D01*
X553478Y337623D01*
X554357Y336744D01*
Y335862D01*
X553998Y335504D01*
X553728Y334852D01*
Y334148D01*
X553998Y333496D01*
X554154Y333340D01*
X553947Y332840D01*
X545408D01*
X542891Y335357D01*
X542530Y335598D01*
X542105Y335683D01*
X542105Y335683D01*
X542015D01*
X541027Y336671D01*
X541011Y336748D01*
X540770Y337109D01*
X540770Y337109D01*
X539341Y338538D01*
X538981Y338779D01*
X538925Y338790D01*
Y339220D01*
X535970D01*
X535684Y339507D01*
X535323Y339748D01*
X535022Y339808D01*
X534384Y340446D01*
Y341285D01*
X534398Y341779D01*
X534884Y341779D01*
X538925D01*
Y344339D01*
X537773D01*
Y346197D01*
X538143Y346350D01*
X538641Y346849D01*
X538911Y347500D01*
Y348204D01*
X538641Y348856D01*
X538143Y349354D01*
X537492Y349624D01*
X536787D01*
X536136Y349354D01*
X535638Y348856D01*
X535368Y348204D01*
Y347500D01*
X535549Y347061D01*
Y344692D01*
X535196Y344339D01*
X534398Y344339D01*
X534384Y344833D01*
Y348441D01*
X534348Y348620D01*
Y352607D01*
X534810Y352798D01*
X535611Y351997D01*
D02*
G37*
G36*
X520000Y304000D02*
X503961D01*
Y305106D01*
X499039D01*
Y304000D01*
X498500D01*
Y323500D01*
X507130D01*
X507228Y323352D01*
Y322648D01*
X507498Y321996D01*
X507996Y321498D01*
X508648Y321228D01*
X509352D01*
X510004Y321498D01*
X510502Y321996D01*
X510772Y322648D01*
Y323352D01*
X510870Y323500D01*
X520000D01*
Y304000D01*
D02*
G37*
G36*
X463000Y302500D02*
X445000D01*
Y305075D01*
X445155D01*
Y312161D01*
X445000D01*
Y322000D01*
X463000D01*
Y302500D01*
D02*
G37*
G36*
X551000Y298785D02*
X550910Y298767D01*
X550549Y298526D01*
X546523Y294500D01*
X543212D01*
X543165Y294569D01*
Y295431D01*
X542836Y296227D01*
X542227Y296836D01*
X541431Y297165D01*
X540569D01*
X539773Y296836D01*
X539164Y296227D01*
X538835Y295431D01*
Y294569D01*
X538788Y294500D01*
X538000D01*
Y296843D01*
X538154D01*
Y302157D01*
X538000D01*
Y313500D01*
X551000D01*
Y298785D01*
D02*
G37*
D15*
X421934Y411360D02*
Y415777D01*
X422157Y416000D01*
X426831Y426169D02*
X431564Y421436D01*
X422124Y426169D02*
X426831D01*
X398500Y401500D02*
X403897Y406897D01*
X420684D01*
X501335Y302941D02*
X501500Y302776D01*
Y286012D02*
Y302776D01*
X501335Y285846D02*
X501500Y286012D01*
X546500Y281086D02*
Y292904D01*
Y281086D02*
X548905Y278681D01*
X546500Y292904D02*
X551336Y297740D01*
X536335Y285846D02*
X536488Y286000D01*
X542000D01*
X467500Y467000D02*
X479779Y454720D01*
X487492D01*
X499772Y442441D01*
Y440484D02*
Y442441D01*
X498228Y438941D02*
X499772Y440484D01*
X498228Y436256D02*
Y438941D01*
Y436256D02*
X498375Y436110D01*
Y431500D02*
Y436110D01*
X493000Y442000D02*
X494425Y440575D01*
Y431500D02*
Y440575D01*
X426000Y297000D02*
X431852D01*
X431918Y296935D01*
X423029Y342009D02*
X428311Y336727D01*
X423029Y342009D02*
Y354220D01*
X428311Y321955D02*
X432124Y318143D01*
X428311Y321955D02*
Y336727D01*
X432124Y317757D02*
Y318143D01*
X429041Y314674D02*
X432124Y317757D01*
X429041Y308999D02*
Y314674D01*
Y308999D02*
X430351Y307688D01*
Y303915D02*
Y307688D01*
Y303915D02*
X431622Y302643D01*
X431918D01*
X443760Y418513D02*
X443760Y418513D01*
X445728D01*
X571511Y297887D02*
X571772Y298148D01*
X569127Y297887D02*
X571511D01*
X554740Y283500D02*
X569127Y297887D01*
X531395Y339613D02*
X533488Y337520D01*
X523710Y347950D02*
X531395Y340266D01*
X534898Y338720D02*
X535677Y337941D01*
X531395Y339613D02*
Y340266D01*
X534537Y338720D02*
X534898D01*
X535677Y337941D02*
X536661D01*
X536850Y337752D01*
X533488Y337210D02*
Y337520D01*
X533272Y339985D02*
X534537Y338720D01*
X533272Y339985D02*
Y348441D01*
X533236Y348477D02*
X533272Y348441D01*
X533236Y348477D02*
Y355764D01*
X531018Y357981D02*
X533236Y355764D01*
X526424Y352076D02*
X531000Y347500D01*
X524765Y350108D02*
X527936Y346936D01*
X520039Y350108D02*
X524765D01*
X529804Y338936D02*
Y339607D01*
X522008Y342233D02*
X527354Y336887D01*
Y334979D02*
Y336887D01*
X523787Y342703D02*
X528945Y337546D01*
Y335638D02*
Y337546D01*
X523787Y342703D02*
Y343374D01*
X529804Y338936D02*
X530535Y338205D01*
Y337628D02*
Y338205D01*
X523148Y344013D02*
X523787Y343374D01*
X523429Y345982D02*
X529804Y339607D01*
X498878Y348588D02*
Y360254D01*
X498500Y360631D02*
X498878Y360254D01*
X496500Y355250D02*
X496909Y354840D01*
X496500Y355250D02*
Y358022D01*
X496909Y334852D02*
Y354840D01*
X475645Y411812D02*
X478812D01*
X481161Y414161D01*
X474394Y412106D02*
X474655Y411845D01*
X475613D01*
X475645Y411812D01*
X476218Y414084D02*
X476586D01*
X475537Y414765D02*
X476218Y414084D01*
X472147Y414765D02*
X475537D01*
X469072Y391428D02*
X473500Y387000D01*
X465413Y413432D02*
Y418513D01*
X468327Y414086D02*
X469072Y413341D01*
X465413Y413432D02*
X466801Y412045D01*
X469072Y391428D02*
Y413341D01*
X466801Y411676D02*
Y412045D01*
X481161Y414161D02*
Y418513D01*
X471508Y415404D02*
X472147Y414765D01*
X471508Y415404D02*
Y418324D01*
X471319Y418513D02*
X471508Y418324D01*
X478472Y404816D02*
X492000D01*
X467571Y415103D02*
X468327Y414347D01*
X472123Y411165D02*
Y412540D01*
X469539Y415384D02*
Y418324D01*
X468327Y414086D02*
Y414347D01*
X472123Y411165D02*
X478472Y404816D01*
X469917Y414745D02*
X472123Y412540D01*
X469539Y415384D02*
X469917Y415006D01*
Y414745D02*
Y415006D01*
X441716Y392745D02*
X448106Y386356D01*
X441716Y392745D02*
Y393584D01*
X439409Y415238D02*
X441716Y412931D01*
Y393584D02*
Y412931D01*
X440126Y392087D02*
X446516Y385697D01*
X440126Y394242D02*
X440126Y394243D01*
X440126Y392087D02*
Y394242D01*
X441716Y393584D02*
X441716Y393584D01*
X437819Y414579D02*
X440126Y412272D01*
Y394243D02*
Y412272D01*
X463500Y370612D02*
X463761Y370351D01*
Y369608D02*
X469364Y364004D01*
X463761Y369608D02*
Y370351D01*
X469364Y363636D02*
Y364004D01*
X471500Y359000D02*
Y362559D01*
X471636Y362695D01*
Y364577D01*
X459504Y377820D02*
X471500Y365825D01*
Y364713D02*
Y365825D01*
Y364713D02*
X471636Y364577D01*
X448106Y381681D02*
X469228Y360559D01*
X465346Y358611D02*
Y358980D01*
X469228Y356766D02*
Y360559D01*
X448106Y381681D02*
Y386356D01*
X446516Y381022D02*
X467638Y359900D01*
X464120Y357120D02*
Y357386D01*
X463013Y356013D02*
X464120Y357120D01*
X446516Y381022D02*
Y385697D01*
X464120Y357386D02*
X465346Y358611D01*
X467638Y357425D02*
Y359900D01*
X447228Y389483D02*
X458891Y377820D01*
X459504D01*
X447228Y389483D02*
Y398950D01*
X456000Y391500D02*
X477224Y370276D01*
X473483Y355210D02*
X473772Y355499D01*
X453000Y391000D02*
X475362Y368638D01*
Y352877D02*
Y368638D01*
X473772Y355499D02*
Y366152D01*
X477224Y334852D02*
Y370276D01*
X475256Y352770D02*
X475362Y352877D01*
X449712Y390212D02*
X473772Y366152D01*
X451634Y339172D02*
X469228Y356766D01*
X458222Y348010D02*
X467638Y357425D01*
X475256Y334852D02*
Y352770D01*
X473483Y344557D02*
Y355210D01*
X436378Y356013D02*
X463013D01*
X498259Y377741D02*
X505862Y370138D01*
X498000Y377741D02*
X498259D01*
X486016Y369228D02*
X496800Y380013D01*
X507641D01*
X468500Y386500D02*
X473138Y381862D01*
X499600D01*
X481648Y369228D02*
X486016D01*
X507641Y380013D02*
X513925Y373730D01*
X520039D01*
X499858Y381604D02*
X520039D01*
X499600Y381862D02*
X499858Y381604D01*
X535505Y428000D02*
X540500D01*
X533532Y429973D02*
X535505Y428000D01*
X544666Y431689D02*
X548793Y427563D01*
X554138D01*
X510225Y431500D02*
X510325Y431400D01*
Y425675D02*
X510500Y425500D01*
X510325Y425675D02*
Y431400D01*
X507000Y425869D02*
X508250Y427119D01*
X507000Y425500D02*
Y425869D01*
X508250Y427119D02*
Y436535D01*
X502325Y427044D02*
Y431500D01*
Y427044D02*
X504000Y425369D01*
Y425000D02*
Y425369D01*
X552870Y283500D02*
X554740D01*
X579000Y309000D02*
Y333500D01*
X564509Y299689D02*
Y306355D01*
X535449Y333000D02*
X539022Y329427D01*
X537364Y335549D02*
X539285Y333629D01*
X535148Y335549D02*
X537364D01*
X533488Y337210D02*
X535148Y335549D01*
X541437Y329427D02*
X564509Y306355D01*
X539022Y329427D02*
X541437D01*
X531582Y333000D02*
X535449D01*
X546839Y336161D02*
X548500Y334500D01*
X542214Y336161D02*
X546839D01*
X541575Y336800D02*
X542214Y336161D01*
X541575Y336800D02*
Y336982D01*
X538836Y339721D02*
X541575Y336982D01*
X538425Y339721D02*
X538836D01*
X537646Y340500D02*
X538425Y339721D01*
X536661Y340500D02*
X537646D01*
X542105Y334571D02*
X544947Y331728D01*
X539984Y336141D02*
Y336323D01*
Y336141D02*
X541555Y334571D01*
X542105D01*
X536850Y337752D02*
X538555D01*
X539984Y336323D01*
X508228Y413020D02*
X510000Y411248D01*
X508228Y413020D02*
Y414941D01*
X510000Y411000D02*
Y411248D01*
X508355Y409276D02*
X509631Y408000D01*
X507914Y409276D02*
X508355D01*
X506584Y410607D02*
X507914Y409276D01*
X512829Y409127D02*
X513262Y408694D01*
Y405945D02*
Y408694D01*
X512829Y409127D02*
Y418342D01*
X506584Y412113D02*
X506638Y412167D01*
X509631Y408000D02*
X510000D01*
X506638Y412167D02*
Y418399D01*
X503004Y411937D02*
Y418324D01*
Y411937D02*
X507081Y407860D01*
Y393081D02*
Y407860D01*
X506584Y410607D02*
Y412113D01*
X508228Y414941D02*
X508532Y415244D01*
Y418324D01*
X508720Y418513D01*
X506638Y418399D02*
X506752Y418513D01*
X510500Y414000D02*
X510595Y414094D01*
Y418419D01*
X512657Y418513D02*
X512829Y418342D01*
X510595Y418419D02*
X510689Y418513D01*
X507000Y393000D02*
X507081Y393081D01*
X523269Y421017D02*
Y421482D01*
X521252Y419000D02*
X523269Y421017D01*
X515914Y422728D02*
X517390Y421253D01*
X518907Y416864D02*
X518980Y416937D01*
Y427863D01*
X520472Y429355D01*
X516291Y417461D02*
X517390Y418559D01*
Y421253D01*
X516291Y394160D02*
Y417461D01*
X523269Y421482D02*
X531760Y429973D01*
X515500Y393369D02*
X516291Y394160D01*
X515500Y393000D02*
Y393369D01*
X499559Y422728D02*
X515914D01*
X498438Y427063D02*
X500500Y425000D01*
X496016Y426272D02*
X499559Y422728D01*
X498438Y427063D02*
Y431437D01*
X498375Y431500D02*
X498438Y431437D01*
X531760Y429973D02*
X533532D01*
X554138Y427563D02*
X559000Y422700D01*
X523761Y418761D02*
X532647Y427646D01*
X523500Y416500D02*
X523761Y416761D01*
Y418761D01*
X527500Y413500D02*
X535000Y421000D01*
X535711Y401289D02*
X542000Y395000D01*
X520039Y401289D02*
X535711D01*
X536661Y343059D02*
Y347661D01*
X537000Y348000D01*
X512657Y332883D02*
X517541Y328000D01*
X534191Y319809D02*
X534387D01*
X515000Y325500D02*
X528580D01*
X517541Y328000D02*
X518500D01*
X453791Y328252D02*
X454043Y328000D01*
X444669Y324059D02*
X463186D01*
X453791Y328252D02*
Y334663D01*
X453602Y334852D02*
X453791Y334663D01*
X442500Y326228D02*
X444669Y324059D01*
X491500Y327369D02*
X492972Y328841D01*
X491500Y327000D02*
Y327369D01*
X492972Y328841D02*
Y334852D01*
X494941Y326317D02*
Y334852D01*
X492772Y324148D02*
X494941Y326317D01*
X490500Y282426D02*
Y282500D01*
X484168Y276095D02*
X490500Y282426D01*
X455998Y279000D02*
X474257D01*
X477162Y276095D02*
X484168D01*
X474257Y279000D02*
X477162Y276095D01*
X449903Y285094D02*
X455998Y279000D01*
X449903Y285094D02*
Y285390D01*
X436378Y340122D02*
Y342233D01*
Y340122D02*
X436500Y340000D01*
Y306676D02*
Y340000D01*
Y306676D02*
X444785Y298390D01*
Y292355D02*
Y298390D01*
Y285390D02*
Y292355D01*
X530500Y363500D02*
X536417Y357583D01*
Y355013D02*
Y357583D01*
Y355013D02*
X537056Y354374D01*
X539538D01*
X543340Y350572D01*
X546025D01*
X536397Y352783D02*
X538879D01*
X534827Y354354D02*
X536397Y352783D01*
X531712Y359950D02*
X534827Y356836D01*
X538879Y352783D02*
X543236Y348426D01*
X534827Y354354D02*
Y356836D01*
X520039Y359950D02*
X531712D01*
X530275Y355144D02*
X530644D01*
X520039Y356013D02*
X529406D01*
X520039Y357981D02*
X531018D01*
X529406Y356013D02*
X530275Y355144D01*
X529591Y352275D02*
X529945D01*
X527872Y353993D02*
X529591Y352275D01*
X520090Y353993D02*
X527872D01*
X570500Y342000D02*
X579000Y333500D01*
X563145Y342355D02*
X566000Y339500D01*
X562228Y331728D02*
X566000Y335500D01*
Y339500D01*
X558232Y337918D02*
X563418D01*
X512394Y362394D02*
X515856Y365856D01*
X509772Y364913D02*
Y365272D01*
X512324Y367824D01*
X530535Y337628D02*
X531216Y336947D01*
X520039Y342233D02*
X522008D01*
X527354Y334979D02*
X531061Y331272D01*
X528945Y335638D02*
X531582Y333000D01*
X531216Y336579D02*
Y336947D01*
X531061Y331272D02*
X532554D01*
X540090Y323736D01*
X520228Y345982D02*
X523429D01*
X520228Y344013D02*
X523148D01*
X544947Y331728D02*
X562228D01*
X560311Y297740D02*
X562919Y300347D01*
X558262Y343067D02*
Y351500D01*
X540090Y323736D02*
X544879D01*
X558262Y351500D02*
Y358642D01*
X562919Y300347D02*
Y305696D01*
X544879Y323736D02*
X562919Y305696D01*
X520228Y347950D02*
X523710D01*
X520039Y348139D02*
X520228Y347950D01*
X520039Y346170D02*
X520228Y345982D01*
X558320Y293500D02*
X564509Y299689D01*
X520039Y344202D02*
X520228Y344013D01*
X524873Y410942D02*
X525074Y410741D01*
X520228Y410942D02*
X524873D01*
X520039Y411131D02*
X520228Y410942D01*
X521592Y413500D02*
X527500D01*
X521500Y413592D02*
X521592Y413500D01*
X443855Y338224D02*
X453641Y348010D01*
X458222D01*
X443760Y334852D02*
X443855Y334947D01*
Y338224D01*
X535450Y405226D02*
X538224Y408000D01*
X520039Y405226D02*
X535450D01*
X540272Y406125D02*
X541843Y407697D01*
X536634Y403257D02*
X537630Y402261D01*
X541843Y407697D02*
Y412000D01*
X540011Y402261D02*
X540272Y402000D01*
Y405757D02*
Y406125D01*
X537630Y402261D02*
X540011D01*
X520039Y403257D02*
X536634D01*
X550375Y431984D02*
X556484D01*
X556500Y432000D01*
X552689Y278681D02*
X552870Y278500D01*
X548905Y278681D02*
X552689D01*
X551336Y297740D02*
X560311D01*
X552870Y293500D02*
X558320D01*
X527733Y387233D02*
X530267D01*
X527457Y387509D02*
X527733Y387233D01*
X520039Y387509D02*
X527457D01*
X528516Y389500D02*
X538000D01*
X528493Y389478D02*
X528516Y389500D01*
X520039Y389478D02*
X528493D01*
X527547Y385541D02*
X530272Y382816D01*
X520039Y385541D02*
X527547D01*
X393500Y367500D02*
X401995Y375995D01*
X419065D01*
X440500Y383572D02*
X441105Y382967D01*
X443876Y383228D02*
X444244D01*
X436378Y385541D02*
X436529Y385390D01*
X441895D02*
X442046Y385239D01*
X436529Y385390D02*
X441895D01*
X443614Y382967D02*
X443876Y383228D01*
X441105Y382967D02*
X443614D01*
X436378Y383572D02*
X440500D01*
X396500Y387000D02*
X401403Y382097D01*
X404862D01*
X407118Y379841D01*
X407120Y379843D01*
X417000D01*
X472439Y323918D02*
Y328816D01*
Y323918D02*
X473843Y322513D01*
Y319500D02*
Y322513D01*
X526453Y299500D02*
X535791D01*
X544339Y343059D02*
X544496Y343217D01*
Y345996D01*
X550752Y350000D02*
Y357316D01*
X549579Y343324D02*
Y344127D01*
X545280Y348426D02*
X549579Y344127D01*
X549866Y343037D02*
X550669D01*
X550752D02*
Y350000D01*
X549579Y343324D02*
X549866Y343037D01*
X543236Y348426D02*
X545280D01*
X542214Y347403D02*
X543236Y348426D01*
X544339Y340500D02*
X547000D01*
X549021Y338206D02*
X550465D01*
X547000Y340500D02*
X547814Y339686D01*
Y339413D02*
X549021Y338206D01*
X547814Y339413D02*
Y339686D01*
X559799Y342355D02*
X563145D01*
X558232Y343037D02*
X559118D01*
X559799Y342355D01*
X555469Y334531D02*
X555500Y334500D01*
X555469Y334531D02*
Y337205D01*
X552483Y340190D02*
X555469Y337205D01*
X469350Y418513D02*
X469539Y418324D01*
X520039Y363887D02*
X527113D01*
X512657Y332883D02*
Y334852D01*
X472500Y329000D02*
X473287Y329787D01*
Y334852D01*
X447697Y338697D02*
X449500Y340500D01*
X447697Y334852D02*
Y338697D01*
X426500Y350816D02*
X426869D01*
X427577Y350108D01*
X436378D01*
X426500Y351000D02*
X429544Y354045D01*
X436378D01*
Y348139D02*
Y350108D01*
Y379635D02*
X442365D01*
X431000Y396500D02*
X432630Y398130D01*
Y400461D01*
X433269Y401100D01*
X436189D01*
X436378Y401289D01*
X431564Y403754D02*
Y421436D01*
X430361Y400573D02*
X430622Y400834D01*
Y402812D02*
X431564Y403754D01*
X430622Y400834D02*
Y402812D01*
X489035Y407965D02*
X492000Y405000D01*
X489035Y407965D02*
Y418513D01*
X448000Y424000D02*
X449000D01*
X448631D02*
X449000D01*
X448186Y423555D02*
X448631Y424000D01*
X445882Y423555D02*
X448186D01*
X443175Y428825D02*
X448000Y424000D01*
X443949Y421622D02*
X445882Y423555D01*
X443175Y428825D02*
Y431400D01*
X443949Y418702D02*
Y421622D01*
X443760Y418513D02*
X443949Y418702D01*
X443075Y431500D02*
X443175Y431400D01*
X492628Y452156D02*
X508250Y436535D01*
X492628Y452156D02*
Y455441D01*
X493959Y456772D01*
X522583D01*
X543395Y435960D01*
Y433255D02*
Y435960D01*
Y433255D02*
X544666Y431984D01*
X500425Y431575D02*
Y437925D01*
X500500Y438000D01*
X500350Y431500D02*
X500425Y431575D01*
X559000Y422314D02*
Y422700D01*
X534191Y319693D02*
Y319889D01*
X528580Y325500D02*
X534191Y319889D01*
X520472Y429355D02*
Y453472D01*
X504000Y452000D02*
X518125Y437875D01*
Y431500D02*
Y437875D01*
X494900Y454500D02*
X516150Y433250D01*
Y431500D02*
Y433250D01*
X514175Y431500D02*
X516150D01*
X475341Y326111D02*
X480334Y331104D01*
X475341Y324228D02*
Y326111D01*
X480334Y331104D02*
X480334D01*
X480972Y331743D01*
X498000Y393000D02*
Y408000D01*
X436189Y344013D02*
X436378Y344202D01*
X426500Y344000D02*
X433256D01*
X433269Y344013D01*
X436189D01*
X551039Y340190D02*
X552483D01*
X550752Y340477D02*
X551039Y340190D01*
X510689Y329811D02*
Y334852D01*
Y329811D02*
X515000Y325500D01*
X508909Y331742D02*
X509000Y331652D01*
Y323000D02*
Y331652D01*
X508909Y331742D02*
Y334663D01*
X508720Y334852D02*
X508909Y334663D01*
X542214Y344839D02*
Y347403D01*
X541575Y344200D02*
X542214Y344839D01*
X541575Y339359D02*
Y344200D01*
Y339359D02*
X542214Y338720D01*
X542575D01*
X543354Y337941D01*
X544339D01*
X548995Y358778D02*
X549290D01*
X550752Y357316D01*
X558232Y343037D02*
X558262Y343067D01*
X550465Y338206D02*
X550752Y337918D01*
X465413Y334852D02*
X465426Y334839D01*
Y322592D02*
Y334839D01*
Y322592D02*
X465439Y322579D01*
X434500Y415648D02*
Y421500D01*
Y415648D02*
X436378Y413770D01*
Y411131D02*
Y413770D01*
X419065Y375995D02*
X420737Y377667D01*
X436378D01*
X419724Y374404D02*
X421091Y375772D01*
X401512Y370503D02*
X405412Y374404D01*
X419724D01*
X421091Y375772D02*
X431416D01*
X409000Y372132D02*
X419702D01*
X421069Y373500D01*
X431438D01*
X401512Y358988D02*
Y370503D01*
Y358988D02*
X403500Y357000D01*
X431416Y375772D02*
X433269Y373919D01*
X436189D01*
X436378Y373730D01*
X432988Y371950D02*
X436189D01*
X431438Y373500D02*
X432988Y371950D01*
X436189D02*
X436378Y371761D01*
X388500Y399000D02*
X423500D01*
X426000Y396500D01*
X457239Y408761D02*
X457500Y408500D01*
X453556Y405278D02*
Y407160D01*
X447786Y409718D02*
X451285Y406219D01*
X456685Y411681D02*
Y413646D01*
X447228Y398950D02*
X453556Y405278D01*
X451772Y408944D02*
X453556Y407160D01*
X454500Y409429D02*
Y411892D01*
X457239Y408761D02*
Y411127D01*
X456685Y411681D02*
X457239Y411127D01*
X458957Y413073D02*
X459508Y413624D01*
X455094Y412487D02*
Y414304D01*
X454500Y411892D02*
X455094Y412487D01*
X456685Y413646D02*
X457539Y414500D01*
X458957Y412705D02*
Y413073D01*
X459508Y413624D02*
Y418513D01*
X457539Y414500D02*
Y418513D01*
X455571Y414781D02*
Y418513D01*
X455094Y414304D02*
X455571Y414781D01*
X461228Y410096D02*
Y413419D01*
X461476Y413667D01*
Y418513D01*
X447786Y409718D02*
Y410399D01*
X447697Y410489D02*
X447786Y410399D01*
X451772Y408944D02*
Y410999D01*
X430951Y363887D02*
X436378D01*
X429500Y362436D02*
X430951Y363887D01*
X429500Y360692D02*
Y362436D01*
X423029Y354220D02*
X429500Y360692D01*
X432043Y361767D02*
X436226D01*
X436378Y361918D01*
X427910Y361350D02*
Y363159D01*
X430228Y365478D02*
X432037D01*
X426319Y363513D02*
Y363818D01*
X416148Y349589D02*
X427910Y361350D01*
Y363159D02*
X430228Y365478D01*
X431892Y361615D02*
X432043Y361767D01*
X432037Y365478D02*
X432226Y365667D01*
X429569Y367068D02*
X429874D01*
X421770Y358965D02*
X426319Y363513D01*
X429874Y367068D02*
X430630Y367824D01*
X426319Y363818D02*
X429569Y367068D01*
X436189Y365667D02*
X436378Y365856D01*
X432226Y365667D02*
X436189D01*
X411530Y342035D02*
X411639Y341926D01*
Y332941D02*
Y341926D01*
X416148Y345276D02*
Y349589D01*
X412908Y342035D02*
X416148Y345276D01*
X411530Y342035D02*
X412908D01*
X430630Y367824D02*
X436378D01*
X411530Y358965D02*
X421770D01*
X411295Y368059D02*
X411530Y367824D01*
Y358965D02*
Y367824D01*
X466825Y431550D02*
Y438290D01*
X466775Y431500D02*
X466825Y431550D01*
Y438290D02*
X466874Y438339D01*
X463500Y438501D02*
Y445000D01*
X449665Y413105D02*
X451772Y410999D01*
X447697Y410489D02*
Y418513D01*
X449665Y413105D02*
Y418513D01*
X463186Y324059D02*
X463772Y324645D01*
X461482Y326337D02*
Y334846D01*
X463772Y324645D02*
Y328308D01*
X461482Y326337D02*
X461488Y326331D01*
X461476Y334852D02*
X461482Y334846D01*
X519946Y377573D02*
X520039Y377667D01*
X515185Y377573D02*
X519946D01*
X515091Y377480D02*
X515185Y377573D01*
X492772Y426272D02*
X496016D01*
X490500Y424000D02*
X492772Y426272D01*
X496909Y418513D02*
Y422091D01*
X495000Y424000D02*
X496909Y422091D01*
X456908Y427000D02*
X474799D01*
X475035Y427236D01*
X455025Y428883D02*
X456908Y427000D01*
X480021Y422261D02*
X480302D01*
X479382Y421622D02*
X480021Y422261D01*
X486425Y431400D02*
X486525Y431500D01*
X484450Y431400D02*
X484550Y431500D01*
X477413Y421903D02*
X479362Y423852D01*
X488500Y425782D02*
Y431500D01*
X486425Y428384D02*
Y431400D01*
X487067Y418513D02*
Y424349D01*
X488500Y425782D01*
X479362Y423852D02*
X479643D01*
X484450Y428659D01*
X480302Y422261D02*
X486425Y428384D01*
X484450Y428659D02*
Y431400D01*
X455169Y423000D02*
X476261D01*
X451823Y421903D02*
X454510Y424590D01*
X453791Y421622D02*
X455169Y423000D01*
X454510Y424590D02*
X475602D01*
X476261Y423000D02*
X480600Y427339D01*
X475602Y424590D02*
X478909Y427898D01*
X478725Y429249D02*
Y431400D01*
X478909Y427898D02*
Y429064D01*
X478625Y431500D02*
X478725Y431400D01*
Y429249D02*
X478909Y429064D01*
X455025Y428883D02*
Y431400D01*
X454925Y431500D02*
X455025Y431400D01*
X480600Y427339D02*
Y431500D01*
X479382Y418702D02*
Y421622D01*
X463445Y328635D02*
Y334852D01*
Y328635D02*
X463772Y328308D01*
X429358Y369136D02*
X429692D01*
X426177Y367824D02*
X426438Y368085D01*
X428307D01*
X429358Y369136D01*
X426385Y387885D02*
X427978Y389478D01*
X423000Y393500D02*
X423043Y393457D01*
X436335D01*
X423772Y382500D02*
X425000D01*
X425869Y387885D02*
X426385D01*
X423772Y386000D02*
X423984D01*
X424272Y389500D02*
X426218Y391446D01*
X423984Y386000D02*
X425869Y387885D01*
X426218Y391446D02*
X436378D01*
X436335Y393457D02*
X436378Y393415D01*
X453500Y436500D02*
X455059Y434940D01*
X455977D01*
X456615Y434302D01*
Y434302D02*
Y434302D01*
Y434302D02*
X456800Y434117D01*
Y431600D02*
Y434117D01*
Y431600D02*
X456900Y431500D01*
X457564Y436197D02*
Y436566D01*
X443879Y438772D02*
X456558D01*
X458505Y438837D02*
X459836Y437506D01*
Y437377D02*
X460850Y436363D01*
X456623Y438837D02*
X458505D01*
X458775Y431600D02*
Y434986D01*
X459836Y437377D02*
Y437506D01*
X457564Y436197D02*
X458775Y434986D01*
X456558Y438772D02*
X456623Y438837D01*
X429692Y369136D02*
X430556Y370000D01*
X433250D01*
X433269Y369982D01*
X436189D02*
X436378Y369793D01*
X433269Y369982D02*
X436189D01*
X460850Y431500D02*
Y436363D01*
X439409Y434302D02*
X443879Y438772D01*
X460500Y439252D02*
X462825Y436927D01*
X460500Y439252D02*
Y447000D01*
X458775Y431600D02*
X458875Y431500D01*
X437819Y434961D02*
X452630Y449772D01*
X477228D01*
X482475Y444525D01*
X462825Y431500D02*
Y436927D01*
X463500Y438501D02*
X464800Y437201D01*
Y431500D02*
Y437201D01*
X468000Y440426D02*
Y446000D01*
Y440426D02*
X469146Y439280D01*
X470725Y439950D02*
X470736Y439939D01*
X469146Y437398D02*
Y439280D01*
X470736Y436740D02*
Y439939D01*
X470725Y439950D02*
Y445225D01*
X487000Y439287D02*
Y444500D01*
X468750Y437003D02*
X469146Y437398D01*
X468750Y431500D02*
Y437003D01*
X470725Y436728D02*
X470736Y436740D01*
X470725Y431500D02*
Y436728D01*
X506740Y327012D02*
Y334840D01*
X506728Y327000D02*
X506740Y327012D01*
Y334840D02*
X506752Y334852D01*
X482475Y431600D02*
Y444525D01*
X470725Y445225D02*
X471500Y446000D01*
X472368Y435793D02*
Y443278D01*
X473416Y444325D01*
X472368Y435793D02*
X472700Y435462D01*
X473416Y444325D02*
X473456D01*
X475131Y446000D01*
X477512Y435644D02*
Y435997D01*
X476650Y434782D02*
X477512Y435644D01*
X476650Y431500D02*
Y434782D01*
X475131Y446000D02*
X475500D01*
X474640Y436685D02*
X474657Y436668D01*
Y431518D02*
Y436668D01*
X472700Y431500D02*
Y435462D01*
X437819Y414579D02*
Y434961D01*
X449583Y328583D02*
Y334769D01*
X449500Y328500D02*
X449583Y328583D01*
Y334769D02*
X449665Y334852D01*
X474657Y431518D02*
X474675Y431500D01*
X425000Y382500D02*
X429820Y387320D01*
X482475Y431600D02*
X482575Y431500D01*
X487000Y439287D02*
X490475Y435812D01*
X490000Y439500D02*
X492450Y437050D01*
X496400Y440400D02*
X497500Y441500D01*
X496400Y431500D02*
Y440400D01*
X490475Y431500D02*
Y435812D01*
X439409Y415238D02*
Y434302D01*
X451634Y334852D02*
Y339172D01*
X492450Y431500D02*
Y437050D01*
X526932Y379568D02*
X527000Y379500D01*
X520107Y379568D02*
X526932D01*
X520039Y379635D02*
X520107Y379568D01*
X461228Y410096D02*
X461412Y409912D01*
X463445Y418513D02*
X463472Y418485D01*
Y412028D02*
Y418485D01*
Y412028D02*
X463500Y412000D01*
X467382Y418513D02*
X467571Y418324D01*
Y415103D02*
Y418324D01*
X451823Y418702D02*
Y421903D01*
X451634Y418513D02*
X451823Y418702D01*
X453791D02*
Y421622D01*
X453602Y418513D02*
X453791Y418702D01*
X479193Y418513D02*
X479382Y418702D01*
X477413Y418702D02*
Y421903D01*
X477224Y418513D02*
X477413Y418702D01*
X480972Y334663D02*
X481161Y334852D01*
X480972Y331743D02*
Y334663D01*
X455571Y339071D02*
X457500Y341000D01*
X455571Y334852D02*
Y339071D01*
X469350Y340424D02*
X473483Y344557D01*
X500846Y418513D02*
X501000Y418360D01*
Y411000D02*
Y418360D01*
X498000Y408000D02*
X501000Y411000D01*
X505862Y346575D02*
Y370138D01*
X505228Y345941D02*
X505862Y346575D01*
X505228Y344059D02*
Y345941D01*
Y344059D02*
X506739Y342548D01*
Y340261D02*
Y342548D01*
Y340261D02*
X507000Y340000D01*
X503761Y367452D02*
Y368739D01*
X502437Y347648D02*
Y364327D01*
X503638Y346600D02*
X504272Y347234D01*
X498866Y341424D02*
Y348576D01*
X504272Y347234D02*
Y366941D01*
X498866Y348576D02*
X498878Y348588D01*
X500457Y347917D02*
X500846Y348307D01*
X498866Y341424D02*
X498878Y341412D01*
X503500Y369000D02*
X503761Y368739D01*
X500457Y342083D02*
Y347917D01*
X502261Y364503D02*
X502437Y364327D01*
X500457Y342083D02*
X500846Y341693D01*
X502261Y364503D02*
Y365739D01*
X500846Y334852D02*
Y341693D01*
Y348307D02*
Y362336D01*
X502047Y347259D02*
X502437Y347648D01*
X503638Y343400D02*
Y346600D01*
X502000Y366000D02*
X502261Y365739D01*
X503638Y343400D02*
X504595Y342444D01*
Y335041D02*
Y342444D01*
X498878Y334852D02*
Y341412D01*
X503761Y367452D02*
X504272Y366941D01*
X502815Y334852D02*
Y341974D01*
X502047Y342741D02*
Y347259D01*
Y342741D02*
X502815Y341974D01*
X507342Y376252D02*
X507500Y376094D01*
X507081Y377361D02*
X507342Y377100D01*
X507500Y345000D02*
Y376094D01*
X507342Y376252D02*
Y377100D01*
X504595Y335041D02*
X504783Y334852D01*
X512324Y367824D02*
X520039D01*
X502815Y418513D02*
X503004Y418324D01*
X436396Y358000D02*
X459500D01*
X462000Y360500D01*
X500019Y363163D02*
X500846Y362336D01*
X500019Y363163D02*
Y363532D01*
X520039Y352076D02*
X526424D01*
X520039Y354045D02*
X520090Y353993D01*
X459000Y392500D02*
X479193Y372307D01*
Y334852D02*
Y372307D01*
X469350Y334852D02*
Y340424D01*
X465500Y344972D02*
Y345000D01*
Y344972D02*
X467382Y343090D01*
Y334852D02*
Y343090D01*
X515856Y365856D02*
X520039D01*
X484500Y326500D02*
X489035Y331035D01*
Y334852D01*
X487256Y338256D02*
X491000Y342000D01*
X487256Y335041D02*
Y338256D01*
X487067Y334852D02*
X487256Y335041D01*
X485098Y339598D02*
X494000Y348500D01*
X485098Y334852D02*
Y339598D01*
X429820Y387320D02*
X436189D01*
X427978Y389478D02*
X436378D01*
X436189Y387320D02*
X436378Y387509D01*
X436378Y357981D02*
X436396Y358000D01*
D16*
X558232Y337918D02*
D03*
X558232Y340477D02*
D03*
X558232Y343037D02*
D03*
X550752D02*
D03*
Y340477D02*
D03*
Y337918D02*
D03*
D17*
X548995Y358778D02*
D03*
Y364487D02*
D03*
X558262Y364351D02*
D03*
Y358642D02*
D03*
X583102Y283146D02*
D03*
Y288854D02*
D03*
X431918Y302643D02*
D03*
Y296935D02*
D03*
D18*
X574130Y293500D02*
D03*
Y288500D02*
D03*
Y283500D02*
D03*
Y278500D02*
D03*
X552870D02*
D03*
Y283500D02*
D03*
Y288500D02*
D03*
Y293500D02*
D03*
D19*
X449903Y292355D02*
D03*
X444785D02*
D03*
Y285390D02*
D03*
X449903D02*
D03*
D20*
X544666Y431984D02*
D03*
X550375D02*
D03*
X541500Y299500D02*
D03*
X535791D02*
D03*
X422124Y426169D02*
D03*
X416415D02*
D03*
D21*
X559449Y302792D02*
D03*
X553135D02*
D03*
X534684Y309810D02*
D03*
X540998D02*
D03*
X541843Y412000D02*
D03*
X548157D02*
D03*
X422157Y416000D02*
D03*
X415843D02*
D03*
X411639Y332941D02*
D03*
X405325D02*
D03*
X411295Y368059D02*
D03*
X404981D02*
D03*
X448157Y318500D02*
D03*
X441843D02*
D03*
X473843Y319500D02*
D03*
X480157D02*
D03*
X516665D02*
D03*
X522979D02*
D03*
D22*
X515665Y279153D02*
D03*
Y285846D02*
D03*
X536335Y279153D02*
D03*
Y285846D02*
D03*
X480665Y279153D02*
D03*
Y285846D02*
D03*
X501335Y279153D02*
D03*
Y285846D02*
D03*
D23*
X501500Y302941D02*
D03*
Y308059D02*
D03*
D24*
X520547Y299500D02*
D03*
X526453D02*
D03*
D25*
X516289Y309618D02*
D03*
X523769D02*
D03*
X549076Y421929D02*
D03*
X541596D02*
D03*
X534191Y319693D02*
D03*
X541671D02*
D03*
X449289Y308618D02*
D03*
X441809D02*
D03*
D26*
X549382Y375050D02*
D03*
Y382530D02*
D03*
X560225Y375271D02*
D03*
Y382751D02*
D03*
X407118Y379841D02*
D03*
Y387321D02*
D03*
D27*
X567500Y363657D02*
D03*
Y357343D02*
D03*
X539500Y364157D02*
D03*
Y357843D02*
D03*
X432124Y318143D02*
D03*
Y311829D02*
D03*
X570107Y375455D02*
D03*
Y381769D02*
D03*
X559000Y422314D02*
D03*
Y416000D02*
D03*
X417000Y379843D02*
D03*
Y386157D02*
D03*
X539500Y375343D02*
D03*
Y381657D02*
D03*
D28*
X544339Y343059D02*
D03*
Y340500D02*
D03*
Y337941D02*
D03*
X536661D02*
D03*
Y340500D02*
D03*
Y343059D02*
D03*
D29*
X518125Y431500D02*
D03*
X516150D02*
D03*
X514175D02*
D03*
X512200D02*
D03*
X510225Y431500D02*
D03*
X508250Y431500D02*
D03*
X506275D02*
D03*
X504300D02*
D03*
X502325D02*
D03*
X500350D02*
D03*
X498375D02*
D03*
X496400D02*
D03*
X494425D02*
D03*
X492450Y431500D02*
D03*
X490475Y431500D02*
D03*
X488500D02*
D03*
X486525D02*
D03*
X484550D02*
D03*
X482575D02*
D03*
X480600D02*
D03*
X478625D02*
D03*
X476650Y431500D02*
D03*
X474675Y431500D02*
D03*
X472700D02*
D03*
X470725D02*
D03*
X468750D02*
D03*
X466775Y431500D02*
D03*
X464800Y431500D02*
D03*
X462825D02*
D03*
X460850D02*
D03*
X458875D02*
D03*
X456900D02*
D03*
X454925D02*
D03*
X452950D02*
D03*
X450975D02*
D03*
X449000D02*
D03*
X447025D02*
D03*
X445050D02*
D03*
X443075D02*
D03*
X441100D02*
D03*
D30*
X436378Y411131D02*
D03*
X436378Y409163D02*
D03*
Y407194D02*
D03*
Y405226D02*
D03*
Y403257D02*
D03*
Y401289D02*
D03*
Y399320D02*
D03*
X436378Y397352D02*
D03*
Y395383D02*
D03*
X436378Y393415D02*
D03*
Y391446D02*
D03*
Y389478D02*
D03*
Y387509D02*
D03*
Y385541D02*
D03*
X436378Y383572D02*
D03*
X436378Y381604D02*
D03*
Y379635D02*
D03*
Y377667D02*
D03*
Y375698D02*
D03*
Y373730D02*
D03*
Y371761D02*
D03*
X436378Y369793D02*
D03*
X436378Y367824D02*
D03*
Y365856D02*
D03*
Y363887D02*
D03*
Y361918D02*
D03*
Y359950D02*
D03*
X436378Y357981D02*
D03*
Y356013D02*
D03*
X436378Y354045D02*
D03*
Y352076D02*
D03*
Y350108D02*
D03*
Y348139D02*
D03*
Y346170D02*
D03*
Y344202D02*
D03*
X436378Y342233D02*
D03*
X520039D02*
D03*
X520039Y344202D02*
D03*
Y346170D02*
D03*
Y348139D02*
D03*
Y350108D02*
D03*
Y352076D02*
D03*
Y354045D02*
D03*
X520039Y356013D02*
D03*
Y357981D02*
D03*
X520039Y359950D02*
D03*
Y361918D02*
D03*
Y363887D02*
D03*
Y365856D02*
D03*
Y367824D02*
D03*
X520039Y369793D02*
D03*
X520039Y371761D02*
D03*
Y373730D02*
D03*
Y375698D02*
D03*
Y377667D02*
D03*
Y379635D02*
D03*
Y381604D02*
D03*
X520039Y383572D02*
D03*
X520039Y385541D02*
D03*
Y387509D02*
D03*
Y389478D02*
D03*
Y391446D02*
D03*
Y393415D02*
D03*
X520039Y395383D02*
D03*
Y397352D02*
D03*
X520039Y399320D02*
D03*
Y401289D02*
D03*
Y403257D02*
D03*
Y405226D02*
D03*
Y407194D02*
D03*
Y409163D02*
D03*
X520039Y411131D02*
D03*
D31*
X443760Y334852D02*
D03*
X445728Y334852D02*
D03*
X447697D02*
D03*
X449665D02*
D03*
X451634D02*
D03*
X453602D02*
D03*
X455571D02*
D03*
X457539Y334852D02*
D03*
X459508D02*
D03*
X461476Y334852D02*
D03*
X463445D02*
D03*
X465413D02*
D03*
X467382D02*
D03*
X469350D02*
D03*
X471319Y334852D02*
D03*
X473287Y334852D02*
D03*
X475256D02*
D03*
X477224D02*
D03*
X479193D02*
D03*
X481161D02*
D03*
X483130D02*
D03*
X485098Y334852D02*
D03*
X487067Y334852D02*
D03*
X489035D02*
D03*
X491004D02*
D03*
X492972D02*
D03*
X494941D02*
D03*
X496909Y334852D02*
D03*
X498878D02*
D03*
X500846Y334852D02*
D03*
X502815D02*
D03*
X504783D02*
D03*
X506752D02*
D03*
X508720D02*
D03*
X510689D02*
D03*
X512657Y334852D02*
D03*
Y418513D02*
D03*
X510689Y418513D02*
D03*
X508720D02*
D03*
X506752D02*
D03*
X504783D02*
D03*
X502815D02*
D03*
X500846D02*
D03*
X498878Y418513D02*
D03*
X496909D02*
D03*
X494941Y418513D02*
D03*
X492972D02*
D03*
X491004D02*
D03*
X489035D02*
D03*
X487067D02*
D03*
X485098Y418513D02*
D03*
X483130Y418513D02*
D03*
X481161D02*
D03*
X479193D02*
D03*
X477224D02*
D03*
X475256D02*
D03*
X473287D02*
D03*
X471319Y418513D02*
D03*
X469350Y418513D02*
D03*
X467382D02*
D03*
X465413D02*
D03*
X463445D02*
D03*
X461476D02*
D03*
X459508Y418513D02*
D03*
X457539D02*
D03*
X455571Y418513D02*
D03*
X453602D02*
D03*
X451634D02*
D03*
X449665D02*
D03*
X447697D02*
D03*
X445728D02*
D03*
X443760Y418513D02*
D03*
D32*
X411530Y342035D02*
D03*
Y358965D02*
D03*
D33*
X411110Y438321D02*
D03*
X411000Y313500D02*
D03*
X645000Y263500D02*
D03*
Y489000D02*
D03*
D34*
X576563Y458005D02*
D03*
D35*
X560972D02*
D03*
D36*
X638500Y410150D02*
D03*
Y399362D02*
D03*
Y388575D02*
D03*
Y377787D02*
D03*
Y367000D02*
D03*
Y356213D02*
D03*
Y345425D02*
D03*
X627319Y415543D02*
D03*
Y404756D02*
D03*
Y393969D02*
D03*
Y383181D02*
D03*
Y372394D02*
D03*
Y361606D02*
D03*
Y350819D02*
D03*
Y340032D02*
D03*
D37*
X649000Y468000D02*
D03*
X648842Y283500D02*
D03*
D38*
X639157Y468000D02*
D03*
X629315D02*
D03*
X619472D02*
D03*
X609630D02*
D03*
X599787D02*
D03*
X599630Y283500D02*
D03*
X609472D02*
D03*
X619315Y283500D02*
D03*
X629157D02*
D03*
X639000Y283500D02*
D03*
D39*
X469500Y285000D02*
D03*
Y295000D02*
D03*
X459500D02*
D03*
D40*
Y285000D02*
D03*
D41*
X526000Y277087D02*
D03*
Y287913D02*
D03*
X491000Y277087D02*
D03*
Y287913D02*
D03*
D42*
X421934Y411360D02*
D03*
X420684Y406897D02*
D03*
X501500Y290000D02*
D03*
X467500Y467000D02*
D03*
X493000Y442000D02*
D03*
X583500Y403000D02*
D03*
X583878Y406188D02*
D03*
X590000Y409522D02*
D03*
X600500Y409000D02*
D03*
X595500D02*
D03*
X618500Y341000D02*
D03*
X587500Y331500D02*
D03*
X608500Y346000D02*
D03*
X601000Y354500D02*
D03*
X595500Y414000D02*
D03*
X590000Y418000D02*
D03*
Y414000D02*
D03*
X600500D02*
D03*
X595500Y418000D02*
D03*
X613000Y367500D02*
D03*
X600500Y418000D02*
D03*
X571772Y298148D02*
D03*
X531216Y336579D02*
D03*
X531000Y347500D02*
D03*
X527936Y346936D02*
D03*
X498500Y360631D02*
D03*
X496500Y358022D02*
D03*
X476586Y414084D02*
D03*
X474394Y412106D02*
D03*
X466801Y411676D02*
D03*
X577786Y367214D02*
D03*
X425500Y400500D02*
D03*
X469364Y363636D02*
D03*
X465346Y358980D02*
D03*
X463500Y370612D02*
D03*
X471500Y359000D02*
D03*
X498000Y377741D02*
D03*
X481648Y369228D02*
D03*
X540500Y428000D02*
D03*
X510500Y425500D02*
D03*
X507000D02*
D03*
X504000Y425000D02*
D03*
X514500Y425500D02*
D03*
X515000Y348500D02*
D03*
X608926Y303574D02*
D03*
X579000Y309000D02*
D03*
X572626Y346374D02*
D03*
X553803Y346803D02*
D03*
X558000Y351500D02*
D03*
X542601Y355399D02*
D03*
X539285Y333629D02*
D03*
X548500Y334500D02*
D03*
X510000Y411000D02*
D03*
X513262Y405945D02*
D03*
X510000Y408000D02*
D03*
X510500Y414000D02*
D03*
X518907Y416864D02*
D03*
X521252Y419000D02*
D03*
X500500Y425000D02*
D03*
X532647Y427646D02*
D03*
X535000Y421000D02*
D03*
X542000Y395000D02*
D03*
X537140Y347852D02*
D03*
X518500Y327816D02*
D03*
X452000Y426500D02*
D03*
X454043Y328000D02*
D03*
X442500Y326228D02*
D03*
X491500Y327000D02*
D03*
X492772Y324148D02*
D03*
X490500Y282500D02*
D03*
X583539Y439461D02*
D03*
X530500Y363500D02*
D03*
X530644Y355144D02*
D03*
X529945Y352275D02*
D03*
X546025Y350572D02*
D03*
X570127Y342187D02*
D03*
X563418Y337734D02*
D03*
X570000Y320500D02*
D03*
X512394Y362394D02*
D03*
X509772Y364913D02*
D03*
X539883Y327155D02*
D03*
X525074Y410741D02*
D03*
X523500Y416500D02*
D03*
X521500Y413592D02*
D03*
X515500Y393000D02*
D03*
X507000D02*
D03*
X449902Y348718D02*
D03*
X538224Y408000D02*
D03*
X540272Y402000D02*
D03*
Y405757D02*
D03*
X556500Y431816D02*
D03*
X530272Y387228D02*
D03*
X520000Y339316D02*
D03*
X438551Y461795D02*
D03*
X462209Y462025D02*
D03*
X511579Y451692D02*
D03*
X509500Y403816D02*
D03*
X452618Y414109D02*
D03*
X401500Y421316D02*
D03*
X407610Y393277D02*
D03*
X400000Y378000D02*
D03*
X391500D02*
D03*
X395157Y346973D02*
D03*
X503000Y328816D02*
D03*
X487633Y359857D02*
D03*
X449712Y390212D02*
D03*
X442046Y385239D02*
D03*
X441000Y388000D02*
D03*
X444244Y383228D02*
D03*
X487500Y392316D02*
D03*
X575521Y429328D02*
D03*
X396500Y387000D02*
D03*
X544496Y345996D02*
D03*
X555500Y334500D02*
D03*
X530272Y382816D02*
D03*
X527113Y363703D02*
D03*
X472439Y328816D02*
D03*
X449500Y340500D02*
D03*
X426500Y350816D02*
D03*
X442365Y379451D02*
D03*
X431000Y396316D02*
D03*
X430361Y400573D02*
D03*
X492000Y404816D02*
D03*
X449000Y424000D02*
D03*
X500500Y438000D02*
D03*
X551000Y350000D02*
D03*
X520472Y453472D02*
D03*
X504000Y452000D02*
D03*
X494900Y454500D02*
D03*
X475341Y324228D02*
D03*
X498000Y393000D02*
D03*
X538000Y389500D02*
D03*
X465439Y322579D02*
D03*
X398500Y401500D02*
D03*
X434500Y421500D02*
D03*
X393500Y367500D02*
D03*
X409000Y372132D02*
D03*
X403500Y357000D02*
D03*
X388351Y399032D02*
D03*
X426000Y396500D02*
D03*
X451285Y406219D02*
D03*
X454500Y409429D02*
D03*
X457500Y408500D02*
D03*
X458957Y412705D02*
D03*
X431892Y361615D02*
D03*
X426500Y344000D02*
D03*
X466874Y438339D02*
D03*
X463500Y445000D02*
D03*
X461488Y326331D02*
D03*
X515091Y377480D02*
D03*
X495000Y424000D02*
D03*
X490500D02*
D03*
X475035Y427236D02*
D03*
X426177Y367824D02*
D03*
X423772Y386000D02*
D03*
Y382500D02*
D03*
X424272Y389500D02*
D03*
X423000Y393500D02*
D03*
X453500Y436500D02*
D03*
X457564Y436566D02*
D03*
X460500Y447000D02*
D03*
X486846Y444710D02*
D03*
X468000Y446000D02*
D03*
X506728Y327000D02*
D03*
X509000Y323000D02*
D03*
X471500Y446000D02*
D03*
X474640Y436685D02*
D03*
X475500Y446000D02*
D03*
X477512Y435997D02*
D03*
X449500Y328500D02*
D03*
X490000Y439500D02*
D03*
X497500Y441500D02*
D03*
X527000Y379500D02*
D03*
X463500Y412000D02*
D03*
X461412Y409912D02*
D03*
X457500Y341000D02*
D03*
X507500Y345000D02*
D03*
X507000Y340000D02*
D03*
X507081Y377361D02*
D03*
X473500Y387000D02*
D03*
X500019Y363532D02*
D03*
X502000Y366000D02*
D03*
X503500Y369000D02*
D03*
X459000Y392500D02*
D03*
X456000Y391500D02*
D03*
X453000Y391000D02*
D03*
X465500Y345000D02*
D03*
X462000Y360500D02*
D03*
X468500Y386500D02*
D03*
X484500Y326500D02*
D03*
X491000Y342000D02*
D03*
X494000Y348500D02*
D03*
D43*
X508343Y301157D02*
D03*
X560500Y289000D02*
D03*
X541000Y295000D02*
D03*
X547500Y305000D02*
D03*
X542500Y286091D02*
D03*
X426000Y297000D02*
D03*
X603500Y451500D02*
D03*
X620500Y382000D02*
D03*
X582500Y324000D02*
D03*
X588500D02*
D03*
X594500D02*
D03*
X581000Y394500D02*
D03*
X620500Y388000D02*
D03*
X581000Y381000D02*
D03*
Y388000D02*
D03*
X568500Y369000D02*
D03*
X559000D02*
D03*
X549000D02*
D03*
X539500D02*
D03*
X484000Y471000D02*
D03*
X609000Y451500D02*
D03*
Y459000D02*
D03*
X507500Y315802D02*
D03*
X558500Y441500D02*
D03*
X536000Y453000D02*
D03*
X459500Y317000D02*
D03*
Y311000D02*
D03*
Y305500D02*
D03*
X507500Y308500D02*
D03*
X547500Y310500D02*
D03*
D44*
X567705Y328811D02*
D03*
X526366Y293378D02*
D03*
X496839Y305189D02*
D03*
X490933Y293378D02*
D03*
X473216Y305189D02*
D03*
X479122Y293378D02*
D03*
X455500Y317000D02*
D03*
X419291Y366142D02*
D03*
X655512Y460630D02*
D03*
X649606Y425197D02*
D03*
Y401575D02*
D03*
Y377953D02*
D03*
Y354331D02*
D03*
Y330709D02*
D03*
Y307086D02*
D03*
X643701Y437008D02*
D03*
X637795Y425197D02*
D03*
X643701Y413386D02*
D03*
Y389764D02*
D03*
Y318898D02*
D03*
X625984Y472441D02*
D03*
Y377953D02*
D03*
X631890Y366142D02*
D03*
Y342520D02*
D03*
Y295275D02*
D03*
X614173Y472441D02*
D03*
Y401575D02*
D03*
X620079Y366142D02*
D03*
X614173Y330709D02*
D03*
X620079Y318898D02*
D03*
Y295275D02*
D03*
X602362Y330709D02*
D03*
X608267Y318898D02*
D03*
X602362Y307086D02*
D03*
X590551Y472441D02*
D03*
X578740D02*
D03*
X584646Y389764D02*
D03*
X578740Y354331D02*
D03*
X566929Y472441D02*
D03*
X572834Y437008D02*
D03*
Y318898D02*
D03*
X566929Y283465D02*
D03*
X555118Y472441D02*
D03*
X561023Y437008D02*
D03*
X555118Y401575D02*
D03*
X561023Y389764D02*
D03*
X543307Y472441D02*
D03*
X531496D02*
D03*
X519685D02*
D03*
X525590Y460630D02*
D03*
X507874Y472441D02*
D03*
X496063D02*
D03*
X472441D02*
D03*
X478346Y460630D02*
D03*
Y389764D02*
D03*
X460630Y472441D02*
D03*
X466535Y460630D02*
D03*
Y318898D02*
D03*
X448819Y472441D02*
D03*
X454724Y460630D02*
D03*
Y366142D02*
D03*
X442913Y460630D02*
D03*
X431102D02*
D03*
X425197Y448819D02*
D03*
X413386D02*
D03*
X419291Y295275D02*
D03*
X401575Y425197D02*
D03*
X407480Y413386D02*
D03*
X395669D02*
D03*
Y342520D02*
D03*
X389764Y330709D02*
D03*
X395669Y318898D02*
D03*
X383858Y389764D02*
D03*
X377953Y377953D02*
D03*
X383858Y366142D02*
D03*
Y342520D02*
D03*
D45*
X526263Y443700D02*
D03*
X432963Y443700D02*
D03*
D46*
X584652Y406024D02*
X584822Y405854D01*
X586080D02*
X587227Y407000D01*
X583500Y403000D02*
X583665Y403165D01*
X584275D02*
X584463Y403354D01*
X583878Y406188D02*
X584043Y406024D01*
X590541Y407000D02*
X612044Y385497D01*
X587227Y407000D02*
X590541D01*
X584043Y406024D02*
X584652D01*
X584822Y405854D02*
X586080D01*
X584463Y403354D02*
X587116D01*
X588262Y404500D01*
X589505D01*
X583665Y403165D02*
X584275D01*
X589505Y404500D02*
X611009Y382997D01*
X616706D01*
X617585Y382118D01*
X621401Y376976D02*
X622737D01*
X617585Y380792D02*
X621401Y376976D01*
X617585Y380792D02*
Y382118D01*
X622737Y376976D02*
X627319Y372394D01*
X612044Y385497D02*
X616706D01*
X617585Y386375D02*
Y389208D01*
X622319Y393942D01*
X627292D01*
X616706Y385497D02*
X617585Y386375D01*
X627292Y393942D02*
X627319Y393969D01*
X657500Y281214D02*
Y438035D01*
X646500Y449036D02*
Y449036D01*
X655000Y437000D02*
X655000D01*
X656036Y439500D02*
X657500Y438035D01*
X646500Y449036D02*
X656036Y439500D01*
X655000Y282250D02*
Y437000D01*
X644000Y448000D02*
Y448000D01*
X631632Y463904D02*
X646500Y449036D01*
X656036Y439500D02*
X656036D01*
X644000Y448000D02*
X655000Y437000D01*
X621311Y463904D02*
X631632D01*
X620276Y461404D02*
X630596D01*
X644000Y448000D01*
X619472Y468000D02*
X620240Y467232D01*
Y464975D02*
X621311Y463904D01*
X620240Y464975D02*
Y467232D01*
X610397D02*
X614447D01*
X609630Y468000D02*
X610397Y467232D01*
X614447D02*
X620276Y461404D01*
X606363Y275994D02*
X652280D01*
X603726Y283547D02*
X607776Y287597D01*
X611169D02*
X614544Y284222D01*
X652280Y275994D02*
X657500Y281214D01*
X614544Y284222D02*
X618593D01*
X619315Y283500D01*
X603726Y278631D02*
X606363Y275994D01*
X607776Y287597D02*
X611169D01*
X603726Y278631D02*
Y283547D01*
X608817Y283500D02*
X609472D01*
X606226Y280909D02*
X608817Y283500D01*
X606226Y279667D02*
Y280909D01*
Y279667D02*
X607399Y278494D01*
X651244D01*
X655000Y282250D01*
X598843Y288506D02*
X605729D01*
X613071Y292187D02*
X614252Y291006D01*
X613216Y288506D02*
X631231D01*
X614252Y291006D02*
X632267D01*
X604693D02*
X605874Y292187D01*
X597807Y291006D02*
X604693D01*
X606910Y289687D02*
X612035D01*
X605729Y288506D02*
X606910Y289687D01*
X612035D02*
X613216Y288506D01*
X605874Y292187D02*
X613071D01*
X584707Y284376D02*
X594713D01*
X598843Y288506D01*
X632267Y291006D02*
X635329Y287944D01*
X593677Y286876D02*
X597807Y291006D01*
X584707Y286876D02*
X593677D01*
X631231Y288506D02*
X632829Y286908D01*
X576876Y284376D02*
X580907D01*
X576000Y283500D02*
X576876Y284376D01*
X574130Y283500D02*
X576000D01*
X582512Y282772D02*
X582807D01*
X580907Y284376D02*
X582512Y282772D01*
X574130Y288500D02*
X576000D01*
X582512Y288480D02*
X582807D01*
X577624Y286876D02*
X580907D01*
X576000Y288500D02*
X577624Y286876D01*
X580907D02*
X582512Y288480D01*
X583102D02*
X584707Y286876D01*
X635329Y285665D02*
X636207Y284787D01*
X635329Y285665D02*
Y287944D01*
X636628Y284787D02*
X637914Y283500D01*
X636207Y284787D02*
X636628D01*
X637914Y283500D02*
X639000D01*
X583102Y282772D02*
X584707Y284376D01*
X632829Y285665D02*
Y286908D01*
X631530Y284787D02*
X631950D01*
X632829Y285665D01*
X629157Y283500D02*
X630243D01*
X631530Y284787D01*
D47*
X520039Y407194D02*
X527058D01*
X541596Y421732D01*
Y421929D01*
D48*
X632909Y443378D02*
D03*
Y312197D02*
D03*
M02*
