G04*
G04 #@! TF.GenerationSoftware,Altium Limited,Altium Designer,25.1.2 (22)*
G04*
G04 Layer_Color=8388736*
%FSLAX25Y25*%
%MOIN*%
G70*
G04*
G04 #@! TF.SameCoordinates,306FC79E-9B49-4897-B38B-A4FC230E2DB4*
G04*
G04*
G04 #@! TF.FilePolarity,Negative*
G04*
G01*
G75*
%ADD16R,0.01200X0.04700*%
%ADD17R,0.01378X0.05315*%
%ADD18R,0.05315X0.01378*%
%ADD19R,0.04134X0.03543*%
%ADD20R,0.03347X0.01575*%
G04:AMPARAMS|DCode=21|XSize=61.02mil|YSize=23.62mil|CornerRadius=2.01mil|HoleSize=0mil|Usage=FLASHONLY|Rotation=0.000|XOffset=0mil|YOffset=0mil|HoleType=Round|Shape=RoundedRectangle|*
%AMROUNDEDRECTD21*
21,1,0.06102,0.01961,0,0,0.0*
21,1,0.05701,0.02362,0,0,0.0*
1,1,0.00402,0.02850,-0.00980*
1,1,0.00402,-0.02850,-0.00980*
1,1,0.00402,-0.02850,0.00980*
1,1,0.00402,0.02850,0.00980*
%
%ADD21ROUNDEDRECTD21*%
%ADD22R,0.03150X0.03740*%
%ADD23R,0.04758X0.03985*%
%ADD24R,0.06102X0.03937*%
%ADD25R,0.03740X0.03150*%
%ADD26R,0.03150X0.03150*%
%ADD27R,0.03543X0.04134*%
%ADD28R,0.05512X0.05906*%
%ADD29R,0.05906X0.05512*%
%ADD30R,0.03985X0.04758*%
%ADD31R,0.03347X0.01378*%
%ADD32R,0.10236X0.07480*%
%ADD33C,0.05500*%
%ADD34C,0.12598*%
%ADD35R,0.09843X0.09843*%
%ADD36C,0.09843*%
%ADD37R,0.05512X0.05512*%
%ADD38C,0.05512*%
%ADD39C,0.05984*%
%ADD40R,0.05984X0.05984*%
%ADD41C,0.02953*%
%ADD42C,0.03150*%
%ADD43C,0.02362*%
%ADD44C,0.02800*%
G36*
X432534Y447647D02*
Y438247D01*
X438834Y438247D01*
Y447647D01*
X432534D01*
D02*
G37*
G36*
X522734D02*
Y438247D01*
X529034Y438247D01*
Y447647D01*
X522734D01*
D02*
G37*
D16*
X442271Y432298D02*
D03*
X444246D02*
D03*
X446221D02*
D03*
X448196D02*
D03*
X450171D02*
D03*
X452146D02*
D03*
X454121D02*
D03*
X456096D02*
D03*
X458071D02*
D03*
X460046D02*
D03*
X462021D02*
D03*
X463996D02*
D03*
X465971D02*
D03*
X467946D02*
D03*
X469921D02*
D03*
X471896D02*
D03*
X473871D02*
D03*
X475846D02*
D03*
X477821D02*
D03*
X479796D02*
D03*
X481771D02*
D03*
X483746D02*
D03*
X485721D02*
D03*
X487696D02*
D03*
X489671D02*
D03*
X491646D02*
D03*
X493621D02*
D03*
X495596D02*
D03*
X497571D02*
D03*
X499546D02*
D03*
X501521D02*
D03*
X503496D02*
D03*
X505471D02*
D03*
X507446D02*
D03*
X509421D02*
D03*
X511396D02*
D03*
X513371D02*
D03*
X515346D02*
D03*
X517321D02*
D03*
X519296D02*
D03*
D17*
X443760Y418513D02*
D03*
X445728Y418513D02*
D03*
X447697D02*
D03*
X449665D02*
D03*
X451634D02*
D03*
X453602D02*
D03*
X455571D02*
D03*
X457539Y418513D02*
D03*
X459508D02*
D03*
X461476Y418513D02*
D03*
X463445D02*
D03*
X465413D02*
D03*
X467382D02*
D03*
X469350D02*
D03*
X471319Y418513D02*
D03*
X473287Y418513D02*
D03*
X475256D02*
D03*
X477224D02*
D03*
X479193D02*
D03*
X481161D02*
D03*
X483130D02*
D03*
X485098Y418513D02*
D03*
X487067Y418513D02*
D03*
X489035D02*
D03*
X491004D02*
D03*
X492972D02*
D03*
X494941D02*
D03*
X496909Y418513D02*
D03*
X498878D02*
D03*
X500846Y418513D02*
D03*
X502815D02*
D03*
X504783D02*
D03*
X506752D02*
D03*
X508720D02*
D03*
X510689D02*
D03*
X512657Y418513D02*
D03*
Y334852D02*
D03*
X510689Y334852D02*
D03*
X508720D02*
D03*
X506752D02*
D03*
X504783D02*
D03*
X502815D02*
D03*
X500846D02*
D03*
X498878Y334852D02*
D03*
X496909D02*
D03*
X494941Y334852D02*
D03*
X492972D02*
D03*
X491004D02*
D03*
X489035D02*
D03*
X487067D02*
D03*
X485098Y334852D02*
D03*
X483130Y334852D02*
D03*
X481161D02*
D03*
X479193D02*
D03*
X477224D02*
D03*
X475256D02*
D03*
X473287D02*
D03*
X471319Y334852D02*
D03*
X469350Y334852D02*
D03*
X467382D02*
D03*
X465413D02*
D03*
X463445D02*
D03*
X461476D02*
D03*
X459508Y334852D02*
D03*
X457539D02*
D03*
X455571Y334852D02*
D03*
X453602D02*
D03*
X451634D02*
D03*
X449665D02*
D03*
X447697D02*
D03*
X445728D02*
D03*
X443760Y334852D02*
D03*
D18*
X520039Y411131D02*
D03*
X520039Y409163D02*
D03*
Y407194D02*
D03*
Y405226D02*
D03*
Y403257D02*
D03*
Y401289D02*
D03*
Y399320D02*
D03*
X520039Y397352D02*
D03*
Y395383D02*
D03*
X520039Y393415D02*
D03*
Y391446D02*
D03*
Y389478D02*
D03*
Y387509D02*
D03*
Y385541D02*
D03*
X520039Y383572D02*
D03*
X520039Y381604D02*
D03*
Y379635D02*
D03*
Y377667D02*
D03*
Y375698D02*
D03*
Y373730D02*
D03*
Y371761D02*
D03*
X520039Y369793D02*
D03*
X520039Y367824D02*
D03*
Y365856D02*
D03*
Y363887D02*
D03*
Y361918D02*
D03*
Y359950D02*
D03*
X520039Y357981D02*
D03*
Y356013D02*
D03*
X520039Y354045D02*
D03*
Y352076D02*
D03*
Y350108D02*
D03*
Y348139D02*
D03*
Y346170D02*
D03*
Y344202D02*
D03*
X520039Y342233D02*
D03*
X436378D02*
D03*
X436378Y344202D02*
D03*
Y346170D02*
D03*
Y348139D02*
D03*
Y350108D02*
D03*
Y352076D02*
D03*
Y354045D02*
D03*
X436378Y356013D02*
D03*
Y357981D02*
D03*
X436378Y359950D02*
D03*
Y361918D02*
D03*
Y363887D02*
D03*
Y365856D02*
D03*
Y367824D02*
D03*
X436378Y369793D02*
D03*
X436378Y371761D02*
D03*
Y373730D02*
D03*
Y375698D02*
D03*
Y377667D02*
D03*
Y379635D02*
D03*
Y381604D02*
D03*
X436378Y383572D02*
D03*
X436378Y385541D02*
D03*
Y387509D02*
D03*
Y389478D02*
D03*
Y391446D02*
D03*
Y393415D02*
D03*
X436378Y395383D02*
D03*
Y397352D02*
D03*
X436378Y399320D02*
D03*
Y401289D02*
D03*
Y403257D02*
D03*
Y405226D02*
D03*
Y407194D02*
D03*
Y409163D02*
D03*
X436378Y411131D02*
D03*
D19*
X423000Y454854D02*
D03*
Y449146D02*
D03*
X548995Y358778D02*
D03*
Y364487D02*
D03*
X558262Y364351D02*
D03*
Y358642D02*
D03*
X583102Y283146D02*
D03*
Y288854D02*
D03*
X431918Y302643D02*
D03*
Y296935D02*
D03*
D20*
X558232Y337918D02*
D03*
X558232Y340477D02*
D03*
X558232Y343037D02*
D03*
X550752D02*
D03*
Y340477D02*
D03*
Y337918D02*
D03*
D21*
X574130Y293500D02*
D03*
Y288500D02*
D03*
Y283500D02*
D03*
Y278500D02*
D03*
X552870D02*
D03*
Y283500D02*
D03*
Y288500D02*
D03*
Y293500D02*
D03*
D22*
X449903Y292355D02*
D03*
X444785D02*
D03*
Y285390D02*
D03*
X449903D02*
D03*
D23*
X559449Y302792D02*
D03*
X553135D02*
D03*
X534684Y309810D02*
D03*
X540998D02*
D03*
X541843Y412000D02*
D03*
X548157D02*
D03*
X422157Y416000D02*
D03*
X415843D02*
D03*
X411639Y332941D02*
D03*
X405325D02*
D03*
X411295Y368059D02*
D03*
X404981D02*
D03*
X448157Y318500D02*
D03*
X441843D02*
D03*
X473843Y319500D02*
D03*
X480157D02*
D03*
X516665D02*
D03*
X522979D02*
D03*
D24*
X515665Y279153D02*
D03*
Y285846D02*
D03*
X536335Y279153D02*
D03*
Y285846D02*
D03*
X480665Y279153D02*
D03*
Y285846D02*
D03*
X501335Y279153D02*
D03*
Y285846D02*
D03*
D25*
X501500Y302941D02*
D03*
Y308059D02*
D03*
D26*
X520547Y299500D02*
D03*
X526453D02*
D03*
D27*
X541500D02*
D03*
X535791D02*
D03*
X422124Y426169D02*
D03*
X416415D02*
D03*
D28*
X516289Y309618D02*
D03*
X523769D02*
D03*
X549076Y421929D02*
D03*
X541596D02*
D03*
X534191Y319693D02*
D03*
X541671D02*
D03*
X449289Y308618D02*
D03*
X441809D02*
D03*
D29*
X549382Y375050D02*
D03*
Y382530D02*
D03*
X560225Y375271D02*
D03*
Y382751D02*
D03*
X407118Y379841D02*
D03*
Y387321D02*
D03*
D30*
X567500Y363657D02*
D03*
Y357343D02*
D03*
X539500Y364157D02*
D03*
Y357843D02*
D03*
X432124Y318143D02*
D03*
Y311829D02*
D03*
X570107Y375455D02*
D03*
Y381769D02*
D03*
X417000Y379843D02*
D03*
Y386157D02*
D03*
X539500Y375343D02*
D03*
Y381657D02*
D03*
D31*
X544339Y343059D02*
D03*
Y340500D02*
D03*
Y337941D02*
D03*
X536661D02*
D03*
Y340500D02*
D03*
Y343059D02*
D03*
D32*
X411530Y342035D02*
D03*
Y358965D02*
D03*
D33*
X638590Y410272D02*
D03*
Y399484D02*
D03*
Y388697D02*
D03*
Y377909D02*
D03*
Y367122D02*
D03*
Y356335D02*
D03*
Y345547D02*
D03*
X627410Y415665D02*
D03*
Y404878D02*
D03*
Y394091D02*
D03*
Y383303D02*
D03*
Y372516D02*
D03*
Y361728D02*
D03*
Y350941D02*
D03*
Y340154D02*
D03*
D34*
X411110Y438321D02*
D03*
X411000Y313500D02*
D03*
X645000Y263500D02*
D03*
Y489000D02*
D03*
D35*
X576563Y458005D02*
D03*
D36*
X560972D02*
D03*
D37*
X649000Y468000D02*
D03*
X648842Y283500D02*
D03*
D38*
X639157Y468000D02*
D03*
X629315D02*
D03*
X619472D02*
D03*
X609630D02*
D03*
X599787D02*
D03*
X599630Y283500D02*
D03*
X609472D02*
D03*
X619315Y283500D02*
D03*
X629157D02*
D03*
X639000Y283500D02*
D03*
D39*
X469500Y285000D02*
D03*
Y295000D02*
D03*
X459500D02*
D03*
D40*
Y285000D02*
D03*
D41*
X526000Y277087D02*
D03*
Y287913D02*
D03*
X491000Y277087D02*
D03*
Y287913D02*
D03*
D42*
X583000Y317000D02*
D03*
X578500Y305500D02*
D03*
X620500Y448000D02*
D03*
X639000Y450000D02*
D03*
X508343Y301157D02*
D03*
X560500Y289000D02*
D03*
X541000Y295000D02*
D03*
X547500Y305000D02*
D03*
X542500Y286091D02*
D03*
X426000Y297000D02*
D03*
X603500Y451500D02*
D03*
X620500Y382000D02*
D03*
X582500Y324000D02*
D03*
X594500D02*
D03*
X581000Y394500D02*
D03*
X620500Y388000D02*
D03*
X581000Y381000D02*
D03*
Y388000D02*
D03*
X568500Y369000D02*
D03*
X559000D02*
D03*
X549000D02*
D03*
X539500D02*
D03*
X609000Y451500D02*
D03*
Y459000D02*
D03*
X507500Y315802D02*
D03*
X558500Y441500D02*
D03*
X459500Y317000D02*
D03*
Y311000D02*
D03*
Y305500D02*
D03*
X507500Y308500D02*
D03*
X547500Y310500D02*
D03*
D43*
X575521Y429567D02*
D03*
X569000Y320500D02*
D03*
X479178Y436670D02*
D03*
X480995Y423434D02*
D03*
X448437Y437138D02*
D03*
X452500Y437500D02*
D03*
X510500Y407500D02*
D03*
X426500Y421500D02*
D03*
X537000Y453500D02*
D03*
X527500D02*
D03*
X518000D02*
D03*
X478500Y455862D02*
D03*
X514470Y425398D02*
D03*
X513228Y405945D02*
D03*
X518500Y416500D02*
D03*
X511500Y413000D02*
D03*
X508903Y410742D02*
D03*
X456500Y441000D02*
D03*
X441394Y442106D02*
D03*
X448199Y468676D02*
D03*
X465457Y448500D02*
D03*
X468000Y447000D02*
D03*
X457500Y451000D02*
D03*
X453894Y450606D02*
D03*
X458307Y447519D02*
D03*
X466500Y424500D02*
D03*
X464753Y442457D02*
D03*
X423000Y459500D02*
D03*
X416415Y453298D02*
D03*
X423000Y440632D02*
D03*
X435074Y428559D02*
D03*
X441894Y427106D02*
D03*
X425818Y400106D02*
D03*
X481500Y409000D02*
D03*
X492500Y424000D02*
D03*
X485462Y424011D02*
D03*
X489500Y426379D02*
D03*
X483000Y427970D02*
D03*
X471282Y449228D02*
D03*
X466500Y407500D02*
D03*
X456406Y409772D02*
D03*
X451331Y414000D02*
D03*
X459173Y412591D02*
D03*
X454383Y423617D02*
D03*
X448258Y423359D02*
D03*
X450120Y425651D02*
D03*
X461000Y426000D02*
D03*
X503384Y436868D02*
D03*
X500500Y437500D02*
D03*
X492728Y439569D02*
D03*
X490500Y449728D02*
D03*
X483115Y447879D02*
D03*
X467644Y441856D02*
D03*
X488680Y447359D02*
D03*
X473406Y425399D02*
D03*
X475870Y423130D02*
D03*
X521390Y418862D02*
D03*
X421934Y411360D02*
D03*
X420684Y406897D02*
D03*
X501500Y290000D02*
D03*
X583500Y403000D02*
D03*
X583878Y406188D02*
D03*
X590000Y409522D02*
D03*
X600500Y409000D02*
D03*
X595500D02*
D03*
X618500Y341000D02*
D03*
X587500Y331500D02*
D03*
X608500Y346000D02*
D03*
X601000Y354500D02*
D03*
X595500Y414000D02*
D03*
X590000Y418000D02*
D03*
Y414000D02*
D03*
X600500D02*
D03*
X595500Y418000D02*
D03*
X613000Y367500D02*
D03*
X600500Y418000D02*
D03*
X571772Y298148D02*
D03*
X531216Y336579D02*
D03*
X531000Y347500D02*
D03*
X527936Y346936D02*
D03*
X498500Y360631D02*
D03*
X496500Y358022D02*
D03*
X476586Y414084D02*
D03*
X577786Y367214D02*
D03*
X469364Y363636D02*
D03*
X465346Y358980D02*
D03*
X463500Y370612D02*
D03*
X471500Y359000D02*
D03*
X498000Y377741D02*
D03*
X481648Y369228D02*
D03*
X540500Y428000D02*
D03*
X515000Y348500D02*
D03*
X572626Y346374D02*
D03*
X553803Y346803D02*
D03*
X558000Y351500D02*
D03*
X542601Y355399D02*
D03*
X539285Y333629D02*
D03*
X548500Y334500D02*
D03*
X532647Y427646D02*
D03*
X535000Y421000D02*
D03*
X542000Y395000D02*
D03*
X537140Y347852D02*
D03*
X518500Y327816D02*
D03*
X454043Y328000D02*
D03*
X442500Y326228D02*
D03*
X491500Y327000D02*
D03*
X492772Y324148D02*
D03*
X490500Y282500D02*
D03*
X583539Y439461D02*
D03*
X530500Y363500D02*
D03*
X530644Y355144D02*
D03*
X529945Y352275D02*
D03*
X546025Y350572D02*
D03*
X570127Y342187D02*
D03*
X563418Y337734D02*
D03*
X512394Y362394D02*
D03*
X509772Y364913D02*
D03*
X539883Y327155D02*
D03*
X525074Y410741D02*
D03*
X523500Y416500D02*
D03*
X521500Y413592D02*
D03*
X515500Y393000D02*
D03*
X507000D02*
D03*
X449902Y348718D02*
D03*
X538224Y408000D02*
D03*
X540272Y402000D02*
D03*
Y405757D02*
D03*
X530272Y387228D02*
D03*
X520000Y339316D02*
D03*
X509500Y403816D02*
D03*
X401500Y421316D02*
D03*
X407610Y393277D02*
D03*
X400000Y378000D02*
D03*
X391500D02*
D03*
X395157Y346973D02*
D03*
X503000Y328816D02*
D03*
X487633Y359857D02*
D03*
X449712Y390212D02*
D03*
X442046Y385239D02*
D03*
X441000Y388000D02*
D03*
X444244Y383228D02*
D03*
X487500Y392316D02*
D03*
X396500Y387000D02*
D03*
X544496Y345996D02*
D03*
X555500Y334500D02*
D03*
X530272Y382816D02*
D03*
X527113Y363703D02*
D03*
X472439Y328816D02*
D03*
X449500Y340500D02*
D03*
X426500Y350816D02*
D03*
X442365Y379451D02*
D03*
X431000Y396316D02*
D03*
X430361Y400573D02*
D03*
X492000Y404816D02*
D03*
X551000Y350000D02*
D03*
X475341Y324228D02*
D03*
X498000Y393000D02*
D03*
X538000Y389500D02*
D03*
X465439Y322579D02*
D03*
X398500Y401500D02*
D03*
X434500Y421500D02*
D03*
X393500Y367500D02*
D03*
X409000Y372132D02*
D03*
X403500Y357000D02*
D03*
X388351Y399032D02*
D03*
X426000Y396500D02*
D03*
X451285Y406219D02*
D03*
X431892Y361615D02*
D03*
X426500Y344000D02*
D03*
X461488Y326331D02*
D03*
X515091Y377480D02*
D03*
X426177Y367824D02*
D03*
X423772Y386000D02*
D03*
Y382500D02*
D03*
X424272Y389500D02*
D03*
X423000Y393500D02*
D03*
X506728Y327000D02*
D03*
X509000Y323000D02*
D03*
X449500Y328500D02*
D03*
X527000Y379500D02*
D03*
X457500Y341000D02*
D03*
X507500Y345000D02*
D03*
X507000Y340000D02*
D03*
X507081Y377361D02*
D03*
X473500Y387000D02*
D03*
X500019Y363532D02*
D03*
X502000Y366000D02*
D03*
X503500Y369000D02*
D03*
X459000Y392500D02*
D03*
X456000Y391500D02*
D03*
X453000Y391000D02*
D03*
X465500Y345000D02*
D03*
X462000Y360500D02*
D03*
X468500Y386500D02*
D03*
X484500Y326500D02*
D03*
X491000Y342000D02*
D03*
X494000Y348500D02*
D03*
D44*
X572407Y318898D02*
D03*
X602362Y307086D02*
D03*
X419291Y366142D02*
D03*
X507874Y425197D02*
D03*
X478346Y460630D02*
D03*
X425197Y307086D02*
D03*
X413386Y448819D02*
D03*
X419291Y318898D02*
D03*
X567705Y328811D02*
D03*
X526366Y293378D02*
D03*
X496839Y305189D02*
D03*
X490933Y293378D02*
D03*
X473216Y305189D02*
D03*
X479122Y293378D02*
D03*
X455500Y317000D02*
D03*
X655512Y460630D02*
D03*
X649606Y425197D02*
D03*
Y401575D02*
D03*
Y377953D02*
D03*
Y354331D02*
D03*
Y330709D02*
D03*
Y307086D02*
D03*
X643701Y437008D02*
D03*
X637795Y425197D02*
D03*
X643701Y413386D02*
D03*
Y389764D02*
D03*
Y318898D02*
D03*
X625984Y472441D02*
D03*
Y377953D02*
D03*
X631890Y366142D02*
D03*
Y342520D02*
D03*
Y295275D02*
D03*
X614173Y472441D02*
D03*
Y401575D02*
D03*
X620079Y366142D02*
D03*
X614173Y330709D02*
D03*
X620079Y318898D02*
D03*
Y295275D02*
D03*
X602362Y330709D02*
D03*
X590551Y472441D02*
D03*
X578740D02*
D03*
X584646Y389764D02*
D03*
X578740Y354331D02*
D03*
X566929Y472441D02*
D03*
X572834Y437008D02*
D03*
X566929Y283465D02*
D03*
X555118Y472441D02*
D03*
X561023Y437008D02*
D03*
X555118Y401575D02*
D03*
X561023Y389764D02*
D03*
X543307Y472441D02*
D03*
X531496D02*
D03*
X519685D02*
D03*
X507874D02*
D03*
X496063D02*
D03*
X472441D02*
D03*
X478346Y389764D02*
D03*
X460630Y472441D02*
D03*
X466535Y318898D02*
D03*
X454724Y366142D02*
D03*
X419291Y295275D02*
D03*
X401575Y425197D02*
D03*
X407480Y413386D02*
D03*
X395669D02*
D03*
Y342520D02*
D03*
X389764Y330709D02*
D03*
X395669Y318898D02*
D03*
X383858Y389764D02*
D03*
X377953Y377953D02*
D03*
X383858Y366142D02*
D03*
Y342520D02*
D03*
M02*
