G04*
G04 #@! TF.GenerationSoftware,Altium Limited,Altium Designer,25.1.2 (22)*
G04*
G04 Layer_Color=8421504*
%FSLAX25Y25*%
%MOIN*%
G70*
G04*
G04 #@! TF.SameCoordinates,8CEF69DF-C305-4807-9533-15B17650E19F*
G04*
G04*
G04 #@! TF.FilePolarity,Positive*
G04*
G01*
G75*
%ADD16R,0.01378X0.05315*%
%ADD17R,0.05315X0.01378*%
%ADD18R,0.04134X0.03543*%
%ADD19R,0.01200X0.04700*%
%ADD20R,0.03347X0.01575*%
G04:AMPARAMS|DCode=21|XSize=61.02mil|YSize=23.62mil|CornerRadius=2.01mil|HoleSize=0mil|Usage=FLASHONLY|Rotation=0.000|XOffset=0mil|YOffset=0mil|HoleType=Round|Shape=RoundedRectangle|*
%AMROUNDEDRECTD21*
21,1,0.06102,0.01961,0,0,0.0*
21,1,0.05701,0.02362,0,0,0.0*
1,1,0.00402,0.02850,-0.00980*
1,1,0.00402,-0.02850,-0.00980*
1,1,0.00402,-0.02850,0.00980*
1,1,0.00402,0.02850,0.00980*
%
%ADD21ROUNDEDRECTD21*%
%ADD22R,0.03150X0.03740*%
%ADD23R,0.04758X0.03985*%
%ADD24R,0.06102X0.03937*%
%ADD25R,0.03740X0.03150*%
%ADD26R,0.03150X0.03150*%
%ADD27R,0.03543X0.04134*%
%ADD28R,0.05512X0.05906*%
%ADD29R,0.05906X0.05512*%
%ADD30R,0.03985X0.04758*%
%ADD31R,0.03347X0.01378*%
%ADD32R,0.10236X0.07480*%
G36*
X431378Y447441D02*
Y438041D01*
X437678Y438041D01*
Y447441D01*
X431378D01*
D02*
G37*
G36*
X521578D02*
Y438041D01*
X527878Y438041D01*
Y447441D01*
X521578D01*
D02*
G37*
D16*
X443760Y418513D02*
D03*
X445728Y418513D02*
D03*
X447697D02*
D03*
X449665D02*
D03*
X451634D02*
D03*
X453602D02*
D03*
X455571D02*
D03*
X457539Y418513D02*
D03*
X459508D02*
D03*
X461476Y418513D02*
D03*
X463445D02*
D03*
X465413D02*
D03*
X467382D02*
D03*
X469350D02*
D03*
X471319Y418513D02*
D03*
X473287Y418513D02*
D03*
X475256D02*
D03*
X477224D02*
D03*
X479193D02*
D03*
X481161D02*
D03*
X483130D02*
D03*
X485098Y418513D02*
D03*
X487067Y418513D02*
D03*
X489035D02*
D03*
X491004D02*
D03*
X492972D02*
D03*
X494941D02*
D03*
X496909Y418513D02*
D03*
X498878D02*
D03*
X500846Y418513D02*
D03*
X502815D02*
D03*
X504783D02*
D03*
X506752D02*
D03*
X508720D02*
D03*
X510689D02*
D03*
X512657Y418513D02*
D03*
Y334852D02*
D03*
X510689Y334852D02*
D03*
X508720D02*
D03*
X506752D02*
D03*
X504783D02*
D03*
X502815D02*
D03*
X500846D02*
D03*
X498878Y334852D02*
D03*
X496909D02*
D03*
X494941Y334852D02*
D03*
X492972D02*
D03*
X491004D02*
D03*
X489035D02*
D03*
X487067D02*
D03*
X485098Y334852D02*
D03*
X483130Y334852D02*
D03*
X481161D02*
D03*
X479193D02*
D03*
X477224D02*
D03*
X475256D02*
D03*
X473287D02*
D03*
X471319Y334852D02*
D03*
X469350Y334852D02*
D03*
X467382D02*
D03*
X465413D02*
D03*
X463445D02*
D03*
X461476D02*
D03*
X459508Y334852D02*
D03*
X457539D02*
D03*
X455571Y334852D02*
D03*
X453602D02*
D03*
X451634D02*
D03*
X449665D02*
D03*
X447697D02*
D03*
X445728D02*
D03*
X443760Y334852D02*
D03*
D17*
X520039Y411131D02*
D03*
X520039Y409163D02*
D03*
Y407194D02*
D03*
Y405226D02*
D03*
Y403257D02*
D03*
Y401289D02*
D03*
Y399320D02*
D03*
X520039Y397352D02*
D03*
Y395383D02*
D03*
X520039Y393415D02*
D03*
Y391446D02*
D03*
Y389478D02*
D03*
Y387509D02*
D03*
Y385541D02*
D03*
X520039Y383572D02*
D03*
X520039Y381604D02*
D03*
Y379635D02*
D03*
Y377667D02*
D03*
Y375698D02*
D03*
Y373730D02*
D03*
Y371761D02*
D03*
X520039Y369793D02*
D03*
X520039Y367824D02*
D03*
Y365856D02*
D03*
Y363887D02*
D03*
Y361918D02*
D03*
Y359950D02*
D03*
X520039Y357981D02*
D03*
Y356013D02*
D03*
X520039Y354045D02*
D03*
Y352076D02*
D03*
Y350108D02*
D03*
Y348139D02*
D03*
Y346170D02*
D03*
Y344202D02*
D03*
X520039Y342233D02*
D03*
X436378D02*
D03*
X436378Y344202D02*
D03*
Y346170D02*
D03*
Y348139D02*
D03*
Y350108D02*
D03*
Y352076D02*
D03*
Y354045D02*
D03*
X436378Y356013D02*
D03*
Y357981D02*
D03*
X436378Y359950D02*
D03*
Y361918D02*
D03*
Y363887D02*
D03*
Y365856D02*
D03*
Y367824D02*
D03*
X436378Y369793D02*
D03*
X436378Y371761D02*
D03*
Y373730D02*
D03*
Y375698D02*
D03*
Y377667D02*
D03*
Y379635D02*
D03*
Y381604D02*
D03*
X436378Y383572D02*
D03*
X436378Y385541D02*
D03*
Y387509D02*
D03*
Y389478D02*
D03*
Y391446D02*
D03*
Y393415D02*
D03*
X436378Y395383D02*
D03*
Y397352D02*
D03*
X436378Y399320D02*
D03*
Y401289D02*
D03*
Y403257D02*
D03*
Y405226D02*
D03*
Y407194D02*
D03*
Y409163D02*
D03*
X436378Y411131D02*
D03*
D18*
X423000Y454854D02*
D03*
Y449146D02*
D03*
X548995Y358778D02*
D03*
Y364487D02*
D03*
X558262Y364351D02*
D03*
Y358642D02*
D03*
X583102Y283146D02*
D03*
Y288854D02*
D03*
X431918Y302643D02*
D03*
Y296935D02*
D03*
D19*
X441115Y432092D02*
D03*
X443090D02*
D03*
X445065D02*
D03*
X447040D02*
D03*
X449015D02*
D03*
X450990D02*
D03*
X452965D02*
D03*
X454940D02*
D03*
X456915D02*
D03*
X458890D02*
D03*
X460865D02*
D03*
X462840D02*
D03*
X464815D02*
D03*
X466790D02*
D03*
X468765D02*
D03*
X470740D02*
D03*
X472715D02*
D03*
X474690D02*
D03*
X476665D02*
D03*
X478640D02*
D03*
X480615D02*
D03*
X482590D02*
D03*
X484565D02*
D03*
X486540D02*
D03*
X488515D02*
D03*
X490490D02*
D03*
X492465D02*
D03*
X494440D02*
D03*
X496415D02*
D03*
X498390D02*
D03*
X500365D02*
D03*
X502340D02*
D03*
X504315D02*
D03*
X506290D02*
D03*
X508265D02*
D03*
X510240D02*
D03*
X512215D02*
D03*
X514190D02*
D03*
X516165D02*
D03*
X518140D02*
D03*
D20*
X558232Y337918D02*
D03*
X558232Y340477D02*
D03*
X558232Y343037D02*
D03*
X550752D02*
D03*
Y340477D02*
D03*
Y337918D02*
D03*
D21*
X574130Y293500D02*
D03*
Y288500D02*
D03*
Y283500D02*
D03*
Y278500D02*
D03*
X552870D02*
D03*
Y283500D02*
D03*
Y288500D02*
D03*
Y293500D02*
D03*
D22*
X449903Y292355D02*
D03*
X444785D02*
D03*
Y285390D02*
D03*
X449903D02*
D03*
D23*
X559449Y302792D02*
D03*
X553135D02*
D03*
X534684Y309810D02*
D03*
X540998D02*
D03*
X541843Y412000D02*
D03*
X548157D02*
D03*
X422157Y416000D02*
D03*
X415843D02*
D03*
X411639Y332941D02*
D03*
X405325D02*
D03*
X411295Y368059D02*
D03*
X404981D02*
D03*
X448157Y318500D02*
D03*
X441843D02*
D03*
X473843Y319500D02*
D03*
X480157D02*
D03*
X516665D02*
D03*
X522979D02*
D03*
D24*
X515665Y279153D02*
D03*
Y285846D02*
D03*
X536335Y279153D02*
D03*
Y285846D02*
D03*
X480665Y279153D02*
D03*
Y285846D02*
D03*
X501335Y279153D02*
D03*
Y285846D02*
D03*
D25*
X501500Y302941D02*
D03*
Y308059D02*
D03*
D26*
X520547Y299500D02*
D03*
X526453D02*
D03*
D27*
X541500D02*
D03*
X535791D02*
D03*
X422124Y426169D02*
D03*
X416415D02*
D03*
D28*
X516289Y309618D02*
D03*
X523769D02*
D03*
X549076Y421929D02*
D03*
X541596D02*
D03*
X534191Y319693D02*
D03*
X541671D02*
D03*
X449289Y308618D02*
D03*
X441809D02*
D03*
D29*
X549382Y375050D02*
D03*
Y382530D02*
D03*
X560225Y375271D02*
D03*
Y382751D02*
D03*
X407118Y379841D02*
D03*
Y387321D02*
D03*
D30*
X567500Y363657D02*
D03*
Y357343D02*
D03*
X539500Y364157D02*
D03*
Y357843D02*
D03*
X432124Y318143D02*
D03*
Y311829D02*
D03*
X570107Y375455D02*
D03*
Y381769D02*
D03*
X417000Y379843D02*
D03*
Y386157D02*
D03*
X539500Y375343D02*
D03*
Y381657D02*
D03*
D31*
X544339Y343059D02*
D03*
Y340500D02*
D03*
Y337941D02*
D03*
X536661D02*
D03*
Y340500D02*
D03*
Y343059D02*
D03*
D32*
X411530Y342035D02*
D03*
Y358965D02*
D03*
M02*
