G04*
G04 #@! TF.GenerationSoftware,Altium Limited,Altium Designer,25.1.2 (22)*
G04*
G04 Layer_Physical_Order=3*
G04 Layer_Color=16440176*
%FSLAX25Y25*%
%MOIN*%
G70*
G04*
G04 #@! TF.SameCoordinates,306FC79E-9B49-4897-B38B-A4FC230E2DB4*
G04*
G04*
G04 #@! TF.FilePolarity,Positive*
G04*
G01*
G75*
%ADD34C,0.12598*%
%ADD35R,0.09843X0.09843*%
%ADD36C,0.09843*%
%ADD37R,0.05512X0.05512*%
%ADD38C,0.05512*%
%ADD39C,0.05984*%
%ADD40R,0.05984X0.05984*%
%ADD41C,0.02953*%
%ADD42C,0.03150*%
%ADD43C,0.02362*%
%ADD44C,0.02800*%
%ADD49C,0.06000*%
G36*
X480500Y478500D02*
X480939Y478353D01*
X481197Y478000D01*
Y456500D01*
X481258Y456193D01*
X481432Y455932D01*
X481693Y455758D01*
X482000Y455697D01*
X517368D01*
X517468Y455197D01*
X516996Y455002D01*
X516498Y454504D01*
X516228Y453852D01*
Y453148D01*
X516498Y452496D01*
X516996Y451998D01*
X517648Y451728D01*
X518352D01*
X519004Y451998D01*
X519502Y452496D01*
X519772Y453148D01*
Y453852D01*
X519502Y454504D01*
X519004Y455002D01*
X518532Y455197D01*
X518632Y455697D01*
X526868D01*
X526968Y455197D01*
X526496Y455002D01*
X525998Y454504D01*
X525728Y453852D01*
Y453148D01*
X525998Y452496D01*
X526496Y451998D01*
X527148Y451728D01*
X527852D01*
X528504Y451998D01*
X529002Y452496D01*
X529272Y453148D01*
Y453852D01*
X529002Y454504D01*
X528504Y455002D01*
X528032Y455197D01*
X528132Y455697D01*
X536368D01*
X536468Y455197D01*
X535996Y455002D01*
X535498Y454504D01*
X535228Y453852D01*
Y453148D01*
X535498Y452496D01*
X535996Y451998D01*
X536648Y451728D01*
X537352D01*
X538004Y451998D01*
X538502Y452496D01*
X538772Y453148D01*
Y453852D01*
X538502Y454504D01*
X538004Y455002D01*
X537532Y455197D01*
X537632Y455697D01*
X542197D01*
Y429515D01*
X541697Y429308D01*
X541504Y429502D01*
X540852Y429772D01*
X540148D01*
X539496Y429502D01*
X538998Y429004D01*
X538728Y428352D01*
Y427648D01*
X538998Y426996D01*
X539496Y426498D01*
X540148Y426228D01*
X540852D01*
X541504Y426498D01*
X541697Y426692D01*
X542197Y426485D01*
Y403233D01*
X542059Y403158D01*
X541697Y403080D01*
X541275Y403502D01*
X540624Y403772D01*
X539919D01*
X539268Y403502D01*
X538770Y403004D01*
X538500Y402352D01*
Y401648D01*
X538770Y400996D01*
X539268Y400498D01*
X539919Y400228D01*
X540624D01*
X541275Y400498D01*
X541697Y400920D01*
X542059Y400842D01*
X542197Y400767D01*
Y396772D01*
X541648D01*
X540996Y396502D01*
X540498Y396004D01*
X540228Y395352D01*
Y394648D01*
X540498Y393996D01*
X540996Y393498D01*
X541648Y393228D01*
X542197D01*
Y388500D01*
X542258Y388193D01*
X542432Y387932D01*
X542693Y387758D01*
X543000Y387697D01*
X558873D01*
X558942Y387711D01*
X559012Y387709D01*
X559094Y387741D01*
X559180Y387758D01*
X559239Y387797D01*
X559304Y387823D01*
X559368Y387883D01*
X559441Y387932D01*
X559896Y388076D01*
X560628Y387773D01*
X561419D01*
X562151Y388076D01*
X562606Y387932D01*
X562679Y387883D01*
X562743Y387823D01*
X562808Y387797D01*
X562866Y387758D01*
X562953Y387741D01*
X563035Y387709D01*
X563105Y387711D01*
X563174Y387697D01*
X578835D01*
Y387569D01*
X579164Y386773D01*
X579773Y386164D01*
X580569Y385835D01*
X581431D01*
X582227Y386164D01*
X582836Y386773D01*
X583165Y387569D01*
Y387775D01*
X583665Y388015D01*
X584249Y387773D01*
X585041D01*
X585773Y388076D01*
X586228Y387932D01*
X586301Y387883D01*
X586365Y387823D01*
X586430Y387797D01*
X586488Y387758D01*
X586575Y387741D01*
X586657Y387709D01*
X586727Y387711D01*
X586796Y387697D01*
X588000D01*
X588307Y387758D01*
X588568Y387932D01*
X588742Y388193D01*
X588803Y388500D01*
Y448197D01*
X618335D01*
Y447569D01*
X618664Y446773D01*
X619273Y446164D01*
X620069Y445835D01*
X620931D01*
X621727Y446164D01*
X622336Y446773D01*
X622665Y447569D01*
Y448197D01*
X627272D01*
X627517Y447697D01*
X626894Y446764D01*
X626374Y445510D01*
X626110Y444179D01*
Y442821D01*
X626374Y441490D01*
X626894Y440236D01*
X627648Y439108D01*
X628608Y438148D01*
X629736Y437394D01*
X630990Y436874D01*
X632321Y436610D01*
X633679D01*
X635010Y436874D01*
X636264Y437394D01*
X637393Y438148D01*
X638352Y439108D01*
X639106Y440236D01*
X639626Y441490D01*
X639890Y442821D01*
Y444179D01*
X639626Y445510D01*
X639106Y446764D01*
X638725Y447335D01*
X638992Y447835D01*
X639431D01*
X640227Y448164D01*
X640443Y448380D01*
X640924Y448432D01*
X641011Y448374D01*
X641090Y448305D01*
X641140Y448288D01*
X641184Y448258D01*
X641287Y448238D01*
X641387Y448204D01*
X641439Y448208D01*
X641492Y448197D01*
X643197D01*
Y438978D01*
X643202Y438956D01*
X642573Y438695D01*
X642013Y438135D01*
X641710Y437404D01*
Y436612D01*
X642013Y435880D01*
X642573Y435320D01*
X643202Y435060D01*
X643197Y435038D01*
Y415356D01*
X643202Y415334D01*
X642573Y415073D01*
X642013Y414513D01*
X641710Y413782D01*
Y412990D01*
X641747Y412900D01*
X641323Y412617D01*
X640795Y413145D01*
X639977Y413618D01*
X639063Y413862D01*
X638118D01*
X637205Y413618D01*
X636386Y413145D01*
X635717Y412476D01*
X635245Y411657D01*
X635000Y410744D01*
Y409799D01*
X635245Y408886D01*
X635717Y408067D01*
X636386Y407399D01*
X637205Y406926D01*
X638118Y406681D01*
X639063D01*
X639977Y406926D01*
X640795Y407399D01*
X641464Y408067D01*
X641936Y408886D01*
X642181Y409799D01*
Y410744D01*
X641947Y411617D01*
X641971Y411658D01*
X642468Y411803D01*
X642573Y411698D01*
X643202Y411438D01*
X643197Y411416D01*
Y391734D01*
X643202Y391711D01*
X642573Y391451D01*
X642035Y390913D01*
X641965Y390864D01*
X641493Y390851D01*
X641464Y390901D01*
X640795Y391570D01*
X639977Y392043D01*
X639063Y392287D01*
X638118D01*
X637205Y392043D01*
X636386Y391570D01*
X635717Y390901D01*
X635245Y390083D01*
X635000Y389170D01*
Y388224D01*
X635245Y387311D01*
X635717Y386492D01*
X636386Y385824D01*
X637205Y385351D01*
X638118Y385106D01*
X639063D01*
X639977Y385351D01*
X640795Y385824D01*
X641464Y386492D01*
X641936Y387311D01*
X642083Y387859D01*
X642424Y388010D01*
X642651Y388044D01*
X643202Y387816D01*
X643197Y387794D01*
Y328803D01*
X615790D01*
X615582Y329303D01*
X615861Y329581D01*
X616164Y330313D01*
Y331104D01*
X615861Y331836D01*
X615301Y332396D01*
X614569Y332699D01*
X613777D01*
X613046Y332396D01*
X612486Y331836D01*
X612183Y331104D01*
Y330313D01*
X612486Y329581D01*
X612764Y329303D01*
X612557Y328803D01*
X603978D01*
X603771Y329303D01*
X604049Y329581D01*
X604353Y330313D01*
Y331104D01*
X604049Y331836D01*
X603490Y332396D01*
X602758Y332699D01*
X601966D01*
X601234Y332396D01*
X600674Y331836D01*
X600372Y331104D01*
Y330313D01*
X600674Y329581D01*
X600953Y329303D01*
X600746Y328803D01*
X575000D01*
X574693Y328742D01*
X574432Y328568D01*
X574258Y328307D01*
X574197Y328000D01*
Y320630D01*
X573697Y320423D01*
X573535Y320585D01*
X572803Y320888D01*
X572011D01*
X571280Y320585D01*
X571272Y320577D01*
X570772Y320784D01*
Y320852D01*
X570502Y321504D01*
X570004Y322002D01*
X569352Y322272D01*
X568648D01*
X567996Y322002D01*
X567498Y321504D01*
X567228Y320852D01*
Y320148D01*
X567498Y319496D01*
X567996Y318998D01*
X568648Y318728D01*
X569352D01*
X569917Y318962D01*
X570239Y318830D01*
X570417Y318704D01*
Y318502D01*
X570720Y317770D01*
X571280Y317210D01*
X572011Y316907D01*
X572803D01*
X573535Y317210D01*
X573697Y317372D01*
X574197Y317165D01*
Y289803D01*
X562708D01*
X562630Y289787D01*
X562551D01*
X562478Y289757D01*
X562400Y289742D01*
X562335Y289698D01*
X562262Y289668D01*
X562206Y289612D01*
X562140Y289568D01*
X562096Y289502D01*
X562040Y289446D01*
X562010Y289373D01*
X561966Y289307D01*
X561951Y289230D01*
X561920Y289157D01*
X561784Y288468D01*
X561482Y288018D01*
X561032Y287717D01*
X560500Y287611D01*
X559968Y287717D01*
X559518Y288018D01*
X559216Y288468D01*
X559080Y289157D01*
X559049Y289230D01*
X559034Y289307D01*
X558990Y289373D01*
X558960Y289446D01*
X558904Y289502D01*
X558860Y289568D01*
X558794Y289612D01*
X558738Y289668D01*
X558665Y289698D01*
X558600Y289742D01*
X558522Y289757D01*
X558449Y289787D01*
X558370D01*
X558292Y289803D01*
X528315D01*
X528233Y289786D01*
X528148Y289785D01*
X528081Y289756D01*
X528008Y289742D01*
X527938Y289695D01*
X527861Y289662D01*
X527630Y289573D01*
X527357Y289584D01*
X527217Y289619D01*
X527171Y289666D01*
X526411Y289980D01*
X525589D01*
X524829Y289666D01*
X524783Y289619D01*
X524643Y289584D01*
X524370Y289573D01*
X524139Y289662D01*
X524062Y289695D01*
X523992Y289742D01*
X523919Y289756D01*
X523852Y289785D01*
X523767Y289786D01*
X523685Y289803D01*
X503272D01*
Y290352D01*
X503002Y291004D01*
X502504Y291502D01*
X501852Y291772D01*
X501148D01*
X500496Y291502D01*
X499998Y291004D01*
X499728Y290352D01*
Y289803D01*
X493315D01*
X493233Y289786D01*
X493148Y289785D01*
X493081Y289756D01*
X493008Y289742D01*
X492938Y289695D01*
X492861Y289662D01*
X492629Y289573D01*
X492357Y289584D01*
X492217Y289619D01*
X492171Y289666D01*
X491411Y289980D01*
X490589D01*
X489829Y289666D01*
X489783Y289619D01*
X489643Y289584D01*
X489370Y289573D01*
X489139Y289662D01*
X489062Y289695D01*
X488992Y289742D01*
X488919Y289756D01*
X488852Y289785D01*
X488767Y289786D01*
X488685Y289803D01*
X473500D01*
X473193Y289742D01*
X472932Y289568D01*
X472758Y289307D01*
X472697Y289000D01*
Y287577D01*
X472197Y287369D01*
X471700Y287867D01*
X470883Y288338D01*
X469972Y288583D01*
X469028D01*
X468117Y288338D01*
X467300Y287867D01*
X466633Y287200D01*
X466161Y286383D01*
X465917Y285472D01*
Y284528D01*
X466161Y283617D01*
X466633Y282800D01*
X467300Y282133D01*
X468117Y281662D01*
X469028Y281417D01*
X469972D01*
X470883Y281662D01*
X471700Y282133D01*
X472197Y282630D01*
X472697Y282423D01*
Y275625D01*
X472758Y275318D01*
X472917Y275080D01*
X472891Y274956D01*
X472739Y274586D01*
X471596Y274622D01*
X465352Y275208D01*
X459155Y276176D01*
X453029Y277522D01*
X446998Y279243D01*
X441083Y281330D01*
X435308Y283777D01*
X429695Y286574D01*
X424263Y289710D01*
X419622Y292785D01*
X419662Y293092D01*
X419740Y293307D01*
X420419Y293588D01*
X420979Y294148D01*
X421282Y294880D01*
Y295672D01*
X420979Y296403D01*
X420419Y296963D01*
X419687Y297266D01*
X418895D01*
X418164Y296963D01*
X417604Y296403D01*
X417301Y295672D01*
Y295109D01*
X416812Y294851D01*
X414028Y296953D01*
X409264Y301032D01*
X404759Y305395D01*
X400530Y310028D01*
X396594Y314911D01*
X395533Y316407D01*
X395791Y316907D01*
X396065D01*
X396797Y317210D01*
X397357Y317770D01*
X397660Y318502D01*
Y319293D01*
X397357Y320025D01*
X396797Y320585D01*
X396065Y320888D01*
X395273D01*
X394542Y320585D01*
X393982Y320025D01*
X393833Y319667D01*
X393266Y319603D01*
X392966Y320026D01*
X389658Y325355D01*
X386684Y330877D01*
X384054Y336571D01*
X382582Y340352D01*
X382971Y340733D01*
X383462Y340529D01*
X384254D01*
X384986Y340832D01*
X385546Y341392D01*
X385849Y342124D01*
Y342916D01*
X385546Y343647D01*
X384986Y344207D01*
X384254Y344510D01*
X383462D01*
X382731Y344207D01*
X382171Y343647D01*
X382024Y343292D01*
X381492Y343315D01*
X379868Y348390D01*
X378327Y354469D01*
X377162Y360632D01*
X376378Y366855D01*
X375977Y373114D01*
X375969Y376414D01*
X376468Y376622D01*
X376825Y376265D01*
X377557Y375962D01*
X378349D01*
X379080Y376265D01*
X379640Y376825D01*
X379943Y377557D01*
Y378349D01*
X379640Y379080D01*
X379080Y379640D01*
X378349Y379943D01*
X377557D01*
X376825Y379640D01*
X376462Y379277D01*
X376188Y379337D01*
X375968Y379490D01*
X376331Y385647D01*
X377085Y391874D01*
X378220Y398042D01*
X379731Y404129D01*
X381613Y410112D01*
X383860Y415968D01*
X386461Y421675D01*
X389408Y427211D01*
X392690Y432556D01*
X396293Y437690D01*
X400206Y442592D01*
X404411Y447245D01*
X408895Y451631D01*
X413639Y455733D01*
X418627Y459536D01*
X423839Y463025D01*
X429255Y466188D01*
X434855Y469013D01*
X440618Y471488D01*
X446522Y473604D01*
X452545Y475354D01*
X458664Y476731D01*
X464856Y477729D01*
X471097Y478345D01*
X477365Y478577D01*
X480500Y478500D01*
D02*
G37*
G36*
X658500Y275000D02*
X644000D01*
Y275625D01*
X643875Y275500D01*
X606000D01*
Y275625D01*
X528040D01*
X527804Y276066D01*
X527947Y276280D01*
X528107Y277087D01*
X527947Y277893D01*
X527490Y278577D01*
X526806Y279034D01*
X526000Y279194D01*
X525194Y279034D01*
X524510Y278577D01*
X524053Y277893D01*
X523893Y277087D01*
X524053Y276280D01*
X524196Y276066D01*
X523960Y275625D01*
X493040D01*
X492804Y276066D01*
X492947Y276280D01*
X493107Y277087D01*
X492947Y277893D01*
X492490Y278577D01*
X491807Y279034D01*
X491000Y279194D01*
X490194Y279034D01*
X489510Y278577D01*
X489053Y277893D01*
X488893Y277087D01*
X489053Y276280D01*
X489196Y276066D01*
X488960Y275625D01*
X473500D01*
Y289000D01*
X488685D01*
X489009Y288500D01*
X488893Y287913D01*
X489053Y287107D01*
X489510Y286423D01*
X490194Y285966D01*
X491000Y285806D01*
X491807Y285966D01*
X492490Y286423D01*
X492947Y287107D01*
X493107Y287913D01*
X492991Y288500D01*
X493315Y289000D01*
X500037D01*
X500223Y288723D01*
X500809Y288331D01*
X501500Y288194D01*
X502191Y288331D01*
X502777Y288723D01*
X502963Y289000D01*
X523685D01*
X524009Y288500D01*
X523893Y287913D01*
X524053Y287107D01*
X524510Y286423D01*
X525194Y285966D01*
X526000Y285806D01*
X526806Y285966D01*
X527490Y286423D01*
X527947Y287107D01*
X528107Y287913D01*
X527991Y288500D01*
X528315Y289000D01*
X558292D01*
X558460Y288155D01*
X558939Y287439D01*
X559655Y286960D01*
X560500Y286792D01*
X561345Y286960D01*
X562061Y287439D01*
X562540Y288155D01*
X562708Y289000D01*
X575000D01*
Y328000D01*
X644000D01*
Y387794D01*
X644477Y387889D01*
X645136Y388329D01*
X645576Y388987D01*
X645730Y389764D01*
X645576Y390540D01*
X645136Y391199D01*
X644477Y391639D01*
X644000Y391734D01*
Y411416D01*
X644477Y411511D01*
X645136Y411951D01*
X645576Y412609D01*
X645730Y413386D01*
X645576Y414162D01*
X645136Y414821D01*
X644477Y415261D01*
X644000Y415356D01*
Y435038D01*
X644477Y435133D01*
X645136Y435573D01*
X645576Y436231D01*
X645730Y437008D01*
X645576Y437784D01*
X645136Y438443D01*
X644477Y438883D01*
X644000Y438978D01*
Y449000D01*
X641492D01*
X641108Y449500D01*
X641208Y450000D01*
X641040Y450845D01*
X640561Y451561D01*
X639845Y452040D01*
X639000Y452208D01*
X638155Y452040D01*
X637439Y451561D01*
X636960Y450845D01*
X636792Y450000D01*
X636825Y449836D01*
X636381Y449506D01*
X635650Y449897D01*
X634351Y450291D01*
X633000Y450424D01*
X631649Y450291D01*
X630350Y449897D01*
X629153Y449257D01*
X628840Y449000D01*
X622436D01*
X622061Y449561D01*
X621345Y450040D01*
X620500Y450208D01*
X619655Y450040D01*
X618939Y449561D01*
X618564Y449000D01*
X588000D01*
Y388500D01*
X586796D01*
X586508Y388910D01*
X586523Y389000D01*
X586675Y389764D01*
X586521Y390540D01*
X586081Y391199D01*
X585422Y391639D01*
X584646Y391793D01*
X583869Y391639D01*
X583210Y391199D01*
X582770Y390540D01*
X582680Y390083D01*
X582128Y389851D01*
X581845Y390040D01*
X581000Y390208D01*
X580155Y390040D01*
X579439Y389561D01*
X578960Y388845D01*
X578892Y388500D01*
X563174D01*
X562886Y388910D01*
X562901Y389000D01*
X563053Y389764D01*
X562898Y390540D01*
X562459Y391199D01*
X561800Y391639D01*
X561023Y391793D01*
X560247Y391639D01*
X559588Y391199D01*
X559148Y390540D01*
X558994Y389764D01*
X559146Y389000D01*
X559161Y388910D01*
X558873Y388500D01*
X543000D01*
Y393537D01*
X543277Y393723D01*
X543669Y394309D01*
X543806Y395000D01*
X543669Y395691D01*
X543277Y396277D01*
X543000Y396463D01*
Y456500D01*
X482000D01*
Y478000D01*
X658500D01*
Y275000D01*
D02*
G37*
%LPC*%
G36*
X472837Y474431D02*
X472045D01*
X471313Y474128D01*
X470753Y473568D01*
X470450Y472837D01*
Y472045D01*
X470753Y471313D01*
X471313Y470753D01*
X472045Y470450D01*
X472837D01*
X473568Y470753D01*
X474128Y471313D01*
X474431Y472045D01*
Y472837D01*
X474128Y473568D01*
X473568Y474128D01*
X472837Y474431D01*
D02*
G37*
G36*
X461026D02*
X460234D01*
X459502Y474128D01*
X458942Y473568D01*
X458639Y472837D01*
Y472045D01*
X458942Y471313D01*
X459502Y470753D01*
X460234Y470450D01*
X461026D01*
X461757Y470753D01*
X462317Y471313D01*
X462620Y472045D01*
Y472837D01*
X462317Y473568D01*
X461757Y474128D01*
X461026Y474431D01*
D02*
G37*
G36*
X448551Y470448D02*
X447846D01*
X447195Y470178D01*
X446697Y469680D01*
X446427Y469028D01*
Y468324D01*
X446697Y467672D01*
X447195Y467174D01*
X447846Y466904D01*
X448551D01*
X449202Y467174D01*
X449701Y467672D01*
X449970Y468324D01*
Y469028D01*
X449701Y469680D01*
X449202Y470178D01*
X448551Y470448D01*
D02*
G37*
G36*
X478852Y457634D02*
X478148D01*
X477496Y457364D01*
X476998Y456866D01*
X476728Y456215D01*
Y455510D01*
X476998Y454859D01*
X477496Y454360D01*
X478148Y454090D01*
X478852D01*
X479504Y454360D01*
X480002Y454859D01*
X480272Y455510D01*
Y456215D01*
X480002Y456866D01*
X479504Y457364D01*
X478852Y457634D01*
D02*
G37*
G36*
X457852Y452772D02*
X457148D01*
X456496Y452502D01*
X455998Y452004D01*
X455886Y451733D01*
X455686Y451683D01*
X455324Y451682D01*
X454897Y452108D01*
X454246Y452378D01*
X453541D01*
X452890Y452108D01*
X452392Y451610D01*
X452122Y450959D01*
Y450254D01*
X452392Y449603D01*
X452890Y449104D01*
X453541Y448835D01*
X454246D01*
X454897Y449104D01*
X455396Y449603D01*
X455508Y449873D01*
X455708Y449924D01*
X456070Y449924D01*
X456496Y449498D01*
X456904Y449329D01*
X457048Y448766D01*
X456805Y448523D01*
X456535Y447872D01*
Y447167D01*
X456805Y446516D01*
X457303Y446018D01*
X457955Y445748D01*
X458659D01*
X459310Y446018D01*
X459809Y446516D01*
X460078Y447167D01*
Y447872D01*
X459809Y448523D01*
X459310Y449021D01*
X458903Y449190D01*
X458759Y449753D01*
X459002Y449996D01*
X459272Y450648D01*
Y451352D01*
X459002Y452004D01*
X458504Y452502D01*
X457852Y452772D01*
D02*
G37*
G36*
X416767Y455069D02*
X416063D01*
X415411Y454800D01*
X414913Y454301D01*
X414643Y453650D01*
Y452945D01*
X414913Y452294D01*
X415411Y451796D01*
X416063Y451526D01*
X416767D01*
X417418Y451796D01*
X417917Y452294D01*
X418187Y452945D01*
Y453650D01*
X417917Y454301D01*
X417418Y454800D01*
X416767Y455069D01*
D02*
G37*
G36*
X471635Y451000D02*
X470930D01*
X470279Y450730D01*
X469780Y450232D01*
X469511Y449581D01*
Y448876D01*
X469634Y448579D01*
X469210Y448296D01*
X469004Y448502D01*
X468352Y448772D01*
X467648D01*
X467463Y448695D01*
X467228Y448852D01*
X466959Y449504D01*
X466460Y450002D01*
X465809Y450272D01*
X465104D01*
X464453Y450002D01*
X463955Y449504D01*
X463685Y448852D01*
Y448148D01*
X463955Y447496D01*
X464453Y446998D01*
X465104Y446728D01*
X465809D01*
X465993Y446805D01*
X466228Y446648D01*
X466498Y445996D01*
X466996Y445498D01*
X467648Y445228D01*
X468352D01*
X469004Y445498D01*
X469502Y445996D01*
X469772Y446648D01*
Y447352D01*
X469649Y447649D01*
X470073Y447933D01*
X470279Y447726D01*
X470930Y447457D01*
X471635D01*
X472286Y447726D01*
X472784Y448225D01*
X473054Y448876D01*
Y449581D01*
X472784Y450232D01*
X472286Y450730D01*
X471635Y451000D01*
D02*
G37*
G36*
X483467Y449650D02*
X482762D01*
X482111Y449380D01*
X481613Y448882D01*
X481343Y448231D01*
Y447526D01*
X481613Y446875D01*
X482111Y446377D01*
X482762Y446107D01*
X483467D01*
X484119Y446377D01*
X484617Y446875D01*
X484887Y447526D01*
Y448231D01*
X484617Y448882D01*
X484119Y449380D01*
X483467Y449650D01*
D02*
G37*
G36*
X490852Y451500D02*
X490148D01*
X489496Y451230D01*
X488998Y450732D01*
X488728Y450081D01*
Y449376D01*
X488564Y449131D01*
X488327D01*
X487676Y448861D01*
X487178Y448362D01*
X486908Y447711D01*
Y447007D01*
X487178Y446355D01*
X487676Y445857D01*
X488327Y445587D01*
X489032D01*
X489683Y445857D01*
X490181Y446355D01*
X490451Y447007D01*
Y447711D01*
X490615Y447957D01*
X490852D01*
X491504Y448226D01*
X492002Y448725D01*
X492272Y449376D01*
Y450081D01*
X492002Y450732D01*
X491504Y451230D01*
X490852Y451500D01*
D02*
G37*
G36*
X441746Y443878D02*
X441041D01*
X440390Y443608D01*
X439892Y443110D01*
X439622Y442459D01*
Y441754D01*
X439892Y441103D01*
X440390Y440604D01*
X441041Y440335D01*
X441746D01*
X442397Y440604D01*
X442896Y441103D01*
X443165Y441754D01*
Y442459D01*
X442896Y443110D01*
X442397Y443608D01*
X441746Y443878D01*
D02*
G37*
G36*
X465105Y444228D02*
X464400D01*
X463749Y443959D01*
X463251Y443460D01*
X462981Y442809D01*
Y442104D01*
X463251Y441453D01*
X463749Y440955D01*
X464400Y440685D01*
X465105D01*
X465756Y440955D01*
X466130Y440880D01*
X466142Y440853D01*
X466640Y440354D01*
X467291Y440085D01*
X467996D01*
X468647Y440354D01*
X469146Y440853D01*
X469415Y441504D01*
Y442209D01*
X469146Y442860D01*
X468647Y443358D01*
X467996Y443628D01*
X467291D01*
X466640Y443358D01*
X466266Y443433D01*
X466255Y443460D01*
X465756Y443959D01*
X465105Y444228D01*
D02*
G37*
G36*
X456852Y442772D02*
X456148D01*
X455496Y442502D01*
X454998Y442004D01*
X454728Y441352D01*
Y440648D01*
X454998Y439996D01*
X455496Y439498D01*
X456148Y439228D01*
X456852D01*
X457504Y439498D01*
X458002Y439996D01*
X458272Y440648D01*
Y441352D01*
X458002Y442004D01*
X457504Y442502D01*
X456852Y442772D01*
D02*
G37*
G36*
X423352Y442404D02*
X422648D01*
X421996Y442134D01*
X421498Y441636D01*
X421228Y440985D01*
Y440280D01*
X421498Y439629D01*
X421996Y439131D01*
X422648Y438861D01*
X423352D01*
X424004Y439131D01*
X424502Y439629D01*
X424772Y440280D01*
Y440985D01*
X424502Y441636D01*
X424004Y442134D01*
X423352Y442404D01*
D02*
G37*
G36*
X493081Y441341D02*
X492376D01*
X491725Y441071D01*
X491226Y440573D01*
X490957Y439921D01*
Y439217D01*
X491226Y438565D01*
X491725Y438067D01*
X492376Y437797D01*
X493081D01*
X493732Y438067D01*
X494230Y438565D01*
X494500Y439217D01*
Y439921D01*
X494230Y440573D01*
X493732Y441071D01*
X493081Y441341D01*
D02*
G37*
G36*
X448789Y438909D02*
X448085D01*
X447433Y438640D01*
X446935Y438141D01*
X446665Y437490D01*
Y436786D01*
X446935Y436134D01*
X447433Y435636D01*
X448085Y435366D01*
X448789D01*
X449441Y435636D01*
X449939Y436134D01*
X450209Y436786D01*
Y437490D01*
X449939Y438141D01*
X449441Y438640D01*
X448789Y438909D01*
D02*
G37*
G36*
X500852Y439272D02*
X500148D01*
X499496Y439002D01*
X498998Y438504D01*
X498728Y437852D01*
Y437148D01*
X498998Y436496D01*
X499496Y435998D01*
X500148Y435728D01*
X500852D01*
X501504Y435998D01*
X501856Y435928D01*
X501882Y435864D01*
X502381Y435366D01*
X503032Y435096D01*
X503737D01*
X504388Y435366D01*
X504886Y435864D01*
X505156Y436515D01*
Y437220D01*
X504886Y437871D01*
X504388Y438370D01*
X503737Y438639D01*
X503032D01*
X502381Y438370D01*
X502028Y438440D01*
X502002Y438504D01*
X501504Y439002D01*
X500852Y439272D01*
D02*
G37*
G36*
X479530Y438442D02*
X478825D01*
X478174Y438172D01*
X477676Y437674D01*
X477406Y437023D01*
Y436318D01*
X477676Y435667D01*
X478174Y435168D01*
X478825Y434899D01*
X479530D01*
X480181Y435168D01*
X480680Y435667D01*
X480949Y436318D01*
Y437023D01*
X480680Y437674D01*
X480181Y438172D01*
X479530Y438442D01*
D02*
G37*
G36*
X411789Y445211D02*
X410432D01*
X409101Y444946D01*
X407847Y444427D01*
X406718Y443673D01*
X405759Y442713D01*
X405005Y441585D01*
X404485Y440331D01*
X404220Y439000D01*
Y437643D01*
X404485Y436312D01*
X405005Y435058D01*
X405759Y433929D01*
X406718Y432970D01*
X407847Y432216D01*
X409101Y431696D01*
X410432Y431432D01*
X411789D01*
X413120Y431696D01*
X414374Y432216D01*
X415502Y432970D01*
X416462Y433929D01*
X417216Y435058D01*
X417735Y436312D01*
X418000Y437643D01*
Y439000D01*
X417735Y440331D01*
X417216Y441585D01*
X416462Y442713D01*
X415502Y443673D01*
X414374Y444427D01*
X413120Y444946D01*
X411789Y445211D01*
D02*
G37*
G36*
X435426Y430330D02*
X434722D01*
X434070Y430060D01*
X433572Y429562D01*
X433302Y428911D01*
Y428206D01*
X433572Y427555D01*
X434070Y427057D01*
X434722Y426787D01*
X435426D01*
X436077Y427057D01*
X436576Y427555D01*
X436846Y428206D01*
Y428911D01*
X436576Y429562D01*
X436077Y430060D01*
X435426Y430330D01*
D02*
G37*
G36*
X483352Y429741D02*
X482648D01*
X481996Y429472D01*
X481498Y428973D01*
X481228Y428322D01*
Y427618D01*
X481498Y426966D01*
X481996Y426468D01*
X482648Y426198D01*
X483352D01*
X484004Y426468D01*
X484502Y426966D01*
X484772Y427618D01*
Y428322D01*
X484502Y428973D01*
X484004Y429472D01*
X483352Y429741D01*
D02*
G37*
G36*
X532999Y429418D02*
X532294D01*
X531643Y429148D01*
X531145Y428650D01*
X530875Y427999D01*
Y427294D01*
X531145Y426643D01*
X531643Y426145D01*
X532294Y425875D01*
X532999D01*
X533650Y426145D01*
X534148Y426643D01*
X534418Y427294D01*
Y427999D01*
X534148Y428650D01*
X533650Y429148D01*
X532999Y429418D01*
D02*
G37*
G36*
X442246Y428878D02*
X441541D01*
X440890Y428608D01*
X440392Y428110D01*
X440122Y427459D01*
Y426754D01*
X440392Y426103D01*
X440890Y425604D01*
X441541Y425335D01*
X442246D01*
X442897Y425604D01*
X443396Y426103D01*
X443665Y426754D01*
Y427459D01*
X443396Y428110D01*
X442897Y428608D01*
X442246Y428878D01*
D02*
G37*
G36*
X461352Y427772D02*
X460648D01*
X459996Y427502D01*
X459498Y427004D01*
X459228Y426352D01*
Y425648D01*
X459498Y424996D01*
X459996Y424498D01*
X460648Y424228D01*
X461352D01*
X462004Y424498D01*
X462502Y424996D01*
X462772Y425648D01*
Y426352D01*
X462502Y427004D01*
X462004Y427502D01*
X461352Y427772D01*
D02*
G37*
G36*
X450472Y427423D02*
X449767D01*
X449116Y427153D01*
X448618Y426654D01*
X448348Y426003D01*
Y425298D01*
X448618Y424647D01*
X449116Y424149D01*
X449767Y423879D01*
X450472D01*
X451123Y424149D01*
X451622Y424647D01*
X451892Y425298D01*
Y426003D01*
X451622Y426654D01*
X451123Y427153D01*
X450472Y427423D01*
D02*
G37*
G36*
X514823Y427170D02*
X514118D01*
X513467Y426900D01*
X512968Y426401D01*
X512699Y425750D01*
Y425045D01*
X512968Y424394D01*
X513467Y423896D01*
X514118Y423626D01*
X514823D01*
X515474Y423896D01*
X515972Y424394D01*
X516242Y425045D01*
Y425750D01*
X515972Y426401D01*
X515474Y426900D01*
X514823Y427170D01*
D02*
G37*
G36*
X638191Y427187D02*
X637399D01*
X636667Y426884D01*
X636108Y426324D01*
X635805Y425593D01*
Y424801D01*
X636108Y424069D01*
X636667Y423509D01*
X637399Y423206D01*
X638191D01*
X638923Y423509D01*
X639483Y424069D01*
X639786Y424801D01*
Y425593D01*
X639483Y426324D01*
X638923Y426884D01*
X638191Y427187D01*
D02*
G37*
G36*
X466852Y426272D02*
X466148D01*
X465496Y426002D01*
X464998Y425504D01*
X464728Y424852D01*
Y424148D01*
X464998Y423496D01*
X465496Y422998D01*
X466148Y422728D01*
X466852D01*
X467504Y422998D01*
X468002Y423496D01*
X468272Y424148D01*
Y424852D01*
X468002Y425504D01*
X467504Y426002D01*
X466852Y426272D01*
D02*
G37*
G36*
X485814Y425782D02*
X485109D01*
X484458Y425513D01*
X483960Y425014D01*
X483690Y424363D01*
Y423658D01*
X483960Y423007D01*
X484458Y422509D01*
X485109Y422239D01*
X485814D01*
X486465Y422509D01*
X486964Y423007D01*
X487233Y423658D01*
Y424363D01*
X486964Y425014D01*
X486465Y425513D01*
X485814Y425782D01*
D02*
G37*
G36*
X489852Y428151D02*
X489148D01*
X488496Y427881D01*
X487998Y427383D01*
X487728Y426732D01*
Y426027D01*
X487998Y425376D01*
X488496Y424877D01*
X489148Y424608D01*
X489852D01*
X490384Y424828D01*
X490738Y424561D01*
X490787Y424495D01*
X490728Y424352D01*
Y423648D01*
X490998Y422996D01*
X491496Y422498D01*
X492148Y422228D01*
X492852D01*
X493504Y422498D01*
X494002Y422996D01*
X494272Y423648D01*
Y424352D01*
X494002Y425004D01*
X493504Y425502D01*
X492852Y425772D01*
X492148D01*
X491616Y425551D01*
X491262Y425818D01*
X491213Y425884D01*
X491272Y426027D01*
Y426732D01*
X491002Y427383D01*
X490504Y427881D01*
X489852Y428151D01*
D02*
G37*
G36*
X454735Y425389D02*
X454031D01*
X453379Y425119D01*
X452881Y424621D01*
X452611Y423969D01*
Y423265D01*
X452881Y422613D01*
X453379Y422115D01*
X454031Y421845D01*
X454735D01*
X455386Y422115D01*
X455885Y422613D01*
X456155Y423265D01*
Y423969D01*
X455885Y424621D01*
X455386Y425119D01*
X454735Y425389D01*
D02*
G37*
G36*
X481347Y425206D02*
X480642D01*
X479991Y424936D01*
X479493Y424438D01*
X479223Y423787D01*
Y423082D01*
X479493Y422431D01*
X479991Y421933D01*
X480642Y421663D01*
X481347D01*
X481998Y421933D01*
X482497Y422431D01*
X482766Y423082D01*
Y423787D01*
X482497Y424438D01*
X481998Y424936D01*
X481347Y425206D01*
D02*
G37*
G36*
X473758Y427171D02*
X473053D01*
X472402Y426901D01*
X471904Y426403D01*
X471634Y425751D01*
Y425046D01*
X471904Y424395D01*
X472402Y423897D01*
X473053Y423627D01*
X473636D01*
X473802Y423575D01*
X474098Y423227D01*
Y422778D01*
X474368Y422127D01*
X474866Y421628D01*
X475517Y421359D01*
X476222D01*
X476873Y421628D01*
X477372Y422127D01*
X477641Y422778D01*
Y423483D01*
X477372Y424134D01*
X476873Y424632D01*
X476222Y424902D01*
X475639D01*
X475473Y424954D01*
X475177Y425302D01*
Y425751D01*
X474908Y426403D01*
X474409Y426901D01*
X473758Y427171D01*
D02*
G37*
G36*
X434852Y423272D02*
X434148D01*
X433496Y423002D01*
X432998Y422504D01*
X432728Y421852D01*
Y421148D01*
X432998Y420496D01*
X433496Y419998D01*
X434148Y419728D01*
X434852D01*
X435504Y419998D01*
X436002Y420496D01*
X436272Y421148D01*
Y421852D01*
X436002Y422504D01*
X435504Y423002D01*
X434852Y423272D01*
D02*
G37*
G36*
X426852D02*
X426148D01*
X425496Y423002D01*
X424998Y422504D01*
X424728Y421852D01*
Y421148D01*
X424998Y420496D01*
X425496Y419998D01*
X426148Y419728D01*
X426852D01*
X427504Y419998D01*
X428002Y420496D01*
X428272Y421148D01*
Y421852D01*
X428002Y422504D01*
X427504Y423002D01*
X426852Y423272D01*
D02*
G37*
G36*
X401971Y427187D02*
X401179D01*
X400447Y426884D01*
X399887Y426324D01*
X399584Y425593D01*
Y424801D01*
X399887Y424069D01*
X400447Y423509D01*
X400653Y423424D01*
Y422883D01*
X400496Y422818D01*
X399998Y422319D01*
X399728Y421668D01*
Y420963D01*
X399998Y420312D01*
X400496Y419814D01*
X401148Y419544D01*
X401852D01*
X402504Y419814D01*
X403002Y420312D01*
X403272Y420963D01*
Y421668D01*
X403002Y422319D01*
X402504Y422818D01*
X402421Y422852D01*
Y423393D01*
X402702Y423509D01*
X403262Y424069D01*
X403565Y424801D01*
Y425593D01*
X403262Y426324D01*
X402702Y426884D01*
X401971Y427187D01*
D02*
G37*
G36*
X535352Y422772D02*
X534648D01*
X533996Y422502D01*
X533498Y422004D01*
X533228Y421352D01*
Y420648D01*
X533498Y419996D01*
X533996Y419498D01*
X534648Y419228D01*
X535352D01*
X536004Y419498D01*
X536502Y419996D01*
X536772Y420648D01*
Y421352D01*
X536502Y422004D01*
X536004Y422502D01*
X535352Y422772D01*
D02*
G37*
G36*
X521742Y420634D02*
X521037D01*
X520386Y420364D01*
X519888Y419866D01*
X519618Y419215D01*
Y418510D01*
X519625Y418493D01*
X519242Y418110D01*
X518852Y418272D01*
X518148D01*
X517496Y418002D01*
X516998Y417504D01*
X516728Y416852D01*
Y416148D01*
X516998Y415496D01*
X517496Y414998D01*
X518148Y414728D01*
X518852D01*
X519504Y414998D01*
X520002Y415496D01*
X520272Y416148D01*
Y416852D01*
X520265Y416869D01*
X520647Y417252D01*
X521037Y417091D01*
X521286D01*
X521728Y416852D01*
Y416148D01*
X521846Y415863D01*
X521512Y415363D01*
X521148D01*
X520496Y415094D01*
X519998Y414595D01*
X519728Y413944D01*
Y413239D01*
X519998Y412588D01*
X520496Y412090D01*
X521148Y411820D01*
X521852D01*
X522504Y412090D01*
X523002Y412588D01*
X523272Y413239D01*
Y413944D01*
X523154Y414228D01*
X523488Y414728D01*
X523852D01*
X524504Y414998D01*
X525002Y415496D01*
X525272Y416148D01*
Y416852D01*
X525002Y417504D01*
X524504Y418002D01*
X523852Y418272D01*
X523604D01*
X523161Y418510D01*
Y419215D01*
X522892Y419866D01*
X522393Y420364D01*
X521742Y420634D01*
D02*
G37*
G36*
X511852Y414772D02*
X511148D01*
X510496Y414502D01*
X509998Y414004D01*
X509728Y413352D01*
Y412859D01*
X509290Y412499D01*
X509256Y412513D01*
X508551D01*
X507900Y412244D01*
X507401Y411745D01*
X507132Y411094D01*
Y410389D01*
X507401Y409738D01*
X507900Y409240D01*
X508551Y408970D01*
X508757D01*
X508998Y408503D01*
X508728Y407852D01*
Y407148D01*
X508998Y406496D01*
X509407Y406087D01*
X509301Y405667D01*
X509254Y405587D01*
X509148D01*
X508496Y405318D01*
X507998Y404819D01*
X507728Y404168D01*
Y403463D01*
X507998Y402812D01*
X508496Y402314D01*
X509148Y402044D01*
X509852D01*
X510504Y402314D01*
X511002Y402812D01*
X511272Y403463D01*
Y404168D01*
X511002Y404819D01*
X510807Y405014D01*
X510928Y405589D01*
X511050Y405640D01*
X511521Y405437D01*
X511726Y404942D01*
X512225Y404443D01*
X512876Y404174D01*
X513581D01*
X514232Y404443D01*
X514730Y404942D01*
X515000Y405593D01*
Y406298D01*
X514730Y406949D01*
X514232Y407447D01*
X513581Y407717D01*
X512876D01*
X512728Y407656D01*
X512217Y407985D01*
X512002Y408504D01*
X511504Y409002D01*
X510852Y409272D01*
X510646D01*
X510405Y409738D01*
X510675Y410389D01*
Y410883D01*
X511114Y411242D01*
X511148Y411228D01*
X511852D01*
X512504Y411498D01*
X513002Y411996D01*
X513272Y412648D01*
Y413352D01*
X513002Y414004D01*
X512504Y414502D01*
X511852Y414772D01*
D02*
G37*
G36*
X476939Y415856D02*
X476234D01*
X475583Y415586D01*
X475084Y415087D01*
X474815Y414436D01*
Y413731D01*
X475084Y413080D01*
X475583Y412582D01*
X476234Y412312D01*
X476939D01*
X477590Y412582D01*
X478088Y413080D01*
X478358Y413731D01*
Y414436D01*
X478088Y415087D01*
X477590Y415586D01*
X476939Y415856D01*
D02*
G37*
G36*
X451683Y415772D02*
X450978D01*
X450327Y415502D01*
X449829Y415004D01*
X449559Y414352D01*
Y413648D01*
X449829Y412996D01*
X450327Y412498D01*
X450978Y412228D01*
X451683D01*
X452334Y412498D01*
X452833Y412996D01*
X453102Y413648D01*
Y414352D01*
X452833Y415004D01*
X452334Y415502D01*
X451683Y415772D01*
D02*
G37*
G36*
X627882Y419256D02*
X626937D01*
X626023Y419011D01*
X625205Y418539D01*
X624536Y417870D01*
X624064Y417051D01*
X623819Y416138D01*
Y415193D01*
X624064Y414279D01*
X624536Y413461D01*
X625205Y412792D01*
X626023Y412320D01*
X626937Y412075D01*
X627882D01*
X628795Y412320D01*
X629614Y412792D01*
X630283Y413461D01*
X630755Y414279D01*
X631000Y415193D01*
Y416138D01*
X630755Y417051D01*
X630283Y417870D01*
X629614Y418539D01*
X628795Y419011D01*
X627882Y419256D01*
D02*
G37*
G36*
X407876Y415376D02*
X407084D01*
X406353Y415073D01*
X405793Y414513D01*
X405490Y413782D01*
Y412990D01*
X405793Y412258D01*
X406353Y411698D01*
X407084Y411395D01*
X407876D01*
X408608Y411698D01*
X409168Y412258D01*
X409471Y412990D01*
Y413782D01*
X409168Y414513D01*
X408608Y415073D01*
X407876Y415376D01*
D02*
G37*
G36*
X396065D02*
X395273D01*
X394542Y415073D01*
X393982Y414513D01*
X393679Y413782D01*
Y412990D01*
X393982Y412258D01*
X394542Y411698D01*
X395273Y411395D01*
X396065D01*
X396797Y411698D01*
X397357Y412258D01*
X397660Y412990D01*
Y413782D01*
X397357Y414513D01*
X396797Y415073D01*
X396065Y415376D01*
D02*
G37*
G36*
X459526Y414363D02*
X458821D01*
X458170Y414093D01*
X457671Y413595D01*
X457402Y412944D01*
Y412239D01*
X457617Y411720D01*
X457277Y411329D01*
X456759Y411543D01*
X456054D01*
X455403Y411274D01*
X454904Y410775D01*
X454635Y410124D01*
Y409419D01*
X454904Y408768D01*
X455403Y408270D01*
X456054Y408000D01*
X456759D01*
X457410Y408270D01*
X457908Y408768D01*
X458178Y409419D01*
Y410124D01*
X457963Y410643D01*
X458302Y411034D01*
X458821Y410819D01*
X459526D01*
X460177Y411089D01*
X460675Y411588D01*
X460945Y412239D01*
Y412944D01*
X460675Y413595D01*
X460177Y414093D01*
X459526Y414363D01*
D02*
G37*
G36*
X481852Y410772D02*
X481148D01*
X480496Y410502D01*
X479998Y410004D01*
X479728Y409352D01*
Y408648D01*
X479998Y407996D01*
X480496Y407498D01*
X481148Y407228D01*
X481852D01*
X482504Y407498D01*
X483002Y407996D01*
X483272Y408648D01*
Y409352D01*
X483002Y410004D01*
X482504Y410502D01*
X481852Y410772D01*
D02*
G37*
G36*
X538577Y409772D02*
X537872D01*
X537221Y409502D01*
X536723Y409004D01*
X536453Y408352D01*
Y407648D01*
X536723Y406996D01*
X537221Y406498D01*
X537872Y406228D01*
X538577D01*
X539228Y406498D01*
X539726Y406996D01*
X539996Y407648D01*
Y408352D01*
X539726Y409004D01*
X539228Y409502D01*
X538577Y409772D01*
D02*
G37*
G36*
X466852Y409272D02*
X466148D01*
X465496Y409002D01*
X464998Y408504D01*
X464728Y407852D01*
Y407148D01*
X464998Y406496D01*
X465496Y405998D01*
X466148Y405728D01*
X466852D01*
X467504Y405998D01*
X468002Y406496D01*
X468272Y407148D01*
Y407852D01*
X468002Y408504D01*
X467504Y409002D01*
X466852Y409272D01*
D02*
G37*
G36*
X421036Y408668D02*
X420332D01*
X419681Y408399D01*
X419182Y407900D01*
X418912Y407249D01*
Y406544D01*
X419182Y405893D01*
X419681Y405395D01*
X420332Y405125D01*
X421036D01*
X421688Y405395D01*
X422186Y405893D01*
X422456Y406544D01*
Y407249D01*
X422186Y407900D01*
X421688Y408399D01*
X421036Y408668D01*
D02*
G37*
G36*
X451637Y407990D02*
X450932D01*
X450281Y407721D01*
X449783Y407222D01*
X449513Y406571D01*
Y405866D01*
X449783Y405215D01*
X450281Y404717D01*
X450932Y404447D01*
X451637D01*
X452288Y404717D01*
X452787Y405215D01*
X453056Y405866D01*
Y406571D01*
X452787Y407222D01*
X452288Y407721D01*
X451637Y407990D01*
D02*
G37*
G36*
X627882Y408468D02*
X626937D01*
X626023Y408224D01*
X625205Y407751D01*
X624536Y407083D01*
X624064Y406264D01*
X623819Y405351D01*
Y404405D01*
X624064Y403492D01*
X624536Y402673D01*
X625205Y402005D01*
X626023Y401532D01*
X626937Y401287D01*
X627882D01*
X628795Y401532D01*
X629614Y402005D01*
X630283Y402673D01*
X630755Y403492D01*
X631000Y404405D01*
Y405351D01*
X630755Y406264D01*
X630283Y407083D01*
X629614Y407751D01*
X628795Y408224D01*
X627882Y408468D01*
D02*
G37*
G36*
X398852Y403272D02*
X398148D01*
X397496Y403002D01*
X396998Y402504D01*
X396728Y401852D01*
Y401148D01*
X396998Y400496D01*
X397496Y399998D01*
X398148Y399728D01*
X398852D01*
X399504Y399998D01*
X400002Y400496D01*
X400272Y401148D01*
Y401852D01*
X400002Y402504D01*
X399504Y403002D01*
X398852Y403272D01*
D02*
G37*
G36*
X614569Y403565D02*
X613777D01*
X613046Y403262D01*
X612486Y402702D01*
X612183Y401971D01*
Y401179D01*
X612486Y400447D01*
X613046Y399887D01*
X613777Y399584D01*
X614569D01*
X615301Y399887D01*
X615861Y400447D01*
X616164Y401179D01*
Y401971D01*
X615861Y402702D01*
X615301Y403262D01*
X614569Y403565D01*
D02*
G37*
G36*
X430713Y402345D02*
X430009D01*
X429357Y402075D01*
X428859Y401577D01*
X428589Y400926D01*
Y400221D01*
X428859Y399570D01*
X429357Y399071D01*
X430009Y398802D01*
X430713D01*
X431365Y399071D01*
X431863Y399570D01*
X432133Y400221D01*
Y400926D01*
X431863Y401577D01*
X431365Y402075D01*
X430713Y402345D01*
D02*
G37*
G36*
X388703Y400804D02*
X387998D01*
X387347Y400534D01*
X386849Y400036D01*
X386579Y399385D01*
Y398680D01*
X386849Y398029D01*
X387347Y397530D01*
X387998Y397261D01*
X388703D01*
X389354Y397530D01*
X389852Y398029D01*
X390122Y398680D01*
Y399385D01*
X389852Y400036D01*
X389354Y400534D01*
X388703Y400804D01*
D02*
G37*
G36*
X639063Y403075D02*
X638118D01*
X637205Y402830D01*
X636386Y402357D01*
X635717Y401689D01*
X635245Y400870D01*
X635000Y399957D01*
Y399011D01*
X635245Y398098D01*
X635717Y397280D01*
X636386Y396611D01*
X637205Y396138D01*
X638118Y395894D01*
X639063D01*
X639977Y396138D01*
X640795Y396611D01*
X641464Y397280D01*
X641936Y398098D01*
X642181Y399011D01*
Y399957D01*
X641936Y400870D01*
X641464Y401689D01*
X640795Y402357D01*
X639977Y402830D01*
X639063Y403075D01*
D02*
G37*
G36*
X426352Y398272D02*
X425648D01*
X424996Y398002D01*
X424498Y397504D01*
X424228Y396852D01*
Y396148D01*
X424498Y395496D01*
X424996Y394998D01*
X425648Y394728D01*
X426352D01*
X427004Y394998D01*
X427502Y395496D01*
X427772Y396148D01*
Y396852D01*
X427502Y397504D01*
X427004Y398002D01*
X426352Y398272D01*
D02*
G37*
G36*
X459352Y394272D02*
X458648D01*
X457996Y394002D01*
X457498Y393504D01*
X457413Y393299D01*
X457003Y393002D01*
X456352Y393272D01*
X455648D01*
X454996Y393002D01*
X454498Y392504D01*
X454278Y392460D01*
X453963Y392519D01*
X453352Y392772D01*
X452648D01*
X451996Y392502D01*
X451498Y392004D01*
X451391Y391745D01*
X450801Y391628D01*
X450715Y391714D01*
X450064Y391984D01*
X449360D01*
X448708Y391714D01*
X448210Y391215D01*
X447940Y390564D01*
Y389860D01*
X448210Y389208D01*
X448708Y388710D01*
X449360Y388440D01*
X450064D01*
X450715Y388710D01*
X451214Y389208D01*
X451321Y389467D01*
X451911Y389584D01*
X451996Y389498D01*
X452648Y389228D01*
X453352D01*
X454004Y389498D01*
X454502Y389996D01*
X454722Y390040D01*
X455037Y389981D01*
X455648Y389728D01*
X456352D01*
X457004Y389998D01*
X457502Y390496D01*
X457587Y390701D01*
X457997Y390998D01*
X458648Y390728D01*
X459352D01*
X460004Y390998D01*
X460502Y391496D01*
X460772Y392148D01*
Y392852D01*
X460502Y393504D01*
X460004Y394002D01*
X459352Y394272D01*
D02*
G37*
G36*
X423352Y395272D02*
X422648D01*
X421996Y395002D01*
X421498Y394504D01*
X421228Y393852D01*
Y393148D01*
X421498Y392496D01*
X421996Y391998D01*
X422648Y391728D01*
X423352D01*
X424004Y391998D01*
X424502Y392496D01*
X424772Y393148D01*
Y393852D01*
X424502Y394504D01*
X424004Y395002D01*
X423352Y395272D01*
D02*
G37*
G36*
X407962Y395048D02*
X407257D01*
X406606Y394778D01*
X406108Y394280D01*
X405838Y393629D01*
Y392924D01*
X406108Y392273D01*
X406606Y391775D01*
X407257Y391505D01*
X407962D01*
X408613Y391775D01*
X409112Y392273D01*
X409381Y392924D01*
Y393629D01*
X409112Y394280D01*
X408613Y394778D01*
X407962Y395048D01*
D02*
G37*
G36*
X515852Y394772D02*
X515148D01*
X514496Y394502D01*
X513998Y394004D01*
X513728Y393352D01*
Y392648D01*
X513998Y391996D01*
X514496Y391498D01*
X515148Y391228D01*
X515852D01*
X516504Y391498D01*
X517002Y391996D01*
X517272Y392648D01*
Y393352D01*
X517002Y394004D01*
X516504Y394502D01*
X515852Y394772D01*
D02*
G37*
G36*
X507352D02*
X506648D01*
X505996Y394502D01*
X505498Y394004D01*
X505228Y393352D01*
Y392648D01*
X505498Y391996D01*
X505996Y391498D01*
X506648Y391228D01*
X507352D01*
X508004Y391498D01*
X508502Y391996D01*
X508772Y392648D01*
Y393352D01*
X508502Y394004D01*
X508004Y394502D01*
X507352Y394772D01*
D02*
G37*
G36*
X498352D02*
X497648D01*
X496996Y394502D01*
X496498Y394004D01*
X496228Y393352D01*
Y392648D01*
X496498Y391996D01*
X496996Y391498D01*
X497648Y391228D01*
X498352D01*
X499004Y391498D01*
X499502Y391996D01*
X499772Y392648D01*
Y393352D01*
X499502Y394004D01*
X499004Y394502D01*
X498352Y394772D01*
D02*
G37*
G36*
X487852Y394087D02*
X487148D01*
X486496Y393818D01*
X485998Y393319D01*
X485728Y392668D01*
Y391963D01*
X485998Y391312D01*
X486496Y390814D01*
X487148Y390544D01*
X487852D01*
X488504Y390814D01*
X489002Y391312D01*
X489272Y391963D01*
Y392668D01*
X489002Y393319D01*
X488504Y393818D01*
X487852Y394087D01*
D02*
G37*
G36*
X627882Y397681D02*
X626937D01*
X626023Y397436D01*
X625205Y396964D01*
X624536Y396295D01*
X624064Y395477D01*
X623819Y394563D01*
Y393618D01*
X624064Y392705D01*
X624536Y391886D01*
X625205Y391217D01*
X626023Y390745D01*
X626937Y390500D01*
X627882D01*
X628795Y390745D01*
X629614Y391217D01*
X630283Y391886D01*
X630755Y392705D01*
X631000Y393618D01*
Y394563D01*
X630755Y395477D01*
X630283Y396295D01*
X629614Y396964D01*
X628795Y397436D01*
X627882Y397681D01*
D02*
G37*
G36*
X478742Y391754D02*
X477950D01*
X477219Y391451D01*
X476659Y390891D01*
X476356Y390160D01*
Y389368D01*
X476659Y388636D01*
X477219Y388076D01*
X477950Y387773D01*
X478742D01*
X479474Y388076D01*
X480034Y388636D01*
X480337Y389368D01*
Y390160D01*
X480034Y390891D01*
X479474Y391451D01*
X478742Y391754D01*
D02*
G37*
G36*
X384254D02*
X383462D01*
X382731Y391451D01*
X382171Y390891D01*
X381868Y390160D01*
Y389368D01*
X382171Y388636D01*
X382731Y388076D01*
X383462Y387773D01*
X384254D01*
X384986Y388076D01*
X385546Y388636D01*
X385849Y389368D01*
Y390160D01*
X385546Y390891D01*
X384986Y391451D01*
X384254Y391754D01*
D02*
G37*
G36*
X538352Y391272D02*
X537648D01*
X536996Y391002D01*
X536498Y390504D01*
X536228Y389852D01*
Y389148D01*
X536498Y388496D01*
X536996Y387998D01*
X537648Y387728D01*
X538352D01*
X539004Y387998D01*
X539502Y388496D01*
X539772Y389148D01*
Y389852D01*
X539502Y390504D01*
X539004Y391002D01*
X538352Y391272D01*
D02*
G37*
G36*
X620931Y390165D02*
X620069D01*
X619273Y389836D01*
X618664Y389227D01*
X618335Y388431D01*
Y387569D01*
X618664Y386773D01*
X619273Y386164D01*
X620069Y385835D01*
X620931D01*
X621727Y386164D01*
X622336Y386773D01*
X622665Y387569D01*
Y388431D01*
X622336Y389227D01*
X621727Y389836D01*
X620931Y390165D01*
D02*
G37*
G36*
X530624Y389000D02*
X529919D01*
X529268Y388730D01*
X528770Y388232D01*
X528500Y387581D01*
Y386876D01*
X528770Y386225D01*
X529268Y385726D01*
X529919Y385457D01*
X530624D01*
X531275Y385726D01*
X531774Y386225D01*
X532043Y386876D01*
Y387581D01*
X531774Y388232D01*
X531275Y388730D01*
X530624Y389000D01*
D02*
G37*
G36*
X473852Y388772D02*
X473148D01*
X472496Y388502D01*
X471998Y388004D01*
X471728Y387352D01*
Y386648D01*
X471998Y385996D01*
X472496Y385498D01*
X473148Y385228D01*
X473852D01*
X474504Y385498D01*
X475002Y385996D01*
X475272Y386648D01*
Y387352D01*
X475002Y388004D01*
X474504Y388502D01*
X473852Y388772D01*
D02*
G37*
G36*
X468852Y388272D02*
X468148D01*
X467496Y388002D01*
X466998Y387504D01*
X466728Y386852D01*
Y386148D01*
X466998Y385496D01*
X467496Y384998D01*
X468148Y384728D01*
X468852D01*
X469504Y384998D01*
X470002Y385496D01*
X470272Y386148D01*
Y386852D01*
X470002Y387504D01*
X469504Y388002D01*
X468852Y388272D01*
D02*
G37*
G36*
X441352Y389772D02*
X440648D01*
X439996Y389502D01*
X439498Y389004D01*
X439228Y388352D01*
Y387648D01*
X439498Y386996D01*
X439996Y386498D01*
X440103Y386454D01*
X440363Y385805D01*
X440274Y385591D01*
Y384886D01*
X440544Y384235D01*
X441043Y383737D01*
X441694Y383467D01*
X442399D01*
X442472Y383418D01*
Y382876D01*
X442742Y382225D01*
X443240Y381726D01*
X443892Y381457D01*
X444596D01*
X445248Y381726D01*
X445746Y382225D01*
X446016Y382876D01*
Y383581D01*
X445746Y384232D01*
X445248Y384730D01*
X444596Y385000D01*
X443892D01*
X443818Y385049D01*
Y385591D01*
X443548Y386242D01*
X443050Y386741D01*
X442943Y386785D01*
X442683Y387434D01*
X442772Y387648D01*
Y388352D01*
X442502Y389004D01*
X442004Y389502D01*
X441352Y389772D01*
D02*
G37*
G36*
X424624Y391272D02*
X423919D01*
X423268Y391002D01*
X422770Y390504D01*
X422500Y389852D01*
Y389148D01*
X422770Y388496D01*
X423090Y388176D01*
X423014Y387608D01*
X423010Y387602D01*
X422768Y387502D01*
X422270Y387004D01*
X422000Y386352D01*
Y385648D01*
X422270Y384996D01*
X422736Y384530D01*
X422753Y384250D01*
X422736Y383970D01*
X422270Y383504D01*
X422000Y382852D01*
Y382148D01*
X422270Y381496D01*
X422768Y380998D01*
X423419Y380728D01*
X424124D01*
X424775Y380998D01*
X425274Y381496D01*
X425543Y382148D01*
Y382852D01*
X425274Y383504D01*
X424807Y383970D01*
X424790Y384250D01*
X424807Y384530D01*
X425274Y384996D01*
X425543Y385648D01*
Y386352D01*
X425274Y387004D01*
X424954Y387324D01*
X425029Y387892D01*
X425033Y387898D01*
X425275Y387998D01*
X425774Y388496D01*
X426043Y389148D01*
Y389852D01*
X425774Y390504D01*
X425275Y391002D01*
X424624Y391272D01*
D02*
G37*
G36*
X620931Y384165D02*
X620069D01*
X619273Y383836D01*
X618664Y383227D01*
X618335Y382431D01*
Y381569D01*
X618664Y380773D01*
X619273Y380164D01*
X620069Y379835D01*
X620931D01*
X621727Y380164D01*
X622336Y380773D01*
X622665Y381569D01*
Y382431D01*
X622336Y383227D01*
X621727Y383836D01*
X620931Y384165D01*
D02*
G37*
G36*
X581431Y383165D02*
X580569D01*
X579773Y382836D01*
X579164Y382227D01*
X578835Y381431D01*
Y380569D01*
X579164Y379773D01*
X579773Y379164D01*
X580569Y378835D01*
X581431D01*
X582227Y379164D01*
X582836Y379773D01*
X583165Y380569D01*
Y381431D01*
X582836Y382227D01*
X582227Y382836D01*
X581431Y383165D01*
D02*
G37*
G36*
X527352Y381272D02*
X526648D01*
X525996Y381002D01*
X525498Y380504D01*
X525228Y379852D01*
Y379148D01*
X525498Y378496D01*
X525996Y377998D01*
X526648Y377728D01*
X527352D01*
X528004Y377998D01*
X528502Y378496D01*
X528772Y379148D01*
Y379852D01*
X528502Y380504D01*
X528004Y381002D01*
X527352Y381272D01*
D02*
G37*
G36*
X400352Y379772D02*
X399648D01*
X398996Y379502D01*
X398498Y379004D01*
X398228Y378352D01*
Y377648D01*
X398498Y376996D01*
X398996Y376498D01*
X399648Y376228D01*
X400352D01*
X401004Y376498D01*
X401502Y376996D01*
X401772Y377648D01*
Y378352D01*
X401502Y379004D01*
X401004Y379502D01*
X400352Y379772D01*
D02*
G37*
G36*
X391852D02*
X391148D01*
X390496Y379502D01*
X389998Y379004D01*
X389728Y378352D01*
Y377648D01*
X389998Y376996D01*
X390496Y376498D01*
X391148Y376228D01*
X391852D01*
X392504Y376498D01*
X393002Y376996D01*
X393272Y377648D01*
Y378352D01*
X393002Y379004D01*
X392504Y379502D01*
X391852Y379772D01*
D02*
G37*
G36*
X498352Y379513D02*
X497648D01*
X496996Y379243D01*
X496498Y378745D01*
X496228Y378094D01*
Y377389D01*
X496498Y376738D01*
X496996Y376239D01*
X497648Y375970D01*
X498352D01*
X499004Y376239D01*
X499502Y376738D01*
X499772Y377389D01*
Y378094D01*
X499502Y378745D01*
X499004Y379243D01*
X498352Y379513D01*
D02*
G37*
G36*
X515444Y379251D02*
X514739D01*
X514088Y378982D01*
X513589Y378483D01*
X513320Y377832D01*
Y377127D01*
X513589Y376476D01*
X514088Y375978D01*
X514739Y375708D01*
X515444D01*
X516095Y375978D01*
X516593Y376476D01*
X516863Y377127D01*
Y377832D01*
X516593Y378483D01*
X516095Y378982D01*
X515444Y379251D01*
D02*
G37*
G36*
X507433Y379132D02*
X506729D01*
X506077Y378863D01*
X505579Y378364D01*
X505309Y377713D01*
Y377008D01*
X505579Y376357D01*
X506077Y375859D01*
X506729Y375589D01*
X507433D01*
X508084Y375859D01*
X508583Y376357D01*
X508853Y377008D01*
Y377713D01*
X508583Y378364D01*
X508084Y378863D01*
X507433Y379132D01*
D02*
G37*
G36*
X639063Y381500D02*
X638118D01*
X637205Y381255D01*
X636386Y380783D01*
X635717Y380114D01*
X635245Y379295D01*
X635000Y378382D01*
Y377437D01*
X635245Y376523D01*
X635717Y375705D01*
X636386Y375036D01*
X637205Y374564D01*
X638118Y374319D01*
X639063D01*
X639977Y374564D01*
X640795Y375036D01*
X641464Y375705D01*
X641936Y376523D01*
X642181Y377437D01*
Y378382D01*
X641936Y379295D01*
X641464Y380114D01*
X640795Y380783D01*
X639977Y381255D01*
X639063Y381500D01*
D02*
G37*
G36*
X409352Y373904D02*
X408648D01*
X407996Y373634D01*
X407498Y373136D01*
X407228Y372485D01*
Y371780D01*
X407498Y371129D01*
X407996Y370631D01*
X408648Y370361D01*
X409352D01*
X410004Y370631D01*
X410502Y371129D01*
X410772Y371780D01*
Y372485D01*
X410502Y373136D01*
X410004Y373634D01*
X409352Y373904D01*
D02*
G37*
G36*
X627882Y386894D02*
X626937D01*
X626023Y386649D01*
X625205Y386176D01*
X624536Y385508D01*
X624064Y384689D01*
X623819Y383776D01*
Y382831D01*
X624064Y381917D01*
X624536Y381099D01*
X625205Y380430D01*
X625310Y380369D01*
X625274Y379813D01*
X624857Y379640D01*
X624297Y379080D01*
X623993Y378349D01*
Y377557D01*
X624297Y376825D01*
X624857Y376265D01*
X625361Y376056D01*
X625397Y375500D01*
X625205Y375389D01*
X624536Y374720D01*
X624064Y373902D01*
X623819Y372989D01*
Y372043D01*
X624064Y371130D01*
X624536Y370311D01*
X625205Y369643D01*
X626023Y369170D01*
X626937Y368925D01*
X627882D01*
X628795Y369170D01*
X629614Y369643D01*
X630283Y370311D01*
X630755Y371130D01*
X631000Y372043D01*
Y372989D01*
X630755Y373902D01*
X630283Y374720D01*
X629614Y375389D01*
X628795Y375862D01*
X627882Y376106D01*
X627660D01*
X627453Y376606D01*
X627672Y376825D01*
X627975Y377557D01*
Y378349D01*
X627672Y379080D01*
X627539Y379213D01*
X627746Y379713D01*
X627882D01*
X628795Y379957D01*
X629614Y380430D01*
X630283Y381099D01*
X630755Y381917D01*
X631000Y382831D01*
Y383776D01*
X630755Y384689D01*
X630283Y385508D01*
X629614Y386176D01*
X628795Y386649D01*
X627882Y386894D01*
D02*
G37*
G36*
X463852Y372384D02*
X463148D01*
X462496Y372114D01*
X461998Y371616D01*
X461728Y370964D01*
Y370259D01*
X461998Y369608D01*
X462496Y369110D01*
X463148Y368840D01*
X463852D01*
X464504Y369110D01*
X465002Y369608D01*
X465272Y370259D01*
Y370964D01*
X465002Y371616D01*
X464504Y372114D01*
X463852Y372384D01*
D02*
G37*
G36*
X482000Y371000D02*
X481295D01*
X480644Y370730D01*
X480146Y370232D01*
X479876Y369581D01*
Y368876D01*
X480146Y368225D01*
X480644Y367726D01*
X481295Y367457D01*
X482000D01*
X482651Y367726D01*
X483149Y368225D01*
X483419Y368876D01*
Y369581D01*
X483149Y370232D01*
X482651Y370730D01*
X482000Y371000D01*
D02*
G37*
G36*
X426530Y369596D02*
X425825D01*
X425174Y369326D01*
X424675Y368828D01*
X424405Y368177D01*
Y367472D01*
X424675Y366821D01*
X425174Y366322D01*
X425825Y366052D01*
X426530D01*
X427181Y366322D01*
X427679Y366821D01*
X427949Y367472D01*
Y368177D01*
X427679Y368828D01*
X427181Y369326D01*
X426530Y369596D01*
D02*
G37*
G36*
X613352Y369272D02*
X612648D01*
X611996Y369002D01*
X611498Y368504D01*
X611228Y367852D01*
Y367148D01*
X611498Y366496D01*
X611996Y365998D01*
X612648Y365728D01*
X613352D01*
X614004Y365998D01*
X614502Y366496D01*
X614772Y367148D01*
Y367852D01*
X614502Y368504D01*
X614004Y369002D01*
X613352Y369272D01*
D02*
G37*
G36*
X393852D02*
X393148D01*
X392496Y369002D01*
X391998Y368504D01*
X391728Y367852D01*
Y367148D01*
X391998Y366496D01*
X392496Y365998D01*
X393148Y365728D01*
X393852D01*
X394504Y365998D01*
X395002Y366496D01*
X395272Y367148D01*
Y367852D01*
X395002Y368504D01*
X394504Y369002D01*
X393852Y369272D01*
D02*
G37*
G36*
X578139Y368985D02*
X577434D01*
X576783Y368716D01*
X576284Y368217D01*
X576015Y367566D01*
Y366861D01*
X576284Y366210D01*
X576783Y365712D01*
X577434Y365442D01*
X578139D01*
X578790Y365712D01*
X579288Y366210D01*
X579558Y366861D01*
Y367566D01*
X579288Y368217D01*
X578790Y368716D01*
X578139Y368985D01*
D02*
G37*
G36*
X632285Y368132D02*
X631494D01*
X630762Y367829D01*
X630202Y367269D01*
X629899Y366538D01*
Y365746D01*
X630202Y365014D01*
X630762Y364454D01*
X631494Y364151D01*
X632285D01*
X633017Y364454D01*
X633577Y365014D01*
X633880Y365746D01*
Y366538D01*
X633577Y367269D01*
X633017Y367829D01*
X632285Y368132D01*
D02*
G37*
G36*
X620474D02*
X619683D01*
X618951Y367829D01*
X618391Y367269D01*
X618088Y366538D01*
Y365746D01*
X618391Y365014D01*
X618951Y364454D01*
X619683Y364151D01*
X620474D01*
X621206Y364454D01*
X621766Y365014D01*
X622069Y365746D01*
Y366538D01*
X621766Y367269D01*
X621206Y367829D01*
X620474Y368132D01*
D02*
G37*
G36*
X455120D02*
X454328D01*
X453597Y367829D01*
X453037Y367269D01*
X452734Y366538D01*
Y365746D01*
X453037Y365014D01*
X453597Y364454D01*
X454328Y364151D01*
X455120D01*
X455852Y364454D01*
X456412Y365014D01*
X456715Y365746D01*
Y366538D01*
X456412Y367269D01*
X455852Y367829D01*
X455120Y368132D01*
D02*
G37*
G36*
X384254D02*
X383462D01*
X382731Y367829D01*
X382171Y367269D01*
X381868Y366538D01*
Y365746D01*
X382171Y365014D01*
X382731Y364454D01*
X383462Y364151D01*
X384254D01*
X384986Y364454D01*
X385546Y365014D01*
X385849Y365746D01*
Y366538D01*
X385546Y367269D01*
X384986Y367829D01*
X384254Y368132D01*
D02*
G37*
G36*
X639063Y370713D02*
X638118D01*
X637205Y370468D01*
X636386Y369995D01*
X635717Y369327D01*
X635245Y368508D01*
X635000Y367595D01*
Y366649D01*
X635245Y365736D01*
X635717Y364917D01*
X636386Y364249D01*
X637205Y363776D01*
X638118Y363531D01*
X639063D01*
X639977Y363776D01*
X640795Y364249D01*
X641464Y364917D01*
X641936Y365736D01*
X642181Y366649D01*
Y367595D01*
X641936Y368508D01*
X641464Y369327D01*
X640795Y369995D01*
X639977Y370468D01*
X639063Y370713D01*
D02*
G37*
G36*
X469717Y365407D02*
X469012D01*
X468361Y365138D01*
X467862Y364639D01*
X467592Y363988D01*
Y363283D01*
X467862Y362632D01*
X468361Y362134D01*
X469012Y361864D01*
X469717D01*
X470368Y362134D01*
X470866Y362632D01*
X471136Y363283D01*
Y363988D01*
X470866Y364639D01*
X470368Y365138D01*
X469717Y365407D01*
D02*
G37*
G36*
X530852Y365272D02*
X530148D01*
X529496Y365002D01*
X528998Y364504D01*
X528728Y363852D01*
Y363148D01*
X528998Y362496D01*
X529496Y361998D01*
X530148Y361728D01*
X530852D01*
X531504Y361998D01*
X532002Y362496D01*
X532272Y363148D01*
Y363852D01*
X532002Y364504D01*
X531504Y365002D01*
X530852Y365272D01*
D02*
G37*
G36*
X510124Y366684D02*
X509419D01*
X508768Y366414D01*
X508270Y365916D01*
X508000Y365265D01*
Y364560D01*
X508270Y363909D01*
X508768Y363411D01*
X509419Y363141D01*
X510124D01*
X510270Y363201D01*
X510652Y362819D01*
X510623Y362747D01*
Y362042D01*
X510892Y361391D01*
X511391Y360892D01*
X512042Y360623D01*
X512747D01*
X513398Y360892D01*
X513896Y361391D01*
X514166Y362042D01*
Y362747D01*
X513896Y363398D01*
X513398Y363896D01*
X512747Y364166D01*
X512042D01*
X511896Y364106D01*
X511514Y364488D01*
X511543Y364560D01*
Y365265D01*
X511274Y365916D01*
X510775Y366414D01*
X510124Y366684D01*
D02*
G37*
G36*
X432244Y363387D02*
X431539D01*
X430888Y363117D01*
X430390Y362619D01*
X430120Y361968D01*
Y361263D01*
X430390Y360612D01*
X430888Y360114D01*
X431539Y359844D01*
X432244D01*
X432895Y360114D01*
X433394Y360612D01*
X433664Y361263D01*
Y361968D01*
X433394Y362619D01*
X432895Y363117D01*
X432244Y363387D01*
D02*
G37*
G36*
X627882Y365319D02*
X626937D01*
X626023Y365074D01*
X625205Y364601D01*
X624536Y363933D01*
X624064Y363114D01*
X623819Y362201D01*
Y361256D01*
X624064Y360343D01*
X624536Y359524D01*
X625205Y358855D01*
X626023Y358383D01*
X626937Y358138D01*
X627882D01*
X628795Y358383D01*
X629614Y358855D01*
X630283Y359524D01*
X630755Y360343D01*
X631000Y361256D01*
Y362201D01*
X630755Y363114D01*
X630283Y363933D01*
X629614Y364601D01*
X628795Y365074D01*
X627882Y365319D01*
D02*
G37*
G36*
X487985Y361629D02*
X487280D01*
X486629Y361359D01*
X486131Y360861D01*
X485861Y360209D01*
Y359505D01*
X486131Y358854D01*
X486629Y358355D01*
X487280Y358085D01*
X487985D01*
X488636Y358355D01*
X489135Y358854D01*
X489404Y359505D01*
Y360209D01*
X489135Y360861D01*
X488636Y361359D01*
X487985Y361629D01*
D02*
G37*
G36*
X471852Y360772D02*
X471148D01*
X470496Y360502D01*
X469998Y360004D01*
X469728Y359352D01*
Y358648D01*
X469998Y357996D01*
X470496Y357498D01*
X471148Y357228D01*
X471852D01*
X472504Y357498D01*
X473002Y357996D01*
X473272Y358648D01*
Y359352D01*
X473002Y360004D01*
X472504Y360502D01*
X471852Y360772D01*
D02*
G37*
G36*
X462352Y362272D02*
X461648D01*
X460996Y362002D01*
X460498Y361504D01*
X460228Y360852D01*
Y360148D01*
X460498Y359496D01*
X460996Y358998D01*
X461648Y358728D01*
X462352D01*
X463004Y358998D01*
X463074Y359069D01*
X463574Y358861D01*
Y358627D01*
X463844Y357976D01*
X464342Y357478D01*
X464993Y357208D01*
X465698D01*
X466349Y357478D01*
X466848Y357976D01*
X467118Y358627D01*
Y359332D01*
X466848Y359983D01*
X466349Y360482D01*
X465698Y360751D01*
X464993D01*
X464342Y360482D01*
X464272Y360411D01*
X463772Y360618D01*
Y360852D01*
X463502Y361504D01*
X463004Y362002D01*
X462352Y362272D01*
D02*
G37*
G36*
X503852Y370772D02*
X503148D01*
X502496Y370502D01*
X501998Y370004D01*
X501728Y369352D01*
Y368648D01*
X501884Y368272D01*
X501654Y367785D01*
X501599Y367752D01*
X500996Y367502D01*
X500498Y367004D01*
X500228Y366352D01*
Y365648D01*
X499999Y365304D01*
X499667D01*
X499016Y365034D01*
X498517Y364535D01*
X498247Y363884D01*
Y363180D01*
X498362Y362903D01*
X498148Y362403D01*
X497496Y362133D01*
X496998Y361635D01*
X496728Y360984D01*
Y360279D01*
X496388Y359793D01*
X496148D01*
X495496Y359524D01*
X494998Y359025D01*
X494728Y358374D01*
Y357669D01*
X494998Y357018D01*
X495496Y356520D01*
X496148Y356250D01*
X496852D01*
X497504Y356520D01*
X498002Y357018D01*
X498272Y357669D01*
Y358374D01*
X498612Y358860D01*
X498852D01*
X499504Y359130D01*
X500002Y359628D01*
X500272Y360279D01*
Y360984D01*
X500157Y361260D01*
X500372Y361760D01*
X501023Y362030D01*
X501521Y362528D01*
X501791Y363180D01*
Y363884D01*
X502021Y364228D01*
X502352D01*
X503004Y364498D01*
X503502Y364996D01*
X503772Y365648D01*
Y366352D01*
X503616Y366728D01*
X503846Y367215D01*
X503901Y367248D01*
X504504Y367498D01*
X505002Y367996D01*
X505272Y368648D01*
Y369352D01*
X505002Y370004D01*
X504504Y370502D01*
X503852Y370772D01*
D02*
G37*
G36*
X403852Y358772D02*
X403148D01*
X402496Y358502D01*
X401998Y358004D01*
X401728Y357352D01*
Y356648D01*
X401998Y355996D01*
X402496Y355498D01*
X403148Y355228D01*
X403852D01*
X404504Y355498D01*
X405002Y355996D01*
X405272Y356648D01*
Y357352D01*
X405002Y358004D01*
X404504Y358502D01*
X403852Y358772D01*
D02*
G37*
G36*
X542954Y357171D02*
X542249D01*
X541598Y356901D01*
X541099Y356402D01*
X540830Y355751D01*
Y355046D01*
X541099Y354395D01*
X541598Y353897D01*
X542249Y353627D01*
X542954D01*
X543605Y353897D01*
X544103Y354395D01*
X544373Y355046D01*
Y355751D01*
X544103Y356402D01*
X543605Y356901D01*
X542954Y357171D01*
D02*
G37*
G36*
X639063Y359925D02*
X638118D01*
X637205Y359681D01*
X636386Y359208D01*
X635717Y358539D01*
X635245Y357721D01*
X635000Y356807D01*
Y355862D01*
X635245Y354949D01*
X635717Y354130D01*
X636386Y353462D01*
X637205Y352989D01*
X638118Y352744D01*
X639063D01*
X639977Y352989D01*
X640795Y353462D01*
X641464Y354130D01*
X641936Y354949D01*
X642181Y355862D01*
Y356807D01*
X641936Y357721D01*
X641464Y358539D01*
X640795Y359208D01*
X639977Y359681D01*
X639063Y359925D01*
D02*
G37*
G36*
X579136Y356321D02*
X578344D01*
X577612Y356018D01*
X577052Y355458D01*
X576749Y354727D01*
Y353935D01*
X577052Y353203D01*
X577612Y352643D01*
X578344Y352340D01*
X579136D01*
X579868Y352643D01*
X580428Y353203D01*
X580730Y353935D01*
Y354727D01*
X580428Y355458D01*
X579868Y356018D01*
X579136Y356321D01*
D02*
G37*
G36*
X530996Y356915D02*
X530291D01*
X529640Y356646D01*
X529142Y356147D01*
X528872Y355496D01*
Y354791D01*
X529142Y354140D01*
X529081Y353834D01*
X528942Y353777D01*
X528443Y353278D01*
X528173Y352627D01*
Y351922D01*
X528443Y351271D01*
X528942Y350773D01*
X529593Y350503D01*
X530298D01*
X530949Y350773D01*
X531447Y351271D01*
X531717Y351922D01*
Y352627D01*
X531447Y353278D01*
X531508Y353584D01*
X531647Y353642D01*
X532146Y354140D01*
X532415Y354791D01*
Y355496D01*
X532146Y356147D01*
X531647Y356646D01*
X530996Y356915D01*
D02*
G37*
G36*
X558352Y353272D02*
X557648D01*
X556996Y353002D01*
X556498Y352504D01*
X556228Y351852D01*
Y351148D01*
X556498Y350496D01*
X556996Y349998D01*
X557648Y349728D01*
X558352D01*
X559004Y349998D01*
X559502Y350496D01*
X559772Y351148D01*
Y351852D01*
X559502Y352504D01*
X559004Y353002D01*
X558352Y353272D01*
D02*
G37*
G36*
X546377Y352343D02*
X545673D01*
X545021Y352074D01*
X544523Y351575D01*
X544253Y350924D01*
Y350219D01*
X544523Y349568D01*
X545021Y349070D01*
X545673Y348800D01*
X546377D01*
X547028Y349070D01*
X547527Y349568D01*
X547797Y350219D01*
Y350924D01*
X547527Y351575D01*
X547028Y352074D01*
X546377Y352343D01*
D02*
G37*
G36*
X531352Y349272D02*
X530648D01*
X529996Y349002D01*
X529498Y348504D01*
X529488Y348479D01*
X528997Y348381D01*
X528940Y348438D01*
X528289Y348708D01*
X527584D01*
X526933Y348438D01*
X526435Y347940D01*
X526165Y347289D01*
Y346584D01*
X526435Y345933D01*
X526933Y345434D01*
X527584Y345165D01*
X528289D01*
X528940Y345434D01*
X529438Y345933D01*
X529449Y345958D01*
X529939Y346055D01*
X529996Y345998D01*
X530648Y345728D01*
X531352D01*
X532004Y345998D01*
X532502Y346496D01*
X532772Y347148D01*
Y347852D01*
X532502Y348504D01*
X532004Y349002D01*
X531352Y349272D01*
D02*
G37*
G36*
X551352Y351772D02*
X550648D01*
X549996Y351502D01*
X549498Y351004D01*
X549228Y350352D01*
Y349648D01*
X549498Y348996D01*
X549996Y348498D01*
X550648Y348228D01*
X551352D01*
X552004Y348498D01*
X552502Y348996D01*
X552772Y349648D01*
Y350352D01*
X552502Y351004D01*
X552004Y351502D01*
X551352Y351772D01*
D02*
G37*
G36*
X627882Y354532D02*
X626937D01*
X626023Y354287D01*
X625205Y353814D01*
X624536Y353146D01*
X624064Y352327D01*
X623819Y351414D01*
Y350468D01*
X624064Y349555D01*
X624536Y348736D01*
X625205Y348068D01*
X626023Y347595D01*
X626937Y347350D01*
X627882D01*
X628795Y347595D01*
X629614Y348068D01*
X630283Y348736D01*
X630755Y349555D01*
X631000Y350468D01*
Y351414D01*
X630755Y352327D01*
X630283Y353146D01*
X629614Y353814D01*
X628795Y354287D01*
X627882Y354532D01*
D02*
G37*
G36*
X450255Y350490D02*
X449550D01*
X448899Y350220D01*
X448400Y349722D01*
X448131Y349070D01*
Y348366D01*
X448400Y347714D01*
X448899Y347216D01*
X449550Y346946D01*
X450255D01*
X450906Y347216D01*
X451404Y347714D01*
X451674Y348366D01*
Y349070D01*
X451404Y349722D01*
X450906Y350220D01*
X450255Y350490D01*
D02*
G37*
G36*
X494352Y350272D02*
X493648D01*
X492996Y350002D01*
X492498Y349504D01*
X492228Y348852D01*
Y348148D01*
X492498Y347496D01*
X492996Y346998D01*
X493648Y346728D01*
X494352D01*
X495004Y346998D01*
X495502Y347496D01*
X495772Y348148D01*
Y348852D01*
X495502Y349504D01*
X495004Y350002D01*
X494352Y350272D01*
D02*
G37*
G36*
X395509Y348744D02*
X394805D01*
X394153Y348475D01*
X393655Y347976D01*
X393385Y347325D01*
Y346620D01*
X393655Y345969D01*
X394153Y345471D01*
X394805Y345201D01*
X395509D01*
X396161Y345471D01*
X396659Y345969D01*
X396929Y346620D01*
Y347325D01*
X396659Y347976D01*
X396161Y348475D01*
X395509Y348744D01*
D02*
G37*
G36*
X554156Y348575D02*
X553451D01*
X552800Y348305D01*
X552301Y347807D01*
X552032Y347155D01*
Y346451D01*
X552301Y345800D01*
X552800Y345301D01*
X553451Y345031D01*
X554156D01*
X554807Y345301D01*
X555305Y345800D01*
X555575Y346451D01*
Y347155D01*
X555305Y347807D01*
X554807Y348305D01*
X554156Y348575D01*
D02*
G37*
G36*
X572978Y348146D02*
X572274D01*
X571622Y347876D01*
X571124Y347378D01*
X570854Y346726D01*
Y346022D01*
X571124Y345371D01*
X571622Y344872D01*
X572274Y344602D01*
X572978D01*
X573630Y344872D01*
X574128Y345371D01*
X574398Y346022D01*
Y346726D01*
X574128Y347378D01*
X573630Y347876D01*
X572978Y348146D01*
D02*
G37*
G36*
X608852Y347772D02*
X608148D01*
X607496Y347502D01*
X606998Y347004D01*
X606728Y346352D01*
Y345648D01*
X606998Y344996D01*
X607496Y344498D01*
X608148Y344228D01*
X608852D01*
X609504Y344498D01*
X610002Y344996D01*
X610272Y345648D01*
Y346352D01*
X610002Y347004D01*
X609504Y347502D01*
X608852Y347772D01*
D02*
G37*
G36*
X507852Y346772D02*
X507148D01*
X506496Y346502D01*
X505998Y346004D01*
X505728Y345352D01*
Y344648D01*
X505998Y343996D01*
X506496Y343498D01*
X507148Y343228D01*
X507852D01*
X508504Y343498D01*
X509002Y343996D01*
X509272Y344648D01*
Y345352D01*
X509002Y346004D01*
X508504Y346502D01*
X507852Y346772D01*
D02*
G37*
G36*
X465852D02*
X465148D01*
X464496Y346502D01*
X463998Y346004D01*
X463728Y345352D01*
Y344648D01*
X463998Y343996D01*
X464496Y343498D01*
X465148Y343228D01*
X465852D01*
X466504Y343498D01*
X467002Y343996D01*
X467272Y344648D01*
Y345352D01*
X467002Y346004D01*
X466504Y346502D01*
X465852Y346772D01*
D02*
G37*
G36*
X632285Y344510D02*
X631494D01*
X630762Y344207D01*
X630202Y343647D01*
X630055Y343293D01*
X629935Y343220D01*
X629444Y343125D01*
X628795Y343499D01*
X627882Y343744D01*
X626937D01*
X626023Y343499D01*
X625205Y343027D01*
X624536Y342358D01*
X624064Y341539D01*
X623819Y340626D01*
Y339681D01*
X624064Y338768D01*
X624536Y337949D01*
X625205Y337280D01*
X626023Y336808D01*
X626937Y336563D01*
X627882D01*
X628795Y336808D01*
X629614Y337280D01*
X630283Y337949D01*
X630755Y338768D01*
X631000Y339681D01*
Y340192D01*
X631494Y340529D01*
X632285D01*
X633017Y340832D01*
X633577Y341392D01*
X633880Y342124D01*
Y342916D01*
X633577Y343647D01*
X633017Y344207D01*
X632285Y344510D01*
D02*
G37*
G36*
X426852Y345772D02*
X426148D01*
X425496Y345502D01*
X424998Y345004D01*
X424728Y344352D01*
Y343648D01*
X424998Y342996D01*
X425496Y342498D01*
X426148Y342228D01*
X426852D01*
X427504Y342498D01*
X428002Y342996D01*
X428272Y343648D01*
Y344352D01*
X428002Y345004D01*
X427504Y345502D01*
X426852Y345772D01*
D02*
G37*
G36*
X639063Y349138D02*
X638118D01*
X637205Y348893D01*
X636386Y348420D01*
X635717Y347752D01*
X635245Y346933D01*
X635000Y346020D01*
Y345075D01*
X635245Y344161D01*
X635717Y343343D01*
X636386Y342674D01*
X637205Y342201D01*
X638118Y341957D01*
X639063D01*
X639977Y342201D01*
X640795Y342674D01*
X641464Y343343D01*
X641936Y344161D01*
X642181Y345075D01*
Y346020D01*
X641936Y346933D01*
X641464Y347752D01*
X640795Y348420D01*
X639977Y348893D01*
X639063Y349138D01*
D02*
G37*
G36*
X396065Y344510D02*
X395273D01*
X394542Y344207D01*
X393982Y343647D01*
X393679Y342916D01*
Y342124D01*
X393982Y341392D01*
X394542Y340832D01*
X395273Y340529D01*
X396065D01*
X396797Y340832D01*
X397357Y341392D01*
X397660Y342124D01*
Y342916D01*
X397357Y343647D01*
X396797Y344207D01*
X396065Y344510D01*
D02*
G37*
G36*
X570479Y343958D02*
X569774D01*
X569123Y343689D01*
X568625Y343190D01*
X568355Y342539D01*
Y341834D01*
X568625Y341183D01*
X569123Y340685D01*
X569774Y340415D01*
X570479D01*
X571130Y340685D01*
X571629Y341183D01*
X571898Y341834D01*
Y342539D01*
X571629Y343190D01*
X571130Y343689D01*
X570479Y343958D01*
D02*
G37*
G36*
X491352Y343772D02*
X490648D01*
X489996Y343502D01*
X489498Y343004D01*
X489228Y342352D01*
Y341648D01*
X489498Y340996D01*
X489996Y340498D01*
X490648Y340228D01*
X491352D01*
X492004Y340498D01*
X492502Y340996D01*
X492772Y341648D01*
Y342352D01*
X492502Y343004D01*
X492004Y343502D01*
X491352Y343772D01*
D02*
G37*
G36*
X618852Y342772D02*
X618148D01*
X617496Y342502D01*
X616998Y342004D01*
X616728Y341352D01*
Y340648D01*
X616998Y339996D01*
X617496Y339498D01*
X618148Y339228D01*
X618852D01*
X619504Y339498D01*
X620002Y339996D01*
X620272Y340648D01*
Y341352D01*
X620002Y342004D01*
X619504Y342502D01*
X618852Y342772D01*
D02*
G37*
G36*
X457852D02*
X457148D01*
X456496Y342502D01*
X455998Y342004D01*
X455728Y341352D01*
Y340648D01*
X455998Y339996D01*
X456496Y339498D01*
X457148Y339228D01*
X457852D01*
X458504Y339498D01*
X459002Y339996D01*
X459272Y340648D01*
Y341352D01*
X459002Y342004D01*
X458504Y342502D01*
X457852Y342772D01*
D02*
G37*
G36*
X507352Y341772D02*
X506648D01*
X505996Y341502D01*
X505498Y341004D01*
X505228Y340352D01*
Y339648D01*
X505498Y338996D01*
X505996Y338498D01*
X506648Y338228D01*
X507352D01*
X508004Y338498D01*
X508502Y338996D01*
X508772Y339648D01*
Y340352D01*
X508502Y341004D01*
X508004Y341502D01*
X507352Y341772D01*
D02*
G37*
G36*
X520352Y341087D02*
X519648D01*
X518996Y340818D01*
X518498Y340319D01*
X518228Y339668D01*
Y338963D01*
X518498Y338312D01*
X518996Y337814D01*
X519648Y337544D01*
X520352D01*
X521004Y337814D01*
X521502Y338312D01*
X521772Y338963D01*
Y339668D01*
X521502Y340319D01*
X521004Y340818D01*
X520352Y341087D01*
D02*
G37*
G36*
X531569Y338350D02*
X530864D01*
X530213Y338081D01*
X529714Y337582D01*
X529445Y336931D01*
Y336226D01*
X529714Y335575D01*
X530213Y335077D01*
X530864Y334807D01*
X531569D01*
X532220Y335077D01*
X532718Y335575D01*
X532988Y336226D01*
Y336931D01*
X532718Y337582D01*
X532220Y338081D01*
X531569Y338350D01*
D02*
G37*
G36*
X555852Y336272D02*
X555148D01*
X554496Y336002D01*
X553998Y335504D01*
X553728Y334852D01*
Y334148D01*
X553998Y333496D01*
X554496Y332998D01*
X555148Y332728D01*
X555852D01*
X556504Y332998D01*
X557002Y333496D01*
X557272Y334148D01*
Y334852D01*
X557002Y335504D01*
X556504Y336002D01*
X555852Y336272D01*
D02*
G37*
G36*
X548852D02*
X548148D01*
X547496Y336002D01*
X546998Y335504D01*
X546728Y334852D01*
Y334148D01*
X546998Y333496D01*
X547496Y332998D01*
X548148Y332728D01*
X548852D01*
X549504Y332998D01*
X550002Y333496D01*
X550272Y334148D01*
Y334852D01*
X550002Y335504D01*
X549504Y336002D01*
X548852Y336272D01*
D02*
G37*
G36*
X539637Y335400D02*
X538932D01*
X538281Y335131D01*
X537783Y334632D01*
X537513Y333981D01*
Y333276D01*
X537783Y332625D01*
X538281Y332127D01*
X538932Y331857D01*
X539637D01*
X540288Y332127D01*
X540787Y332625D01*
X541056Y333276D01*
Y333981D01*
X540787Y334632D01*
X540288Y335131D01*
X539637Y335400D01*
D02*
G37*
G36*
X587852Y333272D02*
X587148D01*
X586496Y333002D01*
X585998Y332504D01*
X585728Y331852D01*
Y331148D01*
X585998Y330496D01*
X586496Y329998D01*
X587148Y329728D01*
X587852D01*
X588504Y329998D01*
X589002Y330496D01*
X589272Y331148D01*
Y331852D01*
X589002Y332504D01*
X588504Y333002D01*
X587852Y333272D01*
D02*
G37*
G36*
X390160Y332699D02*
X389368D01*
X388636Y332396D01*
X388076Y331836D01*
X387773Y331104D01*
Y330313D01*
X388076Y329581D01*
X388636Y329021D01*
X389368Y328718D01*
X390160D01*
X390891Y329021D01*
X391451Y329581D01*
X391754Y330313D01*
Y331104D01*
X391451Y331836D01*
X390891Y332396D01*
X390160Y332699D01*
D02*
G37*
G36*
X503352Y330587D02*
X502648D01*
X501996Y330318D01*
X501498Y329819D01*
X501228Y329168D01*
Y328463D01*
X501498Y327812D01*
X501996Y327314D01*
X502648Y327044D01*
X503352D01*
X504004Y327314D01*
X504502Y327812D01*
X504772Y328463D01*
Y329168D01*
X504502Y329819D01*
X504004Y330318D01*
X503352Y330587D01*
D02*
G37*
G36*
X449852Y330272D02*
X449148D01*
X448496Y330002D01*
X447998Y329504D01*
X447728Y328852D01*
Y328148D01*
X447998Y327496D01*
X448496Y326998D01*
X449148Y326728D01*
X449852D01*
X450504Y326998D01*
X451002Y327496D01*
X451272Y328148D01*
Y328852D01*
X451002Y329504D01*
X450504Y330002D01*
X449852Y330272D01*
D02*
G37*
G36*
X454396Y329772D02*
X453691D01*
X453040Y329502D01*
X452541Y329004D01*
X452272Y328352D01*
Y327648D01*
X452541Y326996D01*
X453040Y326498D01*
X453691Y326228D01*
X454396D01*
X455047Y326498D01*
X455545Y326996D01*
X455815Y327648D01*
Y328352D01*
X455545Y329004D01*
X455047Y329502D01*
X454396Y329772D01*
D02*
G37*
G36*
X540235Y328927D02*
X539531D01*
X538879Y328657D01*
X538381Y328159D01*
X538111Y327507D01*
Y326803D01*
X538381Y326151D01*
X538879Y325653D01*
X539531Y325383D01*
X540235D01*
X540886Y325653D01*
X541385Y326151D01*
X541655Y326803D01*
Y327507D01*
X541385Y328159D01*
X540886Y328657D01*
X540235Y328927D01*
D02*
G37*
G36*
X507081Y328772D02*
X506376D01*
X505725Y328502D01*
X505226Y328004D01*
X504957Y327352D01*
Y326648D01*
X505226Y325996D01*
X505725Y325498D01*
X506376Y325228D01*
X507081D01*
X507732Y325498D01*
X508230Y325996D01*
X508500Y326648D01*
Y327352D01*
X508230Y328004D01*
X507732Y328502D01*
X507081Y328772D01*
D02*
G37*
G36*
X484852Y328272D02*
X484148D01*
X483496Y328002D01*
X482998Y327504D01*
X482728Y326852D01*
Y326148D01*
X482998Y325496D01*
X483496Y324998D01*
X484148Y324728D01*
X484852D01*
X485504Y324998D01*
X486002Y325496D01*
X486272Y326148D01*
Y326852D01*
X486002Y327504D01*
X485504Y328002D01*
X484852Y328272D01*
D02*
G37*
G36*
X461841Y328102D02*
X461136D01*
X460485Y327833D01*
X459986Y327334D01*
X459717Y326683D01*
Y325978D01*
X459986Y325327D01*
X460485Y324829D01*
X461136Y324559D01*
X461841D01*
X462492Y324829D01*
X462990Y325327D01*
X463260Y325978D01*
Y326683D01*
X462990Y327334D01*
X462492Y327833D01*
X461841Y328102D01*
D02*
G37*
G36*
X442852Y328000D02*
X442148D01*
X441496Y327730D01*
X440998Y327232D01*
X440728Y326581D01*
Y325876D01*
X440998Y325225D01*
X441496Y324726D01*
X442148Y324457D01*
X442852D01*
X443504Y324726D01*
X444002Y325225D01*
X444272Y325876D01*
Y326581D01*
X444002Y327232D01*
X443504Y327730D01*
X442852Y328000D01*
D02*
G37*
G36*
X475693Y326000D02*
X474988D01*
X474337Y325730D01*
X473839Y325232D01*
X473569Y324581D01*
Y323876D01*
X473839Y323225D01*
X474337Y322726D01*
X474988Y322457D01*
X475693D01*
X476344Y322726D01*
X476843Y323225D01*
X477112Y323876D01*
Y324581D01*
X476843Y325232D01*
X476344Y325730D01*
X475693Y326000D01*
D02*
G37*
G36*
X493124Y325919D02*
X492419D01*
X491768Y325649D01*
X491270Y325151D01*
X491000Y324500D01*
Y323795D01*
X491270Y323144D01*
X491768Y322646D01*
X492419Y322376D01*
X493124D01*
X493775Y322646D01*
X494274Y323144D01*
X494543Y323795D01*
Y324500D01*
X494274Y325151D01*
X493775Y325649D01*
X493124Y325919D01*
D02*
G37*
G36*
X509352Y324772D02*
X508648D01*
X507996Y324502D01*
X507498Y324004D01*
X507228Y323352D01*
Y322648D01*
X507498Y321996D01*
X507996Y321498D01*
X508648Y321228D01*
X509352D01*
X510004Y321498D01*
X510502Y321996D01*
X510772Y322648D01*
Y323352D01*
X510502Y324004D01*
X510004Y324502D01*
X509352Y324772D01*
D02*
G37*
G36*
X465791Y324351D02*
X465086D01*
X464435Y324081D01*
X463937Y323583D01*
X463667Y322932D01*
Y322227D01*
X463937Y321576D01*
X464435Y321077D01*
X464971Y320855D01*
X465115Y320484D01*
X465130Y320308D01*
X464848Y320025D01*
X464545Y319293D01*
Y318502D01*
X464848Y317770D01*
X465408Y317210D01*
X466139Y316907D01*
X466931D01*
X467663Y317210D01*
X468223Y317770D01*
X468526Y318502D01*
Y319293D01*
X468223Y320025D01*
X467663Y320585D01*
X466931Y320888D01*
X466753Y321388D01*
X466940Y321576D01*
X467210Y322227D01*
Y322932D01*
X466940Y323583D01*
X466442Y324081D01*
X465791Y324351D01*
D02*
G37*
G36*
X411679Y320390D02*
X410321D01*
X408990Y320125D01*
X407736Y319606D01*
X406608Y318852D01*
X405648Y317892D01*
X404894Y316763D01*
X404375Y315510D01*
X404110Y314179D01*
Y312821D01*
X404375Y311490D01*
X404894Y310237D01*
X405648Y309108D01*
X406608Y308148D01*
X407736Y307394D01*
X408990Y306875D01*
X410321Y306610D01*
X411679D01*
X413010Y306875D01*
X414263Y307394D01*
X415392Y308148D01*
X416352Y309108D01*
X417106Y310237D01*
X417625Y311490D01*
X417890Y312821D01*
Y314179D01*
X417625Y315510D01*
X417106Y316763D01*
X416352Y317892D01*
X415392Y318852D01*
X414263Y319606D01*
X413010Y320125D01*
X411679Y320390D01*
D02*
G37*
G36*
X508774Y303322D02*
X507912D01*
X507117Y302993D01*
X506507Y302383D01*
X506178Y301588D01*
Y300726D01*
X506507Y299930D01*
X507117Y299321D01*
X507912Y298992D01*
X508774D01*
X509570Y299321D01*
X510179Y299930D01*
X510508Y300726D01*
Y301588D01*
X510179Y302383D01*
X509570Y302993D01*
X508774Y303322D01*
D02*
G37*
G36*
X541431Y297165D02*
X540569D01*
X539773Y296836D01*
X539164Y296227D01*
X538835Y295431D01*
Y294569D01*
X539164Y293773D01*
X539773Y293164D01*
X540569Y292835D01*
X541431D01*
X542227Y293164D01*
X542836Y293773D01*
X543165Y294569D01*
Y295431D01*
X542836Y296227D01*
X542227Y296836D01*
X541431Y297165D01*
D02*
G37*
G36*
X469972Y298583D02*
X469028D01*
X468117Y298339D01*
X467300Y297867D01*
X466633Y297200D01*
X466161Y296383D01*
X465917Y295472D01*
Y294528D01*
X466161Y293617D01*
X466633Y292800D01*
X467300Y292133D01*
X468117Y291662D01*
X469028Y291417D01*
X469972D01*
X470883Y291662D01*
X471700Y292133D01*
X472367Y292800D01*
X472838Y293617D01*
X473083Y294528D01*
Y295472D01*
X472838Y296383D01*
X472367Y297200D01*
X471700Y297867D01*
X470883Y298339D01*
X469972Y298583D01*
D02*
G37*
G36*
X459972D02*
X459028D01*
X458117Y298339D01*
X457300Y297867D01*
X456633Y297200D01*
X456161Y296383D01*
X455917Y295472D01*
Y294528D01*
X456161Y293617D01*
X456633Y292800D01*
X457300Y292133D01*
X458117Y291662D01*
X459028Y291417D01*
X459972D01*
X460883Y291662D01*
X461700Y292133D01*
X462367Y292800D01*
X462839Y293617D01*
X463083Y294528D01*
Y295472D01*
X462839Y296383D01*
X462367Y297200D01*
X461700Y297867D01*
X460883Y298339D01*
X459972Y298583D01*
D02*
G37*
G36*
X614173Y474470D02*
X613396Y474316D01*
X612738Y473876D01*
X612298Y473217D01*
X612144Y472441D01*
X612298Y471664D01*
X612738Y471006D01*
X613396Y470566D01*
X614173Y470411D01*
X614950Y470566D01*
X615608Y471006D01*
X616048Y471664D01*
X616203Y472441D01*
X616048Y473217D01*
X615608Y473876D01*
X614950Y474316D01*
X614173Y474470D01*
D02*
G37*
G36*
X590551D02*
X589774Y474316D01*
X589116Y473876D01*
X588676Y473217D01*
X588521Y472441D01*
X588676Y471664D01*
X589116Y471006D01*
X589774Y470566D01*
X590551Y470411D01*
X591328Y470566D01*
X591986Y471006D01*
X592426Y471664D01*
X592581Y472441D01*
X592426Y473217D01*
X591986Y473876D01*
X591328Y474316D01*
X590551Y474470D01*
D02*
G37*
G36*
X578740D02*
X577963Y474316D01*
X577305Y473876D01*
X576865Y473217D01*
X576710Y472441D01*
X576865Y471664D01*
X577305Y471006D01*
X577963Y470566D01*
X578740Y470411D01*
X579517Y470566D01*
X580175Y471006D01*
X580615Y471664D01*
X580769Y472441D01*
X580615Y473217D01*
X580175Y473876D01*
X579517Y474316D01*
X578740Y474470D01*
D02*
G37*
G36*
X566929D02*
X566152Y474316D01*
X565494Y473876D01*
X565054Y473217D01*
X564899Y472441D01*
X565054Y471664D01*
X565494Y471006D01*
X566152Y470566D01*
X566929Y470411D01*
X567706Y470566D01*
X568364Y471006D01*
X568804Y471664D01*
X568959Y472441D01*
X568804Y473217D01*
X568364Y473876D01*
X567706Y474316D01*
X566929Y474470D01*
D02*
G37*
G36*
X555118D02*
X554341Y474316D01*
X553683Y473876D01*
X553243Y473217D01*
X553088Y472441D01*
X553243Y471664D01*
X553683Y471006D01*
X554341Y470566D01*
X555118Y470411D01*
X555895Y470566D01*
X556553Y471006D01*
X556993Y471664D01*
X557148Y472441D01*
X556993Y473217D01*
X556553Y473876D01*
X555895Y474316D01*
X555118Y474470D01*
D02*
G37*
G36*
X543307D02*
X542530Y474316D01*
X541872Y473876D01*
X541432Y473217D01*
X541277Y472441D01*
X541432Y471664D01*
X541872Y471006D01*
X542530Y470566D01*
X543307Y470411D01*
X544084Y470566D01*
X544742Y471006D01*
X545182Y471664D01*
X545336Y472441D01*
X545182Y473217D01*
X544742Y473876D01*
X544084Y474316D01*
X543307Y474470D01*
D02*
G37*
G36*
X531496D02*
X530719Y474316D01*
X530061Y473876D01*
X529621Y473217D01*
X529466Y472441D01*
X529621Y471664D01*
X530061Y471006D01*
X530719Y470566D01*
X531496Y470411D01*
X532273Y470566D01*
X532931Y471006D01*
X533371Y471664D01*
X533526Y472441D01*
X533371Y473217D01*
X532931Y473876D01*
X532273Y474316D01*
X531496Y474470D01*
D02*
G37*
G36*
X519685D02*
X518908Y474316D01*
X518250Y473876D01*
X517810Y473217D01*
X517655Y472441D01*
X517810Y471664D01*
X518250Y471006D01*
X518908Y470566D01*
X519685Y470411D01*
X520462Y470566D01*
X521120Y471006D01*
X521560Y471664D01*
X521714Y472441D01*
X521560Y473217D01*
X521120Y473876D01*
X520462Y474316D01*
X519685Y474470D01*
D02*
G37*
G36*
X507874D02*
X507097Y474316D01*
X506439Y473876D01*
X505999Y473217D01*
X505844Y472441D01*
X505999Y471664D01*
X506439Y471006D01*
X507097Y470566D01*
X507874Y470411D01*
X508650Y470566D01*
X509309Y471006D01*
X509749Y471664D01*
X509903Y472441D01*
X509749Y473217D01*
X509309Y473876D01*
X508650Y474316D01*
X507874Y474470D01*
D02*
G37*
G36*
X496063D02*
X495286Y474316D01*
X494628Y473876D01*
X494188Y473217D01*
X494033Y472441D01*
X494188Y471664D01*
X494628Y471006D01*
X495286Y470566D01*
X496063Y470411D01*
X496840Y470566D01*
X497498Y471006D01*
X497938Y471664D01*
X498092Y472441D01*
X497938Y473217D01*
X497498Y473876D01*
X496840Y474316D01*
X496063Y474470D01*
D02*
G37*
G36*
X639157Y471375D02*
X638284Y471260D01*
X637470Y470923D01*
X636771Y470387D01*
X636234Y469688D01*
X635897Y468874D01*
X635782Y468000D01*
X635897Y467126D01*
X636234Y466312D01*
X636771Y465613D01*
X637470Y465077D01*
X638284Y464740D01*
X639157Y464625D01*
X640031Y464740D01*
X640845Y465077D01*
X641544Y465613D01*
X642081Y466312D01*
X642418Y467126D01*
X642533Y468000D01*
X642418Y468874D01*
X642081Y469688D01*
X641544Y470387D01*
X640845Y470923D01*
X640031Y471260D01*
X639157Y471375D01*
D02*
G37*
G36*
X625984Y474470D02*
X625207Y474316D01*
X624549Y473876D01*
X624109Y473217D01*
X623954Y472441D01*
X624109Y471664D01*
X624549Y471006D01*
X625207Y470566D01*
X625984Y470411D01*
X626377Y470489D01*
X626659Y470036D01*
X626392Y469688D01*
X626055Y468874D01*
X625940Y468000D01*
X626055Y467126D01*
X626392Y466312D01*
X626928Y465613D01*
X627627Y465077D01*
X628441Y464740D01*
X629315Y464625D01*
X630189Y464740D01*
X631003Y465077D01*
X631702Y465613D01*
X632238Y466312D01*
X632575Y467126D01*
X632690Y468000D01*
X632575Y468874D01*
X632238Y469688D01*
X631702Y470387D01*
X631003Y470923D01*
X630189Y471260D01*
X629315Y471375D01*
X628441Y471260D01*
X628095Y471117D01*
X627763Y471521D01*
X627859Y471664D01*
X628014Y472441D01*
X627859Y473217D01*
X627419Y473876D01*
X626761Y474316D01*
X625984Y474470D01*
D02*
G37*
G36*
X619472Y471375D02*
X618599Y471260D01*
X617785Y470923D01*
X617086Y470387D01*
X616549Y469688D01*
X616212Y468874D01*
X616097Y468000D01*
X616212Y467126D01*
X616549Y466312D01*
X617086Y465613D01*
X617785Y465077D01*
X618599Y464740D01*
X619472Y464625D01*
X620346Y464740D01*
X621160Y465077D01*
X621859Y465613D01*
X622396Y466312D01*
X622733Y467126D01*
X622848Y468000D01*
X622733Y468874D01*
X622396Y469688D01*
X621859Y470387D01*
X621160Y470923D01*
X620346Y471260D01*
X619472Y471375D01*
D02*
G37*
G36*
X609630D02*
X608756Y471260D01*
X607942Y470923D01*
X607243Y470387D01*
X606707Y469688D01*
X606370Y468874D01*
X606255Y468000D01*
X606370Y467126D01*
X606707Y466312D01*
X607243Y465613D01*
X607942Y465077D01*
X608756Y464740D01*
X609630Y464625D01*
X610503Y464740D01*
X611318Y465077D01*
X612017Y465613D01*
X612553Y466312D01*
X612890Y467126D01*
X613005Y468000D01*
X612890Y468874D01*
X612553Y469688D01*
X612017Y470387D01*
X611318Y470923D01*
X610503Y471260D01*
X609630Y471375D01*
D02*
G37*
G36*
X599787D02*
X598914Y471260D01*
X598100Y470923D01*
X597401Y470387D01*
X596864Y469688D01*
X596527Y468874D01*
X596412Y468000D01*
X596527Y467126D01*
X596864Y466312D01*
X597401Y465613D01*
X598100Y465077D01*
X598914Y464740D01*
X599787Y464625D01*
X600661Y464740D01*
X601475Y465077D01*
X602174Y465613D01*
X602710Y466312D01*
X603048Y467126D01*
X603163Y468000D01*
X603048Y468874D01*
X602710Y469688D01*
X602174Y470387D01*
X601475Y470923D01*
X600661Y471260D01*
X599787Y471375D01*
D02*
G37*
G36*
X655512Y462659D02*
X654735Y462505D01*
X654076Y462065D01*
X653637Y461407D01*
X653482Y460630D01*
X653637Y459853D01*
X654076Y459195D01*
X654735Y458755D01*
X655512Y458600D01*
X656288Y458755D01*
X656947Y459195D01*
X657387Y459853D01*
X657541Y460630D01*
X657387Y461407D01*
X656947Y462065D01*
X656288Y462505D01*
X655512Y462659D01*
D02*
G37*
G36*
X582075Y463517D02*
X571051D01*
Y452493D01*
X582075D01*
Y463517D01*
D02*
G37*
G36*
X560972Y463564D02*
X559534Y463375D01*
X558193Y462819D01*
X557041Y461936D01*
X556158Y460784D01*
X555603Y459444D01*
X555413Y458005D01*
X555603Y456566D01*
X556158Y455225D01*
X557041Y454074D01*
X558193Y453190D01*
X559534Y452635D01*
X560972Y452445D01*
X562411Y452635D01*
X563752Y453190D01*
X564903Y454074D01*
X565787Y455225D01*
X566342Y456566D01*
X566532Y458005D01*
X566342Y459444D01*
X565787Y460784D01*
X564903Y461936D01*
X563752Y462819D01*
X562411Y463375D01*
X560972Y463564D01*
D02*
G37*
G36*
X558500Y443708D02*
X557655Y443540D01*
X556939Y443061D01*
X556460Y442345D01*
X556292Y441500D01*
X556460Y440655D01*
X556939Y439939D01*
X557655Y439460D01*
X558500Y439292D01*
X559345Y439460D01*
X560061Y439939D01*
X560540Y440655D01*
X560708Y441500D01*
X560540Y442345D01*
X560061Y443061D01*
X559345Y443540D01*
X558500Y443708D01*
D02*
G37*
G36*
X572834Y439037D02*
X572058Y438883D01*
X571399Y438443D01*
X570959Y437784D01*
X570805Y437008D01*
X570959Y436231D01*
X571399Y435573D01*
X572058Y435133D01*
X572834Y434978D01*
X573611Y435133D01*
X574270Y435573D01*
X574710Y436231D01*
X574864Y437008D01*
X574710Y437784D01*
X574270Y438443D01*
X573611Y438883D01*
X572834Y439037D01*
D02*
G37*
G36*
X561023D02*
X560247Y438883D01*
X559588Y438443D01*
X559148Y437784D01*
X558994Y437008D01*
X559148Y436231D01*
X559588Y435573D01*
X560247Y435133D01*
X561023Y434978D01*
X561800Y435133D01*
X562459Y435573D01*
X562898Y436231D01*
X563053Y437008D01*
X562898Y437784D01*
X562459Y438443D01*
X561800Y438883D01*
X561023Y439037D01*
D02*
G37*
G36*
X575521Y431373D02*
X574829Y431236D01*
X574243Y430844D01*
X573852Y430258D01*
X573714Y429567D01*
X573852Y428876D01*
X574243Y428290D01*
X574829Y427898D01*
X575521Y427761D01*
X576212Y427898D01*
X576798Y428290D01*
X577190Y428876D01*
X577327Y429567D01*
X577190Y430258D01*
X576798Y430844D01*
X576212Y431236D01*
X575521Y431373D01*
D02*
G37*
G36*
X649606Y427226D02*
X648829Y427072D01*
X648171Y426632D01*
X647731Y425973D01*
X647577Y425197D01*
X647731Y424420D01*
X648171Y423762D01*
X648829Y423322D01*
X649606Y423167D01*
X650383Y423322D01*
X651041Y423762D01*
X651481Y424420D01*
X651636Y425197D01*
X651481Y425973D01*
X651041Y426632D01*
X650383Y427072D01*
X649606Y427226D01*
D02*
G37*
G36*
X583878Y407995D02*
X583186Y407857D01*
X582600Y407466D01*
X582209Y406880D01*
X582071Y406188D01*
X582209Y405497D01*
X582600Y404911D01*
X582436Y404420D01*
X582223Y404277D01*
X581831Y403691D01*
X581694Y403000D01*
X581831Y402309D01*
X582223Y401723D01*
X582809Y401331D01*
X583500Y401194D01*
X584191Y401331D01*
X584777Y401723D01*
X585169Y402309D01*
X585306Y403000D01*
X585169Y403691D01*
X584777Y404277D01*
X584942Y404769D01*
X585155Y404911D01*
X585547Y405497D01*
X585684Y406188D01*
X585547Y406880D01*
X585155Y407466D01*
X584569Y407857D01*
X583878Y407995D01*
D02*
G37*
G36*
X649606Y403604D02*
X648829Y403450D01*
X648171Y403010D01*
X647731Y402351D01*
X647577Y401575D01*
X647731Y400798D01*
X648171Y400140D01*
X648829Y399700D01*
X649606Y399545D01*
X650383Y399700D01*
X651041Y400140D01*
X651481Y400798D01*
X651636Y401575D01*
X651481Y402351D01*
X651041Y403010D01*
X650383Y403450D01*
X649606Y403604D01*
D02*
G37*
G36*
X555118D02*
X554341Y403450D01*
X553683Y403010D01*
X553243Y402351D01*
X553088Y401575D01*
X553243Y400798D01*
X553683Y400140D01*
X554341Y399700D01*
X555118Y399545D01*
X555895Y399700D01*
X556553Y400140D01*
X556993Y400798D01*
X557148Y401575D01*
X556993Y402351D01*
X556553Y403010D01*
X555895Y403450D01*
X555118Y403604D01*
D02*
G37*
G36*
X581000Y396708D02*
X580155Y396540D01*
X579439Y396061D01*
X578960Y395345D01*
X578792Y394500D01*
X578960Y393655D01*
X579439Y392939D01*
X580155Y392460D01*
X581000Y392292D01*
X581845Y392460D01*
X582561Y392939D01*
X583040Y393655D01*
X583208Y394500D01*
X583040Y395345D01*
X582561Y396061D01*
X581845Y396540D01*
X581000Y396708D01*
D02*
G37*
G36*
X649606Y379982D02*
X648829Y379828D01*
X648171Y379388D01*
X647731Y378729D01*
X647577Y377953D01*
X647731Y377176D01*
X648171Y376518D01*
X648829Y376078D01*
X649606Y375923D01*
X650383Y376078D01*
X651041Y376518D01*
X651481Y377176D01*
X651636Y377953D01*
X651481Y378729D01*
X651041Y379388D01*
X650383Y379828D01*
X649606Y379982D01*
D02*
G37*
G36*
Y356360D02*
X648829Y356206D01*
X648171Y355766D01*
X647731Y355107D01*
X647577Y354331D01*
X647731Y353554D01*
X648171Y352895D01*
X648829Y352455D01*
X649606Y352301D01*
X650383Y352455D01*
X651041Y352895D01*
X651481Y353554D01*
X651636Y354331D01*
X651481Y355107D01*
X651041Y355766D01*
X650383Y356206D01*
X649606Y356360D01*
D02*
G37*
G36*
Y332738D02*
X648829Y332584D01*
X648171Y332144D01*
X647731Y331485D01*
X647577Y330709D01*
X647731Y329932D01*
X648171Y329274D01*
X648829Y328834D01*
X649606Y328679D01*
X650383Y328834D01*
X651041Y329274D01*
X651481Y329932D01*
X651636Y330709D01*
X651481Y331485D01*
X651041Y332144D01*
X650383Y332584D01*
X649606Y332738D01*
D02*
G37*
G36*
X643701Y320927D02*
X642924Y320773D01*
X642266Y320333D01*
X641825Y319674D01*
X641671Y318898D01*
X641825Y318121D01*
X642266Y317462D01*
X642924Y317022D01*
X643701Y316868D01*
X644477Y317022D01*
X645136Y317462D01*
X645576Y318121D01*
X645730Y318898D01*
X645576Y319674D01*
X645136Y320333D01*
X644477Y320773D01*
X643701Y320927D01*
D02*
G37*
G36*
X620079D02*
X619302Y320773D01*
X618643Y320333D01*
X618203Y319674D01*
X618049Y318898D01*
X618203Y318121D01*
X618643Y317462D01*
X619302Y317022D01*
X620079Y316868D01*
X620855Y317022D01*
X621514Y317462D01*
X621954Y318121D01*
X622108Y318898D01*
X621954Y319674D01*
X621514Y320333D01*
X620855Y320773D01*
X620079Y320927D01*
D02*
G37*
G36*
X583000Y319208D02*
X582155Y319040D01*
X581439Y318561D01*
X580960Y317845D01*
X580792Y317000D01*
X580960Y316155D01*
X581439Y315439D01*
X582155Y314960D01*
X583000Y314792D01*
X583845Y314960D01*
X584561Y315439D01*
X585040Y316155D01*
X585208Y317000D01*
X585040Y317845D01*
X584561Y318561D01*
X583845Y319040D01*
X583000Y319208D01*
D02*
G37*
G36*
X633000Y319243D02*
X631649Y319110D01*
X630350Y318716D01*
X629153Y318076D01*
X628104Y317215D01*
X627243Y316166D01*
X626603Y314969D01*
X626209Y313670D01*
X626076Y312319D01*
X626209Y310968D01*
X626603Y309669D01*
X627243Y308472D01*
X628104Y307423D01*
X629153Y306562D01*
X630350Y305922D01*
X631649Y305528D01*
X633000Y305395D01*
X634351Y305528D01*
X635650Y305922D01*
X636847Y306562D01*
X637896Y307423D01*
X638757Y308472D01*
X639397Y309669D01*
X639791Y310968D01*
X639924Y312319D01*
X639791Y313670D01*
X639397Y314969D01*
X638757Y316166D01*
X637896Y317215D01*
X636847Y318076D01*
X635650Y318716D01*
X634351Y319110D01*
X633000Y319243D01*
D02*
G37*
G36*
X649606Y309116D02*
X648829Y308962D01*
X648171Y308522D01*
X647731Y307863D01*
X647577Y307086D01*
X647731Y306310D01*
X648171Y305651D01*
X648829Y305211D01*
X649606Y305057D01*
X650383Y305211D01*
X651041Y305651D01*
X651481Y306310D01*
X651636Y307086D01*
X651481Y307863D01*
X651041Y308522D01*
X650383Y308962D01*
X649606Y309116D01*
D02*
G37*
G36*
X602362D02*
X601585Y308962D01*
X600927Y308522D01*
X600487Y307863D01*
X600332Y307086D01*
X600487Y306310D01*
X600927Y305651D01*
X601585Y305211D01*
X602362Y305057D01*
X603139Y305211D01*
X603797Y305651D01*
X604237Y306310D01*
X604392Y307086D01*
X604237Y307863D01*
X603797Y308522D01*
X603139Y308962D01*
X602362Y309116D01*
D02*
G37*
G36*
X578500Y307708D02*
X577655Y307540D01*
X576939Y307061D01*
X576460Y306345D01*
X576292Y305500D01*
X576460Y304655D01*
X576939Y303939D01*
X577655Y303460D01*
X578500Y303292D01*
X579345Y303460D01*
X580061Y303939D01*
X580540Y304655D01*
X580708Y305500D01*
X580540Y306345D01*
X580061Y307061D01*
X579345Y307540D01*
X578500Y307708D01*
D02*
G37*
G36*
X631890Y297305D02*
X631113Y297151D01*
X630454Y296711D01*
X630015Y296052D01*
X629860Y295275D01*
X630015Y294499D01*
X630454Y293840D01*
X631113Y293400D01*
X631890Y293246D01*
X632666Y293400D01*
X633325Y293840D01*
X633765Y294499D01*
X633919Y295275D01*
X633765Y296052D01*
X633325Y296711D01*
X632666Y297151D01*
X631890Y297305D01*
D02*
G37*
G36*
X620079D02*
X619302Y297151D01*
X618643Y296711D01*
X618203Y296052D01*
X618049Y295275D01*
X618203Y294499D01*
X618643Y293840D01*
X619302Y293400D01*
X620079Y293246D01*
X620855Y293400D01*
X621514Y293840D01*
X621954Y294499D01*
X622108Y295275D01*
X621954Y296052D01*
X621514Y296711D01*
X620855Y297151D01*
X620079Y297305D01*
D02*
G37*
G36*
X542500Y288298D02*
X541655Y288130D01*
X540939Y287652D01*
X540460Y286935D01*
X540292Y286091D01*
X540460Y285246D01*
X540939Y284529D01*
X541655Y284051D01*
X542500Y283883D01*
X543345Y284051D01*
X544061Y284529D01*
X544540Y285246D01*
X544708Y286091D01*
X544540Y286935D01*
X544061Y287652D01*
X543345Y288130D01*
X542500Y288298D01*
D02*
G37*
G36*
X566929Y285494D02*
X566152Y285339D01*
X565494Y284900D01*
X565054Y284241D01*
X564899Y283465D01*
X565054Y282688D01*
X565494Y282029D01*
X566152Y281589D01*
X566929Y281435D01*
X567706Y281589D01*
X568364Y282029D01*
X568804Y282688D01*
X568959Y283465D01*
X568804Y284241D01*
X568364Y284900D01*
X567706Y285339D01*
X566929Y285494D01*
D02*
G37*
G36*
X629157Y286875D02*
X628284Y286760D01*
X627470Y286423D01*
X626771Y285887D01*
X626234Y285188D01*
X625897Y284374D01*
X625782Y283500D01*
X625897Y282626D01*
X626234Y281812D01*
X626771Y281113D01*
X627470Y280577D01*
X628284Y280240D01*
X629157Y280125D01*
X630031Y280240D01*
X630845Y280577D01*
X631544Y281113D01*
X632081Y281812D01*
X632418Y282626D01*
X632533Y283500D01*
X632418Y284374D01*
X632081Y285188D01*
X631544Y285887D01*
X630845Y286423D01*
X630031Y286760D01*
X629157Y286875D01*
D02*
G37*
G36*
X619315D02*
X618441Y286760D01*
X617627Y286423D01*
X616928Y285887D01*
X616392Y285188D01*
X616055Y284374D01*
X615940Y283500D01*
X616055Y282626D01*
X616392Y281812D01*
X616928Y281113D01*
X617627Y280577D01*
X618441Y280240D01*
X619315Y280125D01*
X620189Y280240D01*
X621003Y280577D01*
X621702Y281113D01*
X622238Y281812D01*
X622575Y282626D01*
X622690Y283500D01*
X622575Y284374D01*
X622238Y285188D01*
X621702Y285887D01*
X621003Y286423D01*
X620189Y286760D01*
X619315Y286875D01*
D02*
G37*
G36*
X639000Y286875D02*
X638126Y286760D01*
X637312Y286423D01*
X636613Y285887D01*
X636077Y285188D01*
X635740Y284374D01*
X635625Y283500D01*
X635740Y282626D01*
X636077Y281812D01*
X636613Y281113D01*
X637312Y280577D01*
X638126Y280240D01*
X639000Y280125D01*
X639874Y280240D01*
X640688Y280577D01*
X641387Y281113D01*
X641923Y281812D01*
X642260Y282626D01*
X642375Y283500D01*
X642260Y284374D01*
X641923Y285188D01*
X641387Y285887D01*
X640688Y286423D01*
X639874Y286760D01*
X639000Y286875D01*
D02*
G37*
G36*
X609472D02*
X608599Y286760D01*
X607785Y286423D01*
X607086Y285887D01*
X606549Y285188D01*
X606212Y284374D01*
X606097Y283500D01*
X606212Y282626D01*
X606549Y281812D01*
X607086Y281113D01*
X607785Y280577D01*
X608599Y280240D01*
X609472Y280125D01*
X610346Y280240D01*
X611160Y280577D01*
X611859Y281113D01*
X612396Y281812D01*
X612733Y282626D01*
X612848Y283500D01*
X612733Y284374D01*
X612396Y285188D01*
X611859Y285887D01*
X611160Y286423D01*
X610346Y286760D01*
X609472Y286875D01*
D02*
G37*
G36*
X599630D02*
X598756Y286760D01*
X597942Y286423D01*
X597243Y285887D01*
X596707Y285188D01*
X596370Y284374D01*
X596255Y283500D01*
X596370Y282626D01*
X596707Y281812D01*
X597243Y281113D01*
X597942Y280577D01*
X598756Y280240D01*
X599630Y280125D01*
X600503Y280240D01*
X601318Y280577D01*
X602017Y281113D01*
X602553Y281812D01*
X602890Y282626D01*
X603005Y283500D01*
X602890Y284374D01*
X602553Y285188D01*
X602017Y285887D01*
X601318Y286423D01*
X600503Y286760D01*
X599630Y286875D01*
D02*
G37*
%LPD*%
D34*
X411110Y438321D02*
D03*
X411000Y313500D02*
D03*
X645000Y263500D02*
D03*
Y489000D02*
D03*
D35*
X576563Y458005D02*
D03*
D36*
X560972D02*
D03*
D37*
X649000Y468000D02*
D03*
X648842Y283500D02*
D03*
D38*
X639157Y468000D02*
D03*
X629315D02*
D03*
X619472D02*
D03*
X609630D02*
D03*
X599787D02*
D03*
X599630Y283500D02*
D03*
X609472D02*
D03*
X619315Y283500D02*
D03*
X629157D02*
D03*
X639000Y283500D02*
D03*
D39*
X469500Y285000D02*
D03*
Y295000D02*
D03*
X459500D02*
D03*
D40*
Y285000D02*
D03*
D41*
X526000Y277087D02*
D03*
Y287913D02*
D03*
X491000Y277087D02*
D03*
Y287913D02*
D03*
D42*
X583000Y317000D02*
D03*
X578500Y305500D02*
D03*
X620500Y448000D02*
D03*
X639000Y450000D02*
D03*
X508343Y301157D02*
D03*
X560500Y289000D02*
D03*
X541000Y295000D02*
D03*
X547500Y305000D02*
D03*
X542500Y286091D02*
D03*
X426000Y297000D02*
D03*
X603500Y451500D02*
D03*
X620500Y382000D02*
D03*
X582500Y324000D02*
D03*
X594500D02*
D03*
X581000Y394500D02*
D03*
X620500Y388000D02*
D03*
X581000Y381000D02*
D03*
Y388000D02*
D03*
X568500Y369000D02*
D03*
X559000D02*
D03*
X549000D02*
D03*
X539500D02*
D03*
X609000Y451500D02*
D03*
Y459000D02*
D03*
X507500Y315802D02*
D03*
X558500Y441500D02*
D03*
X459500Y317000D02*
D03*
Y311000D02*
D03*
Y305500D02*
D03*
X507500Y308500D02*
D03*
X547500Y310500D02*
D03*
D43*
X575521Y429567D02*
D03*
X569000Y320500D02*
D03*
X479178Y436670D02*
D03*
X480995Y423434D02*
D03*
X448437Y437138D02*
D03*
X452500Y437500D02*
D03*
X510500Y407500D02*
D03*
X426500Y421500D02*
D03*
X537000Y453500D02*
D03*
X527500D02*
D03*
X518000D02*
D03*
X478500Y455862D02*
D03*
X514470Y425398D02*
D03*
X513228Y405945D02*
D03*
X518500Y416500D02*
D03*
X511500Y413000D02*
D03*
X508903Y410742D02*
D03*
X456500Y441000D02*
D03*
X441394Y442106D02*
D03*
X448199Y468676D02*
D03*
X465457Y448500D02*
D03*
X468000Y447000D02*
D03*
X457500Y451000D02*
D03*
X453894Y450606D02*
D03*
X458307Y447519D02*
D03*
X466500Y424500D02*
D03*
X464753Y442457D02*
D03*
X423000Y459500D02*
D03*
X416415Y453298D02*
D03*
X423000Y440632D02*
D03*
X435074Y428559D02*
D03*
X441894Y427106D02*
D03*
X425818Y400106D02*
D03*
X481500Y409000D02*
D03*
X492500Y424000D02*
D03*
X485462Y424011D02*
D03*
X489500Y426379D02*
D03*
X483000Y427970D02*
D03*
X471282Y449228D02*
D03*
X466500Y407500D02*
D03*
X456406Y409772D02*
D03*
X451331Y414000D02*
D03*
X459173Y412591D02*
D03*
X454383Y423617D02*
D03*
X448258Y423359D02*
D03*
X450120Y425651D02*
D03*
X461000Y426000D02*
D03*
X503384Y436868D02*
D03*
X500500Y437500D02*
D03*
X492728Y439569D02*
D03*
X490500Y449728D02*
D03*
X483115Y447879D02*
D03*
X467644Y441856D02*
D03*
X488680Y447359D02*
D03*
X473406Y425399D02*
D03*
X475870Y423130D02*
D03*
X521390Y418862D02*
D03*
X421934Y411360D02*
D03*
X420684Y406897D02*
D03*
X501500Y290000D02*
D03*
X583500Y403000D02*
D03*
X583878Y406188D02*
D03*
X590000Y409522D02*
D03*
X600500Y409000D02*
D03*
X595500D02*
D03*
X618500Y341000D02*
D03*
X587500Y331500D02*
D03*
X608500Y346000D02*
D03*
X601000Y354500D02*
D03*
X595500Y414000D02*
D03*
X590000Y418000D02*
D03*
Y414000D02*
D03*
X600500D02*
D03*
X595500Y418000D02*
D03*
X613000Y367500D02*
D03*
X600500Y418000D02*
D03*
X571772Y298148D02*
D03*
X531216Y336579D02*
D03*
X531000Y347500D02*
D03*
X527936Y346936D02*
D03*
X498500Y360631D02*
D03*
X496500Y358022D02*
D03*
X476586Y414084D02*
D03*
X577786Y367214D02*
D03*
X469364Y363636D02*
D03*
X465346Y358980D02*
D03*
X463500Y370612D02*
D03*
X471500Y359000D02*
D03*
X498000Y377741D02*
D03*
X481648Y369228D02*
D03*
X540500Y428000D02*
D03*
X515000Y348500D02*
D03*
X572626Y346374D02*
D03*
X553803Y346803D02*
D03*
X558000Y351500D02*
D03*
X542601Y355399D02*
D03*
X539285Y333629D02*
D03*
X548500Y334500D02*
D03*
X532647Y427646D02*
D03*
X535000Y421000D02*
D03*
X542000Y395000D02*
D03*
X537140Y347852D02*
D03*
X518500Y327816D02*
D03*
X454043Y328000D02*
D03*
X442500Y326228D02*
D03*
X491500Y327000D02*
D03*
X492772Y324148D02*
D03*
X490500Y282500D02*
D03*
X583539Y439461D02*
D03*
X530500Y363500D02*
D03*
X530644Y355144D02*
D03*
X529945Y352275D02*
D03*
X546025Y350572D02*
D03*
X570127Y342187D02*
D03*
X563418Y337734D02*
D03*
X512394Y362394D02*
D03*
X509772Y364913D02*
D03*
X539883Y327155D02*
D03*
X525074Y410741D02*
D03*
X523500Y416500D02*
D03*
X521500Y413592D02*
D03*
X515500Y393000D02*
D03*
X507000D02*
D03*
X449902Y348718D02*
D03*
X538224Y408000D02*
D03*
X540272Y402000D02*
D03*
Y405757D02*
D03*
X530272Y387228D02*
D03*
X520000Y339316D02*
D03*
X509500Y403816D02*
D03*
X401500Y421316D02*
D03*
X407610Y393277D02*
D03*
X400000Y378000D02*
D03*
X391500D02*
D03*
X395157Y346973D02*
D03*
X503000Y328816D02*
D03*
X487633Y359857D02*
D03*
X449712Y390212D02*
D03*
X442046Y385239D02*
D03*
X441000Y388000D02*
D03*
X444244Y383228D02*
D03*
X487500Y392316D02*
D03*
X396500Y387000D02*
D03*
X544496Y345996D02*
D03*
X555500Y334500D02*
D03*
X530272Y382816D02*
D03*
X527113Y363703D02*
D03*
X472439Y328816D02*
D03*
X449500Y340500D02*
D03*
X426500Y350816D02*
D03*
X442365Y379451D02*
D03*
X431000Y396316D02*
D03*
X430361Y400573D02*
D03*
X492000Y404816D02*
D03*
X551000Y350000D02*
D03*
X475341Y324228D02*
D03*
X498000Y393000D02*
D03*
X538000Y389500D02*
D03*
X465439Y322579D02*
D03*
X398500Y401500D02*
D03*
X434500Y421500D02*
D03*
X393500Y367500D02*
D03*
X409000Y372132D02*
D03*
X403500Y357000D02*
D03*
X388351Y399032D02*
D03*
X426000Y396500D02*
D03*
X451285Y406219D02*
D03*
X431892Y361615D02*
D03*
X426500Y344000D02*
D03*
X461488Y326331D02*
D03*
X515091Y377480D02*
D03*
X426177Y367824D02*
D03*
X423772Y386000D02*
D03*
Y382500D02*
D03*
X424272Y389500D02*
D03*
X423000Y393500D02*
D03*
X506728Y327000D02*
D03*
X509000Y323000D02*
D03*
X449500Y328500D02*
D03*
X527000Y379500D02*
D03*
X457500Y341000D02*
D03*
X507500Y345000D02*
D03*
X507000Y340000D02*
D03*
X507081Y377361D02*
D03*
X473500Y387000D02*
D03*
X500019Y363532D02*
D03*
X502000Y366000D02*
D03*
X503500Y369000D02*
D03*
X459000Y392500D02*
D03*
X456000Y391500D02*
D03*
X453000Y391000D02*
D03*
X465500Y345000D02*
D03*
X462000Y360500D02*
D03*
X468500Y386500D02*
D03*
X484500Y326500D02*
D03*
X491000Y342000D02*
D03*
X494000Y348500D02*
D03*
D44*
X572407Y318898D02*
D03*
X602362Y307086D02*
D03*
X419291Y366142D02*
D03*
X507874Y425197D02*
D03*
X478346Y460630D02*
D03*
X425197Y307086D02*
D03*
X413386Y448819D02*
D03*
X419291Y318898D02*
D03*
X567705Y328811D02*
D03*
X526366Y293378D02*
D03*
X496839Y305189D02*
D03*
X490933Y293378D02*
D03*
X473216Y305189D02*
D03*
X479122Y293378D02*
D03*
X455500Y317000D02*
D03*
X655512Y460630D02*
D03*
X649606Y425197D02*
D03*
Y401575D02*
D03*
Y377953D02*
D03*
Y354331D02*
D03*
Y330709D02*
D03*
Y307086D02*
D03*
X643701Y437008D02*
D03*
X637795Y425197D02*
D03*
X643701Y413386D02*
D03*
Y389764D02*
D03*
Y318898D02*
D03*
X625984Y472441D02*
D03*
Y377953D02*
D03*
X631890Y366142D02*
D03*
Y342520D02*
D03*
Y295275D02*
D03*
X614173Y472441D02*
D03*
Y401575D02*
D03*
X620079Y366142D02*
D03*
X614173Y330709D02*
D03*
X620079Y318898D02*
D03*
Y295275D02*
D03*
X602362Y330709D02*
D03*
X590551Y472441D02*
D03*
X578740D02*
D03*
X584646Y389764D02*
D03*
X578740Y354331D02*
D03*
X566929Y472441D02*
D03*
X572834Y437008D02*
D03*
X566929Y283465D02*
D03*
X555118Y472441D02*
D03*
X561023Y437008D02*
D03*
X555118Y401575D02*
D03*
X561023Y389764D02*
D03*
X543307Y472441D02*
D03*
X531496D02*
D03*
X519685D02*
D03*
X507874D02*
D03*
X496063D02*
D03*
X472441D02*
D03*
X478346Y389764D02*
D03*
X460630Y472441D02*
D03*
X466535Y318898D02*
D03*
X454724Y366142D02*
D03*
X419291Y295275D02*
D03*
X401575Y425197D02*
D03*
X407480Y413386D02*
D03*
X395669D02*
D03*
Y342520D02*
D03*
X389764Y330709D02*
D03*
X395669Y318898D02*
D03*
X383858Y389764D02*
D03*
X377953Y377953D02*
D03*
X383858Y366142D02*
D03*
Y342520D02*
D03*
D49*
X633000Y443500D02*
D03*
Y312319D02*
D03*
X638590Y410272D02*
D03*
Y399484D02*
D03*
Y388697D02*
D03*
Y377909D02*
D03*
Y367122D02*
D03*
Y356335D02*
D03*
Y345547D02*
D03*
X627410Y415665D02*
D03*
Y404878D02*
D03*
Y394091D02*
D03*
Y383303D02*
D03*
Y372516D02*
D03*
Y361728D02*
D03*
Y350941D02*
D03*
Y340154D02*
D03*
M02*
