G04*
G04 #@! TF.GenerationSoftware,Altium Limited,Altium Designer,25.1.2 (22)*
G04*
G04 Layer_Physical_Order=3*
G04 Layer_Color=16440176*
%FSLAX25Y25*%
%MOIN*%
G70*
G04*
G04 #@! TF.SameCoordinates,B1411C34-087D-4BAB-B9BA-D0973F51CA7B*
G04*
G04*
G04 #@! TF.FilePolarity,Positive*
G04*
G01*
G75*
%ADD33C,0.12598*%
%ADD34R,0.09843X0.09843*%
%ADD35C,0.09843*%
%ADD37R,0.05512X0.05512*%
%ADD38C,0.05512*%
%ADD39C,0.05984*%
%ADD40R,0.05984X0.05984*%
%ADD41C,0.02953*%
%ADD42C,0.03150*%
%ADD43C,0.02800*%
%ADD44C,0.02362*%
%ADD49C,0.06000*%
G36*
X480500Y478500D02*
X480939Y478353D01*
X481197Y478000D01*
Y456500D01*
X481258Y456193D01*
X481432Y455932D01*
X481693Y455758D01*
X482000Y455697D01*
X492938D01*
X493271Y455197D01*
X493128Y454852D01*
Y454148D01*
X493398Y453496D01*
X493896Y452998D01*
X494548Y452728D01*
X495252D01*
X495904Y452998D01*
X496402Y453496D01*
X496672Y454148D01*
Y454852D01*
X496529Y455197D01*
X496862Y455697D01*
X519908D01*
X520007Y455197D01*
X519468Y454974D01*
X518970Y454475D01*
X518700Y453824D01*
Y453120D01*
X518970Y452468D01*
X519468Y451970D01*
X520119Y451700D01*
X520824D01*
X521476Y451970D01*
X521974Y452468D01*
X522244Y453120D01*
Y453824D01*
X521974Y454475D01*
X521476Y454974D01*
X520936Y455197D01*
X521036Y455697D01*
X542197D01*
Y429515D01*
X541697Y429308D01*
X541504Y429502D01*
X540852Y429772D01*
X540148D01*
X539496Y429502D01*
X538998Y429004D01*
X538728Y428352D01*
Y427648D01*
X538998Y426996D01*
X539496Y426498D01*
X540148Y426228D01*
X540852D01*
X541504Y426498D01*
X541697Y426692D01*
X542197Y426485D01*
Y403233D01*
X542059Y403158D01*
X541697Y403080D01*
X541275Y403502D01*
X540624Y403772D01*
X539919D01*
X539268Y403502D01*
X538770Y403004D01*
X538500Y402352D01*
Y401648D01*
X538770Y400996D01*
X539268Y400498D01*
X539919Y400228D01*
X540624D01*
X541275Y400498D01*
X541697Y400920D01*
X542059Y400842D01*
X542197Y400767D01*
Y396772D01*
X541648D01*
X540996Y396502D01*
X540498Y396004D01*
X540228Y395352D01*
Y394648D01*
X540498Y393996D01*
X540996Y393498D01*
X541648Y393228D01*
X542197D01*
Y388500D01*
X542258Y388193D01*
X542432Y387932D01*
X542693Y387758D01*
X543000Y387697D01*
X558873D01*
X558942Y387711D01*
X559012Y387709D01*
X559094Y387741D01*
X559180Y387758D01*
X559239Y387797D01*
X559304Y387823D01*
X559368Y387883D01*
X559441Y387932D01*
X559896Y388076D01*
X560628Y387773D01*
X561419D01*
X562151Y388076D01*
X562606Y387932D01*
X562679Y387883D01*
X562743Y387823D01*
X562808Y387797D01*
X562866Y387758D01*
X562953Y387741D01*
X563035Y387709D01*
X563105Y387711D01*
X563174Y387697D01*
X578835D01*
Y387569D01*
X579164Y386773D01*
X579773Y386164D01*
X580569Y385835D01*
X581431D01*
X582227Y386164D01*
X582836Y386773D01*
X583165Y387569D01*
Y387775D01*
X583665Y388015D01*
X584249Y387773D01*
X585041D01*
X585773Y388076D01*
X586228Y387932D01*
X586301Y387883D01*
X586365Y387823D01*
X586430Y387797D01*
X586488Y387758D01*
X586575Y387741D01*
X586657Y387709D01*
X586727Y387711D01*
X586796Y387697D01*
X588000D01*
X588307Y387758D01*
X588568Y387932D01*
X588742Y388193D01*
X588803Y388500D01*
Y448197D01*
X627364D01*
X627508Y447697D01*
X626803Y446642D01*
X626284Y445388D01*
X626019Y444057D01*
Y442699D01*
X626284Y441368D01*
X626803Y440114D01*
X627557Y438985D01*
X628517Y438026D01*
X629646Y437272D01*
X630899Y436752D01*
X632231Y436487D01*
X633588D01*
X634919Y436752D01*
X636173Y437272D01*
X637302Y438026D01*
X638262Y438985D01*
X639016Y440114D01*
X639535Y441368D01*
X639800Y442699D01*
Y444057D01*
X639535Y445388D01*
X639016Y446642D01*
X638311Y447697D01*
X638454Y448197D01*
X643197D01*
Y438978D01*
X643202Y438956D01*
X642573Y438695D01*
X642013Y438135D01*
X641710Y437404D01*
Y436612D01*
X642013Y435880D01*
X642573Y435320D01*
X643202Y435060D01*
X643197Y435038D01*
Y415356D01*
X643202Y415334D01*
X642573Y415073D01*
X642013Y414513D01*
X641710Y413782D01*
Y412990D01*
X642013Y412258D01*
X642573Y411698D01*
X643202Y411438D01*
X643197Y411416D01*
Y391734D01*
X643202Y391711D01*
X642573Y391451D01*
X642013Y390891D01*
X641935Y390703D01*
X641436Y390670D01*
X641373Y390779D01*
X640705Y391448D01*
X639886Y391921D01*
X638973Y392165D01*
X638027D01*
X637114Y391921D01*
X636295Y391448D01*
X635627Y390779D01*
X635154Y389961D01*
X634909Y389048D01*
Y388102D01*
X635154Y387189D01*
X635627Y386370D01*
X636295Y385702D01*
X637114Y385229D01*
X638027Y384984D01*
X638973D01*
X639886Y385229D01*
X640705Y385702D01*
X641373Y386370D01*
X641846Y387189D01*
X642038Y387905D01*
X642558Y388091D01*
X642573Y388076D01*
X643202Y387816D01*
X643197Y387794D01*
Y328803D01*
X615790D01*
X615582Y329303D01*
X615861Y329581D01*
X616164Y330313D01*
Y331104D01*
X615861Y331836D01*
X615301Y332396D01*
X614569Y332699D01*
X613777D01*
X613046Y332396D01*
X612486Y331836D01*
X612183Y331104D01*
Y330313D01*
X612486Y329581D01*
X612764Y329303D01*
X612557Y328803D01*
X603978D01*
X603771Y329303D01*
X604049Y329581D01*
X604353Y330313D01*
Y331104D01*
X604049Y331836D01*
X603490Y332396D01*
X602758Y332699D01*
X601966D01*
X601234Y332396D01*
X600674Y331836D01*
X600372Y331104D01*
Y330313D01*
X600674Y329581D01*
X600953Y329303D01*
X600746Y328803D01*
X575000D01*
X574693Y328742D01*
X574432Y328568D01*
X574258Y328307D01*
X574197Y328000D01*
Y321003D01*
X573697Y320695D01*
X573230Y320888D01*
X572438D01*
X571994Y320704D01*
X571772Y320852D01*
X571502Y321504D01*
X571004Y322002D01*
X570352Y322272D01*
X569648D01*
X568996Y322002D01*
X568498Y321504D01*
X568228Y320852D01*
Y320148D01*
X568498Y319496D01*
X568996Y318998D01*
X569648Y318728D01*
X570352D01*
X570446Y318767D01*
X570552Y318696D01*
X570883Y318407D01*
X571147Y317770D01*
X571707Y317210D01*
X572438Y316907D01*
X573230D01*
X573697Y317100D01*
X574197Y316792D01*
Y289803D01*
X528315D01*
X528233Y289786D01*
X528148Y289785D01*
X528081Y289756D01*
X528008Y289742D01*
X527938Y289695D01*
X527861Y289662D01*
X527630Y289573D01*
X527357Y289584D01*
X527217Y289619D01*
X527171Y289666D01*
X526411Y289980D01*
X525589D01*
X524829Y289666D01*
X524783Y289619D01*
X524643Y289584D01*
X524370Y289573D01*
X524139Y289662D01*
X524062Y289695D01*
X523992Y289742D01*
X523919Y289756D01*
X523852Y289785D01*
X523767Y289786D01*
X523685Y289803D01*
X503272D01*
Y290352D01*
X503002Y291004D01*
X502504Y291502D01*
X501852Y291772D01*
X501148D01*
X500496Y291502D01*
X499998Y291004D01*
X499728Y290352D01*
Y289803D01*
X493315D01*
X493233Y289786D01*
X493148Y289785D01*
X493081Y289756D01*
X493008Y289742D01*
X492938Y289695D01*
X492861Y289662D01*
X492629Y289573D01*
X492357Y289584D01*
X492217Y289619D01*
X492171Y289666D01*
X491411Y289980D01*
X490589D01*
X489829Y289666D01*
X489783Y289619D01*
X489643Y289584D01*
X489370Y289573D01*
X489139Y289662D01*
X489062Y289695D01*
X488992Y289742D01*
X488919Y289756D01*
X488852Y289785D01*
X488767Y289786D01*
X488685Y289803D01*
X473500D01*
X473193Y289742D01*
X472932Y289568D01*
X472758Y289307D01*
X472697Y289000D01*
Y287577D01*
X472197Y287369D01*
X471700Y287867D01*
X470883Y288338D01*
X469972Y288583D01*
X469028D01*
X468117Y288338D01*
X467300Y287867D01*
X466633Y287200D01*
X466161Y286383D01*
X465917Y285472D01*
Y284528D01*
X466161Y283617D01*
X466633Y282800D01*
X467300Y282133D01*
X468117Y281662D01*
X469028Y281417D01*
X469972D01*
X470883Y281662D01*
X471700Y282133D01*
X472197Y282630D01*
X472697Y282423D01*
Y275625D01*
X472758Y275318D01*
X472917Y275080D01*
X472891Y274956D01*
X472739Y274586D01*
X471596Y274622D01*
X465352Y275208D01*
X459155Y276176D01*
X453029Y277522D01*
X446998Y279243D01*
X441083Y281330D01*
X435308Y283777D01*
X429695Y286574D01*
X424263Y289710D01*
X419622Y292785D01*
X419662Y293092D01*
X419740Y293307D01*
X420419Y293588D01*
X420979Y294148D01*
X421282Y294880D01*
Y295672D01*
X420979Y296403D01*
X420419Y296963D01*
X419687Y297266D01*
X418895D01*
X418164Y296963D01*
X417604Y296403D01*
X417301Y295672D01*
Y295109D01*
X416812Y294851D01*
X414028Y296953D01*
X409264Y301032D01*
X404759Y305395D01*
X400530Y310028D01*
X396594Y314911D01*
X395533Y316407D01*
X395791Y316907D01*
X396065D01*
X396797Y317210D01*
X397357Y317770D01*
X397660Y318502D01*
Y319293D01*
X397357Y320025D01*
X396797Y320585D01*
X396065Y320888D01*
X395273D01*
X394542Y320585D01*
X393982Y320025D01*
X393833Y319667D01*
X393266Y319603D01*
X392966Y320026D01*
X389658Y325355D01*
X386684Y330877D01*
X384054Y336571D01*
X382582Y340352D01*
X382971Y340733D01*
X383462Y340529D01*
X384254D01*
X384986Y340832D01*
X385546Y341392D01*
X385849Y342124D01*
Y342916D01*
X385546Y343647D01*
X384986Y344207D01*
X384254Y344510D01*
X383462D01*
X382731Y344207D01*
X382171Y343647D01*
X382024Y343292D01*
X381492Y343315D01*
X379868Y348390D01*
X378327Y354469D01*
X377162Y360632D01*
X376378Y366855D01*
X375977Y373114D01*
X375969Y376414D01*
X376468Y376622D01*
X376825Y376265D01*
X377557Y375962D01*
X378349D01*
X379080Y376265D01*
X379640Y376825D01*
X379943Y377557D01*
Y378349D01*
X379640Y379080D01*
X379080Y379640D01*
X378349Y379943D01*
X377557D01*
X376825Y379640D01*
X376462Y379277D01*
X376188Y379337D01*
X375968Y379490D01*
X376331Y385647D01*
X377085Y391874D01*
X378220Y398042D01*
X379731Y404129D01*
X381613Y410112D01*
X383860Y415968D01*
X386461Y421675D01*
X389408Y427211D01*
X392690Y432556D01*
X396293Y437690D01*
X400206Y442592D01*
X404411Y447245D01*
X408895Y451631D01*
X413639Y455733D01*
X418627Y459536D01*
X423839Y463025D01*
X429255Y466188D01*
X434855Y469013D01*
X440618Y471488D01*
X446522Y473604D01*
X446616Y473632D01*
X446986Y473218D01*
X446828Y472837D01*
Y472045D01*
X447131Y471313D01*
X447691Y470753D01*
X448423Y470450D01*
X449215D01*
X449946Y470753D01*
X450506Y471313D01*
X450809Y472045D01*
Y472837D01*
X450506Y473568D01*
X449985Y474090D01*
X449988Y474611D01*
X452545Y475354D01*
X458664Y476731D01*
X464856Y477729D01*
X471097Y478345D01*
X477365Y478577D01*
X480500Y478500D01*
D02*
G37*
G36*
X658500Y275000D02*
X644000D01*
Y275625D01*
X643875Y275500D01*
X606000D01*
Y275625D01*
X528040D01*
X527804Y276066D01*
X527947Y276280D01*
X528107Y277087D01*
X527947Y277893D01*
X527490Y278577D01*
X526806Y279034D01*
X526000Y279194D01*
X525194Y279034D01*
X524510Y278577D01*
X524053Y277893D01*
X523893Y277087D01*
X524053Y276280D01*
X524196Y276066D01*
X523960Y275625D01*
X493040D01*
X492804Y276066D01*
X492947Y276280D01*
X493107Y277087D01*
X492947Y277893D01*
X492490Y278577D01*
X491807Y279034D01*
X491000Y279194D01*
X490194Y279034D01*
X489510Y278577D01*
X489053Y277893D01*
X488893Y277087D01*
X489053Y276280D01*
X489196Y276066D01*
X488960Y275625D01*
X473500D01*
Y289000D01*
X488685D01*
X489009Y288500D01*
X488893Y287913D01*
X489053Y287107D01*
X489510Y286423D01*
X490194Y285966D01*
X491000Y285806D01*
X491807Y285966D01*
X492490Y286423D01*
X492947Y287107D01*
X493107Y287913D01*
X492991Y288500D01*
X493315Y289000D01*
X500037D01*
X500223Y288723D01*
X500809Y288331D01*
X501500Y288194D01*
X502191Y288331D01*
X502777Y288723D01*
X502963Y289000D01*
X523685D01*
X524009Y288500D01*
X523893Y287913D01*
X524053Y287107D01*
X524510Y286423D01*
X525194Y285966D01*
X526000Y285806D01*
X526806Y285966D01*
X527490Y286423D01*
X527947Y287107D01*
X528107Y287913D01*
X527991Y288500D01*
X528315Y289000D01*
X575000D01*
Y328000D01*
X644000D01*
Y387794D01*
X644477Y387889D01*
X645136Y388329D01*
X645576Y388987D01*
X645730Y389764D01*
X645576Y390540D01*
X645136Y391199D01*
X644477Y391639D01*
X644000Y391734D01*
Y411416D01*
X644477Y411511D01*
X645136Y411951D01*
X645576Y412609D01*
X645730Y413386D01*
X645576Y414162D01*
X645136Y414821D01*
X644477Y415261D01*
X644000Y415356D01*
Y435038D01*
X644477Y435133D01*
X645136Y435573D01*
X645576Y436231D01*
X645730Y437008D01*
X645576Y437784D01*
X645136Y438443D01*
X644477Y438883D01*
X644000Y438978D01*
Y449000D01*
X636921D01*
X636756Y449135D01*
X635559Y449775D01*
X634260Y450169D01*
X632909Y450302D01*
X631559Y450169D01*
X630260Y449775D01*
X629063Y449135D01*
X628898Y449000D01*
X588000D01*
Y388500D01*
X586796D01*
X586508Y388910D01*
X586523Y389000D01*
X586675Y389764D01*
X586521Y390540D01*
X586081Y391199D01*
X585422Y391639D01*
X584646Y391793D01*
X583869Y391639D01*
X583210Y391199D01*
X582770Y390540D01*
X582680Y390083D01*
X582128Y389851D01*
X581845Y390040D01*
X581000Y390208D01*
X580155Y390040D01*
X579439Y389561D01*
X578960Y388845D01*
X578892Y388500D01*
X563174D01*
X562886Y388910D01*
X562901Y389000D01*
X563053Y389764D01*
X562898Y390540D01*
X562459Y391199D01*
X561800Y391639D01*
X561023Y391793D01*
X560247Y391639D01*
X559588Y391199D01*
X559148Y390540D01*
X558994Y389764D01*
X559146Y389000D01*
X559161Y388910D01*
X558873Y388500D01*
X543000D01*
Y393537D01*
X543277Y393723D01*
X543669Y394309D01*
X543806Y395000D01*
X543669Y395691D01*
X543277Y396277D01*
X543000Y396463D01*
Y456500D01*
X482000D01*
Y478000D01*
X658500D01*
Y275000D01*
D02*
G37*
%LPC*%
G36*
X472837Y474431D02*
X472045D01*
X471313Y474128D01*
X470753Y473568D01*
X470450Y472837D01*
Y472045D01*
X470753Y471313D01*
X471313Y470753D01*
X472045Y470450D01*
X472837D01*
X473568Y470753D01*
X474128Y471313D01*
X474431Y472045D01*
Y472837D01*
X474128Y473568D01*
X473568Y474128D01*
X472837Y474431D01*
D02*
G37*
G36*
X461026D02*
X460234D01*
X459502Y474128D01*
X458942Y473568D01*
X458639Y472837D01*
Y472045D01*
X458942Y471313D01*
X459502Y470753D01*
X460234Y470450D01*
X461026D01*
X461757Y470753D01*
X462317Y471313D01*
X462620Y472045D01*
Y472837D01*
X462317Y473568D01*
X461757Y474128D01*
X461026Y474431D01*
D02*
G37*
G36*
X462561Y463796D02*
X461857D01*
X461205Y463526D01*
X460707Y463028D01*
X460437Y462377D01*
Y461672D01*
X460707Y461021D01*
X461205Y460523D01*
X461857Y460253D01*
X462561D01*
X463212Y460523D01*
X463711Y461021D01*
X463981Y461672D01*
Y462377D01*
X463711Y463028D01*
X463212Y463526D01*
X462561Y463796D01*
D02*
G37*
G36*
X438904Y463566D02*
X438199D01*
X437548Y463297D01*
X437049Y462798D01*
X436780Y462147D01*
Y461442D01*
X437049Y460791D01*
X437548Y460293D01*
X438199Y460023D01*
X438904D01*
X439555Y460293D01*
X440053Y460791D01*
X440323Y461442D01*
Y462147D01*
X440053Y462798D01*
X439555Y463297D01*
X438904Y463566D01*
D02*
G37*
G36*
X478742Y462620D02*
X477950D01*
X477219Y462317D01*
X476659Y461757D01*
X476356Y461026D01*
Y460234D01*
X476659Y459502D01*
X477219Y458942D01*
X477950Y458639D01*
X478742D01*
X479474Y458942D01*
X480034Y459502D01*
X480337Y460234D01*
Y461026D01*
X480034Y461757D01*
X479474Y462317D01*
X478742Y462620D01*
D02*
G37*
G36*
X466931D02*
X466139D01*
X465408Y462317D01*
X464848Y461757D01*
X464545Y461026D01*
Y460234D01*
X464848Y459502D01*
X465408Y458942D01*
X466139Y458639D01*
X466931D01*
X467663Y458942D01*
X468223Y459502D01*
X468526Y460234D01*
Y461026D01*
X468223Y461757D01*
X467663Y462317D01*
X466931Y462620D01*
D02*
G37*
G36*
X455120D02*
X454328D01*
X453597Y462317D01*
X453037Y461757D01*
X452734Y461026D01*
Y460234D01*
X453037Y459502D01*
X453597Y458942D01*
X454328Y458639D01*
X455120D01*
X455852Y458942D01*
X456412Y459502D01*
X456715Y460234D01*
Y461026D01*
X456412Y461757D01*
X455852Y462317D01*
X455120Y462620D01*
D02*
G37*
G36*
X443309D02*
X442517D01*
X441786Y462317D01*
X441226Y461757D01*
X440923Y461026D01*
Y460234D01*
X441226Y459502D01*
X441786Y458942D01*
X442517Y458639D01*
X443309D01*
X444041Y458942D01*
X444601Y459502D01*
X444904Y460234D01*
Y461026D01*
X444601Y461757D01*
X444041Y462317D01*
X443309Y462620D01*
D02*
G37*
G36*
X431498D02*
X430706D01*
X429975Y462317D01*
X429415Y461757D01*
X429112Y461026D01*
Y460234D01*
X429415Y459502D01*
X429975Y458942D01*
X430706Y458639D01*
X431498D01*
X432230Y458942D01*
X432790Y459502D01*
X433093Y460234D01*
Y461026D01*
X432790Y461757D01*
X432230Y462317D01*
X431498Y462620D01*
D02*
G37*
G36*
X536431Y455165D02*
X535569D01*
X534773Y454836D01*
X534164Y454227D01*
X533835Y453431D01*
Y452569D01*
X534164Y451773D01*
X534773Y451164D01*
X535569Y450835D01*
X536431D01*
X537227Y451164D01*
X537836Y451773D01*
X538165Y452569D01*
Y453431D01*
X537836Y454227D01*
X537227Y454836D01*
X536431Y455165D01*
D02*
G37*
G36*
X504352Y453772D02*
X503648D01*
X502996Y453502D01*
X502498Y453004D01*
X502228Y452352D01*
Y451648D01*
X502498Y450996D01*
X502996Y450498D01*
X503648Y450228D01*
X504352D01*
X505004Y450498D01*
X505502Y450996D01*
X505772Y451648D01*
Y452352D01*
X505502Y453004D01*
X505004Y453502D01*
X504352Y453772D01*
D02*
G37*
G36*
X511932Y453464D02*
X511227D01*
X510576Y453194D01*
X510077Y452695D01*
X509808Y452044D01*
Y451339D01*
X510077Y450688D01*
X510576Y450190D01*
X511227Y449920D01*
X511932D01*
X512583Y450190D01*
X513081Y450688D01*
X513351Y451339D01*
Y452044D01*
X513081Y452695D01*
X512583Y453194D01*
X511932Y453464D01*
D02*
G37*
G36*
X425593Y450809D02*
X424801D01*
X424069Y450506D01*
X423509Y449946D01*
X423206Y449215D01*
Y448423D01*
X423509Y447691D01*
X424069Y447131D01*
X424801Y446828D01*
X425593D01*
X426324Y447131D01*
X426884Y447691D01*
X427187Y448423D01*
Y449215D01*
X426884Y449946D01*
X426324Y450506D01*
X425593Y450809D01*
D02*
G37*
G36*
X413782D02*
X412990D01*
X412258Y450506D01*
X411698Y449946D01*
X411395Y449215D01*
Y448423D01*
X411698Y447691D01*
X412258Y447131D01*
X412990Y446828D01*
X413782D01*
X414513Y447131D01*
X415073Y447691D01*
X415376Y448423D01*
Y449215D01*
X415073Y449946D01*
X414513Y450506D01*
X413782Y450809D01*
D02*
G37*
G36*
X475852Y447772D02*
X475148D01*
X474496Y447502D01*
X473998Y447004D01*
X473750Y446405D01*
X473500Y446377D01*
X473250Y446405D01*
X473002Y447004D01*
X472504Y447502D01*
X471852Y447772D01*
X471148D01*
X470496Y447502D01*
X470030Y447035D01*
X469750Y447018D01*
X469470Y447035D01*
X469004Y447502D01*
X468352Y447772D01*
X467648D01*
X466996Y447502D01*
X466498Y447004D01*
X466228Y446352D01*
Y445648D01*
X466498Y444996D01*
X466996Y444498D01*
X467648Y444228D01*
X468352D01*
X469004Y444498D01*
X469470Y444965D01*
X469750Y444981D01*
X470030Y444965D01*
X470496Y444498D01*
X471148Y444228D01*
X471852D01*
X472504Y444498D01*
X473002Y444996D01*
X473250Y445595D01*
X473500Y445623D01*
X473750Y445595D01*
X473998Y444996D01*
X474496Y444498D01*
X475148Y444228D01*
X475852D01*
X476504Y444498D01*
X477002Y444996D01*
X477272Y445648D01*
Y446352D01*
X477002Y447004D01*
X476504Y447502D01*
X475852Y447772D01*
D02*
G37*
G36*
X460852Y448772D02*
X460148D01*
X459496Y448502D01*
X458998Y448004D01*
X458728Y447352D01*
Y446648D01*
X458998Y445996D01*
X459496Y445498D01*
X460148Y445228D01*
X460852D01*
X461244Y445391D01*
X461728Y445070D01*
Y444648D01*
X461998Y443996D01*
X462496Y443498D01*
X463148Y443228D01*
X463852D01*
X464504Y443498D01*
X465002Y443996D01*
X465272Y444648D01*
Y445352D01*
X465002Y446004D01*
X464504Y446502D01*
X463852Y446772D01*
X463148D01*
X462756Y446609D01*
X462272Y446930D01*
Y447352D01*
X462002Y448004D01*
X461504Y448502D01*
X460852Y448772D01*
D02*
G37*
G36*
X487199Y446482D02*
X486494D01*
X485843Y446212D01*
X485345Y445714D01*
X485075Y445062D01*
Y444358D01*
X485345Y443706D01*
X485843Y443208D01*
X486494Y442938D01*
X487199D01*
X487850Y443208D01*
X488348Y443706D01*
X488618Y444358D01*
Y445062D01*
X488348Y445714D01*
X487850Y446212D01*
X487199Y446482D01*
D02*
G37*
G36*
X493352Y443772D02*
X492648D01*
X491996Y443502D01*
X491498Y443004D01*
X491228Y442352D01*
Y441648D01*
X491348Y441359D01*
X491129Y441132D01*
X490944Y441026D01*
X490352Y441272D01*
X489648D01*
X488996Y441002D01*
X488498Y440504D01*
X488228Y439852D01*
Y439148D01*
X488498Y438496D01*
X488996Y437998D01*
X489648Y437728D01*
X490352D01*
X491004Y437998D01*
X491502Y438496D01*
X491772Y439148D01*
Y439852D01*
X491652Y440141D01*
X491871Y440368D01*
X492056Y440474D01*
X492648Y440228D01*
X493352D01*
X494004Y440498D01*
X494502Y440996D01*
X494772Y441648D01*
Y442352D01*
X494502Y443004D01*
X494004Y443502D01*
X493352Y443772D01*
D02*
G37*
G36*
X497852Y443272D02*
X497148D01*
X496496Y443002D01*
X495998Y442504D01*
X495728Y441852D01*
Y441148D01*
X495998Y440496D01*
X496496Y439998D01*
X497148Y439728D01*
X497852D01*
X498504Y439998D01*
X499002Y440496D01*
X499272Y441148D01*
Y441852D01*
X499002Y442504D01*
X498504Y443002D01*
X497852Y443272D01*
D02*
G37*
G36*
X467227Y440111D02*
X466522D01*
X465871Y439841D01*
X465372Y439343D01*
X465102Y438692D01*
Y437987D01*
X465372Y437336D01*
X465871Y436837D01*
X466522Y436568D01*
X467227D01*
X467878Y436837D01*
X468376Y437336D01*
X468646Y437987D01*
Y438692D01*
X468376Y439343D01*
X467878Y439841D01*
X467227Y440111D01*
D02*
G37*
G36*
X500852Y439772D02*
X500148D01*
X499496Y439502D01*
X498998Y439004D01*
X498728Y438352D01*
Y437648D01*
X498998Y436996D01*
X499496Y436498D01*
X500148Y436228D01*
X500852D01*
X501504Y436498D01*
X502002Y436996D01*
X502272Y437648D01*
Y438352D01*
X502002Y439004D01*
X501504Y439502D01*
X500852Y439772D01*
D02*
G37*
G36*
X407876Y438998D02*
X407084D01*
X406353Y438695D01*
X405793Y438135D01*
X405490Y437404D01*
Y436612D01*
X405793Y435880D01*
X406353Y435320D01*
X407084Y435017D01*
X407876D01*
X408608Y435320D01*
X409168Y435880D01*
X409471Y436612D01*
Y437404D01*
X409168Y438135D01*
X408608Y438695D01*
X407876Y438998D01*
D02*
G37*
G36*
X457916Y438337D02*
X457212D01*
X456561Y438067D01*
X456062Y437569D01*
X455792Y436918D01*
Y436213D01*
X456062Y435562D01*
X456561Y435064D01*
X457212Y434794D01*
X457916D01*
X458568Y435064D01*
X459066Y435562D01*
X459336Y436213D01*
Y436918D01*
X459066Y437569D01*
X458568Y438067D01*
X457916Y438337D01*
D02*
G37*
G36*
X453852Y438272D02*
X453148D01*
X452496Y438002D01*
X451998Y437504D01*
X451728Y436852D01*
Y436148D01*
X451998Y435496D01*
X452496Y434998D01*
X453148Y434728D01*
X453852D01*
X454504Y434998D01*
X455002Y435496D01*
X455272Y436148D01*
Y436852D01*
X455002Y437504D01*
X454504Y438002D01*
X453852Y438272D01*
D02*
G37*
G36*
X474992Y438457D02*
X474288D01*
X473636Y438187D01*
X473138Y437689D01*
X472868Y437037D01*
Y436333D01*
X473138Y435681D01*
X473636Y435183D01*
X474288Y434913D01*
X474992D01*
X475495Y435122D01*
X476010Y434994D01*
X476508Y434495D01*
X477159Y434226D01*
X477864D01*
X478515Y434495D01*
X479013Y434994D01*
X479283Y435645D01*
Y436350D01*
X479013Y437001D01*
X478515Y437499D01*
X477864Y437769D01*
X477159D01*
X476657Y437561D01*
X476142Y437689D01*
X475644Y438187D01*
X474992Y438457D01*
D02*
G37*
G36*
X418679Y445890D02*
X417321D01*
X415990Y445625D01*
X414737Y445106D01*
X413608Y444352D01*
X412648Y443392D01*
X411894Y442264D01*
X411375Y441010D01*
X411110Y439679D01*
Y438321D01*
X411375Y436990D01*
X411894Y435737D01*
X412648Y434608D01*
X413608Y433648D01*
X414737Y432894D01*
X415990Y432375D01*
X417321Y432110D01*
X418679D01*
X420010Y432375D01*
X421264Y432894D01*
X422392Y433648D01*
X423352Y434608D01*
X424106Y435737D01*
X424625Y436990D01*
X424890Y438321D01*
Y439679D01*
X424625Y441010D01*
X424106Y442264D01*
X423352Y443392D01*
X422392Y444352D01*
X421264Y445106D01*
X420010Y445625D01*
X418679Y445890D01*
D02*
G37*
G36*
X507352Y427272D02*
X506648D01*
X505996Y427002D01*
X505498Y426504D01*
X505278Y426460D01*
X504963Y426519D01*
X504352Y426772D01*
X503648D01*
X502996Y426502D01*
X502530Y426035D01*
X502250Y426018D01*
X501970Y426035D01*
X501504Y426502D01*
X500852Y426772D01*
X500148D01*
X499496Y426502D01*
X498998Y426004D01*
X498728Y425352D01*
Y424648D01*
X498998Y423996D01*
X499496Y423498D01*
X500148Y423228D01*
X500852D01*
X501504Y423498D01*
X501970Y423965D01*
X502250Y423982D01*
X502530Y423965D01*
X502996Y423498D01*
X503648Y423228D01*
X504352D01*
X505004Y423498D01*
X505502Y423996D01*
X505722Y424040D01*
X506037Y423981D01*
X506648Y423728D01*
X507352D01*
X508004Y423998D01*
X508502Y424496D01*
X508772Y425148D01*
Y425852D01*
X508502Y426504D01*
X508004Y427002D01*
X507352Y427272D01*
D02*
G37*
G36*
X532999Y429418D02*
X532294D01*
X531643Y429148D01*
X531145Y428650D01*
X530875Y427999D01*
Y427294D01*
X531145Y426643D01*
X531643Y426145D01*
X532294Y425875D01*
X532999D01*
X533650Y426145D01*
X534148Y426643D01*
X534418Y427294D01*
Y427999D01*
X534148Y428650D01*
X533650Y429148D01*
X532999Y429418D01*
D02*
G37*
G36*
X475388Y429008D02*
X474683D01*
X474032Y428738D01*
X473533Y428240D01*
X473264Y427589D01*
Y426884D01*
X473533Y426233D01*
X474032Y425734D01*
X474683Y425465D01*
X475388D01*
X476039Y425734D01*
X476537Y426233D01*
X476807Y426884D01*
Y427589D01*
X476537Y428240D01*
X476039Y428738D01*
X475388Y429008D01*
D02*
G37*
G36*
X452352Y428272D02*
X451648D01*
X450996Y428002D01*
X450498Y427504D01*
X450228Y426852D01*
Y426148D01*
X450498Y425496D01*
X450996Y424998D01*
X451648Y424728D01*
X452352D01*
X453004Y424998D01*
X453502Y425496D01*
X453772Y426148D01*
Y426852D01*
X453502Y427504D01*
X453004Y428002D01*
X452352Y428272D01*
D02*
G37*
G36*
X514852Y427272D02*
X514148D01*
X513496Y427002D01*
X512998Y426504D01*
X512728Y425852D01*
Y425148D01*
X512998Y424496D01*
X513496Y423998D01*
X514148Y423728D01*
X514852D01*
X515504Y423998D01*
X516002Y424496D01*
X516272Y425148D01*
Y425852D01*
X516002Y426504D01*
X515504Y427002D01*
X514852Y427272D01*
D02*
G37*
G36*
X638191Y427187D02*
X637399D01*
X636667Y426884D01*
X636108Y426324D01*
X635805Y425593D01*
Y424801D01*
X636108Y424069D01*
X636667Y423509D01*
X637399Y423206D01*
X638191D01*
X638923Y423509D01*
X639483Y424069D01*
X639786Y424801D01*
Y425593D01*
X639483Y426324D01*
X638923Y426884D01*
X638191Y427187D01*
D02*
G37*
G36*
X495352Y425772D02*
X494648D01*
X493996Y425502D01*
X493498Y425004D01*
X493228Y424352D01*
Y423648D01*
X493498Y422996D01*
X493996Y422498D01*
X494648Y422228D01*
X495352D01*
X496004Y422498D01*
X496502Y422996D01*
X496772Y423648D01*
Y424352D01*
X496502Y425004D01*
X496004Y425502D01*
X495352Y425772D01*
D02*
G37*
G36*
X490852D02*
X490148D01*
X489496Y425502D01*
X488998Y425004D01*
X488728Y424352D01*
Y423648D01*
X488998Y422996D01*
X489496Y422498D01*
X490148Y422228D01*
X490852D01*
X491504Y422498D01*
X492002Y422996D01*
X492272Y423648D01*
Y424352D01*
X492002Y425004D01*
X491504Y425502D01*
X490852Y425772D01*
D02*
G37*
G36*
X434852Y423272D02*
X434148D01*
X433496Y423002D01*
X432998Y422504D01*
X432728Y421852D01*
Y421148D01*
X432998Y420496D01*
X433496Y419998D01*
X434148Y419728D01*
X434852D01*
X435504Y419998D01*
X436002Y420496D01*
X436272Y421148D01*
Y421852D01*
X436002Y422504D01*
X435504Y423002D01*
X434852Y423272D01*
D02*
G37*
G36*
X401971Y427187D02*
X401179D01*
X400447Y426884D01*
X399887Y426324D01*
X399584Y425593D01*
Y424801D01*
X399887Y424069D01*
X400447Y423509D01*
X400653Y423424D01*
Y422883D01*
X400496Y422818D01*
X399998Y422319D01*
X399728Y421668D01*
Y420963D01*
X399998Y420312D01*
X400496Y419814D01*
X401148Y419544D01*
X401852D01*
X402504Y419814D01*
X403002Y420312D01*
X403272Y420963D01*
Y421668D01*
X403002Y422319D01*
X402504Y422818D01*
X402421Y422852D01*
Y423393D01*
X402702Y423509D01*
X403262Y424069D01*
X403565Y424801D01*
Y425593D01*
X403262Y426324D01*
X402702Y426884D01*
X401971Y427187D01*
D02*
G37*
G36*
X535352Y422772D02*
X534648D01*
X533996Y422502D01*
X533498Y422004D01*
X533228Y421352D01*
Y420648D01*
X533498Y419996D01*
X533996Y419498D01*
X534648Y419228D01*
X535352D01*
X536004Y419498D01*
X536502Y419996D01*
X536772Y420648D01*
Y421352D01*
X536502Y422004D01*
X536004Y422502D01*
X535352Y422772D01*
D02*
G37*
G36*
X452971Y415880D02*
X452266D01*
X451615Y415611D01*
X451116Y415112D01*
X450846Y414461D01*
Y413756D01*
X451116Y413105D01*
X451615Y412607D01*
X452266Y412337D01*
X452971D01*
X453622Y412607D01*
X454120Y413105D01*
X454390Y413756D01*
Y414461D01*
X454120Y415112D01*
X453622Y415611D01*
X452971Y415880D01*
D02*
G37*
G36*
X627792Y419134D02*
X626846D01*
X625933Y418889D01*
X625114Y418416D01*
X624446Y417748D01*
X623973Y416929D01*
X623728Y416016D01*
Y415071D01*
X623973Y414157D01*
X624446Y413339D01*
X625114Y412670D01*
X625933Y412197D01*
X626846Y411953D01*
X627792D01*
X628705Y412197D01*
X629524Y412670D01*
X630192Y413339D01*
X630665Y414157D01*
X630909Y415071D01*
Y416016D01*
X630665Y416929D01*
X630192Y417748D01*
X629524Y418416D01*
X628705Y418889D01*
X627792Y419134D01*
D02*
G37*
G36*
X521604Y420772D02*
X520899D01*
X520248Y420502D01*
X519750Y420004D01*
X519480Y419352D01*
Y419086D01*
X519263Y418642D01*
X519018Y418636D01*
X518555D01*
X517904Y418366D01*
X517406Y417868D01*
X517136Y417217D01*
Y416512D01*
X517406Y415861D01*
X517904Y415362D01*
X518555Y415093D01*
X519260D01*
X519911Y415362D01*
X520409Y415861D01*
X520679Y416512D01*
Y416779D01*
X520868Y417164D01*
X521359Y417213D01*
X521697Y416883D01*
X521728Y416766D01*
Y416148D01*
X521846Y415863D01*
X521512Y415363D01*
X521148D01*
X520496Y415094D01*
X519998Y414595D01*
X519728Y413944D01*
Y413239D01*
X519998Y412588D01*
X520496Y412090D01*
X521148Y411820D01*
X521852D01*
X522504Y412090D01*
X523002Y412588D01*
X523272Y413239D01*
Y413944D01*
X523154Y414228D01*
X523488Y414728D01*
X523852D01*
X524504Y414998D01*
X525002Y415496D01*
X525272Y416148D01*
Y416852D01*
X525002Y417504D01*
X524504Y418002D01*
X523852Y418272D01*
X523409D01*
X523055Y418617D01*
X523024Y418734D01*
Y419352D01*
X522754Y420004D01*
X522256Y420502D01*
X521604Y420772D01*
D02*
G37*
G36*
X407876Y415376D02*
X407084D01*
X406353Y415073D01*
X405793Y414513D01*
X405490Y413782D01*
Y412990D01*
X405793Y412258D01*
X406353Y411698D01*
X407084Y411395D01*
X407876D01*
X408608Y411698D01*
X409168Y412258D01*
X409471Y412990D01*
Y413782D01*
X409168Y414513D01*
X408608Y415073D01*
X407876Y415376D01*
D02*
G37*
G36*
X396065D02*
X395273D01*
X394542Y415073D01*
X393982Y414513D01*
X393679Y413782D01*
Y412990D01*
X393982Y412258D01*
X394542Y411698D01*
X395273Y411395D01*
X396065D01*
X396797Y411698D01*
X397357Y412258D01*
X397660Y412990D01*
Y413782D01*
X397357Y414513D01*
X396797Y415073D01*
X396065Y415376D01*
D02*
G37*
G36*
X476939Y415856D02*
X476234D01*
X475583Y415586D01*
X475084Y415087D01*
X474815Y414436D01*
Y413923D01*
X474747Y413877D01*
X474042D01*
X473391Y413608D01*
X472892Y413109D01*
X472623Y412458D01*
Y411753D01*
X472892Y411102D01*
X473391Y410604D01*
X474042Y410334D01*
X474747D01*
X475398Y410604D01*
X475896Y411102D01*
X476166Y411753D01*
Y412267D01*
X476234Y412312D01*
X476939D01*
X477590Y412582D01*
X478088Y413080D01*
X478358Y413731D01*
Y414436D01*
X478088Y415087D01*
X477590Y415586D01*
X476939Y415856D01*
D02*
G37*
G36*
X459309Y414476D02*
X458604D01*
X457953Y414207D01*
X457455Y413708D01*
X457185Y413057D01*
Y412352D01*
X457455Y411701D01*
X457953Y411203D01*
X458604Y410933D01*
X459309D01*
X459390Y410967D01*
X459773Y410584D01*
X459640Y410264D01*
Y409560D01*
X459910Y408909D01*
X460408Y408410D01*
X461060Y408140D01*
X461764D01*
X462416Y408410D01*
X462914Y408909D01*
X463184Y409560D01*
Y410228D01*
X463852D01*
X464504Y410498D01*
X464734Y410729D01*
X465299Y410673D01*
X465797Y410174D01*
X466448Y409904D01*
X467153D01*
X467804Y410174D01*
X468303Y410673D01*
X468572Y411324D01*
Y412029D01*
X468303Y412680D01*
X467804Y413178D01*
X467153Y413448D01*
X466448D01*
X465797Y413178D01*
X465566Y412947D01*
X465002Y413004D01*
X464504Y413502D01*
X463852Y413772D01*
X463148D01*
X462496Y413502D01*
X461998Y413004D01*
X461728Y412352D01*
Y411684D01*
X461060D01*
X460979Y411650D01*
X460596Y412033D01*
X460728Y412352D01*
Y413057D01*
X460459Y413708D01*
X459960Y414207D01*
X459309Y414476D01*
D02*
G37*
G36*
X454852Y411200D02*
X454148D01*
X453496Y410930D01*
X452998Y410432D01*
X452728Y409781D01*
Y409076D01*
X452998Y408425D01*
X453496Y407927D01*
X454148Y407657D01*
X454852D01*
X455347Y407862D01*
X455504Y407927D01*
X455934Y407650D01*
X455998Y407496D01*
X456496Y406998D01*
X457148Y406728D01*
X457852D01*
X458504Y406998D01*
X459002Y407496D01*
X459272Y408148D01*
Y408852D01*
X459002Y409504D01*
X458504Y410002D01*
X457852Y410272D01*
X457148D01*
X456653Y410067D01*
X456496Y410002D01*
X456066Y410278D01*
X456002Y410432D01*
X455504Y410930D01*
X454852Y411200D01*
D02*
G37*
G36*
X638973Y413740D02*
X638027D01*
X637114Y413495D01*
X636295Y413023D01*
X635627Y412354D01*
X635154Y411536D01*
X634909Y410622D01*
Y409677D01*
X635154Y408764D01*
X635627Y407945D01*
X636295Y407276D01*
X637114Y406804D01*
X638027Y406559D01*
X638973D01*
X639886Y406804D01*
X640705Y407276D01*
X641373Y407945D01*
X641846Y408764D01*
X642091Y409677D01*
Y410622D01*
X641846Y411536D01*
X641373Y412354D01*
X640705Y413023D01*
X639886Y413495D01*
X638973Y413740D01*
D02*
G37*
G36*
X538577Y409772D02*
X537872D01*
X537221Y409502D01*
X536723Y409004D01*
X536453Y408352D01*
Y407648D01*
X536723Y406996D01*
X537221Y406498D01*
X537872Y406228D01*
X538577D01*
X539228Y406498D01*
X539726Y406996D01*
X539996Y407648D01*
Y408352D01*
X539726Y409004D01*
X539228Y409502D01*
X538577Y409772D01*
D02*
G37*
G36*
X421352D02*
X420648D01*
X419996Y409502D01*
X419498Y409004D01*
X419228Y408352D01*
Y407648D01*
X419498Y406996D01*
X419996Y406498D01*
X420648Y406228D01*
X421352D01*
X422004Y406498D01*
X422502Y406996D01*
X422772Y407648D01*
Y408352D01*
X422502Y409004D01*
X422004Y409502D01*
X421352Y409772D01*
D02*
G37*
G36*
X451637Y407990D02*
X450932D01*
X450281Y407721D01*
X449783Y407222D01*
X449513Y406571D01*
Y405866D01*
X449783Y405215D01*
X450281Y404717D01*
X450932Y404447D01*
X451637D01*
X452288Y404717D01*
X452787Y405215D01*
X453056Y405866D01*
Y406571D01*
X452787Y407222D01*
X452288Y407721D01*
X451637Y407990D01*
D02*
G37*
G36*
X510852Y415772D02*
X510148D01*
X509496Y415502D01*
X508998Y415004D01*
X508728Y414352D01*
Y413648D01*
X508981Y413037D01*
X509040Y412722D01*
X508996Y412502D01*
X508498Y412004D01*
X508228Y411352D01*
Y410648D01*
X508498Y409996D01*
X508994Y409500D01*
X508498Y409004D01*
X508228Y408352D01*
Y407648D01*
X508498Y406996D01*
X508996Y406498D01*
X509648Y406228D01*
X510352D01*
X511004Y406498D01*
X511052Y406546D01*
X511432Y406330D01*
X511490Y406277D01*
Y405593D01*
X511760Y404942D01*
X512258Y404443D01*
X512909Y404174D01*
X513614D01*
X514265Y404443D01*
X514763Y404942D01*
X515033Y405593D01*
Y406298D01*
X514763Y406949D01*
X514265Y407447D01*
X513614Y407717D01*
X512909D01*
X512258Y407447D01*
X512210Y407399D01*
X511829Y407615D01*
X511772Y407668D01*
Y408352D01*
X511502Y409004D01*
X511005Y409500D01*
X511502Y409996D01*
X511772Y410648D01*
Y411352D01*
X511519Y411963D01*
X511460Y412278D01*
X511504Y412498D01*
X512002Y412996D01*
X512272Y413648D01*
Y414352D01*
X512002Y415004D01*
X511504Y415502D01*
X510852Y415772D01*
D02*
G37*
G36*
X509852Y405587D02*
X509148D01*
X508496Y405318D01*
X507998Y404819D01*
X507728Y404168D01*
Y403463D01*
X507998Y402812D01*
X508496Y402314D01*
X509148Y402044D01*
X509852D01*
X510504Y402314D01*
X511002Y402812D01*
X511272Y403463D01*
Y404168D01*
X511002Y404819D01*
X510504Y405318D01*
X509852Y405587D01*
D02*
G37*
G36*
X627792Y408347D02*
X626846D01*
X625933Y408102D01*
X625114Y407629D01*
X624446Y406961D01*
X623973Y406142D01*
X623728Y405229D01*
Y404283D01*
X623973Y403370D01*
X624446Y402551D01*
X625114Y401883D01*
X625933Y401410D01*
X626846Y401165D01*
X627792D01*
X628705Y401410D01*
X629524Y401883D01*
X630192Y402551D01*
X630665Y403370D01*
X630909Y404283D01*
Y405229D01*
X630665Y406142D01*
X630192Y406961D01*
X629524Y407629D01*
X628705Y408102D01*
X627792Y408347D01*
D02*
G37*
G36*
X398852Y403272D02*
X398148D01*
X397496Y403002D01*
X396998Y402504D01*
X396728Y401852D01*
Y401148D01*
X396998Y400496D01*
X397496Y399998D01*
X398148Y399728D01*
X398852D01*
X399504Y399998D01*
X400002Y400496D01*
X400272Y401148D01*
Y401852D01*
X400002Y402504D01*
X399504Y403002D01*
X398852Y403272D01*
D02*
G37*
G36*
X614569Y403565D02*
X613777D01*
X613046Y403262D01*
X612486Y402702D01*
X612183Y401971D01*
Y401179D01*
X612486Y400447D01*
X613046Y399887D01*
X613777Y399584D01*
X614569D01*
X615301Y399887D01*
X615861Y400447D01*
X616164Y401179D01*
Y401971D01*
X615861Y402702D01*
X615301Y403262D01*
X614569Y403565D01*
D02*
G37*
G36*
X430713Y402345D02*
X430009D01*
X429357Y402075D01*
X428859Y401577D01*
X428589Y400926D01*
Y400221D01*
X428859Y399570D01*
X429357Y399071D01*
X430009Y398802D01*
X430713D01*
X431365Y399071D01*
X431863Y399570D01*
X432133Y400221D01*
Y400926D01*
X431863Y401577D01*
X431365Y402075D01*
X430713Y402345D01*
D02*
G37*
G36*
X388703Y400804D02*
X387998D01*
X387347Y400534D01*
X386849Y400036D01*
X386579Y399385D01*
Y398680D01*
X386849Y398029D01*
X387347Y397530D01*
X387998Y397261D01*
X388703D01*
X389354Y397530D01*
X389852Y398029D01*
X390122Y398680D01*
Y399385D01*
X389852Y400036D01*
X389354Y400534D01*
X388703Y400804D01*
D02*
G37*
G36*
X638973Y402953D02*
X638027D01*
X637114Y402708D01*
X636295Y402235D01*
X635627Y401567D01*
X635154Y400748D01*
X634909Y399835D01*
Y398889D01*
X635154Y397976D01*
X635627Y397158D01*
X636295Y396489D01*
X637114Y396016D01*
X638027Y395772D01*
X638973D01*
X639886Y396016D01*
X640705Y396489D01*
X641373Y397158D01*
X641846Y397976D01*
X642091Y398889D01*
Y399835D01*
X641846Y400748D01*
X641373Y401567D01*
X640705Y402235D01*
X639886Y402708D01*
X638973Y402953D01*
D02*
G37*
G36*
X426352Y398272D02*
X425648D01*
X424996Y398002D01*
X424498Y397504D01*
X424228Y396852D01*
Y396148D01*
X424498Y395496D01*
X424996Y394998D01*
X425648Y394728D01*
X426352D01*
X427004Y394998D01*
X427502Y395496D01*
X427772Y396148D01*
Y396852D01*
X427502Y397504D01*
X427004Y398002D01*
X426352Y398272D01*
D02*
G37*
G36*
X459352Y394272D02*
X458648D01*
X457996Y394002D01*
X457498Y393504D01*
X457413Y393299D01*
X457003Y393002D01*
X456352Y393272D01*
X455648D01*
X454996Y393002D01*
X454498Y392504D01*
X454278Y392460D01*
X453963Y392519D01*
X453352Y392772D01*
X452648D01*
X451996Y392502D01*
X451498Y392004D01*
X451391Y391745D01*
X450801Y391628D01*
X450715Y391714D01*
X450064Y391984D01*
X449360D01*
X448708Y391714D01*
X448210Y391215D01*
X447940Y390564D01*
Y389860D01*
X448210Y389208D01*
X448708Y388710D01*
X449360Y388440D01*
X450064D01*
X450715Y388710D01*
X451214Y389208D01*
X451321Y389467D01*
X451911Y389584D01*
X451996Y389498D01*
X452648Y389228D01*
X453352D01*
X454004Y389498D01*
X454502Y389996D01*
X454722Y390040D01*
X455037Y389981D01*
X455648Y389728D01*
X456352D01*
X457004Y389998D01*
X457502Y390496D01*
X457587Y390701D01*
X457997Y390998D01*
X458648Y390728D01*
X459352D01*
X460004Y390998D01*
X460502Y391496D01*
X460772Y392148D01*
Y392852D01*
X460502Y393504D01*
X460004Y394002D01*
X459352Y394272D01*
D02*
G37*
G36*
X423352Y395272D02*
X422648D01*
X421996Y395002D01*
X421498Y394504D01*
X421228Y393852D01*
Y393148D01*
X421498Y392496D01*
X421996Y391998D01*
X422648Y391728D01*
X423352D01*
X424004Y391998D01*
X424502Y392496D01*
X424772Y393148D01*
Y393852D01*
X424502Y394504D01*
X424004Y395002D01*
X423352Y395272D01*
D02*
G37*
G36*
X407962Y395048D02*
X407257D01*
X406606Y394778D01*
X406108Y394280D01*
X405838Y393629D01*
Y392924D01*
X406108Y392273D01*
X406606Y391775D01*
X407257Y391505D01*
X407962D01*
X408613Y391775D01*
X409112Y392273D01*
X409381Y392924D01*
Y393629D01*
X409112Y394280D01*
X408613Y394778D01*
X407962Y395048D01*
D02*
G37*
G36*
X515852Y394772D02*
X515148D01*
X514496Y394502D01*
X513998Y394004D01*
X513728Y393352D01*
Y392648D01*
X513998Y391996D01*
X514496Y391498D01*
X515148Y391228D01*
X515852D01*
X516504Y391498D01*
X517002Y391996D01*
X517272Y392648D01*
Y393352D01*
X517002Y394004D01*
X516504Y394502D01*
X515852Y394772D01*
D02*
G37*
G36*
X507352D02*
X506648D01*
X505996Y394502D01*
X505498Y394004D01*
X505228Y393352D01*
Y392648D01*
X505498Y391996D01*
X505996Y391498D01*
X506648Y391228D01*
X507352D01*
X508004Y391498D01*
X508502Y391996D01*
X508772Y392648D01*
Y393352D01*
X508502Y394004D01*
X508004Y394502D01*
X507352Y394772D01*
D02*
G37*
G36*
X498352D02*
X497648D01*
X496996Y394502D01*
X496498Y394004D01*
X496228Y393352D01*
Y392648D01*
X496498Y391996D01*
X496996Y391498D01*
X497648Y391228D01*
X498352D01*
X499004Y391498D01*
X499502Y391996D01*
X499772Y392648D01*
Y393352D01*
X499502Y394004D01*
X499004Y394502D01*
X498352Y394772D01*
D02*
G37*
G36*
X487852Y394087D02*
X487148D01*
X486496Y393818D01*
X485998Y393319D01*
X485728Y392668D01*
Y391963D01*
X485998Y391312D01*
X486496Y390814D01*
X487148Y390544D01*
X487852D01*
X488504Y390814D01*
X489002Y391312D01*
X489272Y391963D01*
Y392668D01*
X489002Y393319D01*
X488504Y393818D01*
X487852Y394087D01*
D02*
G37*
G36*
X627792Y397559D02*
X626846D01*
X625933Y397314D01*
X625114Y396842D01*
X624446Y396173D01*
X623973Y395354D01*
X623728Y394441D01*
Y393496D01*
X623973Y392583D01*
X624446Y391764D01*
X625114Y391095D01*
X625933Y390623D01*
X626846Y390378D01*
X627792D01*
X628705Y390623D01*
X629524Y391095D01*
X630192Y391764D01*
X630665Y392583D01*
X630909Y393496D01*
Y394441D01*
X630665Y395354D01*
X630192Y396173D01*
X629524Y396842D01*
X628705Y397314D01*
X627792Y397559D01*
D02*
G37*
G36*
X478742Y391754D02*
X477950D01*
X477219Y391451D01*
X476659Y390891D01*
X476356Y390160D01*
Y389368D01*
X476659Y388636D01*
X477219Y388076D01*
X477950Y387773D01*
X478742D01*
X479474Y388076D01*
X480034Y388636D01*
X480337Y389368D01*
Y390160D01*
X480034Y390891D01*
X479474Y391451D01*
X478742Y391754D01*
D02*
G37*
G36*
X384254D02*
X383462D01*
X382731Y391451D01*
X382171Y390891D01*
X381868Y390160D01*
Y389368D01*
X382171Y388636D01*
X382731Y388076D01*
X383462Y387773D01*
X384254D01*
X384986Y388076D01*
X385546Y388636D01*
X385849Y389368D01*
Y390160D01*
X385546Y390891D01*
X384986Y391451D01*
X384254Y391754D01*
D02*
G37*
G36*
X538352Y391272D02*
X537648D01*
X536996Y391002D01*
X536498Y390504D01*
X536228Y389852D01*
Y389148D01*
X536498Y388496D01*
X536996Y387998D01*
X537648Y387728D01*
X538352D01*
X539004Y387998D01*
X539502Y388496D01*
X539772Y389148D01*
Y389852D01*
X539502Y390504D01*
X539004Y391002D01*
X538352Y391272D01*
D02*
G37*
G36*
X620931Y390165D02*
X620069D01*
X619273Y389836D01*
X618664Y389227D01*
X618335Y388431D01*
Y387569D01*
X618664Y386773D01*
X619273Y386164D01*
X620069Y385835D01*
X620931D01*
X621727Y386164D01*
X622336Y386773D01*
X622665Y387569D01*
Y388431D01*
X622336Y389227D01*
X621727Y389836D01*
X620931Y390165D01*
D02*
G37*
G36*
X530624Y389000D02*
X529919D01*
X529268Y388730D01*
X528770Y388232D01*
X528500Y387581D01*
Y386876D01*
X528770Y386225D01*
X529268Y385726D01*
X529919Y385457D01*
X530624D01*
X531275Y385726D01*
X531774Y386225D01*
X532043Y386876D01*
Y387581D01*
X531774Y388232D01*
X531275Y388730D01*
X530624Y389000D01*
D02*
G37*
G36*
X473852Y388772D02*
X473148D01*
X472496Y388502D01*
X471998Y388004D01*
X471728Y387352D01*
Y386648D01*
X471998Y385996D01*
X472496Y385498D01*
X473148Y385228D01*
X473852D01*
X474504Y385498D01*
X475002Y385996D01*
X475272Y386648D01*
Y387352D01*
X475002Y388004D01*
X474504Y388502D01*
X473852Y388772D01*
D02*
G37*
G36*
X468852Y388272D02*
X468148D01*
X467496Y388002D01*
X466998Y387504D01*
X466728Y386852D01*
Y386148D01*
X466998Y385496D01*
X467496Y384998D01*
X468148Y384728D01*
X468852D01*
X469504Y384998D01*
X470002Y385496D01*
X470272Y386148D01*
Y386852D01*
X470002Y387504D01*
X469504Y388002D01*
X468852Y388272D01*
D02*
G37*
G36*
X441352Y389772D02*
X440648D01*
X439996Y389502D01*
X439498Y389004D01*
X439228Y388352D01*
Y387648D01*
X439498Y386996D01*
X439996Y386498D01*
X440103Y386454D01*
X440363Y385805D01*
X440274Y385591D01*
Y384886D01*
X440544Y384235D01*
X441043Y383737D01*
X441694Y383467D01*
X442399D01*
X442472Y383418D01*
Y382876D01*
X442742Y382225D01*
X443240Y381726D01*
X443892Y381457D01*
X444596D01*
X445248Y381726D01*
X445746Y382225D01*
X446016Y382876D01*
Y383581D01*
X445746Y384232D01*
X445248Y384730D01*
X444596Y385000D01*
X443892D01*
X443818Y385049D01*
Y385591D01*
X443548Y386242D01*
X443050Y386741D01*
X442943Y386785D01*
X442683Y387434D01*
X442772Y387648D01*
Y388352D01*
X442502Y389004D01*
X442004Y389502D01*
X441352Y389772D01*
D02*
G37*
G36*
X424624Y391272D02*
X423919D01*
X423268Y391002D01*
X422770Y390504D01*
X422500Y389852D01*
Y389148D01*
X422770Y388496D01*
X423090Y388176D01*
X423014Y387608D01*
X423010Y387602D01*
X422768Y387502D01*
X422270Y387004D01*
X422000Y386352D01*
Y385648D01*
X422270Y384996D01*
X422736Y384530D01*
X422753Y384250D01*
X422736Y383970D01*
X422270Y383504D01*
X422000Y382852D01*
Y382148D01*
X422270Y381496D01*
X422768Y380998D01*
X423419Y380728D01*
X424124D01*
X424775Y380998D01*
X425274Y381496D01*
X425543Y382148D01*
Y382852D01*
X425274Y383504D01*
X424807Y383970D01*
X424790Y384250D01*
X424807Y384530D01*
X425274Y384996D01*
X425543Y385648D01*
Y386352D01*
X425274Y387004D01*
X424954Y387324D01*
X425029Y387892D01*
X425033Y387898D01*
X425275Y387998D01*
X425774Y388496D01*
X426043Y389148D01*
Y389852D01*
X425774Y390504D01*
X425275Y391002D01*
X424624Y391272D01*
D02*
G37*
G36*
X620931Y384165D02*
X620069D01*
X619273Y383836D01*
X618664Y383227D01*
X618335Y382431D01*
Y381569D01*
X618664Y380773D01*
X619273Y380164D01*
X620069Y379835D01*
X620931D01*
X621727Y380164D01*
X622336Y380773D01*
X622665Y381569D01*
Y382431D01*
X622336Y383227D01*
X621727Y383836D01*
X620931Y384165D01*
D02*
G37*
G36*
X581431Y383165D02*
X580569D01*
X579773Y382836D01*
X579164Y382227D01*
X578835Y381431D01*
Y380569D01*
X579164Y379773D01*
X579773Y379164D01*
X580569Y378835D01*
X581431D01*
X582227Y379164D01*
X582836Y379773D01*
X583165Y380569D01*
Y381431D01*
X582836Y382227D01*
X582227Y382836D01*
X581431Y383165D01*
D02*
G37*
G36*
X527352Y381272D02*
X526648D01*
X525996Y381002D01*
X525498Y380504D01*
X525228Y379852D01*
Y379148D01*
X525498Y378496D01*
X525996Y377998D01*
X526648Y377728D01*
X527352D01*
X528004Y377998D01*
X528502Y378496D01*
X528772Y379148D01*
Y379852D01*
X528502Y380504D01*
X528004Y381002D01*
X527352Y381272D01*
D02*
G37*
G36*
X400352Y379772D02*
X399648D01*
X398996Y379502D01*
X398498Y379004D01*
X398228Y378352D01*
Y377648D01*
X398498Y376996D01*
X398996Y376498D01*
X399648Y376228D01*
X400352D01*
X401004Y376498D01*
X401502Y376996D01*
X401772Y377648D01*
Y378352D01*
X401502Y379004D01*
X401004Y379502D01*
X400352Y379772D01*
D02*
G37*
G36*
X391852D02*
X391148D01*
X390496Y379502D01*
X389998Y379004D01*
X389728Y378352D01*
Y377648D01*
X389998Y376996D01*
X390496Y376498D01*
X391148Y376228D01*
X391852D01*
X392504Y376498D01*
X393002Y376996D01*
X393272Y377648D01*
Y378352D01*
X393002Y379004D01*
X392504Y379502D01*
X391852Y379772D01*
D02*
G37*
G36*
X498352Y379513D02*
X497648D01*
X496996Y379243D01*
X496498Y378745D01*
X496228Y378094D01*
Y377389D01*
X496498Y376738D01*
X496996Y376239D01*
X497648Y375970D01*
X498352D01*
X499004Y376239D01*
X499502Y376738D01*
X499772Y377389D01*
Y378094D01*
X499502Y378745D01*
X499004Y379243D01*
X498352Y379513D01*
D02*
G37*
G36*
X515444Y379251D02*
X514739D01*
X514088Y378982D01*
X513589Y378483D01*
X513320Y377832D01*
Y377127D01*
X513589Y376476D01*
X514088Y375978D01*
X514739Y375708D01*
X515444D01*
X516095Y375978D01*
X516593Y376476D01*
X516863Y377127D01*
Y377832D01*
X516593Y378483D01*
X516095Y378982D01*
X515444Y379251D01*
D02*
G37*
G36*
X507433Y379132D02*
X506729D01*
X506077Y378863D01*
X505579Y378364D01*
X505309Y377713D01*
Y377008D01*
X505579Y376357D01*
X506077Y375859D01*
X506729Y375589D01*
X507433D01*
X508084Y375859D01*
X508583Y376357D01*
X508853Y377008D01*
Y377713D01*
X508583Y378364D01*
X508084Y378863D01*
X507433Y379132D01*
D02*
G37*
G36*
X638973Y381378D02*
X638027D01*
X637114Y381133D01*
X636295Y380661D01*
X635627Y379992D01*
X635154Y379173D01*
X634909Y378260D01*
Y377315D01*
X635154Y376401D01*
X635627Y375583D01*
X636295Y374914D01*
X637114Y374442D01*
X638027Y374197D01*
X638973D01*
X639886Y374442D01*
X640705Y374914D01*
X641373Y375583D01*
X641846Y376401D01*
X642091Y377315D01*
Y378260D01*
X641846Y379173D01*
X641373Y379992D01*
X640705Y380661D01*
X639886Y381133D01*
X638973Y381378D01*
D02*
G37*
G36*
X409352Y373904D02*
X408648D01*
X407996Y373634D01*
X407498Y373136D01*
X407228Y372485D01*
Y371780D01*
X407498Y371129D01*
X407996Y370631D01*
X408648Y370361D01*
X409352D01*
X410004Y370631D01*
X410502Y371129D01*
X410772Y371780D01*
Y372485D01*
X410502Y373136D01*
X410004Y373634D01*
X409352Y373904D01*
D02*
G37*
G36*
X463852Y372384D02*
X463148D01*
X462496Y372114D01*
X461998Y371616D01*
X461728Y370964D01*
Y370259D01*
X461998Y369608D01*
X462496Y369110D01*
X463148Y368840D01*
X463852D01*
X464504Y369110D01*
X465002Y369608D01*
X465272Y370259D01*
Y370964D01*
X465002Y371616D01*
X464504Y372114D01*
X463852Y372384D01*
D02*
G37*
G36*
X627792Y386772D02*
X626846D01*
X625933Y386527D01*
X625114Y386054D01*
X624446Y385386D01*
X623973Y384567D01*
X623728Y383654D01*
Y382708D01*
X623973Y381795D01*
X624446Y380977D01*
X625114Y380308D01*
X625134Y380296D01*
X625098Y379740D01*
X624857Y379640D01*
X624297Y379080D01*
X623993Y378349D01*
Y377557D01*
X624297Y376825D01*
X624857Y376265D01*
X625431Y376027D01*
X625514Y375525D01*
X625509Y375495D01*
X625114Y375267D01*
X624446Y374598D01*
X623973Y373780D01*
X623728Y372866D01*
Y371921D01*
X623973Y371008D01*
X624446Y370189D01*
X625114Y369521D01*
X625933Y369048D01*
X626846Y368803D01*
X627792D01*
X628705Y369048D01*
X629524Y369521D01*
X630192Y370189D01*
X630665Y371008D01*
X630909Y371921D01*
Y372866D01*
X630665Y373780D01*
X630192Y374598D01*
X629524Y375267D01*
X628705Y375740D01*
X627792Y375984D01*
X627538D01*
X627331Y376484D01*
X627672Y376825D01*
X627975Y377557D01*
Y378349D01*
X627672Y379080D01*
X627607Y379145D01*
X627630Y379200D01*
X627852Y379607D01*
X628705Y379835D01*
X629524Y380308D01*
X630192Y380977D01*
X630665Y381795D01*
X630909Y382708D01*
Y383654D01*
X630665Y384567D01*
X630192Y385386D01*
X629524Y386054D01*
X628705Y386527D01*
X627792Y386772D01*
D02*
G37*
G36*
X482000Y371000D02*
X481295D01*
X480644Y370730D01*
X480146Y370232D01*
X479876Y369581D01*
Y368876D01*
X480146Y368225D01*
X480644Y367726D01*
X481295Y367457D01*
X482000D01*
X482651Y367726D01*
X483149Y368225D01*
X483419Y368876D01*
Y369581D01*
X483149Y370232D01*
X482651Y370730D01*
X482000Y371000D01*
D02*
G37*
G36*
X426530Y369596D02*
X425825D01*
X425174Y369326D01*
X424675Y368828D01*
X424405Y368177D01*
Y367472D01*
X424675Y366821D01*
X425174Y366322D01*
X425825Y366052D01*
X426530D01*
X427181Y366322D01*
X427679Y366821D01*
X427949Y367472D01*
Y368177D01*
X427679Y368828D01*
X427181Y369326D01*
X426530Y369596D01*
D02*
G37*
G36*
X613352Y369272D02*
X612648D01*
X611996Y369002D01*
X611498Y368504D01*
X611228Y367852D01*
Y367148D01*
X611498Y366496D01*
X611996Y365998D01*
X612648Y365728D01*
X613352D01*
X614004Y365998D01*
X614502Y366496D01*
X614772Y367148D01*
Y367852D01*
X614502Y368504D01*
X614004Y369002D01*
X613352Y369272D01*
D02*
G37*
G36*
X393852D02*
X393148D01*
X392496Y369002D01*
X391998Y368504D01*
X391728Y367852D01*
Y367148D01*
X391998Y366496D01*
X392496Y365998D01*
X393148Y365728D01*
X393852D01*
X394504Y365998D01*
X395002Y366496D01*
X395272Y367148D01*
Y367852D01*
X395002Y368504D01*
X394504Y369002D01*
X393852Y369272D01*
D02*
G37*
G36*
X578139Y368985D02*
X577434D01*
X576783Y368716D01*
X576284Y368217D01*
X576015Y367566D01*
Y366861D01*
X576284Y366210D01*
X576783Y365712D01*
X577434Y365442D01*
X578139D01*
X578790Y365712D01*
X579288Y366210D01*
X579558Y366861D01*
Y367566D01*
X579288Y368217D01*
X578790Y368716D01*
X578139Y368985D01*
D02*
G37*
G36*
X632285Y368132D02*
X631494D01*
X630762Y367829D01*
X630202Y367269D01*
X629899Y366538D01*
Y365746D01*
X630202Y365014D01*
X630762Y364454D01*
X631494Y364151D01*
X632285D01*
X633017Y364454D01*
X633577Y365014D01*
X633880Y365746D01*
Y366538D01*
X633577Y367269D01*
X633017Y367829D01*
X632285Y368132D01*
D02*
G37*
G36*
X620474D02*
X619683D01*
X618951Y367829D01*
X618391Y367269D01*
X618088Y366538D01*
Y365746D01*
X618391Y365014D01*
X618951Y364454D01*
X619683Y364151D01*
X620474D01*
X621206Y364454D01*
X621766Y365014D01*
X622069Y365746D01*
Y366538D01*
X621766Y367269D01*
X621206Y367829D01*
X620474Y368132D01*
D02*
G37*
G36*
X455120D02*
X454328D01*
X453597Y367829D01*
X453037Y367269D01*
X452734Y366538D01*
Y365746D01*
X453037Y365014D01*
X453597Y364454D01*
X454328Y364151D01*
X455120D01*
X455852Y364454D01*
X456412Y365014D01*
X456715Y365746D01*
Y366538D01*
X456412Y367269D01*
X455852Y367829D01*
X455120Y368132D01*
D02*
G37*
G36*
X384254D02*
X383462D01*
X382731Y367829D01*
X382171Y367269D01*
X381868Y366538D01*
Y365746D01*
X382171Y365014D01*
X382731Y364454D01*
X383462Y364151D01*
X384254D01*
X384986Y364454D01*
X385546Y365014D01*
X385849Y365746D01*
Y366538D01*
X385546Y367269D01*
X384986Y367829D01*
X384254Y368132D01*
D02*
G37*
G36*
X638973Y370590D02*
X638027D01*
X637114Y370346D01*
X636295Y369873D01*
X635627Y369205D01*
X635154Y368386D01*
X634909Y367473D01*
Y366527D01*
X635154Y365614D01*
X635627Y364795D01*
X636295Y364127D01*
X637114Y363654D01*
X638027Y363409D01*
X638973D01*
X639886Y363654D01*
X640705Y364127D01*
X641373Y364795D01*
X641846Y365614D01*
X642091Y366527D01*
Y367473D01*
X641846Y368386D01*
X641373Y369205D01*
X640705Y369873D01*
X639886Y370346D01*
X638973Y370590D01*
D02*
G37*
G36*
X469717Y365407D02*
X469012D01*
X468361Y365138D01*
X467862Y364639D01*
X467592Y363988D01*
Y363283D01*
X467862Y362632D01*
X468361Y362134D01*
X469012Y361864D01*
X469717D01*
X470368Y362134D01*
X470866Y362632D01*
X471136Y363283D01*
Y363988D01*
X470866Y364639D01*
X470368Y365138D01*
X469717Y365407D01*
D02*
G37*
G36*
X530852Y365272D02*
X530148D01*
X529496Y365002D01*
X528998Y364504D01*
X528728Y363852D01*
Y363148D01*
X528998Y362496D01*
X529496Y361998D01*
X530148Y361728D01*
X530852D01*
X531504Y361998D01*
X532002Y362496D01*
X532272Y363148D01*
Y363852D01*
X532002Y364504D01*
X531504Y365002D01*
X530852Y365272D01*
D02*
G37*
G36*
X510124Y366684D02*
X509419D01*
X508768Y366414D01*
X508270Y365916D01*
X508000Y365265D01*
Y364560D01*
X508270Y363909D01*
X508768Y363411D01*
X509419Y363141D01*
X510124D01*
X510270Y363201D01*
X510652Y362819D01*
X510623Y362747D01*
Y362042D01*
X510892Y361391D01*
X511391Y360892D01*
X512042Y360623D01*
X512747D01*
X513398Y360892D01*
X513896Y361391D01*
X514166Y362042D01*
Y362747D01*
X513896Y363398D01*
X513398Y363896D01*
X512747Y364166D01*
X512042D01*
X511896Y364106D01*
X511514Y364488D01*
X511543Y364560D01*
Y365265D01*
X511274Y365916D01*
X510775Y366414D01*
X510124Y366684D01*
D02*
G37*
G36*
X432244Y363387D02*
X431539D01*
X430888Y363117D01*
X430390Y362619D01*
X430120Y361968D01*
Y361263D01*
X430390Y360612D01*
X430888Y360114D01*
X431539Y359844D01*
X432244D01*
X432895Y360114D01*
X433394Y360612D01*
X433664Y361263D01*
Y361968D01*
X433394Y362619D01*
X432895Y363117D01*
X432244Y363387D01*
D02*
G37*
G36*
X487985Y361629D02*
X487280D01*
X486629Y361359D01*
X486131Y360861D01*
X485861Y360209D01*
Y359505D01*
X486131Y358854D01*
X486629Y358355D01*
X487280Y358085D01*
X487985D01*
X488636Y358355D01*
X489135Y358854D01*
X489404Y359505D01*
Y360209D01*
X489135Y360861D01*
X488636Y361359D01*
X487985Y361629D01*
D02*
G37*
G36*
X627792Y365197D02*
X626846D01*
X625933Y364952D01*
X625114Y364479D01*
X624446Y363811D01*
X623973Y362992D01*
X623728Y362079D01*
Y361134D01*
X623973Y360220D01*
X624446Y359402D01*
X625114Y358733D01*
X625933Y358260D01*
X626846Y358016D01*
X627792D01*
X628705Y358260D01*
X629524Y358733D01*
X630192Y359402D01*
X630665Y360220D01*
X630909Y361134D01*
Y362079D01*
X630665Y362992D01*
X630192Y363811D01*
X629524Y364479D01*
X628705Y364952D01*
X627792Y365197D01*
D02*
G37*
G36*
X471852Y360772D02*
X471148D01*
X470496Y360502D01*
X469998Y360004D01*
X469728Y359352D01*
Y358648D01*
X469998Y357996D01*
X470496Y357498D01*
X471148Y357228D01*
X471852D01*
X472504Y357498D01*
X473002Y357996D01*
X473272Y358648D01*
Y359352D01*
X473002Y360004D01*
X472504Y360502D01*
X471852Y360772D01*
D02*
G37*
G36*
X462352Y362272D02*
X461648D01*
X460996Y362002D01*
X460498Y361504D01*
X460228Y360852D01*
Y360148D01*
X460498Y359496D01*
X460996Y358998D01*
X461648Y358728D01*
X462352D01*
X463004Y358998D01*
X463074Y359069D01*
X463574Y358861D01*
Y358627D01*
X463844Y357976D01*
X464342Y357478D01*
X464993Y357208D01*
X465698D01*
X466349Y357478D01*
X466848Y357976D01*
X467118Y358627D01*
Y359332D01*
X466848Y359983D01*
X466349Y360482D01*
X465698Y360751D01*
X464993D01*
X464342Y360482D01*
X464272Y360411D01*
X463772Y360618D01*
Y360852D01*
X463502Y361504D01*
X463004Y362002D01*
X462352Y362272D01*
D02*
G37*
G36*
X503852Y370772D02*
X503148D01*
X502496Y370502D01*
X501998Y370004D01*
X501728Y369352D01*
Y368648D01*
X501884Y368272D01*
X501654Y367785D01*
X501599Y367752D01*
X500996Y367502D01*
X500498Y367004D01*
X500228Y366352D01*
Y365648D01*
X499999Y365304D01*
X499667D01*
X499016Y365034D01*
X498517Y364535D01*
X498247Y363884D01*
Y363180D01*
X498362Y362903D01*
X498148Y362403D01*
X497496Y362133D01*
X496998Y361635D01*
X496728Y360984D01*
Y360279D01*
X496388Y359793D01*
X496148D01*
X495496Y359524D01*
X494998Y359025D01*
X494728Y358374D01*
Y357669D01*
X494998Y357018D01*
X495496Y356520D01*
X496148Y356250D01*
X496852D01*
X497504Y356520D01*
X498002Y357018D01*
X498272Y357669D01*
Y358374D01*
X498612Y358860D01*
X498852D01*
X499504Y359130D01*
X500002Y359628D01*
X500272Y360279D01*
Y360984D01*
X500157Y361260D01*
X500372Y361760D01*
X501023Y362030D01*
X501521Y362528D01*
X501791Y363180D01*
Y363884D01*
X502021Y364228D01*
X502352D01*
X503004Y364498D01*
X503502Y364996D01*
X503772Y365648D01*
Y366352D01*
X503616Y366728D01*
X503846Y367215D01*
X503901Y367248D01*
X504504Y367498D01*
X505002Y367996D01*
X505272Y368648D01*
Y369352D01*
X505002Y370004D01*
X504504Y370502D01*
X503852Y370772D01*
D02*
G37*
G36*
X403852Y358772D02*
X403148D01*
X402496Y358502D01*
X401998Y358004D01*
X401728Y357352D01*
Y356648D01*
X401998Y355996D01*
X402496Y355498D01*
X403148Y355228D01*
X403852D01*
X404504Y355498D01*
X405002Y355996D01*
X405272Y356648D01*
Y357352D01*
X405002Y358004D01*
X404504Y358502D01*
X403852Y358772D01*
D02*
G37*
G36*
X542954Y357171D02*
X542249D01*
X541598Y356901D01*
X541099Y356402D01*
X540830Y355751D01*
Y355046D01*
X541099Y354395D01*
X541598Y353897D01*
X542249Y353627D01*
X542954D01*
X543605Y353897D01*
X544103Y354395D01*
X544373Y355046D01*
Y355751D01*
X544103Y356402D01*
X543605Y356901D01*
X542954Y357171D01*
D02*
G37*
G36*
X638973Y359803D02*
X638027D01*
X637114Y359559D01*
X636295Y359086D01*
X635627Y358417D01*
X635154Y357598D01*
X634909Y356685D01*
Y355740D01*
X635154Y354827D01*
X635627Y354008D01*
X636295Y353339D01*
X637114Y352867D01*
X638027Y352622D01*
X638973D01*
X639886Y352867D01*
X640705Y353339D01*
X641373Y354008D01*
X641846Y354827D01*
X642091Y355740D01*
Y356685D01*
X641846Y357598D01*
X641373Y358417D01*
X640705Y359086D01*
X639886Y359559D01*
X638973Y359803D01*
D02*
G37*
G36*
X579136Y356321D02*
X578344D01*
X577612Y356018D01*
X577052Y355458D01*
X576749Y354727D01*
Y353935D01*
X577052Y353203D01*
X577612Y352643D01*
X578344Y352340D01*
X579136D01*
X579868Y352643D01*
X580428Y353203D01*
X580730Y353935D01*
Y354727D01*
X580428Y355458D01*
X579868Y356018D01*
X579136Y356321D01*
D02*
G37*
G36*
X530996Y356915D02*
X530291D01*
X529640Y356646D01*
X529142Y356147D01*
X528872Y355496D01*
Y354791D01*
X529142Y354140D01*
X529081Y353834D01*
X528942Y353777D01*
X528443Y353278D01*
X528173Y352627D01*
Y351922D01*
X528443Y351271D01*
X528942Y350773D01*
X529593Y350503D01*
X530298D01*
X530949Y350773D01*
X531447Y351271D01*
X531717Y351922D01*
Y352627D01*
X531447Y353278D01*
X531508Y353584D01*
X531647Y353642D01*
X532146Y354140D01*
X532415Y354791D01*
Y355496D01*
X532146Y356147D01*
X531647Y356646D01*
X530996Y356915D01*
D02*
G37*
G36*
X558352Y353272D02*
X557648D01*
X556996Y353002D01*
X556498Y352504D01*
X556228Y351852D01*
Y351148D01*
X556498Y350496D01*
X556996Y349998D01*
X557648Y349728D01*
X558352D01*
X559004Y349998D01*
X559502Y350496D01*
X559772Y351148D01*
Y351852D01*
X559502Y352504D01*
X559004Y353002D01*
X558352Y353272D01*
D02*
G37*
G36*
X546377Y352343D02*
X545673D01*
X545021Y352074D01*
X544523Y351575D01*
X544253Y350924D01*
Y350219D01*
X544523Y349568D01*
X545021Y349070D01*
X545673Y348800D01*
X546377D01*
X547028Y349070D01*
X547527Y349568D01*
X547797Y350219D01*
Y350924D01*
X547527Y351575D01*
X547028Y352074D01*
X546377Y352343D01*
D02*
G37*
G36*
X531352Y349272D02*
X530648D01*
X529996Y349002D01*
X529498Y348504D01*
X529488Y348479D01*
X528997Y348381D01*
X528940Y348438D01*
X528289Y348708D01*
X527584D01*
X526933Y348438D01*
X526435Y347940D01*
X526165Y347289D01*
Y346584D01*
X526435Y345933D01*
X526933Y345434D01*
X527584Y345165D01*
X528289D01*
X528940Y345434D01*
X529438Y345933D01*
X529449Y345958D01*
X529939Y346055D01*
X529996Y345998D01*
X530648Y345728D01*
X531352D01*
X532004Y345998D01*
X532502Y346496D01*
X532772Y347148D01*
Y347852D01*
X532502Y348504D01*
X532004Y349002D01*
X531352Y349272D01*
D02*
G37*
G36*
X551352Y351772D02*
X550648D01*
X549996Y351502D01*
X549498Y351004D01*
X549228Y350352D01*
Y349648D01*
X549498Y348996D01*
X549996Y348498D01*
X550648Y348228D01*
X551352D01*
X552004Y348498D01*
X552502Y348996D01*
X552772Y349648D01*
Y350352D01*
X552502Y351004D01*
X552004Y351502D01*
X551352Y351772D01*
D02*
G37*
G36*
X627792Y354410D02*
X626846D01*
X625933Y354165D01*
X625114Y353692D01*
X624446Y353024D01*
X623973Y352205D01*
X623728Y351292D01*
Y350346D01*
X623973Y349433D01*
X624446Y348614D01*
X625114Y347946D01*
X625933Y347473D01*
X626846Y347228D01*
X627792D01*
X628705Y347473D01*
X629524Y347946D01*
X630192Y348614D01*
X630665Y349433D01*
X630909Y350346D01*
Y351292D01*
X630665Y352205D01*
X630192Y353024D01*
X629524Y353692D01*
X628705Y354165D01*
X627792Y354410D01*
D02*
G37*
G36*
X450255Y350490D02*
X449550D01*
X448899Y350220D01*
X448400Y349722D01*
X448131Y349070D01*
Y348366D01*
X448400Y347714D01*
X448899Y347216D01*
X449550Y346946D01*
X450255D01*
X450906Y347216D01*
X451404Y347714D01*
X451674Y348366D01*
Y349070D01*
X451404Y349722D01*
X450906Y350220D01*
X450255Y350490D01*
D02*
G37*
G36*
X494352Y350272D02*
X493648D01*
X492996Y350002D01*
X492498Y349504D01*
X492228Y348852D01*
Y348148D01*
X492498Y347496D01*
X492996Y346998D01*
X493648Y346728D01*
X494352D01*
X495004Y346998D01*
X495502Y347496D01*
X495772Y348148D01*
Y348852D01*
X495502Y349504D01*
X495004Y350002D01*
X494352Y350272D01*
D02*
G37*
G36*
X395509Y348744D02*
X394805D01*
X394153Y348475D01*
X393655Y347976D01*
X393385Y347325D01*
Y346620D01*
X393655Y345969D01*
X394153Y345471D01*
X394805Y345201D01*
X395509D01*
X396161Y345471D01*
X396659Y345969D01*
X396929Y346620D01*
Y347325D01*
X396659Y347976D01*
X396161Y348475D01*
X395509Y348744D01*
D02*
G37*
G36*
X554156Y348575D02*
X553451D01*
X552800Y348305D01*
X552301Y347807D01*
X552032Y347155D01*
Y346451D01*
X552301Y345800D01*
X552800Y345301D01*
X553451Y345031D01*
X554156D01*
X554807Y345301D01*
X555305Y345800D01*
X555575Y346451D01*
Y347155D01*
X555305Y347807D01*
X554807Y348305D01*
X554156Y348575D01*
D02*
G37*
G36*
X572978Y348146D02*
X572274D01*
X571622Y347876D01*
X571124Y347378D01*
X570854Y346726D01*
Y346022D01*
X571124Y345371D01*
X571622Y344872D01*
X572274Y344602D01*
X572978D01*
X573630Y344872D01*
X574128Y345371D01*
X574398Y346022D01*
Y346726D01*
X574128Y347378D01*
X573630Y347876D01*
X572978Y348146D01*
D02*
G37*
G36*
X608852Y347772D02*
X608148D01*
X607496Y347502D01*
X606998Y347004D01*
X606728Y346352D01*
Y345648D01*
X606998Y344996D01*
X607496Y344498D01*
X608148Y344228D01*
X608852D01*
X609504Y344498D01*
X610002Y344996D01*
X610272Y345648D01*
Y346352D01*
X610002Y347004D01*
X609504Y347502D01*
X608852Y347772D01*
D02*
G37*
G36*
X507852Y346772D02*
X507148D01*
X506496Y346502D01*
X505998Y346004D01*
X505728Y345352D01*
Y344648D01*
X505998Y343996D01*
X506496Y343498D01*
X507148Y343228D01*
X507852D01*
X508504Y343498D01*
X509002Y343996D01*
X509272Y344648D01*
Y345352D01*
X509002Y346004D01*
X508504Y346502D01*
X507852Y346772D01*
D02*
G37*
G36*
X465852D02*
X465148D01*
X464496Y346502D01*
X463998Y346004D01*
X463728Y345352D01*
Y344648D01*
X463998Y343996D01*
X464496Y343498D01*
X465148Y343228D01*
X465852D01*
X466504Y343498D01*
X467002Y343996D01*
X467272Y344648D01*
Y345352D01*
X467002Y346004D01*
X466504Y346502D01*
X465852Y346772D01*
D02*
G37*
G36*
X632285Y344510D02*
X631494D01*
X630762Y344207D01*
X630202Y343647D01*
X629993Y343142D01*
X629792Y343041D01*
X629461Y342961D01*
X629419Y342965D01*
X628705Y343377D01*
X627792Y343622D01*
X626846D01*
X625933Y343377D01*
X625114Y342905D01*
X624446Y342236D01*
X623973Y341417D01*
X623728Y340504D01*
Y339559D01*
X623973Y338646D01*
X624446Y337827D01*
X625114Y337158D01*
X625933Y336686D01*
X626846Y336441D01*
X627792D01*
X628705Y336686D01*
X629524Y337158D01*
X630192Y337827D01*
X630665Y338646D01*
X630909Y339559D01*
Y340230D01*
X631380Y340576D01*
X631494Y340529D01*
X632285D01*
X633017Y340832D01*
X633577Y341392D01*
X633880Y342124D01*
Y342916D01*
X633577Y343647D01*
X633017Y344207D01*
X632285Y344510D01*
D02*
G37*
G36*
X426852Y345772D02*
X426148D01*
X425496Y345502D01*
X424998Y345004D01*
X424728Y344352D01*
Y343648D01*
X424998Y342996D01*
X425496Y342498D01*
X426148Y342228D01*
X426852D01*
X427504Y342498D01*
X428002Y342996D01*
X428272Y343648D01*
Y344352D01*
X428002Y345004D01*
X427504Y345502D01*
X426852Y345772D01*
D02*
G37*
G36*
X638973Y349016D02*
X638027D01*
X637114Y348771D01*
X636295Y348298D01*
X635627Y347630D01*
X635154Y346811D01*
X634909Y345898D01*
Y344953D01*
X635154Y344039D01*
X635627Y343221D01*
X636295Y342552D01*
X637114Y342079D01*
X638027Y341835D01*
X638973D01*
X639886Y342079D01*
X640705Y342552D01*
X641373Y343221D01*
X641846Y344039D01*
X642091Y344953D01*
Y345898D01*
X641846Y346811D01*
X641373Y347630D01*
X640705Y348298D01*
X639886Y348771D01*
X638973Y349016D01*
D02*
G37*
G36*
X396065Y344510D02*
X395273D01*
X394542Y344207D01*
X393982Y343647D01*
X393679Y342916D01*
Y342124D01*
X393982Y341392D01*
X394542Y340832D01*
X395273Y340529D01*
X396065D01*
X396797Y340832D01*
X397357Y341392D01*
X397660Y342124D01*
Y342916D01*
X397357Y343647D01*
X396797Y344207D01*
X396065Y344510D01*
D02*
G37*
G36*
X570479Y343958D02*
X569774D01*
X569123Y343689D01*
X568625Y343190D01*
X568355Y342539D01*
Y341834D01*
X568625Y341183D01*
X569123Y340685D01*
X569774Y340415D01*
X570479D01*
X571130Y340685D01*
X571629Y341183D01*
X571898Y341834D01*
Y342539D01*
X571629Y343190D01*
X571130Y343689D01*
X570479Y343958D01*
D02*
G37*
G36*
X491352Y343772D02*
X490648D01*
X489996Y343502D01*
X489498Y343004D01*
X489228Y342352D01*
Y341648D01*
X489498Y340996D01*
X489996Y340498D01*
X490648Y340228D01*
X491352D01*
X492004Y340498D01*
X492502Y340996D01*
X492772Y341648D01*
Y342352D01*
X492502Y343004D01*
X492004Y343502D01*
X491352Y343772D01*
D02*
G37*
G36*
X618852Y342772D02*
X618148D01*
X617496Y342502D01*
X616998Y342004D01*
X616728Y341352D01*
Y340648D01*
X616998Y339996D01*
X617496Y339498D01*
X618148Y339228D01*
X618852D01*
X619504Y339498D01*
X620002Y339996D01*
X620272Y340648D01*
Y341352D01*
X620002Y342004D01*
X619504Y342502D01*
X618852Y342772D01*
D02*
G37*
G36*
X457852D02*
X457148D01*
X456496Y342502D01*
X455998Y342004D01*
X455728Y341352D01*
Y340648D01*
X455998Y339996D01*
X456496Y339498D01*
X457148Y339228D01*
X457852D01*
X458504Y339498D01*
X459002Y339996D01*
X459272Y340648D01*
Y341352D01*
X459002Y342004D01*
X458504Y342502D01*
X457852Y342772D01*
D02*
G37*
G36*
X507352Y341772D02*
X506648D01*
X505996Y341502D01*
X505498Y341004D01*
X505228Y340352D01*
Y339648D01*
X505498Y338996D01*
X505996Y338498D01*
X506648Y338228D01*
X507352D01*
X508004Y338498D01*
X508502Y338996D01*
X508772Y339648D01*
Y340352D01*
X508502Y341004D01*
X508004Y341502D01*
X507352Y341772D01*
D02*
G37*
G36*
X520352Y341087D02*
X519648D01*
X518996Y340818D01*
X518498Y340319D01*
X518228Y339668D01*
Y338963D01*
X518498Y338312D01*
X518996Y337814D01*
X519648Y337544D01*
X520352D01*
X521004Y337814D01*
X521502Y338312D01*
X521772Y338963D01*
Y339668D01*
X521502Y340319D01*
X521004Y340818D01*
X520352Y341087D01*
D02*
G37*
G36*
X531569Y338350D02*
X530864D01*
X530213Y338081D01*
X529714Y337582D01*
X529445Y336931D01*
Y336226D01*
X529714Y335575D01*
X530213Y335077D01*
X530864Y334807D01*
X531569D01*
X532220Y335077D01*
X532718Y335575D01*
X532988Y336226D01*
Y336931D01*
X532718Y337582D01*
X532220Y338081D01*
X531569Y338350D01*
D02*
G37*
G36*
X555852Y336272D02*
X555148D01*
X554496Y336002D01*
X553998Y335504D01*
X553728Y334852D01*
Y334148D01*
X553998Y333496D01*
X554496Y332998D01*
X555148Y332728D01*
X555852D01*
X556504Y332998D01*
X557002Y333496D01*
X557272Y334148D01*
Y334852D01*
X557002Y335504D01*
X556504Y336002D01*
X555852Y336272D01*
D02*
G37*
G36*
X548852D02*
X548148D01*
X547496Y336002D01*
X546998Y335504D01*
X546728Y334852D01*
Y334148D01*
X546998Y333496D01*
X547496Y332998D01*
X548148Y332728D01*
X548852D01*
X549504Y332998D01*
X550002Y333496D01*
X550272Y334148D01*
Y334852D01*
X550002Y335504D01*
X549504Y336002D01*
X548852Y336272D01*
D02*
G37*
G36*
X539637Y335400D02*
X538932D01*
X538281Y335131D01*
X537783Y334632D01*
X537513Y333981D01*
Y333276D01*
X537783Y332625D01*
X538281Y332127D01*
X538932Y331857D01*
X539637D01*
X540288Y332127D01*
X540787Y332625D01*
X541056Y333276D01*
Y333981D01*
X540787Y334632D01*
X540288Y335131D01*
X539637Y335400D01*
D02*
G37*
G36*
X587852Y333272D02*
X587148D01*
X586496Y333002D01*
X585998Y332504D01*
X585728Y331852D01*
Y331148D01*
X585998Y330496D01*
X586496Y329998D01*
X587148Y329728D01*
X587852D01*
X588504Y329998D01*
X589002Y330496D01*
X589272Y331148D01*
Y331852D01*
X589002Y332504D01*
X588504Y333002D01*
X587852Y333272D01*
D02*
G37*
G36*
X390160Y332699D02*
X389368D01*
X388636Y332396D01*
X388076Y331836D01*
X387773Y331104D01*
Y330313D01*
X388076Y329581D01*
X388636Y329021D01*
X389368Y328718D01*
X390160D01*
X390891Y329021D01*
X391451Y329581D01*
X391754Y330313D01*
Y331104D01*
X391451Y331836D01*
X390891Y332396D01*
X390160Y332699D01*
D02*
G37*
G36*
X503352Y330587D02*
X502648D01*
X501996Y330318D01*
X501498Y329819D01*
X501228Y329168D01*
Y328463D01*
X501498Y327812D01*
X501996Y327314D01*
X502648Y327044D01*
X503352D01*
X504004Y327314D01*
X504502Y327812D01*
X504772Y328463D01*
Y329168D01*
X504502Y329819D01*
X504004Y330318D01*
X503352Y330587D01*
D02*
G37*
G36*
X449852Y330272D02*
X449148D01*
X448496Y330002D01*
X447998Y329504D01*
X447728Y328852D01*
Y328148D01*
X447998Y327496D01*
X448496Y326998D01*
X449148Y326728D01*
X449852D01*
X450504Y326998D01*
X451002Y327496D01*
X451272Y328148D01*
Y328852D01*
X451002Y329504D01*
X450504Y330002D01*
X449852Y330272D01*
D02*
G37*
G36*
X454396Y329772D02*
X453691D01*
X453040Y329502D01*
X452541Y329004D01*
X452272Y328352D01*
Y327648D01*
X452541Y326996D01*
X453040Y326498D01*
X453691Y326228D01*
X454396D01*
X455047Y326498D01*
X455545Y326996D01*
X455815Y327648D01*
Y328352D01*
X455545Y329004D01*
X455047Y329502D01*
X454396Y329772D01*
D02*
G37*
G36*
X540235Y328927D02*
X539531D01*
X538879Y328657D01*
X538381Y328159D01*
X538111Y327507D01*
Y326803D01*
X538381Y326151D01*
X538879Y325653D01*
X539531Y325383D01*
X540235D01*
X540886Y325653D01*
X541385Y326151D01*
X541655Y326803D01*
Y327507D01*
X541385Y328159D01*
X540886Y328657D01*
X540235Y328927D01*
D02*
G37*
G36*
X507081Y328772D02*
X506376D01*
X505725Y328502D01*
X505226Y328004D01*
X504957Y327352D01*
Y326648D01*
X505226Y325996D01*
X505725Y325498D01*
X506376Y325228D01*
X507081D01*
X507732Y325498D01*
X508230Y325996D01*
X508500Y326648D01*
Y327352D01*
X508230Y328004D01*
X507732Y328502D01*
X507081Y328772D01*
D02*
G37*
G36*
X484852Y328272D02*
X484148D01*
X483496Y328002D01*
X482998Y327504D01*
X482728Y326852D01*
Y326148D01*
X482998Y325496D01*
X483496Y324998D01*
X484148Y324728D01*
X484852D01*
X485504Y324998D01*
X486002Y325496D01*
X486272Y326148D01*
Y326852D01*
X486002Y327504D01*
X485504Y328002D01*
X484852Y328272D01*
D02*
G37*
G36*
X461841Y328102D02*
X461136D01*
X460485Y327833D01*
X459986Y327334D01*
X459717Y326683D01*
Y325978D01*
X459986Y325327D01*
X460485Y324829D01*
X461136Y324559D01*
X461841D01*
X462492Y324829D01*
X462990Y325327D01*
X463260Y325978D01*
Y326683D01*
X462990Y327334D01*
X462492Y327833D01*
X461841Y328102D01*
D02*
G37*
G36*
X442852Y328000D02*
X442148D01*
X441496Y327730D01*
X440998Y327232D01*
X440728Y326581D01*
Y325876D01*
X440998Y325225D01*
X441496Y324726D01*
X442148Y324457D01*
X442852D01*
X443504Y324726D01*
X444002Y325225D01*
X444272Y325876D01*
Y326581D01*
X444002Y327232D01*
X443504Y327730D01*
X442852Y328000D01*
D02*
G37*
G36*
X475693Y326000D02*
X474988D01*
X474337Y325730D01*
X473839Y325232D01*
X473569Y324581D01*
Y323876D01*
X473839Y323225D01*
X474337Y322726D01*
X474988Y322457D01*
X475693D01*
X476344Y322726D01*
X476843Y323225D01*
X477112Y323876D01*
Y324581D01*
X476843Y325232D01*
X476344Y325730D01*
X475693Y326000D01*
D02*
G37*
G36*
X493124Y325919D02*
X492419D01*
X491768Y325649D01*
X491270Y325151D01*
X491000Y324500D01*
Y323795D01*
X491270Y323144D01*
X491768Y322646D01*
X492419Y322376D01*
X493124D01*
X493775Y322646D01*
X494274Y323144D01*
X494543Y323795D01*
Y324500D01*
X494274Y325151D01*
X493775Y325649D01*
X493124Y325919D01*
D02*
G37*
G36*
X509352Y324772D02*
X508648D01*
X507996Y324502D01*
X507498Y324004D01*
X507228Y323352D01*
Y322648D01*
X507498Y321996D01*
X507996Y321498D01*
X508648Y321228D01*
X509352D01*
X510004Y321498D01*
X510502Y321996D01*
X510772Y322648D01*
Y323352D01*
X510502Y324004D01*
X510004Y324502D01*
X509352Y324772D01*
D02*
G37*
G36*
X465791Y324351D02*
X465086D01*
X464435Y324081D01*
X463937Y323583D01*
X463667Y322932D01*
Y322227D01*
X463937Y321576D01*
X464435Y321077D01*
X464971Y320855D01*
X465115Y320484D01*
X465130Y320308D01*
X464848Y320025D01*
X464545Y319293D01*
Y318502D01*
X464848Y317770D01*
X465408Y317210D01*
X466139Y316907D01*
X466931D01*
X467663Y317210D01*
X468223Y317770D01*
X468526Y318502D01*
Y319293D01*
X468223Y320025D01*
X467663Y320585D01*
X466931Y320888D01*
X466753Y321388D01*
X466940Y321576D01*
X467210Y322227D01*
Y322932D01*
X466940Y323583D01*
X466442Y324081D01*
X465791Y324351D01*
D02*
G37*
G36*
X407876Y320888D02*
X407084D01*
X406353Y320585D01*
X405793Y320025D01*
X405490Y319293D01*
Y318502D01*
X405793Y317770D01*
X406353Y317210D01*
X407084Y316907D01*
X407876D01*
X408608Y317210D01*
X409168Y317770D01*
X409471Y318502D01*
Y319293D01*
X409168Y320025D01*
X408608Y320585D01*
X407876Y320888D01*
D02*
G37*
G36*
X418742Y320356D02*
X417385D01*
X416054Y320091D01*
X414800Y319571D01*
X413671Y318817D01*
X412712Y317858D01*
X411958Y316729D01*
X411439Y315476D01*
X411174Y314144D01*
Y312787D01*
X411439Y311456D01*
X411958Y310202D01*
X412712Y309074D01*
X413671Y308114D01*
X414800Y307360D01*
X416054Y306841D01*
X417385Y306576D01*
X418742D01*
X420073Y306841D01*
X421327Y307360D01*
X422455Y308114D01*
X423415Y309074D01*
X424169Y310202D01*
X424688Y311456D01*
X424953Y312787D01*
Y314144D01*
X424688Y315476D01*
X424169Y316729D01*
X423415Y317858D01*
X422455Y318817D01*
X421327Y319571D01*
X420073Y320091D01*
X418742Y320356D01*
D02*
G37*
G36*
X469972Y298583D02*
X469028D01*
X468117Y298339D01*
X467300Y297867D01*
X466633Y297200D01*
X466161Y296383D01*
X465917Y295472D01*
Y294528D01*
X466161Y293617D01*
X466633Y292800D01*
X467300Y292133D01*
X468117Y291662D01*
X469028Y291417D01*
X469972D01*
X470883Y291662D01*
X471700Y292133D01*
X472367Y292800D01*
X472838Y293617D01*
X473083Y294528D01*
Y295472D01*
X472838Y296383D01*
X472367Y297200D01*
X471700Y297867D01*
X470883Y298339D01*
X469972Y298583D01*
D02*
G37*
G36*
X459972D02*
X459028D01*
X458117Y298339D01*
X457300Y297867D01*
X456633Y297200D01*
X456161Y296383D01*
X455917Y295472D01*
Y294528D01*
X456161Y293617D01*
X456633Y292800D01*
X457300Y292133D01*
X458117Y291662D01*
X459028Y291417D01*
X459972D01*
X460883Y291662D01*
X461700Y292133D01*
X462367Y292800D01*
X462839Y293617D01*
X463083Y294528D01*
Y295472D01*
X462839Y296383D01*
X462367Y297200D01*
X461700Y297867D01*
X460883Y298339D01*
X459972Y298583D01*
D02*
G37*
G36*
X614173Y474470D02*
X613396Y474316D01*
X612738Y473876D01*
X612298Y473217D01*
X612144Y472441D01*
X612298Y471664D01*
X612738Y471006D01*
X613396Y470566D01*
X614173Y470411D01*
X614950Y470566D01*
X615608Y471006D01*
X616048Y471664D01*
X616203Y472441D01*
X616048Y473217D01*
X615608Y473876D01*
X614950Y474316D01*
X614173Y474470D01*
D02*
G37*
G36*
X590551D02*
X589774Y474316D01*
X589116Y473876D01*
X588676Y473217D01*
X588521Y472441D01*
X588676Y471664D01*
X589116Y471006D01*
X589774Y470566D01*
X590551Y470411D01*
X591328Y470566D01*
X591986Y471006D01*
X592426Y471664D01*
X592581Y472441D01*
X592426Y473217D01*
X591986Y473876D01*
X591328Y474316D01*
X590551Y474470D01*
D02*
G37*
G36*
X578740D02*
X577963Y474316D01*
X577305Y473876D01*
X576865Y473217D01*
X576710Y472441D01*
X576865Y471664D01*
X577305Y471006D01*
X577963Y470566D01*
X578740Y470411D01*
X579517Y470566D01*
X580175Y471006D01*
X580615Y471664D01*
X580769Y472441D01*
X580615Y473217D01*
X580175Y473876D01*
X579517Y474316D01*
X578740Y474470D01*
D02*
G37*
G36*
X566929D02*
X566152Y474316D01*
X565494Y473876D01*
X565054Y473217D01*
X564899Y472441D01*
X565054Y471664D01*
X565494Y471006D01*
X566152Y470566D01*
X566929Y470411D01*
X567706Y470566D01*
X568364Y471006D01*
X568804Y471664D01*
X568959Y472441D01*
X568804Y473217D01*
X568364Y473876D01*
X567706Y474316D01*
X566929Y474470D01*
D02*
G37*
G36*
X555118D02*
X554341Y474316D01*
X553683Y473876D01*
X553243Y473217D01*
X553088Y472441D01*
X553243Y471664D01*
X553683Y471006D01*
X554341Y470566D01*
X555118Y470411D01*
X555895Y470566D01*
X556553Y471006D01*
X556993Y471664D01*
X557148Y472441D01*
X556993Y473217D01*
X556553Y473876D01*
X555895Y474316D01*
X555118Y474470D01*
D02*
G37*
G36*
X543307D02*
X542530Y474316D01*
X541872Y473876D01*
X541432Y473217D01*
X541277Y472441D01*
X541432Y471664D01*
X541872Y471006D01*
X542530Y470566D01*
X543307Y470411D01*
X544084Y470566D01*
X544742Y471006D01*
X545182Y471664D01*
X545336Y472441D01*
X545182Y473217D01*
X544742Y473876D01*
X544084Y474316D01*
X543307Y474470D01*
D02*
G37*
G36*
X531496D02*
X530719Y474316D01*
X530061Y473876D01*
X529621Y473217D01*
X529466Y472441D01*
X529621Y471664D01*
X530061Y471006D01*
X530719Y470566D01*
X531496Y470411D01*
X532273Y470566D01*
X532931Y471006D01*
X533371Y471664D01*
X533526Y472441D01*
X533371Y473217D01*
X532931Y473876D01*
X532273Y474316D01*
X531496Y474470D01*
D02*
G37*
G36*
X519685D02*
X518908Y474316D01*
X518250Y473876D01*
X517810Y473217D01*
X517655Y472441D01*
X517810Y471664D01*
X518250Y471006D01*
X518908Y470566D01*
X519685Y470411D01*
X520462Y470566D01*
X521120Y471006D01*
X521560Y471664D01*
X521714Y472441D01*
X521560Y473217D01*
X521120Y473876D01*
X520462Y474316D01*
X519685Y474470D01*
D02*
G37*
G36*
X507874D02*
X507097Y474316D01*
X506439Y473876D01*
X505999Y473217D01*
X505844Y472441D01*
X505999Y471664D01*
X506439Y471006D01*
X507097Y470566D01*
X507874Y470411D01*
X508650Y470566D01*
X509309Y471006D01*
X509749Y471664D01*
X509903Y472441D01*
X509749Y473217D01*
X509309Y473876D01*
X508650Y474316D01*
X507874Y474470D01*
D02*
G37*
G36*
X496063D02*
X495286Y474316D01*
X494628Y473876D01*
X494188Y473217D01*
X494033Y472441D01*
X494188Y471664D01*
X494628Y471006D01*
X495286Y470566D01*
X496063Y470411D01*
X496840Y470566D01*
X497498Y471006D01*
X497938Y471664D01*
X498092Y472441D01*
X497938Y473217D01*
X497498Y473876D01*
X496840Y474316D01*
X496063Y474470D01*
D02*
G37*
G36*
X639157Y471375D02*
X638284Y471260D01*
X637470Y470923D01*
X636771Y470387D01*
X636234Y469688D01*
X635897Y468874D01*
X635782Y468000D01*
X635897Y467126D01*
X636234Y466312D01*
X636771Y465613D01*
X637470Y465077D01*
X638284Y464740D01*
X639157Y464625D01*
X640031Y464740D01*
X640845Y465077D01*
X641544Y465613D01*
X642081Y466312D01*
X642418Y467126D01*
X642533Y468000D01*
X642418Y468874D01*
X642081Y469688D01*
X641544Y470387D01*
X640845Y470923D01*
X640031Y471260D01*
X639157Y471375D01*
D02*
G37*
G36*
X625984Y474470D02*
X625207Y474316D01*
X624549Y473876D01*
X624109Y473217D01*
X623954Y472441D01*
X624109Y471664D01*
X624549Y471006D01*
X625207Y470566D01*
X625984Y470411D01*
X626377Y470489D01*
X626659Y470036D01*
X626392Y469688D01*
X626055Y468874D01*
X625940Y468000D01*
X626055Y467126D01*
X626392Y466312D01*
X626928Y465613D01*
X627627Y465077D01*
X628441Y464740D01*
X629315Y464625D01*
X630189Y464740D01*
X631003Y465077D01*
X631702Y465613D01*
X632238Y466312D01*
X632575Y467126D01*
X632690Y468000D01*
X632575Y468874D01*
X632238Y469688D01*
X631702Y470387D01*
X631003Y470923D01*
X630189Y471260D01*
X629315Y471375D01*
X628441Y471260D01*
X628095Y471117D01*
X627763Y471521D01*
X627859Y471664D01*
X628014Y472441D01*
X627859Y473217D01*
X627419Y473876D01*
X626761Y474316D01*
X625984Y474470D01*
D02*
G37*
G36*
X619472Y471375D02*
X618599Y471260D01*
X617785Y470923D01*
X617086Y470387D01*
X616549Y469688D01*
X616212Y468874D01*
X616097Y468000D01*
X616212Y467126D01*
X616549Y466312D01*
X617086Y465613D01*
X617785Y465077D01*
X618599Y464740D01*
X619472Y464625D01*
X620346Y464740D01*
X621160Y465077D01*
X621859Y465613D01*
X622396Y466312D01*
X622733Y467126D01*
X622848Y468000D01*
X622733Y468874D01*
X622396Y469688D01*
X621859Y470387D01*
X621160Y470923D01*
X620346Y471260D01*
X619472Y471375D01*
D02*
G37*
G36*
X609630D02*
X608756Y471260D01*
X607942Y470923D01*
X607243Y470387D01*
X606707Y469688D01*
X606370Y468874D01*
X606255Y468000D01*
X606370Y467126D01*
X606707Y466312D01*
X607243Y465613D01*
X607942Y465077D01*
X608756Y464740D01*
X609630Y464625D01*
X610503Y464740D01*
X611318Y465077D01*
X612017Y465613D01*
X612553Y466312D01*
X612890Y467126D01*
X613005Y468000D01*
X612890Y468874D01*
X612553Y469688D01*
X612017Y470387D01*
X611318Y470923D01*
X610503Y471260D01*
X609630Y471375D01*
D02*
G37*
G36*
X599787D02*
X598914Y471260D01*
X598100Y470923D01*
X597401Y470387D01*
X596864Y469688D01*
X596527Y468874D01*
X596412Y468000D01*
X596527Y467126D01*
X596864Y466312D01*
X597401Y465613D01*
X598100Y465077D01*
X598914Y464740D01*
X599787Y464625D01*
X600661Y464740D01*
X601475Y465077D01*
X602174Y465613D01*
X602710Y466312D01*
X603048Y467126D01*
X603163Y468000D01*
X603048Y468874D01*
X602710Y469688D01*
X602174Y470387D01*
X601475Y470923D01*
X600661Y471260D01*
X599787Y471375D01*
D02*
G37*
G36*
X655512Y462659D02*
X654735Y462505D01*
X654076Y462065D01*
X653637Y461407D01*
X653482Y460630D01*
X653637Y459853D01*
X654076Y459195D01*
X654735Y458755D01*
X655512Y458600D01*
X656288Y458755D01*
X656947Y459195D01*
X657387Y459853D01*
X657541Y460630D01*
X657387Y461407D01*
X656947Y462065D01*
X656288Y462505D01*
X655512Y462659D01*
D02*
G37*
G36*
X525590D02*
X524814Y462505D01*
X524155Y462065D01*
X523715Y461407D01*
X523561Y460630D01*
X523715Y459853D01*
X524155Y459195D01*
X524814Y458755D01*
X525590Y458600D01*
X526367Y458755D01*
X527026Y459195D01*
X527465Y459853D01*
X527620Y460630D01*
X527465Y461407D01*
X527026Y462065D01*
X526367Y462505D01*
X525590Y462659D01*
D02*
G37*
G36*
X582075Y463517D02*
X571051D01*
Y452493D01*
X582075D01*
Y463517D01*
D02*
G37*
G36*
X560972Y463564D02*
X559534Y463375D01*
X558193Y462819D01*
X557041Y461936D01*
X556158Y460784D01*
X555603Y459444D01*
X555413Y458005D01*
X555603Y456566D01*
X556158Y455225D01*
X557041Y454074D01*
X558193Y453190D01*
X559534Y452635D01*
X560972Y452445D01*
X562411Y452635D01*
X563752Y453190D01*
X564903Y454074D01*
X565787Y455225D01*
X566342Y456566D01*
X566532Y458005D01*
X566342Y459444D01*
X565787Y460784D01*
X564903Y461936D01*
X563752Y462819D01*
X562411Y463375D01*
X560972Y463564D01*
D02*
G37*
G36*
X558500Y443708D02*
X557655Y443540D01*
X556939Y443061D01*
X556460Y442345D01*
X556292Y441500D01*
X556460Y440655D01*
X556939Y439939D01*
X557655Y439460D01*
X558500Y439292D01*
X559345Y439460D01*
X560061Y439939D01*
X560540Y440655D01*
X560708Y441500D01*
X560540Y442345D01*
X560061Y443061D01*
X559345Y443540D01*
X558500Y443708D01*
D02*
G37*
G36*
X572834Y439037D02*
X572058Y438883D01*
X571399Y438443D01*
X570959Y437784D01*
X570805Y437008D01*
X570959Y436231D01*
X571399Y435573D01*
X572058Y435133D01*
X572834Y434978D01*
X573611Y435133D01*
X574270Y435573D01*
X574710Y436231D01*
X574864Y437008D01*
X574710Y437784D01*
X574270Y438443D01*
X573611Y438883D01*
X572834Y439037D01*
D02*
G37*
G36*
X561023D02*
X560247Y438883D01*
X559588Y438443D01*
X559148Y437784D01*
X558994Y437008D01*
X559148Y436231D01*
X559588Y435573D01*
X560247Y435133D01*
X561023Y434978D01*
X561800Y435133D01*
X562459Y435573D01*
X562898Y436231D01*
X563053Y437008D01*
X562898Y437784D01*
X562459Y438443D01*
X561800Y438883D01*
X561023Y439037D01*
D02*
G37*
G36*
X556500Y433622D02*
X555809Y433485D01*
X555223Y433093D01*
X554831Y432507D01*
X554694Y431816D01*
X554831Y431124D01*
X555223Y430538D01*
X555809Y430147D01*
X556500Y430009D01*
X557191Y430147D01*
X557777Y430538D01*
X558169Y431124D01*
X558306Y431816D01*
X558169Y432507D01*
X557777Y433093D01*
X557191Y433485D01*
X556500Y433622D01*
D02*
G37*
G36*
X575521Y431135D02*
X574829Y430997D01*
X574243Y430606D01*
X573852Y430019D01*
X573714Y429328D01*
X573852Y428637D01*
X574243Y428051D01*
X574829Y427659D01*
X575521Y427522D01*
X576212Y427659D01*
X576798Y428051D01*
X577190Y428637D01*
X577327Y429328D01*
X577190Y430019D01*
X576798Y430606D01*
X576212Y430997D01*
X575521Y431135D01*
D02*
G37*
G36*
X649606Y427226D02*
X648829Y427072D01*
X648171Y426632D01*
X647731Y425973D01*
X647577Y425197D01*
X647731Y424420D01*
X648171Y423762D01*
X648829Y423322D01*
X649606Y423167D01*
X650383Y423322D01*
X651041Y423762D01*
X651481Y424420D01*
X651636Y425197D01*
X651481Y425973D01*
X651041Y426632D01*
X650383Y427072D01*
X649606Y427226D01*
D02*
G37*
G36*
X583878Y407995D02*
X583186Y407857D01*
X582600Y407466D01*
X582209Y406880D01*
X582071Y406188D01*
X582209Y405497D01*
X582600Y404911D01*
X582436Y404420D01*
X582223Y404277D01*
X581831Y403691D01*
X581694Y403000D01*
X581831Y402309D01*
X582223Y401723D01*
X582809Y401331D01*
X583500Y401194D01*
X584191Y401331D01*
X584777Y401723D01*
X585169Y402309D01*
X585306Y403000D01*
X585169Y403691D01*
X584777Y404277D01*
X584942Y404769D01*
X585155Y404911D01*
X585547Y405497D01*
X585684Y406188D01*
X585547Y406880D01*
X585155Y407466D01*
X584569Y407857D01*
X583878Y407995D01*
D02*
G37*
G36*
X649606Y403604D02*
X648829Y403450D01*
X648171Y403010D01*
X647731Y402351D01*
X647577Y401575D01*
X647731Y400798D01*
X648171Y400140D01*
X648829Y399700D01*
X649606Y399545D01*
X650383Y399700D01*
X651041Y400140D01*
X651481Y400798D01*
X651636Y401575D01*
X651481Y402351D01*
X651041Y403010D01*
X650383Y403450D01*
X649606Y403604D01*
D02*
G37*
G36*
X555118D02*
X554341Y403450D01*
X553683Y403010D01*
X553243Y402351D01*
X553088Y401575D01*
X553243Y400798D01*
X553683Y400140D01*
X554341Y399700D01*
X555118Y399545D01*
X555895Y399700D01*
X556553Y400140D01*
X556993Y400798D01*
X557148Y401575D01*
X556993Y402351D01*
X556553Y403010D01*
X555895Y403450D01*
X555118Y403604D01*
D02*
G37*
G36*
X581000Y396708D02*
X580155Y396540D01*
X579439Y396061D01*
X578960Y395345D01*
X578792Y394500D01*
X578960Y393655D01*
X579439Y392939D01*
X580155Y392460D01*
X581000Y392292D01*
X581845Y392460D01*
X582561Y392939D01*
X583040Y393655D01*
X583208Y394500D01*
X583040Y395345D01*
X582561Y396061D01*
X581845Y396540D01*
X581000Y396708D01*
D02*
G37*
G36*
X649606Y379982D02*
X648829Y379828D01*
X648171Y379388D01*
X647731Y378729D01*
X647577Y377953D01*
X647731Y377176D01*
X648171Y376518D01*
X648829Y376078D01*
X649606Y375923D01*
X650383Y376078D01*
X651041Y376518D01*
X651481Y377176D01*
X651636Y377953D01*
X651481Y378729D01*
X651041Y379388D01*
X650383Y379828D01*
X649606Y379982D01*
D02*
G37*
G36*
Y356360D02*
X648829Y356206D01*
X648171Y355766D01*
X647731Y355107D01*
X647577Y354331D01*
X647731Y353554D01*
X648171Y352895D01*
X648829Y352455D01*
X649606Y352301D01*
X650383Y352455D01*
X651041Y352895D01*
X651481Y353554D01*
X651636Y354331D01*
X651481Y355107D01*
X651041Y355766D01*
X650383Y356206D01*
X649606Y356360D01*
D02*
G37*
G36*
Y332738D02*
X648829Y332584D01*
X648171Y332144D01*
X647731Y331485D01*
X647577Y330709D01*
X647731Y329932D01*
X648171Y329274D01*
X648829Y328834D01*
X649606Y328679D01*
X650383Y328834D01*
X651041Y329274D01*
X651481Y329932D01*
X651636Y330709D01*
X651481Y331485D01*
X651041Y332144D01*
X650383Y332584D01*
X649606Y332738D01*
D02*
G37*
G36*
X643701Y320927D02*
X642924Y320773D01*
X642266Y320333D01*
X641825Y319674D01*
X641671Y318898D01*
X641825Y318121D01*
X642266Y317462D01*
X642924Y317022D01*
X643701Y316868D01*
X644477Y317022D01*
X645136Y317462D01*
X645576Y318121D01*
X645730Y318898D01*
X645576Y319674D01*
X645136Y320333D01*
X644477Y320773D01*
X643701Y320927D01*
D02*
G37*
G36*
X620079D02*
X619302Y320773D01*
X618643Y320333D01*
X618203Y319674D01*
X618049Y318898D01*
X618203Y318121D01*
X618643Y317462D01*
X619302Y317022D01*
X620079Y316868D01*
X620855Y317022D01*
X621514Y317462D01*
X621954Y318121D01*
X622108Y318898D01*
X621954Y319674D01*
X621514Y320333D01*
X620855Y320773D01*
X620079Y320927D01*
D02*
G37*
G36*
X608267D02*
X607491Y320773D01*
X606832Y320333D01*
X606392Y319674D01*
X606238Y318898D01*
X606392Y318121D01*
X606832Y317462D01*
X607491Y317022D01*
X608267Y316868D01*
X609044Y317022D01*
X609703Y317462D01*
X610143Y318121D01*
X610297Y318898D01*
X610143Y319674D01*
X609703Y320333D01*
X609044Y320773D01*
X608267Y320927D01*
D02*
G37*
G36*
X579000Y310806D02*
X578309Y310669D01*
X577723Y310277D01*
X577331Y309691D01*
X577194Y309000D01*
X577331Y308309D01*
X577723Y307723D01*
X578309Y307331D01*
X579000Y307194D01*
X579691Y307331D01*
X580277Y307723D01*
X580669Y308309D01*
X580806Y309000D01*
X580669Y309691D01*
X580277Y310277D01*
X579691Y310669D01*
X579000Y310806D01*
D02*
G37*
G36*
X632909Y319121D02*
X631559Y318988D01*
X630260Y318594D01*
X629063Y317954D01*
X628014Y317093D01*
X627152Y316044D01*
X626513Y314846D01*
X626119Y313548D01*
X625986Y312197D01*
X626119Y310846D01*
X626513Y309547D01*
X627152Y308350D01*
X628014Y307301D01*
X629063Y306440D01*
X630260Y305800D01*
X631559Y305406D01*
X632909Y305273D01*
X634260Y305406D01*
X635559Y305800D01*
X636756Y306440D01*
X637805Y307301D01*
X638666Y308350D01*
X639306Y309547D01*
X639700Y310846D01*
X639833Y312197D01*
X639700Y313548D01*
X639306Y314846D01*
X638666Y316044D01*
X637805Y317093D01*
X636756Y317954D01*
X635559Y318594D01*
X634260Y318988D01*
X632909Y319121D01*
D02*
G37*
G36*
X649606Y309116D02*
X648829Y308962D01*
X648171Y308522D01*
X647731Y307863D01*
X647577Y307086D01*
X647731Y306310D01*
X648171Y305651D01*
X648829Y305211D01*
X649606Y305057D01*
X650383Y305211D01*
X651041Y305651D01*
X651481Y306310D01*
X651636Y307086D01*
X651481Y307863D01*
X651041Y308522D01*
X650383Y308962D01*
X649606Y309116D01*
D02*
G37*
G36*
X602362D02*
X601585Y308962D01*
X600927Y308522D01*
X600487Y307863D01*
X600332Y307086D01*
X600487Y306310D01*
X600927Y305651D01*
X601585Y305211D01*
X602362Y305057D01*
X603139Y305211D01*
X603797Y305651D01*
X604237Y306310D01*
X604392Y307086D01*
X604237Y307863D01*
X603797Y308522D01*
X603139Y308962D01*
X602362Y309116D01*
D02*
G37*
G36*
X631890Y297305D02*
X631113Y297151D01*
X630454Y296711D01*
X630015Y296052D01*
X629860Y295275D01*
X630015Y294499D01*
X630454Y293840D01*
X631113Y293400D01*
X631890Y293246D01*
X632666Y293400D01*
X633325Y293840D01*
X633765Y294499D01*
X633919Y295275D01*
X633765Y296052D01*
X633325Y296711D01*
X632666Y297151D01*
X631890Y297305D01*
D02*
G37*
G36*
X620079D02*
X619302Y297151D01*
X618643Y296711D01*
X618203Y296052D01*
X618049Y295275D01*
X618203Y294499D01*
X618643Y293840D01*
X619302Y293400D01*
X620079Y293246D01*
X620855Y293400D01*
X621514Y293840D01*
X621954Y294499D01*
X622108Y295275D01*
X621954Y296052D01*
X621514Y296711D01*
X620855Y297151D01*
X620079Y297305D01*
D02*
G37*
G36*
X542500Y288208D02*
X541655Y288040D01*
X540939Y287561D01*
X540460Y286845D01*
X540292Y286000D01*
X540460Y285155D01*
X540939Y284439D01*
X541655Y283960D01*
X542500Y283792D01*
X543345Y283960D01*
X544061Y284439D01*
X544540Y285155D01*
X544708Y286000D01*
X544540Y286845D01*
X544061Y287561D01*
X543345Y288040D01*
X542500Y288208D01*
D02*
G37*
G36*
X566929Y285494D02*
X566152Y285339D01*
X565494Y284900D01*
X565054Y284241D01*
X564899Y283465D01*
X565054Y282688D01*
X565494Y282029D01*
X566152Y281589D01*
X566929Y281435D01*
X567706Y281589D01*
X568364Y282029D01*
X568804Y282688D01*
X568959Y283465D01*
X568804Y284241D01*
X568364Y284900D01*
X567706Y285339D01*
X566929Y285494D01*
D02*
G37*
G36*
X629157Y286875D02*
X628284Y286760D01*
X627470Y286423D01*
X626771Y285887D01*
X626234Y285188D01*
X625897Y284374D01*
X625782Y283500D01*
X625897Y282626D01*
X626234Y281812D01*
X626771Y281113D01*
X627470Y280577D01*
X628284Y280240D01*
X629157Y280125D01*
X630031Y280240D01*
X630845Y280577D01*
X631544Y281113D01*
X632081Y281812D01*
X632418Y282626D01*
X632533Y283500D01*
X632418Y284374D01*
X632081Y285188D01*
X631544Y285887D01*
X630845Y286423D01*
X630031Y286760D01*
X629157Y286875D01*
D02*
G37*
G36*
X619315D02*
X618441Y286760D01*
X617627Y286423D01*
X616928Y285887D01*
X616392Y285188D01*
X616055Y284374D01*
X615940Y283500D01*
X616055Y282626D01*
X616392Y281812D01*
X616928Y281113D01*
X617627Y280577D01*
X618441Y280240D01*
X619315Y280125D01*
X620189Y280240D01*
X621003Y280577D01*
X621702Y281113D01*
X622238Y281812D01*
X622575Y282626D01*
X622690Y283500D01*
X622575Y284374D01*
X622238Y285188D01*
X621702Y285887D01*
X621003Y286423D01*
X620189Y286760D01*
X619315Y286875D01*
D02*
G37*
G36*
X639000Y286875D02*
X638126Y286760D01*
X637312Y286423D01*
X636613Y285887D01*
X636077Y285188D01*
X635740Y284374D01*
X635625Y283500D01*
X635740Y282626D01*
X636077Y281812D01*
X636613Y281113D01*
X637312Y280577D01*
X638126Y280240D01*
X639000Y280125D01*
X639874Y280240D01*
X640688Y280577D01*
X641387Y281113D01*
X641923Y281812D01*
X642260Y282626D01*
X642375Y283500D01*
X642260Y284374D01*
X641923Y285188D01*
X641387Y285887D01*
X640688Y286423D01*
X639874Y286760D01*
X639000Y286875D01*
D02*
G37*
G36*
X609472D02*
X608599Y286760D01*
X607785Y286423D01*
X607086Y285887D01*
X606549Y285188D01*
X606212Y284374D01*
X606097Y283500D01*
X606212Y282626D01*
X606549Y281812D01*
X607086Y281113D01*
X607785Y280577D01*
X608599Y280240D01*
X609472Y280125D01*
X610346Y280240D01*
X611160Y280577D01*
X611859Y281113D01*
X612396Y281812D01*
X612733Y282626D01*
X612848Y283500D01*
X612733Y284374D01*
X612396Y285188D01*
X611859Y285887D01*
X611160Y286423D01*
X610346Y286760D01*
X609472Y286875D01*
D02*
G37*
G36*
X599630D02*
X598756Y286760D01*
X597942Y286423D01*
X597243Y285887D01*
X596707Y285188D01*
X596370Y284374D01*
X596255Y283500D01*
X596370Y282626D01*
X596707Y281812D01*
X597243Y281113D01*
X597942Y280577D01*
X598756Y280240D01*
X599630Y280125D01*
X600503Y280240D01*
X601318Y280577D01*
X602017Y281113D01*
X602553Y281812D01*
X602890Y282626D01*
X603005Y283500D01*
X602890Y284374D01*
X602553Y285188D01*
X602017Y285887D01*
X601318Y286423D01*
X600503Y286760D01*
X599630Y286875D01*
D02*
G37*
%LPD*%
D33*
X418063Y313466D02*
D03*
X645000Y263500D02*
D03*
Y489000D02*
D03*
X418000Y439000D02*
D03*
D34*
X576563Y458005D02*
D03*
D35*
X560972D02*
D03*
D37*
X649000Y468000D02*
D03*
X648842Y283500D02*
D03*
D38*
X639157Y468000D02*
D03*
X629315D02*
D03*
X619472D02*
D03*
X609630D02*
D03*
X599787D02*
D03*
X599630Y283500D02*
D03*
X609472D02*
D03*
X619315Y283500D02*
D03*
X629157D02*
D03*
X639000Y283500D02*
D03*
D39*
X469500Y285000D02*
D03*
Y295000D02*
D03*
X459500D02*
D03*
D40*
Y285000D02*
D03*
D41*
X526000Y277087D02*
D03*
Y287913D02*
D03*
X491000Y277087D02*
D03*
Y287913D02*
D03*
D42*
X426000Y297000D02*
D03*
X603500Y451500D02*
D03*
X620500Y382000D02*
D03*
X582500Y324000D02*
D03*
X588500D02*
D03*
X594500D02*
D03*
X581000Y394500D02*
D03*
X620500Y388000D02*
D03*
X581000Y381000D02*
D03*
Y388000D02*
D03*
X568500Y369000D02*
D03*
X559000D02*
D03*
X549000D02*
D03*
X539500D02*
D03*
X484000Y471000D02*
D03*
X609000Y451500D02*
D03*
Y459000D02*
D03*
X507500Y315802D02*
D03*
X558500Y441500D02*
D03*
X542500Y286000D02*
D03*
X547500Y299000D02*
D03*
Y305000D02*
D03*
X536000Y453000D02*
D03*
X459500Y317000D02*
D03*
Y311000D02*
D03*
Y305500D02*
D03*
X507500Y308500D02*
D03*
X547500Y310500D02*
D03*
D43*
X567705Y328811D02*
D03*
X526366Y293378D02*
D03*
X496839Y305189D02*
D03*
X490933Y293378D02*
D03*
X473216Y305189D02*
D03*
X479122Y293378D02*
D03*
X455500Y317000D02*
D03*
X419291Y366142D02*
D03*
X655512Y460630D02*
D03*
X649606Y425197D02*
D03*
Y401575D02*
D03*
Y377953D02*
D03*
Y354331D02*
D03*
Y330709D02*
D03*
Y307086D02*
D03*
X643701Y437008D02*
D03*
X637795Y425197D02*
D03*
X643701Y413386D02*
D03*
Y389764D02*
D03*
Y318898D02*
D03*
X625984Y472441D02*
D03*
Y377953D02*
D03*
X631890Y366142D02*
D03*
Y342520D02*
D03*
Y295275D02*
D03*
X614173Y472441D02*
D03*
Y401575D02*
D03*
X620079Y366142D02*
D03*
X614173Y330709D02*
D03*
X620079Y318898D02*
D03*
Y295275D02*
D03*
X602362Y330709D02*
D03*
X608267Y318898D02*
D03*
X602362Y307086D02*
D03*
X590551Y472441D02*
D03*
X578740D02*
D03*
X584646Y389764D02*
D03*
X578740Y354331D02*
D03*
X566929Y472441D02*
D03*
X572834Y437008D02*
D03*
Y318898D02*
D03*
X566929Y283465D02*
D03*
X555118Y472441D02*
D03*
X561023Y437008D02*
D03*
X555118Y401575D02*
D03*
X561023Y389764D02*
D03*
X543307Y472441D02*
D03*
X531496D02*
D03*
X519685D02*
D03*
X525590Y460630D02*
D03*
X507874Y472441D02*
D03*
X496063D02*
D03*
X472441D02*
D03*
X478346Y460630D02*
D03*
Y389764D02*
D03*
X460630Y472441D02*
D03*
X466535Y460630D02*
D03*
Y318898D02*
D03*
X448819Y472441D02*
D03*
X454724Y460630D02*
D03*
Y366142D02*
D03*
X442913Y460630D02*
D03*
X431102D02*
D03*
X425197Y448819D02*
D03*
X413386D02*
D03*
X419291Y295275D02*
D03*
X407480Y437008D02*
D03*
X401575Y425197D02*
D03*
X407480Y413386D02*
D03*
Y318898D02*
D03*
X395669Y413386D02*
D03*
Y342520D02*
D03*
X389764Y330709D02*
D03*
X395669Y318898D02*
D03*
X383858Y389764D02*
D03*
X377953Y377953D02*
D03*
X383858Y366142D02*
D03*
Y342520D02*
D03*
D44*
X583500Y403000D02*
D03*
X583878Y406188D02*
D03*
X590000Y409522D02*
D03*
X600500Y409000D02*
D03*
X595500D02*
D03*
X618500Y341000D02*
D03*
X587500Y331500D02*
D03*
X608500Y346000D02*
D03*
X601000Y354500D02*
D03*
X595500Y414000D02*
D03*
X590000Y418000D02*
D03*
Y414000D02*
D03*
X600500D02*
D03*
X595500Y418000D02*
D03*
X613000Y367500D02*
D03*
X600500Y418000D02*
D03*
X571772Y298148D02*
D03*
X531216Y336579D02*
D03*
X531000Y347500D02*
D03*
X527936Y346936D02*
D03*
X498500Y360631D02*
D03*
X496500Y358022D02*
D03*
X476586Y414084D02*
D03*
X474394Y412106D02*
D03*
X466801Y411676D02*
D03*
X577786Y367214D02*
D03*
X425500Y400500D02*
D03*
X469364Y363636D02*
D03*
X465346Y358980D02*
D03*
X463500Y370612D02*
D03*
X471500Y359000D02*
D03*
X498000Y377741D02*
D03*
X481648Y369228D02*
D03*
X540500Y428000D02*
D03*
X510500Y425500D02*
D03*
X507000D02*
D03*
X504000Y425000D02*
D03*
X514500Y425500D02*
D03*
X515000Y348500D02*
D03*
X608926Y303574D02*
D03*
X579000Y309000D02*
D03*
X572626Y346374D02*
D03*
X553803Y346803D02*
D03*
X558000Y351500D02*
D03*
X542601Y355399D02*
D03*
X539285Y333629D02*
D03*
X548500Y334500D02*
D03*
X510000Y411000D02*
D03*
X513262Y405945D02*
D03*
X510000Y408000D02*
D03*
X510500Y414000D02*
D03*
X518907Y416864D02*
D03*
X521252Y419000D02*
D03*
X500500Y425000D02*
D03*
X532647Y427646D02*
D03*
X535000Y421000D02*
D03*
X542000Y395000D02*
D03*
X537140Y347852D02*
D03*
X518500Y327816D02*
D03*
X452000Y426500D02*
D03*
X454043Y328000D02*
D03*
X442500Y326228D02*
D03*
X491500Y327000D02*
D03*
X492772Y324148D02*
D03*
X490500Y282500D02*
D03*
X583539Y439461D02*
D03*
X530500Y363500D02*
D03*
X530644Y355144D02*
D03*
X529945Y352275D02*
D03*
X546025Y350572D02*
D03*
X570127Y342187D02*
D03*
X563418Y337734D02*
D03*
X570000Y320500D02*
D03*
X512394Y362394D02*
D03*
X509772Y364913D02*
D03*
X539883Y327155D02*
D03*
X525074Y410741D02*
D03*
X523500Y416500D02*
D03*
X521500Y413592D02*
D03*
X515500Y393000D02*
D03*
X507000D02*
D03*
X449902Y348718D02*
D03*
X538224Y408000D02*
D03*
X540272Y402000D02*
D03*
Y405757D02*
D03*
X556500Y431816D02*
D03*
X530272Y387228D02*
D03*
X501500Y290000D02*
D03*
X520000Y339316D02*
D03*
X438551Y461795D02*
D03*
X462209Y462025D02*
D03*
X511579Y451692D02*
D03*
X509500Y403816D02*
D03*
X452618Y414109D02*
D03*
X401500Y421316D02*
D03*
X407610Y393277D02*
D03*
X400000Y378000D02*
D03*
X391500D02*
D03*
X395157Y346973D02*
D03*
X503000Y328816D02*
D03*
X487633Y359857D02*
D03*
X449712Y390212D02*
D03*
X442046Y385239D02*
D03*
X441000Y388000D02*
D03*
X444244Y383228D02*
D03*
X487500Y392316D02*
D03*
X575521Y429328D02*
D03*
X420500Y411316D02*
D03*
X396500Y387000D02*
D03*
X544496Y345996D02*
D03*
X555500Y334500D02*
D03*
X530272Y382816D02*
D03*
X527113Y363703D02*
D03*
X472439Y328816D02*
D03*
X449500Y340500D02*
D03*
X426500Y350816D02*
D03*
X442365Y379451D02*
D03*
X431000Y396316D02*
D03*
X430361Y400573D02*
D03*
X492000Y404816D02*
D03*
X449000Y424000D02*
D03*
X500500Y438000D02*
D03*
X551000Y350000D02*
D03*
X520472Y453472D02*
D03*
X504000Y452000D02*
D03*
X494900Y454500D02*
D03*
X475341Y324228D02*
D03*
X498000Y393000D02*
D03*
X538000Y389500D02*
D03*
X465439Y322579D02*
D03*
X398500Y401500D02*
D03*
X421000Y408000D02*
D03*
X434500Y421500D02*
D03*
X393500Y367500D02*
D03*
X409000Y372132D02*
D03*
X403500Y357000D02*
D03*
X388351Y399032D02*
D03*
X426000Y396500D02*
D03*
X451285Y406219D02*
D03*
X454500Y409429D02*
D03*
X457500Y408500D02*
D03*
X458957Y412705D02*
D03*
X431892Y361615D02*
D03*
X426500Y344000D02*
D03*
X466874Y438339D02*
D03*
X463500Y445000D02*
D03*
X461488Y326331D02*
D03*
X515091Y377480D02*
D03*
X495000Y424000D02*
D03*
X490500D02*
D03*
X475035Y427236D02*
D03*
X426177Y367824D02*
D03*
X423772Y386000D02*
D03*
Y382500D02*
D03*
X424272Y389500D02*
D03*
X423000Y393500D02*
D03*
X453500Y436500D02*
D03*
X457564Y436566D02*
D03*
X460500Y447000D02*
D03*
X486846Y444710D02*
D03*
X468000Y446000D02*
D03*
X506728Y327000D02*
D03*
X509000Y323000D02*
D03*
X471500Y446000D02*
D03*
X474640Y436685D02*
D03*
X475500Y446000D02*
D03*
X477512Y435997D02*
D03*
X449500Y328500D02*
D03*
X490000Y439500D02*
D03*
X497500Y441500D02*
D03*
X493000Y442000D02*
D03*
X527000Y379500D02*
D03*
X463500Y412000D02*
D03*
X461412Y409912D02*
D03*
X457500Y341000D02*
D03*
X507500Y345000D02*
D03*
X507000Y340000D02*
D03*
X507081Y377361D02*
D03*
X473500Y387000D02*
D03*
X500019Y363532D02*
D03*
X502000Y366000D02*
D03*
X503500Y369000D02*
D03*
X459000Y392500D02*
D03*
X456000Y391500D02*
D03*
X453000Y391000D02*
D03*
X465500Y345000D02*
D03*
X462000Y360500D02*
D03*
X468500Y386500D02*
D03*
X484500Y326500D02*
D03*
X491000Y342000D02*
D03*
X494000Y348500D02*
D03*
D49*
X632909Y443378D02*
D03*
Y312197D02*
D03*
X638500Y410150D02*
D03*
Y399362D02*
D03*
Y388575D02*
D03*
Y377787D02*
D03*
Y367000D02*
D03*
Y356213D02*
D03*
Y345425D02*
D03*
X627319Y415543D02*
D03*
Y404756D02*
D03*
Y393969D02*
D03*
Y383181D02*
D03*
Y372394D02*
D03*
Y361606D02*
D03*
Y350819D02*
D03*
Y340032D02*
D03*
M02*
