G04*
G04 #@! TF.GenerationSoftware,Altium Limited,Altium Designer,25.1.2 (22)*
G04*
G04 Layer_Color=32768*
%FSLAX25Y25*%
%MOIN*%
G70*
G04*
G04 #@! TF.SameCoordinates,DC4E0951-A455-47C2-8868-B8DD7EE8088A*
G04*
G04*
G04 #@! TF.FilePolarity,Positive*
G04*
G01*
G75*
%ADD13C,0.00787*%
%ADD78C,0.00394*%
%ADD80C,0.00300*%
%ADD81C,0.00100*%
%ADD83C,0.00000*%
D13*
X545925Y285850D02*
X549075D01*
X545925D02*
Y292150D01*
X549075D01*
Y285850D02*
Y292150D01*
X499925Y294850D02*
X503075D01*
X499925D02*
Y301150D01*
X503075D01*
Y294850D02*
Y301150D01*
X501059Y455791D02*
Y467209D01*
X495941Y455791D02*
X501059D01*
X495941D02*
Y467209D01*
X501059D01*
X600241Y290686D02*
Y302104D01*
X595122Y290686D02*
X600241D01*
X595122D02*
Y302104D01*
X600241D01*
X588000Y454250D02*
X601000D01*
X601000Y460750D02*
X601000Y454250D01*
X588000Y460750D02*
X601000D01*
X588000Y454250D02*
Y460750D01*
X606216Y405988D02*
X620783D01*
Y417012D01*
X606216D02*
X620783D01*
X606216Y405988D02*
Y417012D01*
X606332Y392752D02*
X620899D01*
X620899Y403776D01*
X606332D02*
X620899D01*
X606332Y392752D02*
Y403776D01*
X587969D02*
X602536D01*
X587969Y392752D02*
Y403776D01*
Y392752D02*
X602536D01*
Y403776D01*
X583342Y366712D02*
X597908Y366712D01*
X583342Y355689D02*
Y366712D01*
Y355689D02*
X597908D01*
X597908Y366712D02*
X597908Y355689D01*
X583368Y379590D02*
X597935D01*
X583368Y368566D02*
Y379590D01*
Y368566D02*
X597935D01*
X597935Y379590D02*
X597935Y368566D01*
X588350Y386575D02*
X594650D01*
X588350D02*
X588350Y383425D01*
X594650Y383425D01*
X594650Y386575D01*
X607968Y339264D02*
X615055Y339264D01*
Y343201D01*
X607968Y343201D02*
X615055Y343201D01*
X607968Y339264D02*
Y343201D01*
X570650Y440425D02*
Y443575D01*
X564350Y440425D02*
X570650D01*
X564350D02*
Y443575D01*
X570650D01*
X574508Y368904D02*
X574508Y362015D01*
X570768Y368904D02*
X574508D01*
X570768D02*
X570768Y362015D01*
X574508D01*
X557967Y381173D02*
Y384323D01*
X551667Y381173D02*
X557967D01*
X551667D02*
Y384323D01*
X557967D01*
X551031Y389087D02*
Y408772D01*
X566700D01*
Y389087D02*
Y408772D01*
X551031Y389087D02*
X566700D01*
X601000Y313250D02*
Y319750D01*
X614000D01*
Y313250D02*
Y319750D01*
X601000Y313250D02*
X614000D01*
X579384Y275685D02*
Y279622D01*
X586471D01*
Y275685D02*
Y279622D01*
X579384Y275685D02*
X586471D01*
X553653Y326055D02*
X553653Y329205D01*
X547354Y326055D02*
X553653D01*
X547354D02*
Y329205D01*
X553653Y329205D01*
X553122Y354299D02*
X565524D01*
X553122D02*
Y366701D01*
X565524D01*
Y354299D02*
Y366701D01*
X564114Y344933D02*
Y348673D01*
X557224Y344933D02*
X564114D01*
X557224D02*
Y348673D01*
X564114D01*
X570756Y357076D02*
X574496D01*
Y350186D02*
Y357076D01*
X570756Y350186D02*
X574496D01*
X570756D02*
Y357076D01*
X388850Y352925D02*
X395150D01*
Y356075D01*
X388850D02*
X395150D01*
X388850Y352925D02*
Y356075D01*
X528575Y441350D02*
Y447650D01*
X525425D02*
X528575D01*
X525425Y441350D02*
Y447650D01*
Y441350D02*
X528575D01*
X538075Y441193D02*
Y447493D01*
X534925D02*
X538075D01*
X534925Y441193D02*
Y447493D01*
Y441193D02*
X538075D01*
X438350Y454575D02*
X444650D01*
X438350Y451425D02*
Y454575D01*
Y451425D02*
X444650D01*
Y454575D01*
X512787Y337896D02*
Y344195D01*
Y337896D02*
X515937D01*
Y344195D01*
X512787D02*
X515937D01*
X443596Y343014D02*
X449895D01*
Y346164D01*
X443596D02*
X449895D01*
X443596Y343014D02*
Y346164D01*
X497971Y406836D02*
X504271D01*
Y409986D01*
X497971D02*
X504271D01*
X497971Y406836D02*
Y409986D01*
X445915Y408805D02*
Y415104D01*
X442765D02*
X445915D01*
X442765Y408805D02*
Y415104D01*
Y408805D02*
X445915D01*
X496693Y335425D02*
X502993D01*
Y338575D01*
X496693D02*
X502993D01*
X496693Y335425D02*
Y338575D01*
D78*
X560106Y316862D02*
G03*
X560106Y316862I-1969J0D01*
G01*
X463945Y465130D02*
Y468870D01*
X457055Y465130D02*
Y468870D01*
X463945D01*
X457055Y465130D02*
X463945D01*
X580338Y400503D02*
Y407393D01*
X576598Y400503D02*
Y407393D01*
Y400503D02*
X580338D01*
X576598Y407393D02*
X580338D01*
X591445Y342763D02*
X598335D01*
X591445Y339023D02*
X598335Y339023D01*
Y342763D01*
X591445Y339023D02*
Y342763D01*
X591592Y329755D02*
X598482D01*
X591592Y333495D02*
X598482D01*
X591592D02*
X591592Y329755D01*
X598482D02*
Y333495D01*
X605770Y352379D02*
X612659Y352379D01*
X605770Y348639D02*
X612659D01*
X612659Y352379D02*
X612659Y348639D01*
X605770D02*
Y352379D01*
X591384Y348291D02*
X598274D01*
X591384Y352031D02*
X598274D01*
X591384D02*
X591384Y348291D01*
X598274D02*
Y352031D01*
X612421Y388799D02*
X612421Y376201D01*
X602579D02*
X602579Y388799D01*
X602579Y376201D02*
X612421D01*
X602579Y388799D02*
X612421D01*
X607056Y293064D02*
Y299954D01*
X610796Y293064D02*
Y299954D01*
X607056D02*
X610796D01*
X607056Y293064D02*
X610796D01*
X612055Y433398D02*
X618945D01*
X612055Y437138D02*
X618945D01*
X612055Y433398D02*
Y437138D01*
X618945Y433398D02*
Y437138D01*
X612055Y424130D02*
X618945Y424130D01*
X612055Y427870D02*
X618945Y427870D01*
X612055Y424130D02*
Y427870D01*
X618945Y424130D02*
Y427870D01*
X576594Y300716D02*
X588406D01*
X576594Y306228D02*
X588406Y306228D01*
Y300716D02*
Y306228D01*
X576594Y300716D02*
X576594Y306228D01*
X581913Y314413D02*
X588803Y314413D01*
X581913Y318154D02*
X588803D01*
X581913Y314413D02*
Y318154D01*
X588803Y314413D02*
Y318154D01*
X566405Y308594D02*
Y320406D01*
X554595Y308594D02*
Y320406D01*
Y308594D02*
X566405D01*
X554595Y320406D02*
X566405D01*
X398859Y414648D02*
X404174D01*
X398859Y406381D02*
X404174D01*
X398859D02*
Y414648D01*
X404174Y406381D02*
Y414648D01*
X389591Y405938D02*
X393331D01*
X389591Y412828D02*
X393331D01*
Y405938D02*
Y412828D01*
X389591Y405938D02*
Y412828D01*
X577407Y284658D02*
X581147D01*
X577407Y291547D02*
X581147D01*
Y284658D02*
Y291547D01*
X577407Y284658D02*
Y291547D01*
X553630Y285252D02*
X557370D01*
X553630Y291748D02*
X557370D01*
Y285252D02*
Y291748D01*
X553630Y285252D02*
Y291748D01*
X544937Y354710D02*
X548677D01*
X544937Y361206D02*
X548677Y361206D01*
Y354710D02*
Y361206D01*
X544937Y361206D02*
X544937Y354710D01*
X518898Y464445D02*
X522638D01*
X518898Y457555D02*
X522638D01*
X518898D02*
Y464445D01*
X522638Y457555D02*
Y464445D01*
X471697Y456185D02*
Y466815D01*
X485083Y456185D02*
Y466815D01*
X471697Y456185D02*
X485083D01*
X471697Y466815D02*
X485083D01*
X509630Y464445D02*
X513370D01*
X509630Y457555D02*
X513370D01*
X509630D02*
Y464445D01*
X513370Y457555D02*
Y464445D01*
X597457Y427969D02*
X604543D01*
X597457Y424031D02*
X604543D01*
Y427969D01*
X597457Y424031D02*
Y427969D01*
Y437468D02*
X604543D01*
X597457Y433532D02*
X604543D01*
Y437468D01*
X597457Y433532D02*
Y437468D01*
X454335Y450881D02*
X462603D01*
X454335Y456196D02*
X462603D01*
X454335Y450881D02*
Y456196D01*
X462603Y450881D02*
Y456196D01*
D80*
X551400Y414170D02*
X554024Y416794D01*
X551400D02*
X554024Y414170D01*
X551400Y415482D02*
X554024D01*
X552712Y416794D02*
Y414170D01*
X517480Y356500D02*
X514856Y359124D01*
Y356500D02*
X517480Y359124D01*
X516168Y356500D02*
Y359124D01*
X514856Y357812D02*
X517480D01*
D81*
X604150Y366900D02*
X610850D01*
X604150Y361800D02*
Y366900D01*
Y361800D02*
X610850D01*
Y366900D01*
X551150Y412150D02*
Y431850D01*
Y412150D02*
X566850D01*
Y431850D01*
X551150D02*
X566850D01*
Y413550D02*
X571200Y413550D01*
Y415450D01*
X566850D02*
X571200D01*
X566850Y413550D02*
Y415450D01*
Y418550D02*
X571200D01*
Y420450D01*
X566850Y420450D02*
X571200Y420450D01*
X566850Y418550D02*
Y420450D01*
Y423550D02*
X571200D01*
Y425450D01*
X566850D02*
X571200D01*
X566850Y423550D02*
Y425450D01*
Y428550D02*
X571200Y428550D01*
Y430450D01*
X566850Y430450D02*
X571200Y430450D01*
X566850Y428550D02*
Y430450D01*
X546800Y430450D02*
X551150Y430450D01*
X546800Y428550D02*
Y430450D01*
Y428550D02*
X551150Y428550D01*
Y430450D01*
X546800Y425450D02*
X551150D01*
X546800Y423550D02*
Y425450D01*
Y423550D02*
X551150D01*
Y425450D01*
X546800Y420450D02*
X551150Y420450D01*
X546800Y418550D02*
Y420450D01*
Y418550D02*
X551150D01*
Y420450D01*
X546800Y415450D02*
X551150D01*
X546800Y413550D02*
Y415450D01*
Y413550D02*
X551150Y413550D01*
Y415450D01*
X384000Y393950D02*
X408000D01*
X384000Y362050D02*
Y393950D01*
Y362050D02*
X408000D01*
Y393950D01*
X436500Y356250D02*
X519500D01*
Y396750D01*
X436500D02*
X519500D01*
X436500Y356250D02*
Y396750D01*
X516695D02*
Y400050D01*
X514895D02*
X516695D01*
X514895Y396750D02*
Y400050D01*
Y396750D02*
X516695D01*
X513546D02*
Y400050D01*
X511746D02*
X513546D01*
X511746Y396750D02*
Y400050D01*
Y396750D02*
X513546D01*
X510396D02*
Y400050D01*
X508596D02*
X510396D01*
X508596Y396750D02*
Y400050D01*
Y396750D02*
X510396D01*
X507246D02*
Y400050D01*
X505446D02*
X507246D01*
X505446Y396750D02*
X505446Y400050D01*
X505446Y396750D02*
X507246D01*
X504097D02*
Y400050D01*
X502297D02*
X504097D01*
X502297Y396750D02*
X502297Y400050D01*
X502297Y396750D02*
X504097D01*
X500947Y400050D02*
X500947Y396750D01*
X499147Y400050D02*
X500947D01*
X499147Y396750D02*
Y400050D01*
Y396750D02*
X500947D01*
X497798D02*
Y400050D01*
X495998D02*
X497798D01*
X495998Y396750D02*
Y400050D01*
Y396750D02*
X497798D01*
X494648D02*
Y400050D01*
X492848D02*
X494648D01*
X492848Y396750D02*
Y400050D01*
Y396750D02*
X494648D01*
X491498D02*
Y400050D01*
X489698D02*
X491498D01*
X489698Y396750D02*
Y400050D01*
Y396750D02*
X491498D01*
X488349D02*
Y400050D01*
X486549D02*
X488349D01*
X486549Y396750D02*
Y400050D01*
Y396750D02*
X488349D01*
X485199D02*
Y400050D01*
X483399Y400050D02*
X485199Y400050D01*
X483399Y396750D02*
Y400050D01*
Y396750D02*
X485199D01*
X482050Y400050D02*
X482050Y396750D01*
X480250Y400050D02*
X482050D01*
X480250Y396750D02*
Y400050D01*
Y396750D02*
X482050D01*
X478900D02*
Y400050D01*
X477100D02*
X478900D01*
X477100Y396750D02*
Y400050D01*
Y396750D02*
X478900D01*
X475750D02*
Y400050D01*
X473950D02*
X475750D01*
X473950Y396750D02*
Y400050D01*
Y396750D02*
X475750D01*
X472601D02*
Y400050D01*
X470801D02*
X472601D01*
X470801Y396750D02*
Y400050D01*
Y396750D02*
X472601D01*
X469451D02*
X469451Y400050D01*
X467651D02*
X469451D01*
X467651D02*
X467651Y396750D01*
X469451D01*
X466302D02*
X466302Y400050D01*
X464502D02*
X466302D01*
X464502D02*
X464502Y396750D01*
X466302D01*
X463152D02*
Y400050D01*
X461352D02*
X463152D01*
X461352Y396750D02*
Y400050D01*
Y396750D02*
X463152D01*
X460002D02*
Y400050D01*
X458202D02*
X460002D01*
X458202Y396750D02*
Y400050D01*
Y396750D02*
X460002D01*
X456853D02*
Y400050D01*
X455053D02*
X456853D01*
X455053Y396750D02*
Y400050D01*
Y396750D02*
X456853D01*
X453703D02*
Y400050D01*
X451903D02*
X453703D01*
X451903Y396750D02*
X451903Y400050D01*
X451903Y396750D02*
X453703D01*
X450554D02*
Y400050D01*
X448753Y400050D02*
X450554Y400050D01*
X448753Y396750D02*
Y400050D01*
Y396750D02*
X450554D01*
X447404D02*
Y400050D01*
X445604D02*
X447404D01*
X445604Y396750D02*
Y400050D01*
Y396750D02*
X447404D01*
X444254D02*
Y400050D01*
X442454D02*
X444254D01*
X442454Y396750D02*
Y400050D01*
Y396750D02*
X444254D01*
X441105D02*
Y400050D01*
X439305D02*
X441105D01*
X439305Y396750D02*
Y400050D01*
Y396750D02*
X441105D01*
X439305Y352950D02*
Y356250D01*
Y352950D02*
X441105D01*
Y356250D01*
X439305D02*
X441105D01*
X442454Y352950D02*
Y356250D01*
Y352950D02*
X444254D01*
Y356250D01*
X442454D02*
X444254D01*
X445604Y352950D02*
Y356250D01*
Y352950D02*
X447404D01*
Y356250D01*
X445604D02*
X447404D01*
X448753Y352950D02*
Y356250D01*
Y352950D02*
X450554D01*
X450554Y356250D01*
X448753D02*
X450554D01*
X451903Y352950D02*
Y356250D01*
Y352950D02*
X453703D01*
X453703Y356250D01*
X451903D02*
X453703D01*
X455053D02*
X455053Y352950D01*
X456853D01*
Y356250D01*
X455053D02*
X456853D01*
X458202Y352950D02*
Y356250D01*
Y352950D02*
X460002D01*
Y356250D01*
X458202D02*
X460002D01*
X461352Y352950D02*
Y356250D01*
Y352950D02*
X463152D01*
Y356250D01*
X461352D02*
X463152D01*
X464502Y352950D02*
Y356250D01*
Y352950D02*
X466302D01*
Y356250D01*
X464502D02*
X466302D01*
X467651Y352950D02*
Y356250D01*
Y352950D02*
X469451D01*
Y356250D01*
X467651D02*
X469451D01*
X470801Y352950D02*
Y356250D01*
Y352950D02*
X472601Y352950D01*
Y356250D01*
X470801D02*
X472601D01*
X473950D02*
X473950Y352950D01*
X475750D01*
Y356250D01*
X473950D02*
X475750D01*
X477100Y352950D02*
Y356250D01*
Y352950D02*
X478900D01*
Y356250D01*
X477100D02*
X478900D01*
X480250Y352950D02*
Y356250D01*
Y352950D02*
X482050D01*
Y356250D01*
X480250D02*
X482050D01*
X483399Y352950D02*
Y356250D01*
Y352950D02*
X485199D01*
Y356250D01*
X483399D02*
X485199D01*
X486549Y352950D02*
X486549Y356250D01*
X486549Y352950D02*
X488349D01*
X488349Y356250D02*
X488349Y352950D01*
X486549Y356250D02*
X488349D01*
X489698Y352950D02*
X489698Y356250D01*
X489698Y352950D02*
X491498D01*
X491498Y356250D02*
X491498Y352950D01*
X489698Y356250D02*
X491498D01*
X492848Y352950D02*
Y356250D01*
Y352950D02*
X494648D01*
Y356250D01*
X492848D02*
X494648D01*
X495998Y352950D02*
Y356250D01*
Y352950D02*
X497798D01*
Y356250D01*
X495998D02*
X497798D01*
X499147Y352950D02*
Y356250D01*
Y352950D02*
X500947D01*
Y356250D01*
X499147D02*
X500947D01*
X502297Y352950D02*
Y356250D01*
Y352950D02*
X504097D01*
X504097Y356250D01*
X502297D02*
X504097D01*
X505446Y352950D02*
Y356250D01*
Y352950D02*
X507246Y352950D01*
Y356250D01*
X505446D02*
X507246D01*
X508596Y352950D02*
Y356250D01*
Y352950D02*
X510396D01*
Y356250D01*
X508596D02*
X510396D01*
X511746Y352950D02*
Y356250D01*
Y352950D02*
X513546D01*
Y356250D01*
X511746D02*
X513546D01*
X514895Y352950D02*
Y356250D01*
Y352950D02*
X516695D01*
Y356250D01*
X514895D02*
X516695D01*
D83*
X604150Y363150D02*
G03*
X604150Y365550I0J1200D01*
G01*
X605831Y366100D02*
G03*
X605831Y366100I-300J0D01*
G01*
X560200Y412150D02*
G03*
X557800Y412150I-1200J0D01*
G01*
X384000Y376800D02*
G03*
X384000Y379200I0J1200D01*
G01*
X388800Y391750D02*
G03*
X388800Y391750I-300J0D01*
G01*
X519500Y377700D02*
G03*
X519500Y375300I0J-1200D01*
G01*
M02*
