G04*
G04 #@! TF.GenerationSoftware,Altium Limited,Altium Designer,25.1.2 (22)*
G04*
G04 Layer_Color=128*
%FSLAX25Y25*%
%MOIN*%
G70*
G04*
G04 #@! TF.SameCoordinates,E7EE586C-05D5-46D5-8D4D-84EA4DFC6535*
G04*
G04*
G04 #@! TF.FilePolarity,Positive*
G04*
G01*
G75*
%ADD82C,0.00500*%
D82*
X590798Y310910D02*
X603398D01*
X597098Y304609D02*
Y317210D01*
X590798Y442091D02*
X603398D01*
X597098Y435790D02*
Y448390D01*
X600839Y408862D02*
X604539D01*
X602689Y407012D02*
Y410712D01*
X600839Y398075D02*
X604539D01*
X602689Y396225D02*
Y399925D01*
X600839Y387287D02*
X604539D01*
X602689Y385437D02*
Y389137D01*
X600839Y376500D02*
X604539D01*
X602689Y374650D02*
Y378350D01*
X600839Y365713D02*
X604539D01*
X602689Y363863D02*
Y367563D01*
X600839Y354925D02*
X604539D01*
X602689Y353075D02*
Y356775D01*
X600839Y344138D02*
X604539D01*
X602689Y342288D02*
Y345988D01*
X589658Y414256D02*
X593358D01*
X591508Y412406D02*
Y416106D01*
X589658Y403469D02*
X593358D01*
X591508Y401618D02*
Y405318D01*
X589658Y392681D02*
X593358D01*
X591508Y390831D02*
Y394531D01*
X589658Y381894D02*
X593358D01*
X591508Y380044D02*
Y383744D01*
X589658Y371106D02*
X593358D01*
X591508Y369256D02*
Y372956D01*
X589658Y360319D02*
X593358D01*
X591508Y358469D02*
Y362169D01*
X589658Y349532D02*
X593358D01*
X591508Y347681D02*
Y351381D01*
X589658Y338744D02*
X593358D01*
X591508Y336894D02*
Y340594D01*
X437764Y461795D02*
X439339D01*
X438551Y461007D02*
Y462582D01*
X461421Y462025D02*
X462996D01*
X462209Y461237D02*
Y462812D01*
X510792Y451692D02*
X512367D01*
X511579Y450904D02*
Y452479D01*
X508713Y403816D02*
X510287D01*
X509500Y403028D02*
Y404603D01*
X451831Y414109D02*
X453406D01*
X452618Y413321D02*
Y414896D01*
X400713Y421316D02*
X402287D01*
X401500Y420528D02*
Y422103D01*
X406822Y393277D02*
X408397D01*
X407610Y392489D02*
Y394064D01*
X399213Y378000D02*
X400787D01*
X400000Y377213D02*
Y378787D01*
X390713Y378000D02*
X392287D01*
X391500Y377213D02*
Y378787D01*
X394370Y346973D02*
X395944D01*
X395157Y346185D02*
Y347760D01*
X449115Y348718D02*
X450690D01*
X449902Y347931D02*
Y349505D01*
X502213Y328816D02*
X503787D01*
X503000Y328028D02*
Y329603D01*
X519213Y339316D02*
X520787D01*
X520000Y338528D02*
Y340103D01*
X486845Y359857D02*
X488420D01*
X487633Y359070D02*
Y360645D01*
X448925Y390212D02*
X450499D01*
X449712Y389425D02*
Y390999D01*
X441259Y385239D02*
X442834D01*
X442046Y384451D02*
Y386026D01*
X440213Y388000D02*
X441787D01*
X441000Y387213D02*
Y388787D01*
X443457Y383228D02*
X445031D01*
X444244Y382441D02*
Y384016D01*
X486713Y392316D02*
X488287D01*
X487500Y391528D02*
Y393103D01*
X548268Y327871D02*
X549843D01*
X549055Y327083D02*
Y328658D01*
X569654Y311027D02*
X571229D01*
X570441Y310239D02*
Y311814D01*
X615763Y323254D02*
X617337D01*
X616550Y322467D02*
Y324042D01*
X637713Y337500D02*
X639287D01*
X638500Y336713D02*
Y338287D01*
X648480Y332548D02*
X650055D01*
X649268Y331761D02*
Y333335D01*
X578713Y373316D02*
X580287D01*
X579500Y372528D02*
Y374103D01*
X554213Y397316D02*
X555787D01*
X555000Y396528D02*
Y398103D01*
X574733Y429328D02*
X576308D01*
X575521Y428541D02*
Y430116D01*
X557516Y441500D02*
X559484D01*
X558500Y440516D02*
Y442484D01*
X535016Y453000D02*
X536984D01*
X536000Y452016D02*
Y453984D01*
X419713Y411316D02*
X421287D01*
X420500Y410528D02*
Y412103D01*
X395713Y387000D02*
X397287D01*
X396500Y386213D02*
Y387787D01*
X458516Y317000D02*
X460484D01*
X459500Y316016D02*
Y317984D01*
X458516Y311000D02*
X460484D01*
X459500Y310016D02*
Y311984D01*
X458516Y305500D02*
X460484D01*
X459500Y304516D02*
Y306484D01*
X422241Y306345D02*
X423816D01*
X423029Y305557D02*
Y307132D01*
X506516Y308500D02*
X508484D01*
X507500Y307516D02*
Y309484D01*
X506516Y316500D02*
X508484D01*
X507500Y315516D02*
Y317484D01*
X546516Y299000D02*
X548484D01*
X547500Y298016D02*
Y299984D01*
X546516Y305000D02*
X548484D01*
X547500Y304016D02*
Y305984D01*
X546516Y310500D02*
X548484D01*
X547500Y309516D02*
Y311484D01*
X543709Y345996D02*
X545284D01*
X544496Y345209D02*
Y346784D01*
X562631Y337734D02*
X564206D01*
X563418Y336947D02*
Y338522D01*
X554713Y334500D02*
X556287D01*
X555500Y333713D02*
Y335287D01*
X536352Y347852D02*
X537927D01*
X537140Y347065D02*
Y348639D01*
X567516Y369000D02*
X569484D01*
X568500Y368016D02*
Y369984D01*
X558182Y369000D02*
X560151D01*
X559167Y368016D02*
Y369984D01*
X548349Y369000D02*
X550318D01*
X549333Y368016D02*
Y369984D01*
X538516Y369000D02*
X540484D01*
X539500Y368016D02*
Y369984D01*
X555713Y431816D02*
X557287D01*
X556500Y431028D02*
Y432603D01*
X538677Y405757D02*
X540252D01*
X539464Y404969D02*
Y406544D01*
X529484Y387500D02*
X531059D01*
X530272Y386713D02*
Y388287D01*
X529484Y382816D02*
X531059D01*
X530272Y382028D02*
Y383603D01*
X524082Y410947D02*
X525656D01*
X524869Y410159D02*
Y411734D01*
X526326Y363703D02*
X527900D01*
X527113Y362915D02*
Y364490D01*
X517713Y327816D02*
X519287D01*
X518500Y327028D02*
Y328603D01*
X489202Y327809D02*
X490776D01*
X489989Y327022D02*
Y328597D01*
X471651Y328816D02*
X473226D01*
X472439Y328028D02*
Y329603D01*
X448713Y340500D02*
X450287D01*
X449500Y339713D02*
Y341287D01*
X425713Y350816D02*
X427287D01*
X426500Y350028D02*
Y351603D01*
X441577Y379451D02*
X443152D01*
X442365Y378663D02*
Y380238D01*
X430213Y396316D02*
X431787D01*
X431000Y395528D02*
Y397103D01*
X429574Y400573D02*
X431148D01*
X430361Y399786D02*
Y401361D01*
X491213Y404816D02*
X492787D01*
X492000Y404028D02*
Y405603D01*
X448213Y424000D02*
X449787D01*
X449000Y423213D02*
Y424787D01*
X499713Y438000D02*
X501287D01*
X500500Y437213D02*
Y438787D01*
X512713Y425500D02*
X514287D01*
X513500Y424713D02*
Y426287D01*
X629713Y400500D02*
X631287D01*
X630500Y399713D02*
Y401287D01*
X624713Y400500D02*
X626287D01*
X625500Y399713D02*
Y401287D01*
X619213Y400500D02*
X620787D01*
X620000Y399713D02*
Y401287D01*
X629713Y405500D02*
X631287D01*
X630500Y404713D02*
Y406287D01*
X624713Y405500D02*
X626287D01*
X625500Y404713D02*
Y406287D01*
X619213Y405500D02*
X620787D01*
X620000Y404713D02*
Y406287D01*
X629713Y409500D02*
X631287D01*
X630500Y408713D02*
Y410287D01*
X624713Y409500D02*
X626287D01*
X625500Y408713D02*
Y410287D01*
X619213Y409500D02*
X620787D01*
X620000Y408713D02*
Y410287D01*
X577713Y432000D02*
X579287D01*
X578500Y431213D02*
Y432787D01*
X557213Y351500D02*
X558787D01*
X558000Y350713D02*
Y352287D01*
X550213Y350000D02*
X551787D01*
X551000Y349213D02*
Y350787D01*
X519685Y453472D02*
X521259D01*
X520472Y452685D02*
Y454259D01*
X518213Y418000D02*
X519787D01*
X519000Y417213D02*
Y418787D01*
X509713Y414000D02*
X511287D01*
X510500Y413213D02*
Y414787D01*
X503213Y452000D02*
X504787D01*
X504000Y451213D02*
Y452787D01*
X494113Y454500D02*
X495687D01*
X494900Y453713D02*
Y455287D01*
X625516Y314500D02*
X627484D01*
X626500Y313516D02*
Y315484D01*
X621016Y314500D02*
X622984D01*
X622000Y313516D02*
Y315484D01*
X615016Y314500D02*
X616984D01*
X616000Y313516D02*
Y315484D01*
X609516Y314500D02*
X611484D01*
X610500Y313516D02*
Y315484D01*
X615016Y319500D02*
X616984D01*
X616000Y318516D02*
Y320484D01*
X609516Y319500D02*
X611484D01*
X610500Y318516D02*
Y320484D01*
X520713Y413592D02*
X522287D01*
X521500Y412804D02*
Y414379D01*
X534213Y421000D02*
X535787D01*
X535000Y420213D02*
Y421787D01*
X474553Y324228D02*
X476128D01*
X475341Y323441D02*
Y325016D01*
X479169Y326500D02*
X480744D01*
X479957Y325713D02*
Y327287D01*
X562213Y397500D02*
X563787D01*
X563000Y396713D02*
Y398287D01*
X558887Y429555D02*
X560461D01*
X559674Y428767D02*
Y430342D01*
X562213Y407000D02*
X563787D01*
X563000Y406213D02*
Y407787D01*
X528941Y348636D02*
X530516D01*
X529728Y347849D02*
Y349424D01*
X528941Y353942D02*
X530516D01*
X529728Y353155D02*
Y354730D01*
X541213Y395000D02*
X542787D01*
X542000Y394213D02*
Y395787D01*
X538713Y402000D02*
X540287D01*
X539500Y401213D02*
Y402787D01*
X509683Y409488D02*
X511258D01*
X510470Y408700D02*
Y410275D01*
X497213Y393000D02*
X498787D01*
X498000Y392213D02*
Y393787D01*
X506213Y393000D02*
X507787D01*
X507000Y392213D02*
Y393787D01*
X514713Y393000D02*
X516287D01*
X515500Y392213D02*
Y393787D01*
X426435Y326020D02*
X428010D01*
X427223Y325233D02*
Y326808D01*
X526713Y346500D02*
X528287D01*
X527500Y345713D02*
Y347287D01*
X537213Y389500D02*
X538787D01*
X538000Y388713D02*
Y390287D01*
X464651Y322579D02*
X466226D01*
X465439Y321792D02*
Y323367D01*
X439435Y331020D02*
X441010D01*
X440223Y330233D02*
Y331808D01*
X397713Y401500D02*
X399287D01*
X398500Y400713D02*
Y402287D01*
X420213Y408000D02*
X421787D01*
X421000Y407213D02*
Y408787D01*
X433713Y421500D02*
X435287D01*
X434500Y420713D02*
Y422287D01*
X392713Y367500D02*
X394287D01*
X393500Y366713D02*
Y368287D01*
X408213Y372132D02*
X409787D01*
X409000Y371345D02*
Y372920D01*
X402713Y357000D02*
X404287D01*
X403500Y356213D02*
Y357787D01*
X387563Y399032D02*
X389138D01*
X388351Y398245D02*
Y399820D01*
X425213Y396500D02*
X426787D01*
X426000Y395713D02*
Y397287D01*
X450497Y406219D02*
X452072D01*
X451285Y405431D02*
Y407006D01*
X453713Y409429D02*
X455287D01*
X454500Y408641D02*
Y410216D01*
X456713Y408500D02*
X458287D01*
X457500Y407713D02*
Y409287D01*
X458169Y412705D02*
X459744D01*
X458957Y411917D02*
Y413492D01*
X431104Y361615D02*
X432679D01*
X431892Y360828D02*
Y362403D01*
X425713Y344000D02*
X427287D01*
X426500Y343213D02*
Y344787D01*
X466087Y438339D02*
X467662D01*
X466874Y437552D02*
Y439127D01*
X462713Y445000D02*
X464287D01*
X463500Y444213D02*
Y445787D01*
X460701Y326331D02*
X462276D01*
X461488Y325543D02*
Y327118D01*
X514304Y377480D02*
X515879D01*
X515091Y376692D02*
Y378267D01*
X499713Y425000D02*
X501287D01*
X500500Y424213D02*
Y425787D01*
X494213Y424000D02*
X495787D01*
X495000Y423213D02*
Y424787D01*
X489713Y424000D02*
X491287D01*
X490500Y423213D02*
Y424787D01*
X474248Y427236D02*
X475823D01*
X475035Y426449D02*
Y428024D01*
X425390Y367824D02*
X426965D01*
X426177Y367037D02*
Y368612D01*
X422984Y386000D02*
X424559D01*
X423772Y385213D02*
Y386787D01*
X422984Y382500D02*
X424559D01*
X423772Y381713D02*
Y383287D01*
X423484Y389500D02*
X425059D01*
X424272Y388713D02*
Y390287D01*
X422213Y393500D02*
X423787D01*
X423000Y392713D02*
Y394287D01*
X452713Y436500D02*
X454287D01*
X453500Y435713D02*
Y437287D01*
X456777Y436566D02*
X458352D01*
X457564Y435778D02*
Y437353D01*
X459713Y447000D02*
X461287D01*
X460500Y446213D02*
Y447787D01*
X486059Y444710D02*
X487634D01*
X486846Y443923D02*
Y445497D01*
X467213Y446000D02*
X468787D01*
X468000Y445213D02*
Y446787D01*
X505941Y327000D02*
X507516D01*
X506728Y326213D02*
Y327787D01*
X508213Y323000D02*
X509787D01*
X509000Y322213D02*
Y323787D01*
X470713Y446000D02*
X472287D01*
X471500Y445213D02*
Y446787D01*
X473853Y436685D02*
X475427D01*
X474640Y435898D02*
Y437472D01*
X474713Y446000D02*
X476287D01*
X475500Y445213D02*
Y446787D01*
X476724Y435997D02*
X478299D01*
X477512Y435210D02*
Y436785D01*
X452713Y328000D02*
X454287D01*
X453500Y327213D02*
Y328787D01*
X448713Y328500D02*
X450287D01*
X449500Y327713D02*
Y329287D01*
X473607Y412106D02*
X475182D01*
X474394Y411318D02*
Y412893D01*
X489213Y439500D02*
X490787D01*
X490000Y438713D02*
Y440287D01*
X496713Y441500D02*
X498287D01*
X497500Y440713D02*
Y442287D01*
X492213Y442000D02*
X493787D01*
X493000Y441213D02*
Y442787D01*
X470424Y362864D02*
X471998D01*
X471211Y362076D02*
Y363651D01*
X526213Y379500D02*
X527787D01*
X527000Y378713D02*
Y380287D01*
X507189Y425476D02*
X508763D01*
X507976Y424689D02*
Y426264D01*
X462713Y412000D02*
X464287D01*
X463500Y411213D02*
Y412787D01*
X465354Y413320D02*
X466928D01*
X466141Y412533D02*
Y414108D01*
X460625Y409912D02*
X462199D01*
X461412Y409125D02*
Y410700D01*
X504213Y425000D02*
X505787D01*
X505000Y424213D02*
Y425787D01*
X456713Y341000D02*
X458287D01*
X457500Y340213D02*
Y341787D01*
X497213Y378000D02*
X498787D01*
X498000Y377213D02*
Y378787D01*
X506713Y345000D02*
X508287D01*
X507500Y344213D02*
Y345787D01*
X506213Y340000D02*
X507787D01*
X507000Y339213D02*
Y340787D01*
X508984Y364913D02*
X510559D01*
X509772Y364125D02*
Y365700D01*
X511713Y362500D02*
X513287D01*
X512500Y361713D02*
Y363287D01*
X506293Y377361D02*
X507868D01*
X507081Y376573D02*
Y378148D01*
X472713Y387000D02*
X474287D01*
X473500Y386213D02*
Y387787D01*
X465213Y359000D02*
X466787D01*
X466000Y358213D02*
Y359787D01*
X497713Y361000D02*
X499287D01*
X498500Y360213D02*
Y361787D01*
X499232Y363532D02*
X500807D01*
X500019Y362745D02*
Y364319D01*
X495713Y358500D02*
X497287D01*
X496500Y357713D02*
Y359287D01*
X501213Y366000D02*
X502787D01*
X502000Y365213D02*
Y366787D01*
X502713Y369000D02*
X504287D01*
X503500Y368213D02*
Y369787D01*
X458213Y392500D02*
X459787D01*
X459000Y391713D02*
Y393287D01*
X455213Y391500D02*
X456787D01*
X456000Y390713D02*
Y392287D01*
X452213Y391000D02*
X453787D01*
X453000Y390213D02*
Y391787D01*
X464713Y345000D02*
X466287D01*
X465500Y344213D02*
Y345787D01*
X461213Y360500D02*
X462787D01*
X462000Y359713D02*
Y361287D01*
X467713Y386500D02*
X469287D01*
X468500Y385713D02*
Y387287D01*
X490213Y324500D02*
X491787D01*
X491000Y323713D02*
Y325287D01*
X483713Y326500D02*
X485287D01*
X484500Y325713D02*
Y327287D01*
X490213Y342000D02*
X491787D01*
X491000Y341213D02*
Y342787D01*
X493213Y348500D02*
X494787D01*
X494000Y347713D02*
Y349287D01*
M02*
