G04*
G04 #@! TF.GenerationSoftware,Altium Limited,Altium Designer,25.1.2 (22)*
G04*
G04 Layer_Color=2752767*
%FSLAX25Y25*%
%MOIN*%
G70*
G04*
G04 #@! TF.SameCoordinates,E7EE586C-05D5-46D5-8D4D-84EA4DFC6535*
G04*
G04*
G04 #@! TF.FilePolarity,Positive*
G04*
G01*
G75*
%ADD82C,0.00500*%
%ADD83C,0.00667*%
D82*
X597098Y308910D02*
X595098Y312910D01*
X599098D01*
X597098Y308910D01*
Y440091D02*
X595098Y444091D01*
X599098D01*
X597098Y440091D01*
X600689Y406862D02*
Y410862D01*
X604689D01*
Y406862D01*
X600689D01*
Y396075D02*
Y400075D01*
X604689D01*
Y396075D01*
X600689D01*
X600689Y385287D02*
Y389287D01*
X604689D01*
Y385287D01*
X600689D01*
X600689Y374500D02*
Y378500D01*
X604689D01*
Y374500D01*
X600689D01*
X600689Y363713D02*
Y367713D01*
X604689D01*
Y363713D01*
X600689D01*
X600689Y352925D02*
Y356925D01*
X604689D01*
Y352925D01*
X600689D01*
Y342138D02*
Y346138D01*
X604689D01*
Y342138D01*
X600689D01*
X589508Y412256D02*
Y416256D01*
X593508D01*
Y412256D01*
X589508D01*
Y401469D02*
Y405469D01*
X593508D01*
Y401469D01*
X589508D01*
Y390681D02*
Y394681D01*
X593508D01*
Y390681D01*
X589508D01*
Y379894D02*
Y383894D01*
X593508D01*
Y379894D01*
X589508D01*
Y369106D02*
Y373106D01*
X593508D01*
Y369106D01*
X589508D01*
Y358319D02*
Y362319D01*
X593508D01*
Y358319D01*
X589508D01*
Y347532D02*
Y351532D01*
X593508D01*
Y347532D01*
X589508D01*
Y336744D02*
Y340744D01*
X593508D01*
Y336744D01*
X589508D01*
X558500Y439500D02*
X559500Y440500D01*
X560500D01*
X559500Y441500D01*
X560500Y442500D01*
X559500D01*
X558500Y443500D01*
X557500Y442500D01*
X556500D01*
X557500Y441500D01*
X556500Y440500D01*
X557500D01*
X558500Y439500D01*
X536000Y451000D02*
X537000Y452000D01*
X538000D01*
X537000Y453000D01*
X538000Y454000D01*
X537000D01*
X536000Y455000D01*
X535000Y454000D01*
X534000D01*
X535000Y453000D01*
X534000Y452000D01*
X535000D01*
X536000Y451000D01*
X459500Y315000D02*
X460500Y316000D01*
X461500D01*
X460500Y317000D01*
X461500Y318000D01*
X460500D01*
X459500Y319000D01*
X458500Y318000D01*
X457500D01*
X458500Y317000D01*
X457500Y316000D01*
X458500D01*
X459500Y315000D01*
Y309000D02*
X460500Y310000D01*
X461500D01*
X460500Y311000D01*
X461500Y312000D01*
X460500D01*
X459500Y313000D01*
X458500Y312000D01*
X457500D01*
X458500Y311000D01*
X457500Y310000D01*
X458500D01*
X459500Y309000D01*
Y303500D02*
X460500Y304500D01*
X461500D01*
X460500Y305500D01*
X461500Y306500D01*
X460500D01*
X459500Y307500D01*
X458500Y306500D01*
X457500D01*
X458500Y305500D01*
X457500Y304500D01*
X458500D01*
X459500Y303500D01*
X507500Y306500D02*
X508500Y307500D01*
X509500D01*
X508500Y308500D01*
X509500Y309500D01*
X508500D01*
X507500Y310500D01*
X506500Y309500D01*
X505500D01*
X506500Y308500D01*
X505500Y307500D01*
X506500D01*
X507500Y306500D01*
Y314500D02*
X508500Y315500D01*
X509500D01*
X508500Y316500D01*
X509500Y317500D01*
X508500D01*
X507500Y318500D01*
X506500Y317500D01*
X505500D01*
X506500Y316500D01*
X505500Y315500D01*
X506500D01*
X507500Y314500D01*
X547500Y297000D02*
X548500Y298000D01*
X549500D01*
X548500Y299000D01*
X549500Y300000D01*
X548500D01*
X547500Y301000D01*
X546500Y300000D01*
X545500D01*
X546500Y299000D01*
X545500Y298000D01*
X546500D01*
X547500Y297000D01*
Y303000D02*
X548500Y304000D01*
X549500D01*
X548500Y305000D01*
X549500Y306000D01*
X548500D01*
X547500Y307000D01*
X546500Y306000D01*
X545500D01*
X546500Y305000D01*
X545500Y304000D01*
X546500D01*
X547500Y303000D01*
Y308500D02*
X548500Y309500D01*
X549500D01*
X548500Y310500D01*
X549500Y311500D01*
X548500D01*
X547500Y312500D01*
X546500Y311500D01*
X545500D01*
X546500Y310500D01*
X545500Y309500D01*
X546500D01*
X547500Y308500D01*
X568500Y367000D02*
X569500Y368000D01*
X570500D01*
X569500Y369000D01*
X570500Y370000D01*
X569500D01*
X568500Y371000D01*
X567500Y370000D01*
X566500D01*
X567500Y369000D01*
X566500Y368000D01*
X567500D01*
X568500Y367000D01*
X559167D02*
X560167Y368000D01*
X561167D01*
X560167Y369000D01*
X561167Y370000D01*
X560167D01*
X559167Y371000D01*
X558167Y370000D01*
X557167D01*
X558167Y369000D01*
X557167Y368000D01*
X558167D01*
X559167Y367000D01*
X549333D02*
X550333Y368000D01*
X551333D01*
X550333Y369000D01*
X551333Y370000D01*
X550333D01*
X549333Y371000D01*
X548333Y370000D01*
X547333D01*
X548333Y369000D01*
X547333Y368000D01*
X548333D01*
X549333Y367000D01*
X539500D02*
X540500Y368000D01*
X541500D01*
X540500Y369000D01*
X541500Y370000D01*
X540500D01*
X539500Y371000D01*
X538500Y370000D01*
X537500D01*
X538500Y369000D01*
X537500Y368000D01*
X538500D01*
X539500Y367000D01*
X626500Y312500D02*
X627500Y313500D01*
X628500D01*
X627500Y314500D01*
X628500Y315500D01*
X627500D01*
X626500Y316500D01*
X625500Y315500D01*
X624500D01*
X625500Y314500D01*
X624500Y313500D01*
X625500D01*
X626500Y312500D01*
X622000D02*
X623000Y313500D01*
X624000D01*
X623000Y314500D01*
X624000Y315500D01*
X623000D01*
X622000Y316500D01*
X621000Y315500D01*
X620000D01*
X621000Y314500D01*
X620000Y313500D01*
X621000D01*
X622000Y312500D01*
X616000D02*
X617000Y313500D01*
X618000D01*
X617000Y314500D01*
X618000Y315500D01*
X617000D01*
X616000Y316500D01*
X615000Y315500D01*
X614000D01*
X615000Y314500D01*
X614000Y313500D01*
X615000D01*
X616000Y312500D01*
X610500D02*
X611500Y313500D01*
X612500D01*
X611500Y314500D01*
X612500Y315500D01*
X611500D01*
X610500Y316500D01*
X609500Y315500D01*
X608500D01*
X609500Y314500D01*
X608500Y313500D01*
X609500D01*
X610500Y312500D01*
X616000Y317500D02*
X617000Y318500D01*
X618000D01*
X617000Y319500D01*
X618000Y320500D01*
X617000D01*
X616000Y321500D01*
X615000Y320500D01*
X614000D01*
X615000Y319500D01*
X614000Y318500D01*
X615000D01*
X616000Y317500D01*
X610500D02*
X611500Y318500D01*
X612500D01*
X611500Y319500D01*
X612500Y320500D01*
X611500D01*
X610500Y321500D01*
X609500Y320500D01*
X608500D01*
X609500Y319500D01*
X608500Y318500D01*
X609500D01*
X610500Y317500D01*
D83*
X440551Y461795D02*
G03*
X440551Y461795I-2000J0D01*
G01*
X464209Y462025D02*
G03*
X464209Y462025I-2000J0D01*
G01*
X513579Y451692D02*
G03*
X513579Y451692I-2000J0D01*
G01*
X511500Y403816D02*
G03*
X511500Y403816I-2000J0D01*
G01*
X454618Y414109D02*
G03*
X454618Y414109I-2000J0D01*
G01*
X403500Y421316D02*
G03*
X403500Y421316I-2000J0D01*
G01*
X409610Y393277D02*
G03*
X409610Y393277I-2000J0D01*
G01*
X402000Y378000D02*
G03*
X402000Y378000I-2000J0D01*
G01*
X393500D02*
G03*
X393500Y378000I-2000J0D01*
G01*
X397157Y346973D02*
G03*
X397157Y346973I-2000J0D01*
G01*
X451902Y348718D02*
G03*
X451902Y348718I-2000J0D01*
G01*
X505000Y328816D02*
G03*
X505000Y328816I-2000J0D01*
G01*
X522000Y339316D02*
G03*
X522000Y339316I-2000J0D01*
G01*
X489633Y359857D02*
G03*
X489633Y359857I-2000J0D01*
G01*
X451712Y390212D02*
G03*
X451712Y390212I-2000J0D01*
G01*
X444046Y385239D02*
G03*
X444046Y385239I-2000J0D01*
G01*
X443000Y388000D02*
G03*
X443000Y388000I-2000J0D01*
G01*
X446244Y383228D02*
G03*
X446244Y383228I-2000J0D01*
G01*
X489500Y392316D02*
G03*
X489500Y392316I-2000J0D01*
G01*
X551055Y327871D02*
G03*
X551055Y327871I-2000J0D01*
G01*
X572441Y311027D02*
G03*
X572441Y311027I-2000J0D01*
G01*
X618550Y323254D02*
G03*
X618550Y323254I-2000J0D01*
G01*
X640500Y337500D02*
G03*
X640500Y337500I-2000J0D01*
G01*
X651268Y332548D02*
G03*
X651268Y332548I-2000J0D01*
G01*
X581500Y373316D02*
G03*
X581500Y373316I-2000J0D01*
G01*
X557000Y397316D02*
G03*
X557000Y397316I-2000J0D01*
G01*
X577521Y429328D02*
G03*
X577521Y429328I-2000J0D01*
G01*
X422500Y411316D02*
G03*
X422500Y411316I-2000J0D01*
G01*
X398500Y387000D02*
G03*
X398500Y387000I-2000J0D01*
G01*
X425029Y306345D02*
G03*
X425029Y306345I-2000J0D01*
G01*
X546496Y345996D02*
G03*
X546496Y345996I-2000J0D01*
G01*
X565418Y337734D02*
G03*
X565418Y337734I-2000J0D01*
G01*
X557500Y334500D02*
G03*
X557500Y334500I-2000J0D01*
G01*
X539140Y347852D02*
G03*
X539140Y347852I-2000J0D01*
G01*
X558500Y431816D02*
G03*
X558500Y431816I-2000J0D01*
G01*
X541464Y405757D02*
G03*
X541464Y405757I-2000J0D01*
G01*
X532272Y387500D02*
G03*
X532272Y387500I-2000J0D01*
G01*
Y382816D02*
G03*
X532272Y382816I-2000J0D01*
G01*
X526869Y410947D02*
G03*
X526869Y410947I-2000J0D01*
G01*
X529113Y363703D02*
G03*
X529113Y363703I-2000J0D01*
G01*
X520500Y327816D02*
G03*
X520500Y327816I-2000J0D01*
G01*
X491989Y327809D02*
G03*
X491989Y327809I-2000J0D01*
G01*
X474439Y328816D02*
G03*
X474439Y328816I-2000J0D01*
G01*
X451500Y340500D02*
G03*
X451500Y340500I-2000J0D01*
G01*
X428500Y350816D02*
G03*
X428500Y350816I-2000J0D01*
G01*
X444365Y379451D02*
G03*
X444365Y379451I-2000J0D01*
G01*
X433000Y396316D02*
G03*
X433000Y396316I-2000J0D01*
G01*
X432361Y400573D02*
G03*
X432361Y400573I-2000J0D01*
G01*
X494000Y404816D02*
G03*
X494000Y404816I-2000J0D01*
G01*
X451000Y424000D02*
G03*
X451000Y424000I-2000J0D01*
G01*
X502500Y438000D02*
G03*
X502500Y438000I-2000J0D01*
G01*
X515500Y425500D02*
G03*
X515500Y425500I-2000J0D01*
G01*
X632500Y400500D02*
G03*
X632500Y400500I-2000J0D01*
G01*
X627500D02*
G03*
X627500Y400500I-2000J0D01*
G01*
X622000D02*
G03*
X622000Y400500I-2000J0D01*
G01*
X632500Y405500D02*
G03*
X632500Y405500I-2000J0D01*
G01*
X627500D02*
G03*
X627500Y405500I-2000J0D01*
G01*
X622000D02*
G03*
X622000Y405500I-2000J0D01*
G01*
X632500Y409500D02*
G03*
X632500Y409500I-2000J0D01*
G01*
X627500D02*
G03*
X627500Y409500I-2000J0D01*
G01*
X622000D02*
G03*
X622000Y409500I-2000J0D01*
G01*
X580500Y432000D02*
G03*
X580500Y432000I-2000J0D01*
G01*
X560000Y351500D02*
G03*
X560000Y351500I-2000J0D01*
G01*
X553000Y350000D02*
G03*
X553000Y350000I-2000J0D01*
G01*
X522472Y453472D02*
G03*
X522472Y453472I-2000J0D01*
G01*
X521000Y418000D02*
G03*
X521000Y418000I-2000J0D01*
G01*
X512500Y414000D02*
G03*
X512500Y414000I-2000J0D01*
G01*
X506000Y452000D02*
G03*
X506000Y452000I-2000J0D01*
G01*
X496900Y454500D02*
G03*
X496900Y454500I-2000J0D01*
G01*
X523500Y413592D02*
G03*
X523500Y413592I-2000J0D01*
G01*
X537000Y421000D02*
G03*
X537000Y421000I-2000J0D01*
G01*
X477341Y324228D02*
G03*
X477341Y324228I-2000J0D01*
G01*
X481957Y326500D02*
G03*
X481957Y326500I-2000J0D01*
G01*
X565000Y397500D02*
G03*
X565000Y397500I-2000J0D01*
G01*
X561674Y429555D02*
G03*
X561674Y429555I-2000J0D01*
G01*
X565000Y407000D02*
G03*
X565000Y407000I-2000J0D01*
G01*
X531728Y348636D02*
G03*
X531728Y348636I-2000J0D01*
G01*
Y353942D02*
G03*
X531728Y353942I-2000J0D01*
G01*
X544000Y395000D02*
G03*
X544000Y395000I-2000J0D01*
G01*
X541500Y402000D02*
G03*
X541500Y402000I-2000J0D01*
G01*
X512470Y409488D02*
G03*
X512470Y409488I-2000J0D01*
G01*
X500000Y393000D02*
G03*
X500000Y393000I-2000J0D01*
G01*
X509000D02*
G03*
X509000Y393000I-2000J0D01*
G01*
X517500D02*
G03*
X517500Y393000I-2000J0D01*
G01*
X429223Y326020D02*
G03*
X429223Y326020I-2000J0D01*
G01*
X529500Y346500D02*
G03*
X529500Y346500I-2000J0D01*
G01*
X540000Y389500D02*
G03*
X540000Y389500I-2000J0D01*
G01*
X467439Y322579D02*
G03*
X467439Y322579I-2000J0D01*
G01*
X442223Y331020D02*
G03*
X442223Y331020I-2000J0D01*
G01*
X400500Y401500D02*
G03*
X400500Y401500I-2000J0D01*
G01*
X423000Y408000D02*
G03*
X423000Y408000I-2000J0D01*
G01*
X436500Y421500D02*
G03*
X436500Y421500I-2000J0D01*
G01*
X395500Y367500D02*
G03*
X395500Y367500I-2000J0D01*
G01*
X411000Y372132D02*
G03*
X411000Y372132I-2000J0D01*
G01*
X405500Y357000D02*
G03*
X405500Y357000I-2000J0D01*
G01*
X390351Y399032D02*
G03*
X390351Y399032I-2000J0D01*
G01*
X428000Y396500D02*
G03*
X428000Y396500I-2000J0D01*
G01*
X453285Y406219D02*
G03*
X453285Y406219I-2000J0D01*
G01*
X456500Y409429D02*
G03*
X456500Y409429I-2000J0D01*
G01*
X459500Y408500D02*
G03*
X459500Y408500I-2000J0D01*
G01*
X460957Y412705D02*
G03*
X460957Y412705I-2000J0D01*
G01*
X433892Y361615D02*
G03*
X433892Y361615I-2000J0D01*
G01*
X428500Y344000D02*
G03*
X428500Y344000I-2000J0D01*
G01*
X468874Y438339D02*
G03*
X468874Y438339I-2000J0D01*
G01*
X465500Y445000D02*
G03*
X465500Y445000I-2000J0D01*
G01*
X463488Y326331D02*
G03*
X463488Y326331I-2000J0D01*
G01*
X517091Y377480D02*
G03*
X517091Y377480I-2000J0D01*
G01*
X502500Y425000D02*
G03*
X502500Y425000I-2000J0D01*
G01*
X497000Y424000D02*
G03*
X497000Y424000I-2000J0D01*
G01*
X492500D02*
G03*
X492500Y424000I-2000J0D01*
G01*
X477035Y427236D02*
G03*
X477035Y427236I-2000J0D01*
G01*
X428177Y367824D02*
G03*
X428177Y367824I-2000J0D01*
G01*
X425772Y386000D02*
G03*
X425772Y386000I-2000J0D01*
G01*
Y382500D02*
G03*
X425772Y382500I-2000J0D01*
G01*
X426272Y389500D02*
G03*
X426272Y389500I-2000J0D01*
G01*
X425000Y393500D02*
G03*
X425000Y393500I-2000J0D01*
G01*
X455500Y436500D02*
G03*
X455500Y436500I-2000J0D01*
G01*
X459564Y436566D02*
G03*
X459564Y436566I-2000J0D01*
G01*
X462500Y447000D02*
G03*
X462500Y447000I-2000J0D01*
G01*
X488846Y444710D02*
G03*
X488846Y444710I-2000J0D01*
G01*
X470000Y446000D02*
G03*
X470000Y446000I-2000J0D01*
G01*
X508728Y327000D02*
G03*
X508728Y327000I-2000J0D01*
G01*
X511000Y323000D02*
G03*
X511000Y323000I-2000J0D01*
G01*
X473500Y446000D02*
G03*
X473500Y446000I-2000J0D01*
G01*
X476640Y436685D02*
G03*
X476640Y436685I-2000J0D01*
G01*
X477500Y446000D02*
G03*
X477500Y446000I-2000J0D01*
G01*
X479512Y435997D02*
G03*
X479512Y435997I-2000J0D01*
G01*
X455500Y328000D02*
G03*
X455500Y328000I-2000J0D01*
G01*
X451500Y328500D02*
G03*
X451500Y328500I-2000J0D01*
G01*
X476394Y412106D02*
G03*
X476394Y412106I-2000J0D01*
G01*
X492000Y439500D02*
G03*
X492000Y439500I-2000J0D01*
G01*
X499500Y441500D02*
G03*
X499500Y441500I-2000J0D01*
G01*
X495000Y442000D02*
G03*
X495000Y442000I-2000J0D01*
G01*
X473211Y362864D02*
G03*
X473211Y362864I-2000J0D01*
G01*
X529000Y379500D02*
G03*
X529000Y379500I-2000J0D01*
G01*
X509976Y425476D02*
G03*
X509976Y425476I-2000J0D01*
G01*
X465500Y412000D02*
G03*
X465500Y412000I-2000J0D01*
G01*
X468141Y413320D02*
G03*
X468141Y413320I-2000J0D01*
G01*
X463412Y409912D02*
G03*
X463412Y409912I-2000J0D01*
G01*
X507000Y425000D02*
G03*
X507000Y425000I-2000J0D01*
G01*
X459500Y341000D02*
G03*
X459500Y341000I-2000J0D01*
G01*
X500000Y378000D02*
G03*
X500000Y378000I-2000J0D01*
G01*
X509500Y345000D02*
G03*
X509500Y345000I-2000J0D01*
G01*
X509000Y340000D02*
G03*
X509000Y340000I-2000J0D01*
G01*
X511772Y364913D02*
G03*
X511772Y364913I-2000J0D01*
G01*
X514500Y362500D02*
G03*
X514500Y362500I-2000J0D01*
G01*
X509081Y377361D02*
G03*
X509081Y377361I-2000J0D01*
G01*
X475500Y387000D02*
G03*
X475500Y387000I-2000J0D01*
G01*
X468000Y359000D02*
G03*
X468000Y359000I-2000J0D01*
G01*
X500500Y361000D02*
G03*
X500500Y361000I-2000J0D01*
G01*
X502019Y363532D02*
G03*
X502019Y363532I-2000J0D01*
G01*
X498500Y358500D02*
G03*
X498500Y358500I-2000J0D01*
G01*
X504000Y366000D02*
G03*
X504000Y366000I-2000J0D01*
G01*
X505500Y369000D02*
G03*
X505500Y369000I-2000J0D01*
G01*
X461000Y392500D02*
G03*
X461000Y392500I-2000J0D01*
G01*
X458000Y391500D02*
G03*
X458000Y391500I-2000J0D01*
G01*
X455000Y391000D02*
G03*
X455000Y391000I-2000J0D01*
G01*
X467500Y345000D02*
G03*
X467500Y345000I-2000J0D01*
G01*
X464000Y360500D02*
G03*
X464000Y360500I-2000J0D01*
G01*
X470500Y386500D02*
G03*
X470500Y386500I-2000J0D01*
G01*
X493000Y324500D02*
G03*
X493000Y324500I-2000J0D01*
G01*
X486500Y326500D02*
G03*
X486500Y326500I-2000J0D01*
G01*
X493000Y342000D02*
G03*
X493000Y342000I-2000J0D01*
G01*
X496000Y348500D02*
G03*
X496000Y348500I-2000J0D01*
G01*
M02*
