G04*
G04 #@! TF.GenerationSoftware,Altium Limited,Altium Designer,25.1.2 (22)*
G04*
G04 Layer_Color=255*
%FSLAX25Y25*%
%MOIN*%
G70*
G04*
G04 #@! TF.SameCoordinates,DC4E0951-A455-47C2-8868-B8DD7EE8088A*
G04*
G04*
G04 #@! TF.FilePolarity,Positive*
G04*
G01*
G75*
%ADD17R,0.04134X0.03543*%
G04:AMPARAMS|DCode=18|XSize=61.02mil|YSize=23.62mil|CornerRadius=2.01mil|HoleSize=0mil|Usage=FLASHONLY|Rotation=0.000|XOffset=0mil|YOffset=0mil|HoleType=Round|Shape=RoundedRectangle|*
%AMROUNDEDRECTD18*
21,1,0.06102,0.01961,0,0,0.0*
21,1,0.05701,0.02362,0,0,0.0*
1,1,0.00402,0.02850,-0.00980*
1,1,0.00402,-0.02850,-0.00980*
1,1,0.00402,-0.02850,0.00980*
1,1,0.00402,0.02850,0.00980*
%
%ADD18ROUNDEDRECTD18*%
%ADD20R,0.03543X0.04134*%
%ADD21R,0.04758X0.03985*%
%ADD23R,0.03740X0.03150*%
%ADD25R,0.05512X0.05906*%
%ADD26R,0.05906X0.05512*%
%ADD27R,0.03985X0.04758*%
%ADD33C,0.12598*%
%ADD34R,0.09843X0.09843*%
%ADD35C,0.09843*%
%ADD36C,0.05500*%
%ADD37R,0.05512X0.05512*%
%ADD38C,0.05512*%
%ADD39C,0.05984*%
%ADD40R,0.05984X0.05984*%
%ADD41C,0.02953*%
%ADD48C,0.12600*%
G04:AMPARAMS|DCode=50|XSize=41.68mil|YSize=21.53mil|CornerRadius=10.77mil|HoleSize=0mil|Usage=FLASHONLY|Rotation=180.000|XOffset=0mil|YOffset=0mil|HoleType=Round|Shape=RoundedRectangle|*
%AMROUNDEDRECTD50*
21,1,0.04168,0.00000,0,0,180.0*
21,1,0.02015,0.02153,0,0,180.0*
1,1,0.02153,-0.01008,0.00000*
1,1,0.02153,0.01008,0.00000*
1,1,0.02153,0.01008,0.00000*
1,1,0.02153,-0.01008,0.00000*
%
%ADD50ROUNDEDRECTD50*%
%ADD51R,0.04168X0.02153*%
%ADD52R,0.04500X0.08000*%
%ADD53R,0.03937X0.09843*%
%ADD54R,0.02362X0.03150*%
%ADD55R,0.00900X0.02800*%
%ADD56R,0.08465X0.04921*%
%ADD57R,0.03543X0.02953*%
%ADD58R,0.02362X0.04134*%
G04:AMPARAMS|DCode=59|XSize=68.9mil|YSize=59.06mil|CornerRadius=2.07mil|HoleSize=0mil|Usage=FLASHONLY|Rotation=180.000|XOffset=0mil|YOffset=0mil|HoleType=Round|Shape=RoundedRectangle|*
%AMROUNDEDRECTD59*
21,1,0.06890,0.05492,0,0,180.0*
21,1,0.06476,0.05906,0,0,180.0*
1,1,0.00413,-0.03238,0.02746*
1,1,0.00413,0.03238,0.02746*
1,1,0.00413,0.03238,-0.02746*
1,1,0.00413,-0.03238,-0.02746*
%
%ADD59ROUNDEDRECTD59*%
G04:AMPARAMS|DCode=60|XSize=13.78mil|YSize=33.47mil|CornerRadius=2mil|HoleSize=0mil|Usage=FLASHONLY|Rotation=180.000|XOffset=0mil|YOffset=0mil|HoleType=Round|Shape=RoundedRectangle|*
%AMROUNDEDRECTD60*
21,1,0.01378,0.02947,0,0,180.0*
21,1,0.00978,0.03347,0,0,180.0*
1,1,0.00400,-0.00489,0.01473*
1,1,0.00400,0.00489,0.01473*
1,1,0.00400,0.00489,-0.01473*
1,1,0.00400,-0.00489,-0.01473*
%
%ADD60ROUNDEDRECTD60*%
%ADD61R,0.01772X0.01378*%
%ADD62R,0.01378X0.01772*%
%ADD63R,0.02953X0.03543*%
%ADD64R,0.04921X0.10630*%
%ADD65R,0.02362X0.03937*%
%ADD66R,0.05750X0.02100*%
%ADD67R,0.17100X0.13600*%
%ADD68R,0.01700X0.03400*%
%ADD69R,0.02000X0.04700*%
D17*
X578468Y401093D02*
D03*
Y406802D02*
D03*
X608926Y299364D02*
D03*
Y293655D02*
D03*
X391461Y406529D02*
D03*
Y412237D02*
D03*
X579277Y285248D02*
D03*
Y290957D02*
D03*
X520768Y463854D02*
D03*
Y458146D02*
D03*
X511500Y463854D02*
D03*
Y458146D02*
D03*
D18*
X569495Y391429D02*
D03*
Y396429D02*
D03*
Y401430D02*
D03*
Y406429D02*
D03*
X548236D02*
D03*
Y401430D02*
D03*
Y396429D02*
D03*
Y391429D02*
D03*
D20*
X463354Y467000D02*
D03*
X457646D02*
D03*
X597744Y340893D02*
D03*
X592035D02*
D03*
X592183Y331626D02*
D03*
X597892D02*
D03*
X612069Y350509D02*
D03*
X606360D02*
D03*
X591974Y350161D02*
D03*
X597683D02*
D03*
X612646Y435268D02*
D03*
X618354D02*
D03*
X612646Y426000D02*
D03*
X618354D02*
D03*
X582504Y316283D02*
D03*
X588213Y316283D02*
D03*
D21*
X594657Y385000D02*
D03*
X588343D02*
D03*
X564343Y442000D02*
D03*
X570657D02*
D03*
X551660Y382748D02*
D03*
X557974D02*
D03*
X547347Y327630D02*
D03*
X553661D02*
D03*
X388843Y354500D02*
D03*
X395157D02*
D03*
X444657Y453000D02*
D03*
X438343D02*
D03*
X443588Y344589D02*
D03*
X449902D02*
D03*
X497964Y408411D02*
D03*
X504278D02*
D03*
X496686Y337000D02*
D03*
X503000D02*
D03*
D23*
X555500Y285941D02*
D03*
Y291059D02*
D03*
X546807Y355399D02*
D03*
Y360517D02*
D03*
D25*
X454729Y453539D02*
D03*
X462209D02*
D03*
D26*
X401516Y414255D02*
D03*
Y406774D02*
D03*
D27*
X547500Y292157D02*
D03*
Y285843D02*
D03*
X501500Y301157D02*
D03*
Y294843D02*
D03*
X527000Y441343D02*
D03*
Y447657D02*
D03*
X536500Y441186D02*
D03*
Y447500D02*
D03*
X514362Y344203D02*
D03*
Y337889D02*
D03*
X444340Y408797D02*
D03*
Y415111D02*
D03*
D33*
X411110Y438321D02*
D03*
X411000Y313500D02*
D03*
X645000Y263500D02*
D03*
Y489000D02*
D03*
D34*
X576563Y458005D02*
D03*
D35*
X560972D02*
D03*
D36*
X638500Y410150D02*
D03*
Y399362D02*
D03*
Y388575D02*
D03*
Y377787D02*
D03*
Y367000D02*
D03*
Y356213D02*
D03*
Y345425D02*
D03*
X627319Y415543D02*
D03*
Y404756D02*
D03*
Y393969D02*
D03*
Y383181D02*
D03*
Y372394D02*
D03*
Y361606D02*
D03*
Y350819D02*
D03*
Y340032D02*
D03*
D37*
X649000Y468000D02*
D03*
X648842Y283500D02*
D03*
D38*
X639157Y468000D02*
D03*
X629315D02*
D03*
X619472D02*
D03*
X609630D02*
D03*
X599787D02*
D03*
X599630Y283500D02*
D03*
X609472D02*
D03*
X619315Y283500D02*
D03*
X629157D02*
D03*
X639000Y283500D02*
D03*
D39*
X469500Y285000D02*
D03*
Y295000D02*
D03*
X459500D02*
D03*
D40*
Y285000D02*
D03*
D41*
X526000Y277087D02*
D03*
Y287913D02*
D03*
X491000Y277087D02*
D03*
Y287913D02*
D03*
D48*
X632909Y443378D02*
D03*
Y312197D02*
D03*
D50*
X495048Y461500D02*
D03*
X501952Y457898D02*
D03*
X594230Y296395D02*
D03*
X601133Y292793D02*
D03*
D51*
X501952Y465102D02*
D03*
X601133Y299997D02*
D03*
D52*
X589250Y457500D02*
D03*
X599750D02*
D03*
X612750Y316500D02*
D03*
X602250D02*
D03*
D53*
X607594Y411500D02*
D03*
X619406D02*
D03*
X607710Y398264D02*
D03*
X619521D02*
D03*
X601158D02*
D03*
X589347D02*
D03*
X596530Y361200D02*
D03*
X584720D02*
D03*
X596557Y374078D02*
D03*
X584746D02*
D03*
D54*
X608165Y341232D02*
D03*
X614858D02*
D03*
X586274Y277654D02*
D03*
X579581D02*
D03*
D55*
X605531Y361200D02*
D03*
X607500Y361200D02*
D03*
X609469Y361200D02*
D03*
Y367500D02*
D03*
X607500D02*
D03*
X605531D02*
D03*
D56*
X607500Y376496D02*
D03*
Y388504D02*
D03*
D57*
X572638Y363097D02*
D03*
X572638Y367822D02*
D03*
X572626Y351269D02*
D03*
Y355993D02*
D03*
D58*
X586240Y298945D02*
D03*
X578760D02*
D03*
X582500Y308000D02*
D03*
D59*
X560500Y314500D02*
D03*
D60*
X564339Y308693D02*
D03*
X561779D02*
D03*
X559221D02*
D03*
X556661D02*
D03*
X564339Y320307D02*
D03*
X561779D02*
D03*
X559221D02*
D03*
X556661D02*
D03*
D61*
X564146Y358531D02*
D03*
Y360500D02*
D03*
Y362469D02*
D03*
X554500D02*
D03*
Y360500D02*
D03*
Y358531D02*
D03*
D62*
X563260Y365323D02*
D03*
X561291Y365323D02*
D03*
X559323D02*
D03*
X557354D02*
D03*
X555386Y365323D02*
D03*
Y355677D02*
D03*
X557354D02*
D03*
X559323D02*
D03*
X561291D02*
D03*
X563260D02*
D03*
D63*
X558307Y346803D02*
D03*
X563031D02*
D03*
D64*
X472780Y461500D02*
D03*
X484000D02*
D03*
D65*
X603461Y426000D02*
D03*
X598539D02*
D03*
X603461Y435500D02*
D03*
X598539D02*
D03*
D66*
X569725Y414500D02*
D03*
Y419500D02*
D03*
Y424500D02*
D03*
Y429500D02*
D03*
X548275D02*
D03*
Y424500D02*
D03*
Y419500D02*
D03*
Y414500D02*
D03*
D67*
X396000Y378000D02*
D03*
D68*
X388500Y362550D02*
D03*
X393500D02*
D03*
X398500D02*
D03*
X403500D02*
D03*
Y393450D02*
D03*
X398500D02*
D03*
X393500D02*
D03*
X388500D02*
D03*
D69*
X515795Y399100D02*
D03*
X512646D02*
D03*
X509496D02*
D03*
X506347D02*
D03*
X503197D02*
D03*
X500047D02*
D03*
X496898D02*
D03*
X493748D02*
D03*
X490598D02*
D03*
X487449D02*
D03*
X484299D02*
D03*
X481150D02*
D03*
X478000D02*
D03*
X474850D02*
D03*
X471701D02*
D03*
X468551D02*
D03*
X465402D02*
D03*
X462252D02*
D03*
X459102D02*
D03*
X455953D02*
D03*
X452803D02*
D03*
X449653D02*
D03*
X446504D02*
D03*
X443354D02*
D03*
X440205D02*
D03*
X440205Y353900D02*
D03*
X443354D02*
D03*
X446504D02*
D03*
X449653D02*
D03*
X452803D02*
D03*
X455953D02*
D03*
X459102D02*
D03*
X462252D02*
D03*
X465402D02*
D03*
X468551D02*
D03*
X471701D02*
D03*
X474850D02*
D03*
X478000D02*
D03*
X481150D02*
D03*
X484299D02*
D03*
X487449D02*
D03*
X490598D02*
D03*
X493748D02*
D03*
X496898D02*
D03*
X500047D02*
D03*
X503197D02*
D03*
X506347D02*
D03*
X509496D02*
D03*
X512646D02*
D03*
X515795D02*
D03*
M02*
