G04*
G04 #@! TF.GenerationSoftware,Altium Limited,Altium Designer,25.1.2 (22)*
G04*
G04 Layer_Color=16711935*
%FSLAX25Y25*%
%MOIN*%
G70*
G04*
G04 #@! TF.SameCoordinates,E7EE586C-05D5-46D5-8D4D-84EA4DFC6535*
G04*
G04*
G04 #@! TF.FilePolarity,Positive*
G04*
G01*
G75*
%ADD13C,0.00600*%
%ADD14C,0.00787*%
%ADD75C,0.00394*%
%ADD80C,0.00197*%
D13*
X634081Y361400D02*
X640919D01*
X634081Y359400D02*
Y361400D01*
Y350300D02*
Y352300D01*
Y350300D02*
X640919Y350300D01*
Y352300D01*
Y359400D02*
Y361400D01*
Y359400D02*
X641850Y359400D01*
X633150D02*
X634081Y359400D01*
X633150Y352300D02*
Y359400D01*
Y352300D02*
X634081D01*
X640919D02*
X641850D01*
Y359400D01*
X544400Y431550D02*
X550150D01*
Y432850D01*
X567850D01*
Y431550D02*
Y432850D01*
Y431550D02*
X573600D01*
Y412450D02*
Y431550D01*
X567850Y412450D02*
X573600D01*
X567850Y411150D02*
Y412450D01*
X550150Y411150D02*
X567850D01*
X550150D02*
Y412450D01*
X544400D02*
X550150D01*
X544400D02*
Y431550D01*
X409000Y361050D02*
Y394950D01*
X405350Y361050D02*
X409000D01*
X383000D02*
X386650D01*
X383000D02*
Y394950D01*
X386650D01*
X405350D02*
X409000D01*
X405350D02*
Y396150D01*
Y359850D02*
Y361050D01*
X386650Y359850D02*
X405350D01*
X386650D02*
Y361050D01*
Y394950D02*
Y396150D01*
X405350D01*
X438205Y350550D02*
Y355250D01*
X435500Y355250D02*
X438205Y355250D01*
X435500Y355250D02*
Y397750D01*
X438205Y397750D01*
Y402450D01*
X517795D01*
Y397750D02*
Y402450D01*
Y397750D02*
X520500Y397750D01*
Y355250D02*
Y397750D01*
X517795Y355250D02*
X520500Y355250D01*
X517795Y350550D02*
Y355250D01*
X438205Y350550D02*
X517795D01*
D14*
X566889Y324094D02*
Y332016D01*
X551881Y324094D02*
X566889D01*
X551881D02*
Y332016D01*
X566889D01*
X570276Y360735D02*
X575000D01*
X570276Y370184D02*
X570276Y360735D01*
X570276Y370184D02*
X575000D01*
X575000Y360735D02*
X575000Y370184D01*
X551154Y352331D02*
X567492D01*
X551154D02*
Y368669D01*
X567492D01*
Y352331D02*
Y368669D01*
X565394Y344441D02*
Y349165D01*
X555945Y344441D02*
X565394D01*
X555945D02*
Y349165D01*
X565394D01*
X570264Y358355D02*
X574988D01*
Y348907D02*
Y358355D01*
X570264Y348907D02*
X574988D01*
X570264D02*
Y358355D01*
X597106Y336894D02*
X612894D01*
X597106Y328106D02*
Y336894D01*
Y328106D02*
X612894D01*
Y336894D01*
X491020Y467878D02*
X505980D01*
Y455122D02*
Y467878D01*
X491020Y455122D02*
X505980D01*
X491020D02*
Y467878D01*
X628919Y359673D02*
Y371484D01*
X612384Y359673D02*
X628919Y359673D01*
X612384Y359673D02*
X612384Y371484D01*
X628919D01*
X635348Y383858D02*
X635348Y395669D01*
X651883D01*
Y383858D02*
Y395669D01*
X635348Y383858D02*
X651883D01*
X628893Y346795D02*
Y358606D01*
X612357Y346795D02*
X628893D01*
X612357D02*
Y358606D01*
X628893D01*
X629004Y372539D02*
X629004Y380461D01*
X613996Y372539D02*
X629004Y372539D01*
X613996Y380461D02*
X613996Y372539D01*
X613996Y380461D02*
X629004D01*
X636590Y330370D02*
Y335094D01*
X646433D01*
Y330370D02*
Y335094D01*
X636590Y330370D02*
X646433D01*
X633520Y383858D02*
Y395669D01*
X616985Y383858D02*
X633520D01*
X616985D02*
X616985Y395669D01*
X633520D01*
X635232Y397094D02*
Y408906D01*
X651768Y408906D01*
Y397094D02*
Y408906D01*
X635232Y397094D02*
X651768D01*
X575004Y438039D02*
Y445961D01*
X559996Y438039D02*
X575004D01*
X559996D02*
Y445961D01*
X575004D01*
X541996Y438039D02*
Y445961D01*
X557004D01*
Y438039D02*
Y445961D01*
X541996Y438039D02*
X557004D01*
X384496Y350539D02*
X399504D01*
Y358461D01*
X384496D02*
X399504D01*
X384496Y350539D02*
Y358461D01*
X530961Y436996D02*
Y452004D01*
X523039D02*
X530961D01*
X523039Y436996D02*
Y452004D01*
Y436996D02*
X530961D01*
X540461Y436839D02*
Y451847D01*
X532539D02*
X540461D01*
X532539Y436839D02*
Y451847D01*
Y436839D02*
X540461D01*
X433996Y456961D02*
X449004D01*
X433996Y449039D02*
Y456961D01*
Y449039D02*
X449004D01*
Y456961D01*
X510401Y333542D02*
Y348550D01*
Y333542D02*
X518323D01*
Y348550D01*
X510401D02*
X518323D01*
X439241Y340628D02*
X454249D01*
Y348550D01*
X439241D02*
X454249D01*
X439241Y340628D02*
Y348550D01*
X493617Y404450D02*
X508625D01*
Y412372D01*
X493617D02*
X508625D01*
X493617Y404450D02*
Y412372D01*
X448301Y404450D02*
Y419458D01*
X440379D02*
X448301D01*
X440379Y404450D02*
Y419458D01*
Y404450D02*
X448301D01*
X492339Y333039D02*
X507347D01*
Y340961D01*
X492339D02*
X507347D01*
X492339Y333039D02*
Y340961D01*
D75*
X556760Y315055D02*
X560697D01*
X558728Y313087D02*
Y317024D01*
X577630Y383354D02*
X581370D01*
X579500Y381484D02*
Y385224D01*
X546807Y356088D02*
Y359828D01*
X544937Y357958D02*
X548677D01*
X520768Y459130D02*
Y462870D01*
X518898Y461000D02*
X522638D01*
X558500Y398031D02*
Y401968D01*
X556531Y400000D02*
X560468D01*
X476421Y461500D02*
X480358D01*
X478390Y459531D02*
Y463469D01*
X511500Y459130D02*
Y462870D01*
X509630Y461000D02*
X513370D01*
X637344Y342009D02*
X641084D01*
X639215Y340139D02*
Y343879D01*
X622959Y341661D02*
X626699D01*
X624829Y339791D02*
Y343531D01*
X623167Y323126D02*
X626907D01*
X625037Y321255D02*
Y324996D01*
X623020Y332393D02*
X626760D01*
X624890Y330523D02*
Y334263D01*
X637500Y372031D02*
Y375969D01*
X635532Y374000D02*
X639468D01*
X598630Y422500D02*
X602370D01*
X600500Y420630D02*
Y424370D01*
X598630Y431768D02*
X602370D01*
X600500Y429898D02*
Y433638D01*
X586000Y420532D02*
Y424469D01*
X584031Y422500D02*
X587968D01*
X586000Y430031D02*
Y433968D01*
X584031Y432000D02*
X587968D01*
X579500Y397484D02*
Y401224D01*
X577630Y399354D02*
X581370D01*
X389591Y409383D02*
X393331D01*
X391461Y407513D02*
Y411253D01*
X399548Y410515D02*
X403485D01*
X401516Y408546D02*
Y412483D01*
X458469Y451571D02*
Y455508D01*
X456500Y453539D02*
X460437D01*
D80*
X566602Y308461D02*
Y321650D01*
X550854Y308461D02*
Y321650D01*
Y322929D02*
X566602D01*
X550854Y307181D02*
X566602D01*
X550854Y307181D02*
Y308461D01*
X566602Y307181D02*
Y308461D01*
Y321650D02*
Y322929D01*
X550854Y321650D02*
Y322929D01*
X575366Y376661D02*
Y390047D01*
X583634Y376661D02*
Y390047D01*
X575366D02*
X583634D01*
X575366Y376661D02*
X583634D01*
X543854Y352840D02*
X549760Y352840D01*
X543854Y363076D02*
X549760D01*
Y352840D02*
Y363076D01*
X543854Y352840D02*
Y363076D01*
X516634Y467693D02*
X524902D01*
X516634Y454307D02*
X524902D01*
X516634D02*
Y467693D01*
X524902Y454307D02*
Y467693D01*
X544425Y410039D02*
X572575D01*
X544425Y389961D02*
Y410039D01*
X572575Y389961D02*
Y410039D01*
X544425Y389961D02*
X572575D01*
X469335Y455201D02*
Y467799D01*
X487445Y455201D02*
Y467799D01*
X469335Y455201D02*
X487445Y455201D01*
X469335Y467799D02*
X487445Y467799D01*
X507366Y467693D02*
X515634D01*
X507366Y454307D02*
X515634D01*
X507366D02*
Y467693D01*
X515634Y454307D02*
Y467693D01*
X632521Y337875D02*
Y346143D01*
X645907Y346143D02*
X645907Y337875D01*
X632521D02*
X645907D01*
X632521Y346143D02*
X645907Y346143D01*
X631522Y337527D02*
Y345795D01*
X618136D02*
X618136Y337527D01*
X618136Y345795D02*
X631522D01*
X618136Y337527D02*
X631522Y337527D01*
X631730Y318992D02*
Y327259D01*
X618344Y318992D02*
Y327259D01*
X631730D01*
X618344Y318992D02*
X631730Y318992D01*
X618197Y328259D02*
Y336527D01*
X631582Y328259D02*
Y336527D01*
X618197Y328259D02*
X631582D01*
X618197Y336527D02*
X631582D01*
X631791Y382858D02*
X643209D01*
X631791Y365142D02*
X643209D01*
X631791D02*
Y382858D01*
X643209Y365142D02*
Y382858D01*
X607193Y418366D02*
Y426634D01*
X593807Y418366D02*
Y426634D01*
X607193Y426634D01*
X593807Y418366D02*
X607193Y418366D01*
X607193Y427634D02*
Y435902D01*
X593807Y427634D02*
Y435902D01*
X607193D01*
X593807Y427634D02*
X607193D01*
X581866Y424862D02*
X590134D01*
X581866Y420138D02*
X590134D01*
X590134Y424862D01*
X581866D02*
X581866Y420138D01*
X581866Y434362D02*
X590134D01*
X581866Y429638D02*
X590134D01*
Y434362D01*
X581866Y429638D02*
X581866Y434362D01*
X575366Y406047D02*
X583634D01*
X575366Y392661D02*
X583634D01*
X575366D02*
Y406047D01*
X583634Y392661D02*
Y406047D01*
X387327Y402690D02*
Y416076D01*
X395595Y402690D02*
Y416076D01*
X387327D02*
X395595D01*
X387327Y402690D02*
X395595D01*
X406437Y402050D02*
Y418979D01*
X396595Y402050D02*
Y418979D01*
Y402050D02*
X406437D01*
X396595Y418979D02*
X406437D01*
X450004Y448618D02*
X466933D01*
X450004Y458460D02*
X466933D01*
X450004Y448618D02*
Y458460D01*
X466933Y448618D02*
Y458460D01*
M02*
