G04*
G04 #@! TF.GenerationSoftware,Altium Limited,Altium Designer,25.1.2 (22)*
G04*
G04 Layer_Color=32896*
%FSLAX25Y25*%
%MOIN*%
G70*
G04*
G04 #@! TF.SameCoordinates,E7EE586C-05D5-46D5-8D4D-84EA4DFC6535*
G04*
G04*
G04 #@! TF.FilePolarity,Positive*
G04*
G01*
G75*
%ADD10C,0.00984*%
%ADD11C,0.02000*%
%ADD12C,0.01000*%
%ADD13C,0.00600*%
%ADD14C,0.00787*%
%ADD75C,0.00394*%
%ADD76C,0.02362*%
%ADD77C,0.01575*%
%ADD78C,0.00300*%
G36*
X456703Y350550D02*
Y349550D01*
X455203D01*
Y350550D01*
X456703D01*
D02*
G37*
G36*
X453553Y402450D02*
Y403450D01*
X452053D01*
X452053Y402450D01*
X453553D01*
D02*
G37*
G36*
X488199Y350550D02*
Y349550D01*
X486699D01*
Y350550D01*
X488199D01*
D02*
G37*
G36*
X516545Y402450D02*
Y403450D01*
X515045D01*
Y402450D01*
X516545D01*
D02*
G37*
G36*
X485049Y402450D02*
Y403450D01*
X483549D01*
X483549Y402450D01*
X485049Y402450D01*
D02*
G37*
D10*
X563752Y352528D02*
G03*
X563752Y352528I-492J0D01*
G01*
X548362Y389154D02*
G03*
X548362Y389154I-492J0D01*
G01*
X635212Y332732D02*
G03*
X635212Y332732I-492J0D01*
G01*
D11*
X538812Y431500D02*
G03*
X538812Y431500I-1500J0D01*
G01*
D12*
X560420Y375468D02*
Y372188D01*
X559764Y371532D01*
X558452D01*
X557796Y372188D01*
Y375468D01*
X556484Y371532D02*
X555172D01*
X555828D01*
Y375468D01*
X556484Y374812D01*
X553204D02*
X552548Y375468D01*
X551236D01*
X550580Y374812D01*
Y372188D01*
X551236Y371532D01*
X552548D01*
X553204Y372188D01*
Y374812D01*
X537339Y354366D02*
X541275D01*
Y356334D01*
X540619Y356990D01*
X539307D01*
X538651Y356334D01*
Y354366D01*
Y355678D02*
X537339Y356990D01*
Y360926D02*
Y358302D01*
X539963Y360926D01*
X540619D01*
X541275Y360270D01*
Y358958D01*
X540619Y358302D01*
X537339Y362238D02*
Y363550D01*
Y362894D01*
X541275D01*
X540619Y362238D01*
X563793Y340615D02*
X564449Y341271D01*
X565761D01*
X566417Y340615D01*
Y337991D01*
X565761Y337335D01*
X564449D01*
X563793Y337991D01*
X560513Y337335D02*
Y341271D01*
X562481Y339303D01*
X559857D01*
X558545Y340615D02*
X557889Y341271D01*
X556577D01*
X555922Y340615D01*
Y339959D01*
X556577Y339303D01*
X557233D01*
X556577D01*
X555922Y338647D01*
Y337991D01*
X556577Y337335D01*
X557889D01*
X558545Y337991D01*
X571700Y417036D02*
Y413756D01*
X571044Y413100D01*
X569732D01*
X569076Y413756D01*
Y417036D01*
X567764D02*
X565140D01*
Y416380D01*
X567764Y413756D01*
Y413100D01*
X518800Y470800D02*
Y474736D01*
X516832D01*
X516176Y474080D01*
Y472768D01*
X516832Y472112D01*
X518800D01*
X517488D02*
X516176Y470800D01*
X512240D02*
X514864D01*
X512240Y473424D01*
Y474080D01*
X512896Y474736D01*
X514208D01*
X514864Y474080D01*
X510928D02*
X510273Y474736D01*
X508961D01*
X508305Y474080D01*
Y471456D01*
X508961Y470800D01*
X510273D01*
X510928Y471456D01*
Y474080D01*
X532920Y469532D02*
Y473468D01*
X530952D01*
X530296Y472812D01*
Y471500D01*
X530952Y470844D01*
X532920D01*
X531608D02*
X530296Y469532D01*
X528984D02*
X527672D01*
X528328D01*
Y473468D01*
X528984Y472812D01*
X525704Y470188D02*
X525048Y469532D01*
X523736D01*
X523080Y470188D01*
Y472812D01*
X523736Y473468D01*
X525048D01*
X525704Y472812D01*
Y472156D01*
X525048Y471500D01*
X523080D01*
X480100Y470900D02*
Y474836D01*
X478132D01*
X477476Y474180D01*
Y472868D01*
X478132Y472212D01*
X480100D01*
X478788D02*
X477476Y470900D01*
X476164D02*
X474852D01*
X475508D01*
Y474836D01*
X476164Y474180D01*
X472885D02*
X472228Y474836D01*
X470917D01*
X470261Y474180D01*
Y473524D01*
X470917Y472868D01*
X470261Y472212D01*
Y471556D01*
X470917Y470900D01*
X472228D01*
X472885Y471556D01*
Y472212D01*
X472228Y472868D01*
X472885Y473524D01*
Y474180D01*
X472228Y472868D02*
X470917D01*
X494276Y471956D02*
Y474580D01*
X494932Y475236D01*
X496244D01*
X496900Y474580D01*
Y471956D01*
X496244Y471300D01*
X494932D01*
X495588Y472612D02*
X494276Y471300D01*
X494932D02*
X494276Y471956D01*
X492964Y471300D02*
X491652D01*
X492308D01*
Y475236D01*
X492964Y474580D01*
X643532Y359280D02*
X646812D01*
X647468Y358624D01*
Y357312D01*
X646812Y356656D01*
X643532D01*
X646812Y355344D02*
X647468Y354688D01*
Y353376D01*
X646812Y352720D01*
X644188D01*
X643532Y353376D01*
Y354688D01*
X644188Y355344D01*
X644844D01*
X645500Y354688D01*
Y352720D01*
X647688Y343610D02*
Y339675D01*
X649656D01*
X650312Y340331D01*
Y341643D01*
X649656Y342299D01*
X647688D01*
X649000D02*
X650312Y343610D01*
X651624D02*
X652936D01*
X652280D01*
Y339675D01*
X651624Y340331D01*
X654904Y339675D02*
X657528D01*
Y340331D01*
X654904Y342954D01*
Y343610D01*
X607055Y343129D02*
Y339193D01*
X609023D01*
X609678Y339849D01*
Y341161D01*
X609023Y341817D01*
X607055D01*
X608366D02*
X609678Y343129D01*
X610990D02*
X612302D01*
X611646D01*
Y339193D01*
X610990Y339849D01*
X616894Y339193D02*
X615582Y339849D01*
X614270Y341161D01*
Y342473D01*
X614926Y343129D01*
X616238D01*
X616894Y342473D01*
Y341817D01*
X616238Y341161D01*
X614270D01*
X620118Y317093D02*
Y313158D01*
X622085D01*
X622741Y313813D01*
Y315125D01*
X622085Y315781D01*
X620118D01*
X621429D02*
X622741Y317093D01*
X624053D02*
X625365D01*
X624709D01*
Y313158D01*
X624053Y313813D01*
X629957Y313158D02*
X627333D01*
Y315125D01*
X628645Y314470D01*
X629301D01*
X629957Y315125D01*
Y316437D01*
X629301Y317093D01*
X627989D01*
X627333Y316437D01*
X616479Y334152D02*
X612544D01*
Y332184D01*
X613200Y331528D01*
X614512D01*
X615168Y332184D01*
Y334152D01*
Y332840D02*
X616479Y331528D01*
Y330216D02*
Y328904D01*
Y329560D01*
X612544D01*
X613200Y330216D01*
X616479Y324969D02*
X612544D01*
X614512Y326936D01*
Y324313D01*
X645032Y381124D02*
X648968D01*
Y378500D01*
Y377188D02*
Y375876D01*
Y376532D01*
X645032D01*
X645688Y377188D01*
X648532Y328280D02*
X652468D01*
Y326312D01*
X651812Y325656D01*
X649188D01*
X648532Y326312D01*
Y328280D01*
X652468Y322376D02*
X648532D01*
X650500Y324344D01*
Y321720D01*
X625476Y402380D02*
X626132Y403036D01*
X627444D01*
X628100Y402380D01*
Y399756D01*
X627444Y399100D01*
X626132D01*
X625476Y399756D01*
X622196Y399100D02*
Y403036D01*
X624164Y401068D01*
X621540D01*
X617605Y399100D02*
X620228D01*
X617605Y401724D01*
Y402380D01*
X618261Y403036D01*
X619573D01*
X620228Y402380D01*
X662468Y389812D02*
X663124Y390468D01*
X664436D01*
X665092Y389812D01*
Y387188D01*
X664436Y386532D01*
X663124D01*
X662468Y387188D01*
X659188Y386532D02*
Y390468D01*
X661156Y388500D01*
X658532D01*
X657220Y386532D02*
X655908D01*
X656564D01*
Y390468D01*
X657220Y389812D01*
X643676Y415580D02*
X644332Y416236D01*
X645644D01*
X646300Y415580D01*
Y412956D01*
X645644Y412300D01*
X644332D01*
X643676Y412956D01*
X640396Y412300D02*
Y416236D01*
X642364Y414268D01*
X639740D01*
X638428Y415580D02*
X637773Y416236D01*
X636461D01*
X635805Y415580D01*
Y412956D01*
X636461Y412300D01*
X637773D01*
X638428Y412956D01*
Y415580D01*
X617749Y343512D02*
X618405Y344168D01*
X619717D01*
X620373Y343512D01*
Y340888D01*
X619717Y340232D01*
X618405D01*
X617749Y340888D01*
X616437Y343512D02*
X615781Y344168D01*
X614469D01*
X613813Y343512D01*
Y342856D01*
X614469Y342200D01*
X615125D01*
X614469D01*
X613813Y341544D01*
Y340888D01*
X614469Y340232D01*
X615781D01*
X616437Y340888D01*
X612501Y343512D02*
X611845Y344168D01*
X610533D01*
X609877Y343512D01*
Y342856D01*
X610533Y342200D01*
X609877Y341544D01*
Y340888D01*
X610533Y340232D01*
X611845D01*
X612501Y340888D01*
Y341544D01*
X611845Y342200D01*
X612501Y342856D01*
Y343512D01*
X611845Y342200D02*
X610533D01*
X620065Y430032D02*
Y433968D01*
X618097D01*
X617442Y433312D01*
Y432000D01*
X618097Y431344D01*
X620065D01*
X618753D02*
X617442Y430032D01*
X616130D02*
X614818D01*
X615474D01*
Y433968D01*
X616130Y433312D01*
X612850D02*
X612194Y433968D01*
X610882D01*
X610226Y433312D01*
Y432656D01*
X610882Y432000D01*
X611538D01*
X610882D01*
X610226Y431344D01*
Y430688D01*
X610882Y430032D01*
X612194D01*
X612850Y430688D01*
X619565Y420532D02*
Y424468D01*
X617597D01*
X616941Y423812D01*
Y422500D01*
X617597Y421844D01*
X619565D01*
X618253D02*
X616941Y420532D01*
X615630D02*
X614318D01*
X614974D01*
Y424468D01*
X615630Y423812D01*
X609726Y420532D02*
X612350D01*
X609726Y423156D01*
Y423812D01*
X610382Y424468D01*
X611694D01*
X612350Y423812D01*
X577780Y436468D02*
Y433188D01*
X577124Y432532D01*
X575812D01*
X575156Y433188D01*
Y436468D01*
X573844Y435812D02*
X573188Y436468D01*
X571876D01*
X571220Y435812D01*
Y435156D01*
X571876Y434500D01*
X571220Y433844D01*
Y433188D01*
X571876Y432532D01*
X573188D01*
X573844Y433188D01*
Y433844D01*
X573188Y434500D01*
X573844Y435156D01*
Y435812D01*
X573188Y434500D02*
X571876D01*
X571776Y452680D02*
X572432Y453336D01*
X573744D01*
X574400Y452680D01*
Y450056D01*
X573744Y449400D01*
X572432D01*
X571776Y450056D01*
X570464Y449400D02*
X569152D01*
X569808D01*
Y453336D01*
X570464Y452680D01*
X567184D02*
X566529Y453336D01*
X565217D01*
X564561Y452680D01*
Y452024D01*
X565217Y451368D01*
X564561Y450712D01*
Y450056D01*
X565217Y449400D01*
X566529D01*
X567184Y450056D01*
Y450712D01*
X566529Y451368D01*
X567184Y452024D01*
Y452680D01*
X566529Y451368D02*
X565217D01*
X582700Y409100D02*
Y413036D01*
X580732D01*
X580076Y412380D01*
Y411068D01*
X580732Y410412D01*
X582700D01*
X581388D02*
X580076Y409100D01*
X578764Y409756D02*
X578108Y409100D01*
X576796D01*
X576140Y409756D01*
Y412380D01*
X576796Y413036D01*
X578108D01*
X578764Y412380D01*
Y411724D01*
X578108Y411068D01*
X576140D01*
X599000Y325468D02*
X601624D01*
Y323500D01*
X600312D01*
X601624D01*
Y321532D01*
X597688D02*
X596376D01*
X597032D01*
Y325468D01*
X597688Y324812D01*
X553776Y452680D02*
X554432Y453336D01*
X555744D01*
X556400Y452680D01*
Y450056D01*
X555744Y449400D01*
X554432D01*
X553776Y450056D01*
X552464Y452680D02*
X551808Y453336D01*
X550496D01*
X549840Y452680D01*
Y452024D01*
X550496Y451368D01*
X551152D01*
X550496D01*
X549840Y450712D01*
Y450056D01*
X550496Y449400D01*
X551808D01*
X552464Y450056D01*
X548528Y453336D02*
X545905D01*
Y452680D01*
X548528Y450056D01*
Y449400D01*
X575280Y317468D02*
Y314188D01*
X574624Y313532D01*
X573312D01*
X572656Y314188D01*
Y317468D01*
X569376Y313532D02*
Y317468D01*
X571344Y315500D01*
X568720D01*
X394700Y419200D02*
Y423136D01*
X392732D01*
X392076Y422480D01*
Y421168D01*
X392732Y420512D01*
X394700D01*
X393388D02*
X392076Y419200D01*
X390764D02*
X389452D01*
X390108D01*
Y423136D01*
X390764Y422480D01*
X387485D02*
X386828Y423136D01*
X385517D01*
X384861Y422480D01*
Y419856D01*
X385517Y419200D01*
X386828D01*
X387485Y419856D01*
Y422480D01*
X402876Y425380D02*
X403532Y426036D01*
X404844D01*
X405500Y425380D01*
Y422756D01*
X404844Y422100D01*
X403532D01*
X402876Y422756D01*
X401564Y425380D02*
X400908Y426036D01*
X399596D01*
X398940Y425380D01*
Y424724D01*
X399596Y424068D01*
X400252D01*
X399596D01*
X398940Y423412D01*
Y422756D01*
X399596Y422100D01*
X400908D01*
X401564Y422756D01*
X395005Y426036D02*
X396317Y425380D01*
X397628Y424068D01*
Y422756D01*
X396973Y422100D01*
X395661D01*
X395005Y422756D01*
Y423412D01*
X395661Y424068D01*
X397628D01*
X396467Y347312D02*
X397123Y347968D01*
X398435D01*
X399091Y347312D01*
Y344688D01*
X398435Y344032D01*
X397123D01*
X396467Y344688D01*
X395155Y347312D02*
X394499Y347968D01*
X393187D01*
X392531Y347312D01*
Y346656D01*
X393187Y346000D01*
X393843D01*
X393187D01*
X392531Y345344D01*
Y344688D01*
X393187Y344032D01*
X394499D01*
X395155Y344688D01*
X388595Y347968D02*
X391219D01*
Y346000D01*
X389907Y346656D01*
X389251D01*
X388595Y346000D01*
Y344688D01*
X389251Y344032D01*
X390563D01*
X391219Y344688D01*
X578624Y329812D02*
X579280Y330468D01*
X580592D01*
X581248Y329812D01*
Y327188D01*
X580592Y326532D01*
X579280D01*
X578624Y327188D01*
X577312Y329812D02*
X576656Y330468D01*
X575344D01*
X574688Y329812D01*
Y329156D01*
X575344Y328500D01*
X576000D01*
X575344D01*
X574688Y327844D01*
Y327188D01*
X575344Y326532D01*
X576656D01*
X577312Y327188D01*
X573376Y329812D02*
X572720Y330468D01*
X571408D01*
X570752Y329812D01*
Y327188D01*
X571408Y326532D01*
X572720D01*
X573376Y327188D01*
Y329812D01*
X403280Y401468D02*
Y398188D01*
X402624Y397532D01*
X401312D01*
X400656Y398188D01*
Y401468D01*
X396720D02*
X398032Y400812D01*
X399344Y399500D01*
Y398188D01*
X398688Y397532D01*
X397376D01*
X396720Y398188D01*
Y398844D01*
X397376Y399500D01*
X399344D01*
X519900Y410336D02*
Y407056D01*
X519244Y406400D01*
X517932D01*
X517276Y407056D01*
Y410336D01*
X513340Y406400D02*
X515964D01*
X513340Y409024D01*
Y409680D01*
X513996Y410336D01*
X515308D01*
X515964Y409680D01*
D13*
X635931Y362569D02*
G03*
X635931Y362569I-400J0D01*
G01*
X388900Y400350D02*
G03*
X388900Y400350I-400J0D01*
G01*
X641350Y352800D02*
Y358900D01*
X633650Y352800D02*
Y358900D01*
X550650Y411650D02*
X567350D01*
X550650Y432350D02*
X567350D01*
X383500Y361550D02*
X386340D01*
X405660Y394450D02*
X408500D01*
X383500D02*
X386340D01*
X383500Y361550D02*
Y394450D01*
X405660Y361550D02*
X408500D01*
Y394450D01*
X436000Y355750D02*
X437895D01*
X518105D02*
X520000D01*
Y397250D01*
X436000D02*
X437895D01*
X436000Y355750D02*
Y397250D01*
X518105D02*
X520000D01*
D14*
X563256Y321256D02*
X564929D01*
X552528D02*
X554201D01*
X563256Y308854D02*
X564929D01*
X552528D02*
X554201D01*
X553850Y331622D02*
X564921D01*
X553850Y324488D02*
X564921D01*
X569279Y368925D02*
X569279Y362036D01*
X575984Y362015D02*
Y368904D01*
X565425Y354299D02*
X565524D01*
X553122D02*
X553221D01*
X553122Y364634D02*
Y366701D01*
Y354299D02*
Y356366D01*
X565425Y366701D02*
X565524D01*
X553122D02*
X553221D01*
X565524Y364634D02*
Y366701D01*
Y354299D02*
Y356366D01*
X557203Y343445D02*
X564093D01*
X557224Y350150D02*
X564114D01*
X575984Y350165D02*
Y357055D01*
X569279Y350186D02*
Y357076D01*
X552496Y409646D02*
X564504D01*
X552496Y390354D02*
X564504D01*
Y409646D01*
X552496Y390354D02*
Y409646D01*
X603476Y335750D02*
X606524D01*
X603476Y329250D02*
X606524D01*
X476815Y456579D02*
X479965Y456579D01*
X476815Y466421D02*
X479965Y466421D01*
X495508Y467484D02*
X498598D01*
X501492Y461205D02*
Y461795D01*
X495508Y455516D02*
X498598D01*
X495508D02*
Y458055D01*
Y464945D02*
Y467484D01*
X618191Y360066D02*
X623112Y360066D01*
X618191Y371090D02*
X623112D01*
X641155Y395276D02*
X646076D01*
X641155Y384252D02*
X646076D01*
X618164Y347188D02*
X623086Y347188D01*
X618164Y358212D02*
X623086Y358212D01*
X615964Y380067D02*
X627036Y380067D01*
X615964Y372933D02*
X627036D01*
X640823Y334701D02*
X642201Y334701D01*
X640823Y330764D02*
X642201D01*
X642421Y376126D02*
X642421Y371874D01*
X632579D02*
Y376126D01*
X622792Y384252D02*
X627713D01*
X622792Y395276D02*
X627713D01*
X641039Y408512D02*
X645961Y408512D01*
X641039Y397488D02*
X645961Y397488D01*
X561964Y445567D02*
X573036D01*
X561964Y438433D02*
X573036D01*
X543964D02*
X555036D01*
X543964Y445567D02*
X555036D01*
X386464Y358067D02*
X397536D01*
X386464Y350933D02*
X397536D01*
X523433Y438964D02*
Y450036D01*
X530567Y438964D02*
Y450036D01*
X532933Y438807D02*
Y449879D01*
X540067Y438807D02*
Y449879D01*
X435964Y449433D02*
X447036D01*
X435964Y456567D02*
X447036D01*
X517929Y335510D02*
Y346582D01*
X510794Y335510D02*
Y346582D01*
X441210Y348156D02*
X452281D01*
X441210Y341022D02*
X452281D01*
X495585Y411978D02*
X506657D01*
X495585Y404844D02*
X506657D01*
X440772Y406419D02*
Y417490D01*
X447907Y406419D02*
Y417490D01*
X494307Y340567D02*
X505379D01*
X494307Y333433D02*
X505379D01*
D75*
X566701Y321256D02*
G03*
X566701Y321256I-197J0D01*
G01*
D76*
X557614Y394291D02*
G03*
X557614Y394291I-1181J0D01*
G01*
D77*
X591610Y420532D02*
Y424469D01*
Y430031D02*
Y433968D01*
D78*
X546025Y409620D02*
X548649Y412244D01*
X546025D02*
X548649Y409620D01*
X546025Y410932D02*
X548649D01*
X547337Y412244D02*
Y409620D01*
X520575Y351650D02*
X517951Y354274D01*
Y351650D02*
X520575Y354274D01*
X519263Y351650D02*
Y354274D01*
X517951Y352962D02*
X520575D01*
M02*
