G04*
G04 #@! TF.GenerationSoftware,Altium Limited,Altium Designer,25.1.2 (22)*
G04*
G04 Layer_Physical_Order=4*
G04 Layer_Color=16711680*
%FSLAX25Y25*%
%MOIN*%
G70*
G04*
G04 #@! TF.SameCoordinates,E7EE586C-05D5-46D5-8D4D-84EA4DFC6535*
G04*
G04*
G04 #@! TF.FilePolarity,Positive*
G04*
G01*
G75*
%ADD12C,0.01000*%
%ADD15R,0.04134X0.03543*%
%ADD16R,0.04758X0.03985*%
%ADD17R,0.03543X0.04134*%
%ADD19R,0.05512X0.05906*%
%ADD20R,0.05906X0.05512*%
%ADD21R,0.03985X0.04758*%
%ADD34C,0.05700*%
%ADD35C,0.02362*%
%ADD36C,0.03150*%
%ADD38C,0.01181*%
%ADD39C,0.12600*%
G04:AMPARAMS|DCode=41|XSize=13.78mil|YSize=33.47mil|CornerRadius=2mil|HoleSize=0mil|Usage=FLASHONLY|Rotation=90.000|XOffset=0mil|YOffset=0mil|HoleType=Round|Shape=RoundedRectangle|*
%AMROUNDEDRECTD41*
21,1,0.01378,0.02947,0,0,90.0*
21,1,0.00978,0.03347,0,0,90.0*
1,1,0.00400,0.01473,0.00489*
1,1,0.00400,0.01473,-0.00489*
1,1,0.00400,-0.01473,-0.00489*
1,1,0.00400,-0.01473,0.00489*
%
%ADD41ROUNDEDRECTD41*%
G04:AMPARAMS|DCode=42|XSize=68.9mil|YSize=59.06mil|CornerRadius=2.07mil|HoleSize=0mil|Usage=FLASHONLY|Rotation=90.000|XOffset=0mil|YOffset=0mil|HoleType=Round|Shape=RoundedRectangle|*
%AMROUNDEDRECTD42*
21,1,0.06890,0.05492,0,0,90.0*
21,1,0.06476,0.05906,0,0,90.0*
1,1,0.00413,0.02746,0.03238*
1,1,0.00413,0.02746,-0.03238*
1,1,0.00413,-0.02746,-0.03238*
1,1,0.00413,-0.02746,0.03238*
%
%ADD42ROUNDEDRECTD42*%
%ADD43R,0.03740X0.03150*%
%ADD44R,0.03543X0.02953*%
%ADD45R,0.01772X0.01378*%
%ADD46R,0.01378X0.01772*%
%ADD47R,0.02953X0.03543*%
%ADD48R,0.06102X0.02362*%
%ADD49R,0.04500X0.08000*%
%ADD50R,0.04921X0.10630*%
%ADD51R,0.05512X0.03937*%
%ADD52R,0.03937X0.09843*%
%ADD53R,0.02362X0.03150*%
%ADD54R,0.08465X0.04921*%
%ADD55R,0.00900X0.02800*%
%ADD56R,0.02362X0.03937*%
%ADD57R,0.05750X0.02100*%
%ADD58R,0.17100X0.13600*%
%ADD59R,0.01700X0.03400*%
%ADD60R,0.02000X0.04700*%
%ADD61C,0.01500*%
%ADD62C,0.03937*%
G36*
X541000Y444500D02*
X521000D01*
Y451773D01*
X521476Y451970D01*
X521974Y452468D01*
X522244Y453120D01*
Y453824D01*
X521974Y454475D01*
X521880Y454570D01*
Y455500D01*
X541000D01*
Y444500D01*
D02*
G37*
G36*
X567500Y435000D02*
X549500D01*
Y447511D01*
X549500Y447986D01*
X549994Y448000D01*
X567500D01*
Y435000D01*
D02*
G37*
G36*
X657500Y381500D02*
X646500D01*
Y412000D01*
X657500D01*
Y381500D01*
D02*
G37*
G36*
X643500Y375500D02*
X629500D01*
Y396500D01*
X617000D01*
Y412000D01*
X643500D01*
Y375500D01*
D02*
G37*
G36*
X643000Y365500D02*
X638490Y360991D01*
X638428D01*
Y360929D01*
X638000Y360500D01*
Y357500D01*
X637000D01*
Y360500D01*
X636572Y360928D01*
Y360991D01*
X636509D01*
X632000Y365500D01*
X632000Y372000D01*
X643000D01*
Y365500D01*
D02*
G37*
G36*
X621500Y381613D02*
X621432Y381568D01*
X621258Y381307D01*
X621197Y381000D01*
X621197Y352332D01*
X616711Y347846D01*
X616675Y347792D01*
X616621Y347756D01*
X616621Y347756D01*
X615365Y346500D01*
X607500D01*
Y395500D01*
X621500D01*
Y381613D01*
D02*
G37*
G36*
X599936Y342025D02*
X600576Y341385D01*
X601361Y340932D01*
X602236Y340697D01*
X603142D01*
X603603Y340821D01*
X604000Y340516D01*
Y324500D01*
X586000D01*
Y342500D01*
X599662D01*
X599936Y342025D01*
D02*
G37*
G36*
X560559Y318500D02*
X559457D01*
Y322535D01*
X560559D01*
Y318500D01*
D02*
G37*
G36*
X558000D02*
X556898D01*
Y322535D01*
X558000D01*
Y318500D01*
D02*
G37*
G36*
X628697Y375500D02*
X628758Y375193D01*
X628932Y374932D01*
X629000Y374887D01*
Y361000D01*
X635365D01*
X635942Y360423D01*
X635979Y360398D01*
X636000Y360367D01*
Y355000D01*
X629000D01*
Y344318D01*
X625321D01*
Y339003D01*
X629000D01*
Y335051D01*
X625382D01*
Y329736D01*
X629000D01*
Y325783D01*
X625529D01*
Y320468D01*
X629000D01*
Y312000D01*
X607500D01*
Y344000D01*
X614000D01*
X617189Y347188D01*
X617278D01*
Y347278D01*
X622000Y352000D01*
X622000Y381000D01*
X628697D01*
Y375500D01*
D02*
G37*
G36*
X560559Y307575D02*
X559457D01*
Y311610D01*
X560559D01*
Y307575D01*
D02*
G37*
G36*
X558000D02*
X556898D01*
Y311610D01*
X558000D01*
Y307575D01*
D02*
G37*
%LPC*%
G36*
X591297Y341560D02*
X590629Y341472D01*
X590007Y341214D01*
X589472Y340804D01*
X589062Y340269D01*
X588804Y339646D01*
X588716Y338978D01*
X588804Y338310D01*
X589062Y337688D01*
X589472Y337153D01*
X589494Y337132D01*
X590028Y336721D01*
X590651Y336463D01*
X591319Y336376D01*
X591987Y336463D01*
X592610Y336721D01*
X593144Y337132D01*
X593554Y337666D01*
X593812Y338289D01*
X593900Y338957D01*
X593812Y339625D01*
X593554Y340247D01*
X593144Y340782D01*
X593122Y340804D01*
X592588Y341214D01*
X591965Y341472D01*
X591297Y341560D01*
D02*
G37*
G36*
X624336Y344318D02*
X619612D01*
Y339003D01*
X624336D01*
Y344318D01*
D02*
G37*
G36*
X624545Y325783D02*
X619821D01*
Y324612D01*
X617707D01*
X617241Y324923D01*
X616550Y325061D01*
X615859Y324923D01*
X615273Y324532D01*
X614881Y323946D01*
X614744Y323254D01*
X614881Y322563D01*
X615273Y321977D01*
X615859Y321585D01*
X616550Y321448D01*
X617241Y321585D01*
X617827Y321977D01*
X618102Y322388D01*
X619821D01*
Y320468D01*
X624545D01*
Y325783D01*
D02*
G37*
%LPD*%
D12*
X393500Y393450D02*
X393611Y393339D01*
Y390889D02*
Y393339D01*
Y390889D02*
X394500Y390000D01*
X400892D01*
X409000Y381892D01*
X637826Y328826D02*
Y332393D01*
X632126Y323126D02*
X637826Y328826D01*
X627892Y323126D02*
X632126D01*
X438343Y453000D02*
Y461843D01*
X462209Y453539D02*
Y462209D01*
X511500Y452000D02*
Y458146D01*
X504278Y408411D02*
X504664D01*
X510535Y402540D01*
X514097D01*
X514736Y401902D01*
Y401509D02*
Y401902D01*
Y401509D02*
X515795Y400450D01*
Y399100D02*
Y400450D01*
X506046Y399400D02*
X506347Y399100D01*
X506046Y399400D02*
Y402950D01*
X504278Y404718D02*
X506046Y402950D01*
X504278Y404718D02*
Y408411D01*
X444340Y415111D02*
X451247D01*
X452249Y414109D02*
X452618D01*
X451247Y415111D02*
X452249Y414109D01*
X454454Y412705D02*
X458957D01*
X452769Y411019D02*
X454454Y412705D01*
X450623Y411019D02*
X452769D01*
X447423Y407818D02*
X450623Y411019D01*
X447423Y405967D02*
Y407818D01*
X401500Y421500D02*
X401516Y421484D01*
Y414255D02*
Y421484D01*
X407450Y393450D02*
X407500Y393500D01*
X403500Y393450D02*
X407450D01*
X388500Y354843D02*
X388843Y354500D01*
X395157Y347157D02*
Y354500D01*
X440205Y347586D02*
X443202Y344589D01*
X440205Y347586D02*
Y353900D01*
X443202Y344589D02*
X443588D01*
X449902D02*
Y348902D01*
X503000Y329000D02*
Y337000D01*
X518389Y337889D02*
X520000Y339500D01*
X514362Y337889D02*
X518389D01*
X514362D02*
Y338275D01*
X509772Y342865D02*
X514362Y338275D01*
X509772Y342865D02*
Y345941D01*
X506347Y349366D02*
X509772Y345941D01*
X506347Y349366D02*
Y353900D01*
X487449Y359949D02*
X487500Y360000D01*
X487449Y353900D02*
Y359949D01*
X449683Y390241D02*
Y399071D01*
Y390241D02*
X449712Y390212D01*
X449653Y399100D02*
X449683Y399071D01*
X440739Y388261D02*
Y390647D01*
Y388261D02*
X441000Y388000D01*
X443354Y386916D02*
Y399100D01*
X442046Y385607D02*
X443354Y386916D01*
X440205Y391181D02*
Y399100D01*
Y391181D02*
X440739Y390647D01*
X442046Y385239D02*
Y385607D01*
X444244Y383228D02*
X446163Y385147D01*
Y387505D01*
X433321Y403233D02*
X446939D01*
X432662Y404824D02*
X446280D01*
X419272Y398272D02*
X457564Y436564D01*
X446280Y404824D02*
X447423Y405967D01*
X419272Y402272D02*
X453500Y436500D01*
X427702Y404387D02*
X441896Y418580D01*
X446939Y403233D02*
X449013Y405308D01*
X450328Y418580D02*
X469146Y437398D01*
X441896Y418580D02*
X450328D01*
X449013Y405308D02*
Y407160D01*
X451282Y409429D01*
X487449Y392551D02*
X487500Y392500D01*
X487449Y392551D02*
Y399100D01*
X549000Y328000D02*
X549055Y328055D01*
X556228D01*
X564535Y311216D02*
X570284D01*
X557449Y316335D02*
X558728Y315055D01*
X552921Y316335D02*
X557449D01*
X558728Y314563D02*
Y315055D01*
Y314563D02*
X561181Y312110D01*
X561673D01*
X562378Y311405D01*
X564347D01*
X564535Y311216D01*
X616500Y323500D02*
X621808D01*
X622183Y323126D01*
X638761Y338405D02*
X642069Y341713D01*
X638761Y337761D02*
Y338405D01*
X638500Y337500D02*
X638761Y337761D01*
X641443Y336403D02*
X643403D01*
X638165Y333126D02*
X641443Y336403D01*
X644858Y332732D02*
X649268D01*
X642069Y341713D02*
Y342009D01*
X644292Y345166D02*
X646000Y343458D01*
Y339000D02*
Y343458D01*
X637550Y351227D02*
X643610Y345166D01*
X644292D01*
X637500Y352700D02*
X637550Y352650D01*
Y351227D02*
Y352650D01*
X643403Y336403D02*
X646000Y339000D01*
X638165Y332732D02*
Y333126D01*
X579500Y373500D02*
Y380500D01*
X547870Y397500D02*
X555000D01*
X569725Y429500D02*
X575500D01*
X555500Y334500D02*
X562011D01*
X567299Y329212D01*
X528000Y380767D02*
Y414213D01*
X527000Y379500D02*
Y379767D01*
X511445Y327000D02*
X532543Y348098D01*
X500713Y441500D02*
X528000Y414213D01*
X500018Y446982D02*
X532543Y414457D01*
X499790Y444710D02*
X530272Y414228D01*
X527000Y379767D02*
X528000Y380767D01*
X530272Y387500D02*
Y414228D01*
X532543Y348098D02*
Y414457D01*
X509694Y323000D02*
X534362Y347668D01*
Y415638D01*
X420728Y394441D02*
X426499Y400211D01*
X426000Y396500D02*
X428089Y398589D01*
Y401514D01*
X426499Y400211D02*
Y402173D01*
X427702Y403376D02*
Y404387D01*
X430661Y400573D02*
X433321Y403233D01*
X428089Y401514D02*
X429420Y402845D01*
X430361Y400573D02*
X430661D01*
X430683Y402845D02*
X432662Y404824D01*
X429420Y402845D02*
X430683D01*
X426499Y402173D02*
X427702Y403376D01*
X500500Y428213D02*
Y438000D01*
X497500Y441500D02*
X500713D01*
X486846Y444710D02*
X499790D01*
X482319Y446982D02*
X500018D01*
X583539Y422500D02*
Y432000D01*
X578500D02*
X583539D01*
Y422500D02*
X583539Y422500D01*
Y423287D01*
X580186Y426641D02*
X583539Y423287D01*
X566398Y426641D02*
X580186D01*
X565760Y426002D02*
X566398Y426641D01*
X565760Y421640D02*
Y426002D01*
Y421640D02*
X567900Y419500D01*
X569725D01*
X574160Y424486D02*
X591414Y407233D01*
X569739Y424486D02*
X574160D01*
X569725Y424500D02*
X569739Y424486D01*
X558000Y351500D02*
Y351869D01*
X557354Y352514D02*
X558000Y351869D01*
X557354Y352514D02*
Y355677D01*
X551000Y350000D02*
Y355228D01*
X554303Y358531D01*
X554500D01*
X546807Y360517D02*
X546824Y360500D01*
X554500D01*
X567299Y315311D02*
Y329212D01*
X566543Y314555D02*
X567299Y315311D01*
X566299Y314555D02*
X566543D01*
X565520Y313776D02*
X566299Y314555D01*
X564535Y313776D02*
X565520D01*
X520768Y454136D02*
Y458146D01*
X520472Y453841D02*
X520768Y454136D01*
X520472Y453472D02*
Y453841D01*
X515000Y414000D02*
X519000Y418000D01*
X510500Y414000D02*
X515000D01*
X510488Y409488D02*
X513410Y412409D01*
X515659D01*
X516749Y413500D02*
X521408D01*
X515659Y412409D02*
X516749Y413500D01*
X521408D02*
X521500Y413592D01*
X510470Y409488D02*
X510488D01*
X511114Y457760D02*
X511500Y458146D01*
X502831Y457760D02*
X511114D01*
X503772Y452228D02*
X504000Y452000D01*
X474772Y452228D02*
X503772D01*
X472780Y454220D02*
Y461500D01*
Y454220D02*
X474772Y452228D01*
X494900Y454500D02*
Y460769D01*
X494169Y461500D02*
X494900Y460769D01*
X511500Y463854D02*
X520768D01*
X504216D02*
X511500D01*
X502831Y465240D02*
X504216Y463854D01*
X502287Y450500D02*
X535953Y416835D01*
X472500Y450500D02*
X502287D01*
X535953Y391547D02*
Y416835D01*
X627744Y332393D02*
X637826D01*
X636012Y341661D02*
X636360Y342009D01*
X627683Y341661D02*
X636012D01*
X635531Y348127D02*
Y352700D01*
Y348127D02*
X636360Y347298D01*
Y342009D02*
Y347298D01*
X591508Y403469D02*
X603209Y415169D01*
X591414Y403563D02*
X591508Y403469D01*
X591414Y403563D02*
Y407233D01*
X482228Y325559D02*
X483559Y324228D01*
X481150Y328520D02*
X482228Y327441D01*
X453638Y337394D02*
X466122Y324909D01*
X466321D01*
X467002Y324228D02*
X475341D01*
X466321Y324909D02*
X467002Y324228D01*
X466781Y326500D02*
X479957D01*
X482228Y325559D02*
Y327441D01*
X481150Y328520D02*
Y353900D01*
X455228Y338053D02*
X466781Y326500D01*
X603354Y431768D02*
X609232D01*
X612000Y429000D01*
X603209Y415169D02*
Y422500D01*
X588870D02*
X597646D01*
X597413Y432000D02*
X597646Y431768D01*
X588461Y432000D02*
X597413D01*
X612000Y406000D02*
Y429000D01*
X604075Y398189D02*
X605344Y399458D01*
X605458D01*
X604075Y398075D02*
Y398189D01*
X589015Y398075D02*
X604075D01*
X605458Y399458D02*
X612000Y406000D01*
X576396Y410694D02*
X589015Y398075D01*
X548275Y414500D02*
X548275Y414500D01*
X541500Y414500D02*
X548275D01*
X535000Y421000D02*
X541500Y414500D01*
X559647Y429527D02*
X559674Y429555D01*
X548302Y429527D02*
X559647D01*
X548275Y429500D02*
X548302Y429527D01*
X427000Y326000D02*
X432942Y320058D01*
X548275Y419500D02*
X552701D01*
X561507Y410694D01*
X576396D01*
X501428Y448572D02*
X534362Y415638D01*
X474072Y448572D02*
X501428D01*
X527239Y346761D02*
Y349129D01*
X525866Y350502D02*
Y352384D01*
X503197Y375054D02*
X525866Y352384D01*
X509496Y371004D02*
X527457Y353043D01*
X529728Y348636D02*
Y348890D01*
X527457Y351161D02*
Y353043D01*
Y351161D02*
X529728Y348890D01*
X525866Y350502D02*
X527239Y349129D01*
X512646Y371025D02*
Y399100D01*
X527239Y346761D02*
X527500Y346500D01*
X512646Y371025D02*
X529728Y353942D01*
X541287Y392500D02*
X547870D01*
X539500Y394287D02*
X541287Y392500D01*
X539500Y394287D02*
Y402000D01*
X542000Y395000D02*
Y406500D01*
X543000Y407500D01*
X547870Y392500D02*
X548370Y392000D01*
X543000Y407500D02*
X547870D01*
X535953Y391547D02*
X538000Y389500D01*
X468000Y446000D02*
X472500Y450500D01*
X498000Y378000D02*
Y393000D01*
X507041Y377401D02*
Y392959D01*
Y377401D02*
X507081Y377361D01*
X507000Y393000D02*
X507041Y392959D01*
X509496Y371004D02*
Y399100D01*
X515296Y377796D02*
Y392796D01*
X515000Y377500D02*
X515296Y377796D01*
Y392796D02*
X515500Y393000D01*
X432942Y320058D02*
X509624D01*
X434787Y322500D02*
X465500D01*
X400704Y356583D02*
X434787Y322500D01*
X400704Y356583D02*
Y359495D01*
X398500Y361700D02*
X400704Y359495D01*
X398500Y361700D02*
Y362550D01*
X412500Y350799D02*
X438299Y325000D01*
X437049Y328500D02*
X449500D01*
X429500Y336049D02*
Y358545D01*
X412500Y350799D02*
Y374004D01*
X429500Y336049D02*
X437049Y328500D01*
X438299Y325000D02*
X453713D01*
X431215Y359344D02*
X434750Y355809D01*
Y336250D02*
X440000Y331000D01*
X434750Y336250D02*
Y355809D01*
X398500Y393450D02*
Y401500D01*
X421000Y408000D02*
X434500Y421500D01*
X419272Y400521D02*
Y402272D01*
X393500Y362550D02*
Y367500D01*
X409000Y372132D02*
Y381892D01*
X403500Y357000D02*
Y362550D01*
X391166Y406529D02*
X391461D01*
X389894Y405257D02*
X391166Y406529D01*
X389894Y404962D02*
Y405257D01*
X388351Y403418D02*
X389894Y404962D01*
X388351Y399032D02*
Y403418D01*
X388425Y393525D02*
X388500Y393450D01*
X388425Y393525D02*
Y398958D01*
X388351Y399032D02*
X388425Y398958D01*
X451282Y409429D02*
X454500D01*
X451285Y406219D02*
X454137Y403366D01*
X457564Y436564D02*
Y436566D01*
X461043Y404957D02*
X488169D01*
X457500Y408500D02*
X461043Y404957D01*
X454137Y403366D02*
X454634D01*
X414500Y402497D02*
Y420249D01*
X438979Y444728D02*
X461441D01*
X438000Y447000D02*
X460500D01*
X412500Y421500D02*
X438000Y447000D01*
X414500Y420249D02*
X438979Y444728D01*
X412500Y402747D02*
Y421500D01*
X429620Y360674D02*
Y360939D01*
X427910Y360136D02*
X429500Y358545D01*
X429620Y360674D02*
X430951Y359344D01*
X429500Y361059D02*
X429620Y360939D01*
X431772Y361736D02*
Y369941D01*
X427910Y360136D02*
Y364313D01*
X431772Y361736D02*
X431892Y361615D01*
X430951Y359344D02*
X431215D01*
X414500Y356000D02*
X426500Y344000D01*
X469146Y438362D02*
X469741Y438957D01*
X475630D01*
X469146Y437398D02*
Y438362D01*
X467460Y442138D02*
X479112D01*
X461452Y444739D02*
X463239D01*
X438687Y442187D02*
X465260D01*
X466874Y438339D02*
X469082Y440547D01*
X464322Y439000D02*
X467460Y442138D01*
X441000Y439000D02*
X464322D01*
X461441Y444728D02*
X461452Y444739D01*
X465260Y442187D02*
X466801Y443728D01*
X479770D01*
X463239Y444739D02*
X463500Y445000D01*
X478453Y440547D02*
X495000Y424000D01*
X469082Y440547D02*
X478453D01*
X420728Y424228D02*
X438687Y442187D01*
X454634Y403366D02*
X471115D01*
X455043Y326331D02*
X461488D01*
X453638Y337394D02*
Y343785D01*
X453713Y325000D02*
X455043Y326331D01*
X455228Y338053D02*
Y343126D01*
X500239Y423777D02*
Y424739D01*
X486190Y409728D02*
X500239Y423777D01*
Y424739D02*
X500500Y425000D01*
X487264Y427236D02*
X490500Y424000D01*
X475035Y427236D02*
X487264D01*
X472764Y414105D02*
X474394Y412474D01*
X472764Y414105D02*
Y434486D01*
X474640Y436362D01*
X474394Y412106D02*
Y412474D01*
X474640Y436362D02*
Y436685D01*
X429500Y361059D02*
Y363654D01*
X430039Y364194D01*
Y369424D01*
X424843Y374621D02*
X430039Y369424D01*
X420881Y374621D02*
X424843D01*
X417547Y377954D02*
X420881Y374621D01*
X417547Y377954D02*
Y398797D01*
X419272Y400521D01*
X411185Y401432D02*
X412500Y402747D01*
X412776Y400773D02*
X414500Y402497D01*
X412776Y375978D02*
X414500Y374253D01*
X417681Y415681D02*
X441000Y439000D01*
X415957Y377295D02*
Y399455D01*
X417681Y401180D01*
X412776Y375978D02*
Y400773D01*
X411185Y375319D02*
Y401432D01*
X423178Y367824D02*
X426177D01*
X411185Y375319D02*
X412500Y374004D01*
X420222Y373030D02*
X424184D01*
X416090Y401839D02*
Y416340D01*
X414366Y376636D02*
X423178Y367824D01*
X414500Y356000D02*
Y374253D01*
X415957Y377295D02*
X420222Y373030D01*
X427910Y364313D02*
X428449Y364852D01*
Y368765D01*
X424184Y373030D02*
X428449Y368765D01*
X417681Y401180D02*
Y415681D01*
X414366Y400114D02*
X416090Y401839D01*
X414366Y376636D02*
Y400114D01*
X416090Y416340D02*
X420728Y420978D01*
Y424228D01*
Y379272D02*
X421500Y378500D01*
X425462D01*
X419138Y378613D02*
X420841Y376909D01*
X424803D01*
X419138Y378613D02*
Y395100D01*
X419272Y395234D01*
Y398272D01*
X423000Y393500D02*
X423261Y393239D01*
X423745D02*
X452803Y364181D01*
X424803Y376909D02*
X431772Y369941D01*
X420728Y379272D02*
Y394441D01*
X423772Y382500D02*
X443354Y362917D01*
X425462Y378500D02*
X438114Y365848D01*
X452803Y352550D02*
Y353900D01*
X424272Y389500D02*
X449653Y364118D01*
X426043Y382957D02*
Y383728D01*
X423772Y386000D02*
X426043Y383728D01*
Y382957D02*
X446504Y362496D01*
X423261Y393239D02*
X423745D01*
X443354Y362146D02*
Y362917D01*
X452803Y353900D02*
Y364181D01*
X479112Y442138D02*
X481749Y439500D01*
X481337Y446000D02*
X482319Y446982D01*
X471500Y446000D02*
X474072Y448572D01*
X506728Y327000D02*
X511445D01*
X509000Y323000D02*
X509694D01*
X475500Y446000D02*
X481337D01*
X477251Y436258D02*
Y437336D01*
Y436258D02*
X477512Y435997D01*
X475630Y438957D02*
X477251Y437336D01*
X479770Y443728D02*
X481312Y442187D01*
X438114Y343386D02*
Y365848D01*
Y343386D02*
X453500Y328000D01*
X449653Y353900D02*
Y364118D01*
X475230Y409728D02*
X477501Y412000D01*
X469733Y409728D02*
X475230D01*
X467362Y408138D02*
X475888D01*
X477501Y412000D02*
X486213D01*
X477479Y409728D02*
X486190D01*
X478138Y408138D02*
X488350D01*
X476547Y406547D02*
X478138Y408138D01*
X475888D02*
X477479Y409728D01*
X464777Y406547D02*
X476547D01*
X463500Y412000D02*
X467362Y408138D01*
X461412Y409912D02*
X464777Y406547D01*
X488350Y408138D02*
X505000Y424787D01*
X481312Y442187D02*
X492813D01*
X481749Y439500D02*
X490000D01*
X492813Y442187D02*
X493000Y442000D01*
X473216Y360370D02*
Y360859D01*
X471211Y362864D02*
X473216Y360859D01*
Y360370D02*
X474850Y358736D01*
X446502Y387844D02*
Y399098D01*
X446163Y387505D02*
X446502Y387844D01*
X508000Y424787D02*
Y425500D01*
X488169Y404957D02*
X508000Y424787D01*
X471115Y403366D02*
X471701Y402780D01*
Y399100D02*
Y402780D01*
X466141Y413320D02*
X469733Y409728D01*
X486213Y412000D02*
X497272Y423059D01*
Y424984D01*
X500500Y428213D01*
X505000Y424787D02*
Y425000D01*
X455228Y343126D02*
X459102Y347000D01*
X455976Y346123D02*
Y353876D01*
X453638Y343785D02*
X455976Y346123D01*
X457500Y341000D02*
X464713D01*
X455953Y353900D02*
X455976Y353876D01*
X474850Y353900D02*
Y358736D01*
X500047Y397750D02*
Y399100D01*
X501000Y371500D02*
X503500Y369000D01*
X500047Y397750D02*
X501000Y396797D01*
Y371500D02*
Y396797D01*
X503197Y349303D02*
X507500Y345000D01*
X500047Y346953D02*
X507000Y340000D01*
X500047Y346953D02*
Y353900D01*
X503197Y349303D02*
Y353900D01*
X509539Y353943D02*
Y364680D01*
X509772Y364913D01*
X503197Y375054D02*
Y399100D01*
X512573Y353973D02*
X512646Y353900D01*
X512573Y353973D02*
Y362427D01*
X512500Y362500D02*
X512573Y362427D01*
X468551Y382051D02*
X473500Y387000D01*
X468551Y353900D02*
Y382051D01*
X465402Y359598D02*
X466000Y359000D01*
X465402Y359598D02*
Y399100D01*
X490598Y372953D02*
X500019Y363532D01*
X490598Y372953D02*
Y399100D01*
X481150Y373850D02*
X496500Y358500D01*
X481150Y373850D02*
Y399100D01*
X484299Y375201D02*
X498500Y361000D01*
X484299Y375201D02*
Y399100D01*
X493748Y374252D02*
X502000Y366000D01*
X493748Y374252D02*
Y399100D01*
X459051Y399049D02*
X459102Y399100D01*
X459051Y392551D02*
Y399049D01*
X459000Y392500D02*
X459051Y392551D01*
X455953Y399100D02*
X455976Y399076D01*
Y391524D02*
Y399076D01*
Y391524D02*
X456000Y391500D01*
X452803Y399100D02*
X452902Y399002D01*
Y391098D02*
Y399002D01*
Y391098D02*
X453000Y391000D01*
X459102Y347000D02*
Y353900D01*
X465451Y345049D02*
Y353851D01*
X464713Y341000D02*
X471701Y347988D01*
X465451Y345049D02*
X465500Y345000D01*
X462126Y354026D02*
Y360374D01*
X462000Y360500D02*
X462126Y360374D01*
Y354026D02*
X462252Y353900D01*
X468526Y399074D02*
X468551Y399100D01*
X468526Y386526D02*
Y399074D01*
X468500Y386500D02*
X468526Y386526D01*
X509496Y353900D02*
X509539Y353943D01*
X483559Y324228D02*
X490360D01*
X490631Y324500D01*
X491000D01*
X484299Y326701D02*
Y353900D01*
Y326701D02*
X484500Y326500D01*
X490598Y353900D02*
X490799Y353699D01*
Y342201D02*
Y353699D01*
Y342201D02*
X491000Y342000D01*
X493748Y353900D02*
X493874Y353774D01*
Y348626D02*
Y353774D01*
Y348626D02*
X494000Y348500D01*
X443354Y353900D02*
Y362146D01*
X446504Y353900D02*
Y362496D01*
X471701Y347988D02*
Y353900D01*
X465402D02*
X465451Y353851D01*
X446502Y399098D02*
X446504Y399100D01*
D15*
X579500Y386209D02*
D03*
Y380500D02*
D03*
X520768Y463854D02*
D03*
Y458146D02*
D03*
X511500Y463854D02*
D03*
Y458146D02*
D03*
X579500Y402209D02*
D03*
Y396500D02*
D03*
X391461Y412237D02*
D03*
Y406529D02*
D03*
D16*
X556228Y328055D02*
D03*
X562542D02*
D03*
X618343Y376500D02*
D03*
X624657D02*
D03*
X564343Y442000D02*
D03*
X570657D02*
D03*
X552657D02*
D03*
X546343D02*
D03*
X388843Y354500D02*
D03*
X395157D02*
D03*
X444657Y453000D02*
D03*
X438343D02*
D03*
X443588Y344589D02*
D03*
X449902D02*
D03*
X497964Y408411D02*
D03*
X504278D02*
D03*
X496686Y337000D02*
D03*
X503000D02*
D03*
D17*
X636360Y342009D02*
D03*
X642069D02*
D03*
X627683Y341661D02*
D03*
X621974D02*
D03*
X627892Y323126D02*
D03*
X622183D02*
D03*
X622035Y332393D02*
D03*
X627744D02*
D03*
X603354Y422500D02*
D03*
X597646D02*
D03*
X603354Y431768D02*
D03*
X597646D02*
D03*
D19*
X454729Y453539D02*
D03*
X462209D02*
D03*
D20*
X401516Y406774D02*
D03*
Y414255D02*
D03*
D21*
X527000Y441343D02*
D03*
Y447657D02*
D03*
X536500Y441186D02*
D03*
Y447500D02*
D03*
X514362Y344203D02*
D03*
Y337889D02*
D03*
X444340Y408797D02*
D03*
Y415111D02*
D03*
D34*
X602689Y408862D02*
D03*
Y398075D02*
D03*
X602689Y387287D02*
D03*
X602689Y376500D02*
D03*
X602689Y365713D02*
D03*
X602689Y354925D02*
D03*
Y344138D02*
D03*
X591508Y414256D02*
D03*
Y403469D02*
D03*
Y392681D02*
D03*
Y381894D02*
D03*
Y371106D02*
D03*
Y360319D02*
D03*
Y349532D02*
D03*
Y338744D02*
D03*
D35*
X438551Y461795D02*
D03*
X462209Y462025D02*
D03*
X511579Y451692D02*
D03*
X509500Y403816D02*
D03*
X452618Y414109D02*
D03*
X401500Y421316D02*
D03*
X407610Y393277D02*
D03*
X400000Y378000D02*
D03*
X391500D02*
D03*
X395157Y346973D02*
D03*
X449902Y348718D02*
D03*
X503000Y328816D02*
D03*
X520000Y339316D02*
D03*
X487633Y359857D02*
D03*
X449712Y390212D02*
D03*
X442046Y385239D02*
D03*
X441000Y388000D02*
D03*
X444244Y383228D02*
D03*
X487500Y392316D02*
D03*
X549055Y327871D02*
D03*
X570441Y311027D02*
D03*
X616550Y323254D02*
D03*
X638500Y337500D02*
D03*
X649268Y332548D02*
D03*
X579500Y373316D02*
D03*
X555000Y397316D02*
D03*
X575521Y429328D02*
D03*
X420500Y411316D02*
D03*
X396500Y387000D02*
D03*
X423029Y306345D02*
D03*
X544496Y345996D02*
D03*
X563418Y337734D02*
D03*
X555500Y334500D02*
D03*
X537140Y347852D02*
D03*
X556500Y431816D02*
D03*
X539464Y405757D02*
D03*
X530272Y387500D02*
D03*
Y382816D02*
D03*
X524869Y410947D02*
D03*
X527113Y363703D02*
D03*
X518500Y327816D02*
D03*
X489989Y327809D02*
D03*
X472439Y328816D02*
D03*
X449500Y340500D02*
D03*
X426500Y350816D02*
D03*
X442365Y379451D02*
D03*
X431000Y396316D02*
D03*
X430361Y400573D02*
D03*
X492000Y404816D02*
D03*
X449000Y424000D02*
D03*
X500500Y438000D02*
D03*
X513500Y425500D02*
D03*
X630500Y400500D02*
D03*
X625500D02*
D03*
X620000D02*
D03*
X630500Y405500D02*
D03*
X625500D02*
D03*
X620000D02*
D03*
X630500Y409500D02*
D03*
X625500D02*
D03*
X620000D02*
D03*
X578500Y432000D02*
D03*
X558000Y351500D02*
D03*
X551000Y350000D02*
D03*
X520472Y453472D02*
D03*
X519000Y418000D02*
D03*
X510500Y414000D02*
D03*
X504000Y452000D02*
D03*
X494900Y454500D02*
D03*
X521500Y413592D02*
D03*
X535000Y421000D02*
D03*
X475341Y324228D02*
D03*
X479957Y326500D02*
D03*
X563000Y397500D02*
D03*
X559674Y429555D02*
D03*
X563000Y407000D02*
D03*
X529728Y348636D02*
D03*
Y353942D02*
D03*
X542000Y395000D02*
D03*
X539500Y402000D02*
D03*
X510470Y409488D02*
D03*
X498000Y393000D02*
D03*
X507000D02*
D03*
X515500D02*
D03*
X427223Y326020D02*
D03*
X527500Y346500D02*
D03*
X538000Y389500D02*
D03*
X465439Y322579D02*
D03*
X440223Y331020D02*
D03*
X398500Y401500D02*
D03*
X421000Y408000D02*
D03*
X434500Y421500D02*
D03*
X393500Y367500D02*
D03*
X409000Y372132D02*
D03*
X403500Y357000D02*
D03*
X388351Y399032D02*
D03*
X426000Y396500D02*
D03*
X451285Y406219D02*
D03*
X454500Y409429D02*
D03*
X457500Y408500D02*
D03*
X458957Y412705D02*
D03*
X431892Y361615D02*
D03*
X426500Y344000D02*
D03*
X466874Y438339D02*
D03*
X463500Y445000D02*
D03*
X461488Y326331D02*
D03*
X515091Y377480D02*
D03*
X500500Y425000D02*
D03*
X495000Y424000D02*
D03*
X490500D02*
D03*
X475035Y427236D02*
D03*
X426177Y367824D02*
D03*
X423772Y386000D02*
D03*
Y382500D02*
D03*
X424272Y389500D02*
D03*
X423000Y393500D02*
D03*
X453500Y436500D02*
D03*
X457564Y436566D02*
D03*
X460500Y447000D02*
D03*
X486846Y444710D02*
D03*
X468000Y446000D02*
D03*
X506728Y327000D02*
D03*
X509000Y323000D02*
D03*
X471500Y446000D02*
D03*
X474640Y436685D02*
D03*
X475500Y446000D02*
D03*
X477512Y435997D02*
D03*
X453500Y328000D02*
D03*
X449500Y328500D02*
D03*
X474394Y412106D02*
D03*
X490000Y439500D02*
D03*
X497500Y441500D02*
D03*
X493000Y442000D02*
D03*
X471211Y362864D02*
D03*
X527000Y379500D02*
D03*
X507976Y425476D02*
D03*
X463500Y412000D02*
D03*
X466141Y413320D02*
D03*
X461412Y409912D02*
D03*
X505000Y425000D02*
D03*
X457500Y341000D02*
D03*
X498000Y378000D02*
D03*
X507500Y345000D02*
D03*
X507000Y340000D02*
D03*
X509772Y364913D02*
D03*
X512500Y362500D02*
D03*
X507081Y377361D02*
D03*
X473500Y387000D02*
D03*
X466000Y359000D02*
D03*
X498500Y361000D02*
D03*
X500019Y363532D02*
D03*
X496500Y358500D02*
D03*
X502000Y366000D02*
D03*
X503500Y369000D02*
D03*
X459000Y392500D02*
D03*
X456000Y391500D02*
D03*
X453000Y391000D02*
D03*
X465500Y345000D02*
D03*
X462000Y360500D02*
D03*
X468500Y386500D02*
D03*
X491000Y324500D02*
D03*
X484500Y326500D02*
D03*
X491000Y342000D02*
D03*
X494000Y348500D02*
D03*
D36*
X558500Y441500D02*
D03*
X536000Y453000D02*
D03*
X459500Y317000D02*
D03*
Y311000D02*
D03*
Y305500D02*
D03*
X507500Y308500D02*
D03*
Y316500D02*
D03*
X547500Y299000D02*
D03*
Y305000D02*
D03*
Y310500D02*
D03*
X568500Y369000D02*
D03*
X559167D02*
D03*
X549333D02*
D03*
X539500D02*
D03*
X626500Y314500D02*
D03*
X622000D02*
D03*
X616000D02*
D03*
X610500D02*
D03*
X616000Y319500D02*
D03*
X610500D02*
D03*
D38*
X484000Y461500D02*
X488232D01*
X489578Y462846D01*
Y463304D01*
X494664Y468390D01*
X550309D01*
X578500Y440198D01*
Y432000D02*
Y440198D01*
D39*
X597098Y310910D02*
D03*
Y442091D02*
D03*
D41*
X564535Y318894D02*
D03*
Y316335D02*
D03*
Y313776D02*
D03*
Y311216D02*
D03*
X552921Y318894D02*
D03*
Y316335D02*
D03*
Y313776D02*
D03*
Y311216D02*
D03*
D42*
X558728Y315055D02*
D03*
D43*
X546807Y355399D02*
D03*
Y360517D02*
D03*
D44*
X572638Y367822D02*
D03*
X572638Y363097D02*
D03*
X572626Y351269D02*
D03*
Y355993D02*
D03*
D45*
X564146Y358531D02*
D03*
Y360500D02*
D03*
Y362469D02*
D03*
X554500D02*
D03*
Y360500D02*
D03*
Y358531D02*
D03*
D46*
X563260Y365323D02*
D03*
X561291Y365323D02*
D03*
X559323D02*
D03*
X557354D02*
D03*
X555386Y365323D02*
D03*
Y355677D02*
D03*
X557354D02*
D03*
X559323D02*
D03*
X561291D02*
D03*
X563260D02*
D03*
D47*
X558307Y346803D02*
D03*
X563031D02*
D03*
D48*
X569130Y407500D02*
D03*
Y402500D02*
D03*
Y397500D02*
D03*
Y392500D02*
D03*
X547870Y407500D02*
D03*
Y402500D02*
D03*
Y397500D02*
D03*
Y392500D02*
D03*
D49*
X610250Y332500D02*
D03*
X599750D02*
D03*
D50*
X472780Y461500D02*
D03*
X484000D02*
D03*
D51*
X502831Y457760D02*
D03*
Y465240D02*
D03*
X494169Y461500D02*
D03*
D52*
X614746Y365578D02*
D03*
X626557D02*
D03*
X649521Y389764D02*
D03*
X637710D02*
D03*
X614719Y352700D02*
D03*
X626531D02*
D03*
X619347Y389764D02*
D03*
X631158D02*
D03*
X649405Y403000D02*
D03*
X637595D02*
D03*
D53*
X644858Y332732D02*
D03*
X638165D02*
D03*
D54*
X637500Y380004D02*
D03*
Y367996D02*
D03*
D55*
X635531Y359000D02*
D03*
X637500D02*
D03*
X639469D02*
D03*
Y352700D02*
D03*
X637500Y352700D02*
D03*
X635531Y352700D02*
D03*
D56*
X588461Y422500D02*
D03*
X583539D02*
D03*
X588461Y432000D02*
D03*
X583539D02*
D03*
D57*
X569725Y414500D02*
D03*
Y419500D02*
D03*
Y424500D02*
D03*
Y429500D02*
D03*
X548275D02*
D03*
Y424500D02*
D03*
Y419500D02*
D03*
Y414500D02*
D03*
D58*
X396000Y378000D02*
D03*
D59*
X388500Y362550D02*
D03*
X393500D02*
D03*
X398500D02*
D03*
X403500D02*
D03*
Y393450D02*
D03*
X398500D02*
D03*
X393500D02*
D03*
X388500D02*
D03*
D60*
X515795Y399100D02*
D03*
X512646D02*
D03*
X509496D02*
D03*
X506347D02*
D03*
X503197D02*
D03*
X500047D02*
D03*
X496898D02*
D03*
X493748D02*
D03*
X490598D02*
D03*
X487449D02*
D03*
X484299D02*
D03*
X481150D02*
D03*
X478000D02*
D03*
X474850D02*
D03*
X471701D02*
D03*
X468551D02*
D03*
X465402D02*
D03*
X462252D02*
D03*
X459102D02*
D03*
X455953D02*
D03*
X452803D02*
D03*
X449653D02*
D03*
X446504D02*
D03*
X443354D02*
D03*
X440205D02*
D03*
X440205Y353900D02*
D03*
X443354D02*
D03*
X446504D02*
D03*
X449653D02*
D03*
X452803D02*
D03*
X455953D02*
D03*
X459102D02*
D03*
X462252D02*
D03*
X465402D02*
D03*
X468551D02*
D03*
X471701D02*
D03*
X474850D02*
D03*
X478000D02*
D03*
X481150D02*
D03*
X484299D02*
D03*
X487449D02*
D03*
X490598D02*
D03*
X493748D02*
D03*
X496898D02*
D03*
X500047D02*
D03*
X503197D02*
D03*
X506347D02*
D03*
X509496D02*
D03*
X512646D02*
D03*
X515795D02*
D03*
D61*
X569561Y397931D02*
X572136D01*
X572310Y398104D01*
X572896Y400604D02*
X577600D01*
X572310Y398104D02*
X577600D01*
X571000Y402500D02*
X572896Y400604D01*
X569130Y397500D02*
X569561Y397931D01*
X577600Y400604D02*
X579205Y402209D01*
X577600Y398104D02*
X579205Y396500D01*
X579500D01*
X579205Y402209D02*
X579795D01*
X590704Y393485D02*
X591508Y392681D01*
X582907Y398801D02*
Y398827D01*
X582122Y399612D02*
X582907Y398827D01*
X579795Y402209D02*
X580817Y401187D01*
Y400892D02*
Y401187D01*
X582907Y398801D02*
X588224Y393485D01*
X582096Y399612D02*
X582122D01*
X588224Y393485D02*
X590704D01*
X580817Y400892D02*
X582096Y399612D01*
X585666Y376948D02*
X591508Y371106D01*
X585666Y376948D02*
Y386290D01*
X579500Y392457D02*
X585666Y386290D01*
X579500Y392457D02*
Y396500D01*
X569130Y402500D02*
X571000D01*
X569130Y392500D02*
X576500D01*
X579500Y389500D01*
Y386209D02*
Y389500D01*
D62*
X591297Y338978D02*
X591319Y338957D01*
M02*
