G04*
G04 #@! TF.GenerationSoftware,Altium Limited,Altium Designer,25.1.2 (22)*
G04*
G04 Layer_Color=128*
%FSLAX25Y25*%
%MOIN*%
G70*
G04*
G04 #@! TF.SameCoordinates,8CEF69DF-C305-4807-9533-15B17650E19F*
G04*
G04*
G04 #@! TF.FilePolarity,Positive*
G04*
G01*
G75*
%ADD86C,0.00500*%
D86*
X404811Y438321D02*
X417410D01*
X411110Y432022D02*
Y444621D01*
X404701Y313500D02*
X417299D01*
X411000Y307201D02*
Y319799D01*
X638701Y263500D02*
X651299D01*
X645000Y257201D02*
Y269799D01*
X638701Y489000D02*
X651299D01*
X645000Y482701D02*
Y495299D01*
X573315Y458005D02*
X579811D01*
X576563Y454757D02*
Y461253D01*
X557724Y458005D02*
X564221D01*
X560972Y454757D02*
Y461253D01*
X626610Y443378D02*
X639210D01*
X632909Y437078D02*
Y449678D01*
X626610Y312197D02*
X639210D01*
X632909Y305897D02*
Y318497D01*
X636750Y410150D02*
X640250D01*
X638500Y408400D02*
Y411900D01*
X636750Y399362D02*
X640250D01*
X638500Y397612D02*
Y401112D01*
X636750Y388575D02*
X640250D01*
X638500Y386825D02*
Y390325D01*
X636750Y377787D02*
X640250D01*
X638500Y376037D02*
Y379537D01*
X636750Y367000D02*
X640250D01*
X638500Y365250D02*
Y368750D01*
X636750Y356213D02*
X640250D01*
X638500Y354463D02*
Y357963D01*
X636750Y345425D02*
X640250D01*
X638500Y343675D02*
Y347175D01*
X625569Y415543D02*
X629069D01*
X627319Y413793D02*
Y417293D01*
X625569Y404756D02*
X629069D01*
X627319Y403006D02*
Y406506D01*
X625569Y393969D02*
X629069D01*
X627319Y392218D02*
Y395719D01*
X625569Y383181D02*
X629069D01*
X627319Y381431D02*
Y384931D01*
X625569Y372394D02*
X629069D01*
X627319Y370644D02*
Y374144D01*
X625569Y361606D02*
X629069D01*
X627319Y359856D02*
Y363356D01*
X625569Y350819D02*
X629069D01*
X627319Y349069D02*
Y352569D01*
X625569Y340032D02*
X629069D01*
X627319Y338281D02*
Y341781D01*
X647228Y468000D02*
X650772D01*
X649000Y466228D02*
Y469772D01*
X637386Y468000D02*
X640929D01*
X639157Y466228D02*
Y469772D01*
X627543Y468000D02*
X631087D01*
X629315Y466228D02*
Y469772D01*
X617701Y468000D02*
X621244D01*
X619472Y466228D02*
Y469772D01*
X607858Y468000D02*
X611402D01*
X609630Y466228D02*
Y469772D01*
X598016Y468000D02*
X601559D01*
X599787Y466228D02*
Y469772D01*
X467492Y285000D02*
X471508D01*
X469500Y282992D02*
Y287008D01*
X457492Y285000D02*
X461508D01*
X459500Y282992D02*
Y287008D01*
X467492Y295000D02*
X471508D01*
X469500Y292992D02*
Y297008D01*
X457492Y295000D02*
X461508D01*
X459500Y292992D02*
Y297008D01*
X597858Y283500D02*
X601402D01*
X599630Y281728D02*
Y285272D01*
X607701Y283500D02*
X611244D01*
X609472Y281728D02*
Y285272D01*
X617543Y283500D02*
X621087D01*
X619315Y281728D02*
Y285272D01*
X627386Y283500D02*
X630929D01*
X629157Y281728D02*
Y285272D01*
X637228Y283500D02*
X640772D01*
X639000Y281728D02*
Y285272D01*
X647071Y283500D02*
X650614D01*
X648842Y281728D02*
Y285272D01*
X524524Y277087D02*
X527476D01*
X526000Y275610D02*
Y278563D01*
X524524Y287913D02*
X527476D01*
X526000Y286437D02*
Y289390D01*
X489524Y277087D02*
X492476D01*
X491000Y275610D02*
Y278563D01*
X489524Y287913D02*
X492476D01*
X491000Y286437D02*
Y289390D01*
X417891Y366142D02*
X420691D01*
X419291Y364742D02*
Y367542D01*
X451713Y437500D02*
X453287D01*
X452500Y436713D02*
Y438287D01*
X506474Y425197D02*
X509274D01*
X507874Y423797D02*
Y426597D01*
X476946Y460630D02*
X479746D01*
X478346Y459230D02*
Y462030D01*
X423797Y307086D02*
X426597D01*
X425197Y305686D02*
Y308487D01*
X411986Y448819D02*
X414786D01*
X413386Y447419D02*
Y450219D01*
X417891Y318898D02*
X420691D01*
X419291Y317497D02*
Y320298D01*
X509713Y407500D02*
X511287D01*
X510500Y406713D02*
Y408287D01*
X425713Y421500D02*
X427287D01*
X426500Y420713D02*
Y422287D01*
X536213Y453500D02*
X537787D01*
X537000Y452713D02*
Y454287D01*
X526713Y453500D02*
X528287D01*
X527500Y452713D02*
Y454287D01*
X517213Y453500D02*
X518787D01*
X518000Y452713D02*
Y454287D01*
X477713Y455862D02*
X479287D01*
X478500Y455075D02*
Y456650D01*
X513683Y425398D02*
X515258D01*
X514470Y424611D02*
Y426185D01*
X512441Y405945D02*
X514016D01*
X513228Y405158D02*
Y406733D01*
X517713Y416500D02*
X519287D01*
X518500Y415713D02*
Y417287D01*
X510713Y413000D02*
X512287D01*
X511500Y412213D02*
Y413787D01*
X508116Y410742D02*
X509691D01*
X508903Y409954D02*
Y411529D01*
X447544Y437138D02*
X449119D01*
X448332Y436350D02*
Y437925D01*
X455713Y441000D02*
X457287D01*
X456500Y440213D02*
Y441787D01*
X440606Y442106D02*
X442181D01*
X441394Y441319D02*
Y442894D01*
X447411Y468676D02*
X448986D01*
X448199Y467889D02*
Y469463D01*
X464669Y448500D02*
X466244D01*
X465457Y447713D02*
Y449287D01*
X467213Y447000D02*
X468787D01*
X468000Y446213D02*
Y447787D01*
X456713Y451000D02*
X458287D01*
X457500Y450213D02*
Y451787D01*
X453106Y450606D02*
X454681D01*
X453894Y449819D02*
Y451394D01*
X457519Y447519D02*
X459094D01*
X458307Y446732D02*
Y448307D01*
X465713Y424500D02*
X467287D01*
X466500Y423713D02*
Y425287D01*
X463965Y442457D02*
X465540D01*
X464753Y441669D02*
Y443244D01*
X422213Y459500D02*
X423787D01*
X423000Y458713D02*
Y460287D01*
X415628Y453298D02*
X417202D01*
X416415Y452510D02*
Y454085D01*
X422213Y440632D02*
X423787D01*
X423000Y439845D02*
Y441420D01*
X434286Y428559D02*
X435861D01*
X435074Y427771D02*
Y429346D01*
X441106Y427106D02*
X442681D01*
X441894Y426319D02*
Y427894D01*
X425030Y400106D02*
X426605D01*
X425818Y399319D02*
Y400894D01*
X480713Y409000D02*
X482287D01*
X481500Y408213D02*
Y409787D01*
X491713Y424000D02*
X493287D01*
X492500Y423213D02*
Y424787D01*
X484674Y424011D02*
X486249D01*
X485462Y423223D02*
Y424798D01*
X488713Y426379D02*
X490287D01*
X489500Y425592D02*
Y427167D01*
X482213Y427970D02*
X483787D01*
X483000Y427182D02*
Y428757D01*
X470495Y449228D02*
X472070D01*
X471282Y448441D02*
Y450016D01*
X465713Y407500D02*
X467287D01*
X466500Y406713D02*
Y408287D01*
X455619Y409772D02*
X457194D01*
X456406Y408984D02*
Y410559D01*
X450543Y414000D02*
X452118D01*
X451331Y413213D02*
Y414787D01*
X458386Y412591D02*
X459961D01*
X459173Y411804D02*
Y413378D01*
X453596Y423617D02*
X455170D01*
X454383Y422830D02*
Y424404D01*
X447471Y423359D02*
X449046D01*
X448258Y422571D02*
Y424146D01*
X449333Y425651D02*
X450907D01*
X450120Y424863D02*
Y426438D01*
X460213Y426000D02*
X461787D01*
X461000Y425213D02*
Y426787D01*
X480213Y423500D02*
X481787D01*
X481000Y422713D02*
Y424287D01*
X502597Y436868D02*
X504172D01*
X503384Y436080D02*
Y437655D01*
X499713Y437500D02*
X501287D01*
X500500Y436713D02*
Y438287D01*
X491941Y439569D02*
X493516D01*
X492728Y438781D02*
Y440356D01*
X489713Y449728D02*
X491287D01*
X490500Y448941D02*
Y450516D01*
X478213Y436500D02*
X479787D01*
X479000Y435713D02*
Y437287D01*
X482328Y447879D02*
X483902D01*
X483115Y447091D02*
Y448666D01*
X466856Y441856D02*
X468431D01*
X467644Y441069D02*
Y442644D01*
X487892Y447359D02*
X489467D01*
X488680Y446572D02*
Y448146D01*
X472618Y425399D02*
X474193D01*
X473406Y424612D02*
Y426186D01*
X475082Y423130D02*
X476657D01*
X475870Y422343D02*
Y423918D01*
X520602Y418862D02*
X522177D01*
X521390Y418075D02*
Y419650D01*
X421147Y411360D02*
X422722D01*
X421934Y410572D02*
Y412147D01*
X419897Y406897D02*
X421472D01*
X420684Y406109D02*
Y407684D01*
X500713Y290000D02*
X502287D01*
X501500Y289213D02*
Y290787D01*
X507359Y301157D02*
X509327D01*
X508343Y300173D02*
Y302141D01*
X559516Y289000D02*
X561484D01*
X560500Y288016D02*
Y289984D01*
X540016Y295000D02*
X541984D01*
X541000Y294016D02*
Y295984D01*
X546516Y305000D02*
X548484D01*
X547500Y304016D02*
Y305984D01*
X541516Y286091D02*
X543484D01*
X542500Y285106D02*
Y287075D01*
X425016Y297000D02*
X426984D01*
X426000Y296016D02*
Y297984D01*
X566305Y328811D02*
X569105D01*
X567705Y327411D02*
Y330211D01*
X524966Y293378D02*
X527766D01*
X526366Y291978D02*
Y294778D01*
X495439Y305189D02*
X498239D01*
X496839Y303789D02*
Y306589D01*
X489533Y293378D02*
X492333D01*
X490933Y291978D02*
Y294778D01*
X471816Y305189D02*
X474616D01*
X473216Y303789D02*
Y306589D01*
X477722Y293378D02*
X480522D01*
X479122Y291978D02*
Y294778D01*
X454100Y317000D02*
X456900D01*
X455500Y315600D02*
Y318400D01*
X654112Y460630D02*
X656912D01*
X655512Y459230D02*
Y462030D01*
X648206Y425197D02*
X651006D01*
X649606Y423797D02*
Y426597D01*
X648206Y401575D02*
X651006D01*
X649606Y400175D02*
Y402975D01*
X648206Y377953D02*
X651006D01*
X649606Y376553D02*
Y379353D01*
X648206Y354331D02*
X651006D01*
X649606Y352931D02*
Y355731D01*
X648206Y330709D02*
X651006D01*
X649606Y329309D02*
Y332109D01*
X648206Y307086D02*
X651006D01*
X649606Y305686D02*
Y308487D01*
X642301Y437008D02*
X645101D01*
X643701Y435608D02*
Y438408D01*
X636395Y425197D02*
X639195D01*
X637795Y423797D02*
Y426597D01*
X642301Y413386D02*
X645101D01*
X643701Y411986D02*
Y414786D01*
X642301Y389764D02*
X645101D01*
X643701Y388364D02*
Y391164D01*
X642301Y318898D02*
X645101D01*
X643701Y317497D02*
Y320298D01*
X624584Y472441D02*
X627384D01*
X625984Y471041D02*
Y473841D01*
X624584Y377953D02*
X627384D01*
X625984Y376553D02*
Y379353D01*
X630490Y366142D02*
X633290D01*
X631890Y364742D02*
Y367542D01*
X630490Y342520D02*
X633290D01*
X631890Y341120D02*
Y343920D01*
X630490Y295275D02*
X633290D01*
X631890Y293876D02*
Y296675D01*
X612773Y472441D02*
X615573D01*
X614173Y471041D02*
Y473841D01*
X612773Y401575D02*
X615573D01*
X614173Y400175D02*
Y402975D01*
X618679Y366142D02*
X621479D01*
X620079Y364742D02*
Y367542D01*
X612773Y330709D02*
X615573D01*
X614173Y329309D02*
Y332109D01*
X618679Y318898D02*
X621479D01*
X620079Y317497D02*
Y320298D01*
X618679Y295275D02*
X621479D01*
X620079Y293876D02*
Y296675D01*
X600962Y330709D02*
X603762D01*
X602362Y329309D02*
Y332109D01*
X606868Y318898D02*
X609667D01*
X608267Y317497D02*
Y320298D01*
X600962Y307086D02*
X603762D01*
X602362Y305686D02*
Y308487D01*
X589151Y472441D02*
X591951D01*
X590551Y471041D02*
Y473841D01*
X577340Y472441D02*
X580140D01*
X578740Y471041D02*
Y473841D01*
X583246Y389764D02*
X586046D01*
X584646Y388364D02*
Y391164D01*
X577340Y354331D02*
X580140D01*
X578740Y352931D02*
Y355731D01*
X565529Y472441D02*
X568329D01*
X566929Y471041D02*
Y473841D01*
X571434Y437008D02*
X574234D01*
X572834Y435608D02*
Y438408D01*
X571434Y318898D02*
X574234D01*
X572834Y317497D02*
Y320298D01*
X565529Y283465D02*
X568329D01*
X566929Y282065D02*
Y284864D01*
X553718Y472441D02*
X556518D01*
X555118Y471041D02*
Y473841D01*
X559623Y437008D02*
X562423D01*
X561023Y435608D02*
Y438408D01*
X553718Y401575D02*
X556518D01*
X555118Y400175D02*
Y402975D01*
X559623Y389764D02*
X562423D01*
X561023Y388364D02*
Y391164D01*
X541907Y472441D02*
X544707D01*
X543307Y471041D02*
Y473841D01*
X530096Y472441D02*
X532896D01*
X531496Y471041D02*
Y473841D01*
X518285Y472441D02*
X521085D01*
X519685Y471041D02*
Y473841D01*
X506474Y472441D02*
X509274D01*
X507874Y471041D02*
Y473841D01*
X494663Y472441D02*
X497463D01*
X496063Y471041D02*
Y473841D01*
X471041Y472441D02*
X473841D01*
X472441Y471041D02*
Y473841D01*
X476946Y389764D02*
X479746D01*
X478346Y388364D02*
Y391164D01*
X459230Y472441D02*
X462030D01*
X460630Y471041D02*
Y473841D01*
X465135Y318898D02*
X467935D01*
X466535Y317497D02*
Y320298D01*
X453324Y366142D02*
X456124D01*
X454724Y364742D02*
Y367542D01*
X417891Y295275D02*
X420691D01*
X419291Y293876D02*
Y296675D01*
X400175Y425197D02*
X402975D01*
X401575Y423797D02*
Y426597D01*
X406080Y413386D02*
X408880D01*
X407480Y411986D02*
Y414786D01*
X394269Y413386D02*
X397069D01*
X395669Y411986D02*
Y414786D01*
X394269Y342520D02*
X397069D01*
X395669Y341120D02*
Y343920D01*
X388364Y330709D02*
X391164D01*
X389764Y329309D02*
Y332109D01*
X394269Y318898D02*
X397069D01*
X395669Y317497D02*
Y320298D01*
X382458Y389764D02*
X385258D01*
X383858Y388364D02*
Y391164D01*
X376553Y377953D02*
X379353D01*
X377953Y376553D02*
Y379353D01*
X382458Y366142D02*
X385258D01*
X383858Y364742D02*
Y367542D01*
X382458Y342520D02*
X385258D01*
X383858Y341120D02*
Y343920D01*
X602516Y451500D02*
X604484D01*
X603500Y450516D02*
Y452484D01*
X582713Y403000D02*
X584287D01*
X583500Y402213D02*
Y403787D01*
X583090Y406188D02*
X584665D01*
X583878Y405401D02*
Y406976D01*
X589213Y409522D02*
X590787D01*
X590000Y408734D02*
Y410309D01*
X599713Y409000D02*
X601287D01*
X600500Y408213D02*
Y409787D01*
X594713Y409000D02*
X596287D01*
X595500Y408213D02*
Y409787D01*
X619516Y382000D02*
X621484D01*
X620500Y381016D02*
Y382984D01*
X617713Y341000D02*
X619287D01*
X618500Y340213D02*
Y341787D01*
X581516Y324000D02*
X583484D01*
X582500Y323016D02*
Y324984D01*
X587516Y324000D02*
X589484D01*
X588500Y323016D02*
Y324984D01*
X593516Y324000D02*
X595484D01*
X594500Y323016D02*
Y324984D01*
X586713Y331500D02*
X588287D01*
X587500Y330713D02*
Y332287D01*
X607713Y346000D02*
X609287D01*
X608500Y345213D02*
Y346787D01*
X600213Y354500D02*
X601787D01*
X601000Y353713D02*
Y355287D01*
X580016Y394500D02*
X581984D01*
X581000Y393516D02*
Y395484D01*
X594713Y414000D02*
X596287D01*
X595500Y413213D02*
Y414787D01*
X589213Y418000D02*
X590787D01*
X590000Y417213D02*
Y418787D01*
X589213Y414000D02*
X590787D01*
X590000Y413213D02*
Y414787D01*
X599713Y414000D02*
X601287D01*
X600500Y413213D02*
Y414787D01*
X594713Y418000D02*
X596287D01*
X595500Y417213D02*
Y418787D01*
X612213Y367500D02*
X613787D01*
X613000Y366713D02*
Y368287D01*
X619516Y388000D02*
X621484D01*
X620500Y387016D02*
Y388984D01*
X580016Y381000D02*
X581984D01*
X581000Y380016D02*
Y381984D01*
X599713Y418000D02*
X601287D01*
X600500Y417213D02*
Y418787D01*
X580016Y388000D02*
X581984D01*
X581000Y387016D02*
Y388984D01*
X570984Y298148D02*
X572559D01*
X571772Y297360D02*
Y298935D01*
X530429Y336579D02*
X532004D01*
X531216Y335791D02*
Y337366D01*
X530213Y347500D02*
X531787D01*
X531000Y346713D02*
Y348287D01*
X527149Y346936D02*
X528724D01*
X527936Y346149D02*
Y347724D01*
X497713Y360631D02*
X499287D01*
X498500Y359844D02*
Y361419D01*
X495713Y358022D02*
X497287D01*
X496500Y357234D02*
Y358809D01*
X475799Y414084D02*
X477374D01*
X476586Y413297D02*
Y414871D01*
X576999Y367214D02*
X578574D01*
X577786Y366426D02*
Y368001D01*
X567516Y369000D02*
X569484D01*
X568500Y368016D02*
Y369984D01*
X558016Y369000D02*
X559984D01*
X559000Y368016D02*
Y369984D01*
X548016Y369000D02*
X549984D01*
X549000Y368016D02*
Y369984D01*
X538516Y369000D02*
X540484D01*
X539500Y368016D02*
Y369984D01*
X468577Y363636D02*
X470152D01*
X469364Y362848D02*
Y364423D01*
X464558Y358980D02*
X466133D01*
X465346Y358192D02*
Y359767D01*
X462713Y370612D02*
X464287D01*
X463500Y369825D02*
Y371399D01*
X470713Y359000D02*
X472287D01*
X471500Y358213D02*
Y359787D01*
X497213Y377741D02*
X498787D01*
X498000Y376954D02*
Y378529D01*
X480860Y369228D02*
X482435D01*
X481648Y368441D02*
Y370016D01*
X539713Y428000D02*
X541287D01*
X540500Y427213D02*
Y428787D01*
X514213Y348500D02*
X515787D01*
X515000Y347713D02*
Y349287D01*
X608138Y303574D02*
X609713D01*
X608926Y302787D02*
Y304362D01*
X578213Y309000D02*
X579787D01*
X579000Y308213D02*
Y309787D01*
X571839Y346374D02*
X573413D01*
X572626Y345587D02*
Y347161D01*
X553016Y346803D02*
X554591D01*
X553803Y346016D02*
Y347590D01*
X557213Y351500D02*
X558787D01*
X558000Y350713D02*
Y352287D01*
X541814Y355399D02*
X543389D01*
X542601Y354611D02*
Y356186D01*
X538497Y333629D02*
X540072D01*
X539285Y332841D02*
Y334416D01*
X547713Y334500D02*
X549287D01*
X548500Y333713D02*
Y335287D01*
X531859Y427646D02*
X533434D01*
X532647Y426859D02*
Y428434D01*
X534213Y421000D02*
X535787D01*
X535000Y420213D02*
Y421787D01*
X541213Y395000D02*
X542787D01*
X542000Y394213D02*
Y395787D01*
X536352Y347852D02*
X537927D01*
X537140Y347065D02*
Y348639D01*
X517713Y327816D02*
X519287D01*
X518500Y327028D02*
Y328603D01*
X453256Y328000D02*
X454831D01*
X454043Y327213D02*
Y328787D01*
X441713Y326228D02*
X443287D01*
X442500Y325441D02*
Y327016D01*
X490713Y327000D02*
X492287D01*
X491500Y326213D02*
Y327787D01*
X491984Y324148D02*
X493559D01*
X492772Y323360D02*
Y324935D01*
X489713Y282500D02*
X491287D01*
X490500Y281713D02*
Y283287D01*
X608016Y451500D02*
X609984D01*
X609000Y450516D02*
Y452484D01*
X608016Y459000D02*
X609984D01*
X609000Y458016D02*
Y459984D01*
X582752Y439461D02*
X584327D01*
X583539Y438673D02*
Y440248D01*
X529713Y363500D02*
X531287D01*
X530500Y362713D02*
Y364287D01*
X529856Y355144D02*
X531431D01*
X530644Y354356D02*
Y355931D01*
X529158Y352275D02*
X530733D01*
X529945Y351487D02*
Y353062D01*
X545237Y350572D02*
X546812D01*
X546025Y349784D02*
Y351359D01*
X569339Y342187D02*
X570914D01*
X570127Y341399D02*
Y342974D01*
X562631Y337734D02*
X564206D01*
X563418Y336947D02*
Y338522D01*
X569213Y320500D02*
X570787D01*
X570000Y319713D02*
Y321287D01*
X511607Y362394D02*
X513182D01*
X512394Y361607D02*
Y363182D01*
X508984Y364913D02*
X510559D01*
X509772Y364125D02*
Y365700D01*
X539096Y327155D02*
X540670D01*
X539883Y326368D02*
Y327942D01*
X524287Y410741D02*
X525862D01*
X525074Y409954D02*
Y411528D01*
X522713Y416500D02*
X524287D01*
X523500Y415713D02*
Y417287D01*
X520713Y413592D02*
X522287D01*
X521500Y412804D02*
Y414379D01*
X514713Y393000D02*
X516287D01*
X515500Y392213D02*
Y393787D01*
X506213Y393000D02*
X507787D01*
X507000Y392213D02*
Y393787D01*
X449115Y348718D02*
X450690D01*
X449902Y347931D02*
Y349505D01*
X537437Y408000D02*
X539012D01*
X538224Y407213D02*
Y408787D01*
X539484Y402000D02*
X541059D01*
X540272Y401213D02*
Y402787D01*
X539484Y405757D02*
X541059D01*
X540272Y404969D02*
Y406544D01*
X506516Y315802D02*
X508484D01*
X507500Y314817D02*
Y316786D01*
X557516Y441500D02*
X559484D01*
X558500Y440516D02*
Y442484D01*
X529484Y387228D02*
X531059D01*
X530272Y386441D02*
Y388016D01*
X519213Y339316D02*
X520787D01*
X520000Y338528D02*
Y340103D01*
X508713Y403816D02*
X510287D01*
X509500Y403028D02*
Y404603D01*
X400713Y421316D02*
X402287D01*
X401500Y420528D02*
Y422103D01*
X406822Y393277D02*
X408397D01*
X407610Y392489D02*
Y394064D01*
X399213Y378000D02*
X400787D01*
X400000Y377213D02*
Y378787D01*
X390713Y378000D02*
X392287D01*
X391500Y377213D02*
Y378787D01*
X394370Y346973D02*
X395944D01*
X395157Y346185D02*
Y347760D01*
X502213Y328816D02*
X503787D01*
X503000Y328028D02*
Y329603D01*
X486845Y359857D02*
X488420D01*
X487633Y359070D02*
Y360645D01*
X448925Y390212D02*
X450499D01*
X449712Y389425D02*
Y390999D01*
X441259Y385239D02*
X442834D01*
X442046Y384451D02*
Y386026D01*
X440213Y388000D02*
X441787D01*
X441000Y387213D02*
Y388787D01*
X443457Y383228D02*
X445031D01*
X444244Y382441D02*
Y384016D01*
X486713Y392316D02*
X488287D01*
X487500Y391528D02*
Y393103D01*
X574733Y429328D02*
X576308D01*
X575521Y428541D02*
Y430116D01*
X395713Y387000D02*
X397287D01*
X396500Y386213D02*
Y387787D01*
X458516Y317000D02*
X460484D01*
X459500Y316016D02*
Y317984D01*
X458516Y311000D02*
X460484D01*
X459500Y310016D02*
Y311984D01*
X458516Y305500D02*
X460484D01*
X459500Y304516D02*
Y306484D01*
X506516Y308500D02*
X508484D01*
X507500Y307516D02*
Y309484D01*
X546516Y310500D02*
X548484D01*
X547500Y309516D02*
Y311484D01*
X543709Y345996D02*
X545284D01*
X544496Y345209D02*
Y346784D01*
X554713Y334500D02*
X556287D01*
X555500Y333713D02*
Y335287D01*
X529484Y382816D02*
X531059D01*
X530272Y382028D02*
Y383603D01*
X526326Y363703D02*
X527900D01*
X527113Y362915D02*
Y364490D01*
X471651Y328816D02*
X473226D01*
X472439Y328028D02*
Y329603D01*
X448713Y340500D02*
X450287D01*
X449500Y339713D02*
Y341287D01*
X425713Y350816D02*
X427287D01*
X426500Y350028D02*
Y351603D01*
X441577Y379451D02*
X443152D01*
X442365Y378663D02*
Y380238D01*
X430213Y396316D02*
X431787D01*
X431000Y395528D02*
Y397103D01*
X429574Y400573D02*
X431148D01*
X430361Y399786D02*
Y401361D01*
X491213Y404816D02*
X492787D01*
X492000Y404028D02*
Y405603D01*
X550213Y350000D02*
X551787D01*
X551000Y349213D02*
Y350787D01*
X474553Y324228D02*
X476128D01*
X475341Y323441D02*
Y325016D01*
X497213Y393000D02*
X498787D01*
X498000Y392213D02*
Y393787D01*
X537213Y389500D02*
X538787D01*
X538000Y388713D02*
Y390287D01*
X464651Y322579D02*
X466226D01*
X465439Y321792D02*
Y323367D01*
X397713Y401500D02*
X399287D01*
X398500Y400713D02*
Y402287D01*
X433713Y421500D02*
X435287D01*
X434500Y420713D02*
Y422287D01*
X392713Y367500D02*
X394287D01*
X393500Y366713D02*
Y368287D01*
X408213Y372132D02*
X409787D01*
X409000Y371345D02*
Y372920D01*
X402713Y357000D02*
X404287D01*
X403500Y356213D02*
Y357787D01*
X387563Y399032D02*
X389138D01*
X388351Y398245D02*
Y399820D01*
X425213Y396500D02*
X426787D01*
X426000Y395713D02*
Y397287D01*
X450497Y406219D02*
X452072D01*
X451285Y405431D02*
Y407006D01*
X431104Y361615D02*
X432679D01*
X431892Y360828D02*
Y362403D01*
X425713Y344000D02*
X427287D01*
X426500Y343213D02*
Y344787D01*
X460701Y326331D02*
X462276D01*
X461488Y325543D02*
Y327118D01*
X514304Y377480D02*
X515879D01*
X515091Y376692D02*
Y378267D01*
X425390Y367824D02*
X426965D01*
X426177Y367037D02*
Y368612D01*
X422984Y386000D02*
X424559D01*
X423772Y385213D02*
Y386787D01*
X422984Y382500D02*
X424559D01*
X423772Y381713D02*
Y383287D01*
X423484Y389500D02*
X425059D01*
X424272Y388713D02*
Y390287D01*
X422213Y393500D02*
X423787D01*
X423000Y392713D02*
Y394287D01*
X505941Y327000D02*
X507516D01*
X506728Y326213D02*
Y327787D01*
X508213Y323000D02*
X509787D01*
X509000Y322213D02*
Y323787D01*
X448713Y328500D02*
X450287D01*
X449500Y327713D02*
Y329287D01*
X526213Y379500D02*
X527787D01*
X527000Y378713D02*
Y380287D01*
X456713Y341000D02*
X458287D01*
X457500Y340213D02*
Y341787D01*
X506713Y345000D02*
X508287D01*
X507500Y344213D02*
Y345787D01*
X506213Y340000D02*
X507787D01*
X507000Y339213D02*
Y340787D01*
X506293Y377361D02*
X507868D01*
X507081Y376573D02*
Y378148D01*
X472713Y387000D02*
X474287D01*
X473500Y386213D02*
Y387787D01*
X499232Y363532D02*
X500807D01*
X500019Y362745D02*
Y364319D01*
X501213Y366000D02*
X502787D01*
X502000Y365213D02*
Y366787D01*
X502713Y369000D02*
X504287D01*
X503500Y368213D02*
Y369787D01*
X458213Y392500D02*
X459787D01*
X459000Y391713D02*
Y393287D01*
X455213Y391500D02*
X456787D01*
X456000Y390713D02*
Y392287D01*
X452213Y391000D02*
X453787D01*
X453000Y390213D02*
Y391787D01*
X464713Y345000D02*
X466287D01*
X465500Y344213D02*
Y345787D01*
X461213Y360500D02*
X462787D01*
X462000Y359713D02*
Y361287D01*
X467713Y386500D02*
X469287D01*
X468500Y385713D02*
Y387287D01*
X483713Y326500D02*
X485287D01*
X484500Y325713D02*
Y327287D01*
X490213Y342000D02*
X491787D01*
X491000Y341213D02*
Y342787D01*
X493213Y348500D02*
X494787D01*
X494000Y347713D02*
Y349287D01*
M02*
