G04*
G04 #@! TF.GenerationSoftware,Altium Limited,Altium Designer,25.1.2 (22)*
G04*
G04 Layer_Color=8388736*
%FSLAX25Y25*%
%MOIN*%
G70*
G04*
G04 #@! TF.SameCoordinates,E7EE586C-05D5-46D5-8D4D-84EA4DFC6535*
G04*
G04*
G04 #@! TF.FilePolarity,Negative*
G04*
G01*
G75*
%ADD16R,0.04758X0.03985*%
%ADD18R,0.03150X0.03150*%
%ADD21R,0.03985X0.04758*%
%ADD24R,0.01200X0.04700*%
%ADD25R,0.05315X0.01378*%
%ADD26R,0.01378X0.05315*%
%ADD27R,0.10236X0.07480*%
%ADD28R,0.04934X0.04343*%
%ADD29R,0.04343X0.04934*%
%ADD30R,0.06312X0.06706*%
%ADD31R,0.06706X0.06312*%
%ADD32R,0.04147X0.02375*%
%ADD33R,0.04147X0.02178*%
%ADD34C,0.05700*%
%ADD35C,0.02362*%
%ADD36C,0.03150*%
G36*
X431362Y446850D02*
X431362Y437450D01*
X437663D01*
Y446850D01*
X431362D01*
D02*
G37*
G36*
X521562D02*
Y437450D01*
X527863Y437450D01*
X527863Y446850D01*
X521562D01*
D02*
G37*
D16*
X534684Y309810D02*
D03*
X540998D02*
D03*
X541843Y412000D02*
D03*
X548157D02*
D03*
X424830Y417693D02*
D03*
X418516D02*
D03*
X411639Y332941D02*
D03*
X405325D02*
D03*
X411295Y368059D02*
D03*
X404981D02*
D03*
X448157Y318500D02*
D03*
X441843D02*
D03*
X473843Y319500D02*
D03*
X480157D02*
D03*
X516665D02*
D03*
X522979D02*
D03*
D18*
X520547Y299500D02*
D03*
X526453D02*
D03*
D21*
X567500Y363657D02*
D03*
Y357343D02*
D03*
X539500Y364157D02*
D03*
Y357843D02*
D03*
X432124Y318143D02*
D03*
Y311829D02*
D03*
X570107Y374455D02*
D03*
Y380769D02*
D03*
X559000Y422314D02*
D03*
Y416000D02*
D03*
X417000Y379843D02*
D03*
Y386157D02*
D03*
X539500Y374343D02*
D03*
Y380657D02*
D03*
D24*
X518125Y431500D02*
D03*
X516150D02*
D03*
X514175D02*
D03*
X512200D02*
D03*
X510225Y431500D02*
D03*
X508250Y431500D02*
D03*
X506275D02*
D03*
X504300D02*
D03*
X502325D02*
D03*
X500350D02*
D03*
X498375D02*
D03*
X496400D02*
D03*
X494425D02*
D03*
X492450Y431500D02*
D03*
X490475Y431500D02*
D03*
X488500D02*
D03*
X486525D02*
D03*
X484550D02*
D03*
X482575D02*
D03*
X480600D02*
D03*
X478625D02*
D03*
X476650Y431500D02*
D03*
X474675Y431500D02*
D03*
X472700D02*
D03*
X470725D02*
D03*
X468750D02*
D03*
X466775Y431500D02*
D03*
X464800Y431500D02*
D03*
X462825D02*
D03*
X460850D02*
D03*
X458875D02*
D03*
X456900D02*
D03*
X454925D02*
D03*
X452950D02*
D03*
X450975D02*
D03*
X449000D02*
D03*
X447025D02*
D03*
X445050D02*
D03*
X443075D02*
D03*
X441100D02*
D03*
D25*
X436378Y411131D02*
D03*
X436378Y409163D02*
D03*
Y407194D02*
D03*
Y405226D02*
D03*
Y403257D02*
D03*
Y401289D02*
D03*
Y399320D02*
D03*
X436378Y397352D02*
D03*
Y395383D02*
D03*
X436378Y393415D02*
D03*
Y391446D02*
D03*
Y389478D02*
D03*
Y387509D02*
D03*
Y385541D02*
D03*
X436378Y383572D02*
D03*
X436378Y381604D02*
D03*
Y379635D02*
D03*
Y377667D02*
D03*
Y375698D02*
D03*
Y373730D02*
D03*
Y371761D02*
D03*
X436378Y369793D02*
D03*
X436378Y367824D02*
D03*
Y365856D02*
D03*
Y363887D02*
D03*
Y361918D02*
D03*
Y359950D02*
D03*
X436378Y357981D02*
D03*
Y356013D02*
D03*
X436378Y354045D02*
D03*
Y352076D02*
D03*
Y350108D02*
D03*
Y348139D02*
D03*
Y346170D02*
D03*
Y344202D02*
D03*
X436378Y342233D02*
D03*
X520039D02*
D03*
X520039Y344202D02*
D03*
Y346170D02*
D03*
Y348139D02*
D03*
Y350108D02*
D03*
Y352076D02*
D03*
Y354045D02*
D03*
X520039Y356013D02*
D03*
Y357981D02*
D03*
X520039Y359950D02*
D03*
Y361918D02*
D03*
Y363887D02*
D03*
Y365856D02*
D03*
Y367824D02*
D03*
X520039Y369793D02*
D03*
X520039Y371761D02*
D03*
Y373730D02*
D03*
Y375698D02*
D03*
Y377667D02*
D03*
Y379635D02*
D03*
Y381604D02*
D03*
X520039Y383572D02*
D03*
X520039Y385541D02*
D03*
Y387509D02*
D03*
Y389478D02*
D03*
Y391446D02*
D03*
Y393415D02*
D03*
X520039Y395383D02*
D03*
Y397352D02*
D03*
X520039Y399320D02*
D03*
Y401289D02*
D03*
Y403257D02*
D03*
Y405226D02*
D03*
Y407194D02*
D03*
Y409163D02*
D03*
X520039Y411131D02*
D03*
D26*
X443760Y334852D02*
D03*
X445728Y334852D02*
D03*
X447697D02*
D03*
X449665D02*
D03*
X451634D02*
D03*
X453602D02*
D03*
X455571D02*
D03*
X457539Y334852D02*
D03*
X459508D02*
D03*
X461476Y334852D02*
D03*
X463445D02*
D03*
X465413D02*
D03*
X467382D02*
D03*
X469350D02*
D03*
X471319Y334852D02*
D03*
X473287Y334852D02*
D03*
X475256D02*
D03*
X477224D02*
D03*
X479193D02*
D03*
X481161D02*
D03*
X483130D02*
D03*
X485098Y334852D02*
D03*
X487067Y334852D02*
D03*
X489035D02*
D03*
X491004D02*
D03*
X492972D02*
D03*
X494941D02*
D03*
X496909Y334852D02*
D03*
X498878D02*
D03*
X500846Y334852D02*
D03*
X502815D02*
D03*
X504783D02*
D03*
X506752D02*
D03*
X508720D02*
D03*
X510689D02*
D03*
X512657Y334852D02*
D03*
Y418513D02*
D03*
X510689Y418513D02*
D03*
X508720D02*
D03*
X506752D02*
D03*
X504783D02*
D03*
X502815D02*
D03*
X500846D02*
D03*
X498878Y418513D02*
D03*
X496909D02*
D03*
X494941Y418513D02*
D03*
X492972D02*
D03*
X491004D02*
D03*
X489035D02*
D03*
X487067D02*
D03*
X485098Y418513D02*
D03*
X483130Y418513D02*
D03*
X481161D02*
D03*
X479193D02*
D03*
X477224D02*
D03*
X475256D02*
D03*
X473287D02*
D03*
X471319Y418513D02*
D03*
X469350Y418513D02*
D03*
X467382D02*
D03*
X465413D02*
D03*
X463445D02*
D03*
X461476D02*
D03*
X459508Y418513D02*
D03*
X457539D02*
D03*
X455571Y418513D02*
D03*
X453602D02*
D03*
X451634D02*
D03*
X449665D02*
D03*
X447697D02*
D03*
X445728D02*
D03*
X443760Y418513D02*
D03*
D27*
X411530Y342035D02*
D03*
Y358965D02*
D03*
D28*
X548995Y358778D02*
D03*
Y364487D02*
D03*
X558262Y364351D02*
D03*
Y358642D02*
D03*
X423029Y312870D02*
D03*
Y318579D02*
D03*
D29*
X550375Y431984D02*
D03*
X544666D02*
D03*
X541500Y299500D02*
D03*
X535791D02*
D03*
X422124Y426911D02*
D03*
X416415D02*
D03*
Y445601D02*
D03*
X422124D02*
D03*
X416128Y436179D02*
D03*
X421837D02*
D03*
D30*
X516289Y309618D02*
D03*
X523769D02*
D03*
X549076Y421929D02*
D03*
X541596D02*
D03*
X534191Y319693D02*
D03*
X541671D02*
D03*
X449289Y308618D02*
D03*
X441809D02*
D03*
D31*
X549382Y374050D02*
D03*
Y381530D02*
D03*
X560225Y374271D02*
D03*
Y381751D02*
D03*
X407118Y379841D02*
D03*
Y387321D02*
D03*
D32*
X558232Y337918D02*
D03*
X558232Y340477D02*
D03*
X558232Y343037D02*
D03*
X550752D02*
D03*
Y340477D02*
D03*
Y337918D02*
D03*
D33*
X544339Y343059D02*
D03*
Y340500D02*
D03*
Y337941D02*
D03*
X536661D02*
D03*
Y340500D02*
D03*
Y343059D02*
D03*
D34*
X602689Y408862D02*
D03*
Y398075D02*
D03*
X602689Y387287D02*
D03*
X602689Y376500D02*
D03*
X602689Y365713D02*
D03*
X602689Y354925D02*
D03*
Y344138D02*
D03*
X591508Y414256D02*
D03*
Y403469D02*
D03*
Y392681D02*
D03*
Y381894D02*
D03*
Y371106D02*
D03*
Y360319D02*
D03*
Y349532D02*
D03*
Y338744D02*
D03*
D35*
X438551Y461795D02*
D03*
X462209Y462025D02*
D03*
X511579Y451692D02*
D03*
X509500Y403816D02*
D03*
X452618Y414109D02*
D03*
X401500Y421316D02*
D03*
X407610Y393277D02*
D03*
X400000Y378000D02*
D03*
X391500D02*
D03*
X395157Y346973D02*
D03*
X449902Y348718D02*
D03*
X503000Y328816D02*
D03*
X520000Y339316D02*
D03*
X487633Y359857D02*
D03*
X449712Y390212D02*
D03*
X442046Y385239D02*
D03*
X441000Y388000D02*
D03*
X444244Y383228D02*
D03*
X487500Y392316D02*
D03*
X549055Y327871D02*
D03*
X570441Y311027D02*
D03*
X616550Y323254D02*
D03*
X638500Y337500D02*
D03*
X649268Y332548D02*
D03*
X579500Y373316D02*
D03*
X555000Y397316D02*
D03*
X575521Y429328D02*
D03*
X420500Y411316D02*
D03*
X396500Y387000D02*
D03*
X423029Y306345D02*
D03*
X544496Y345996D02*
D03*
X563418Y337734D02*
D03*
X555500Y334500D02*
D03*
X537140Y347852D02*
D03*
X556500Y431816D02*
D03*
X539464Y405757D02*
D03*
X530272Y387500D02*
D03*
Y382816D02*
D03*
X524869Y410947D02*
D03*
X527113Y363703D02*
D03*
X518500Y327816D02*
D03*
X489989Y327809D02*
D03*
X472439Y328816D02*
D03*
X449500Y340500D02*
D03*
X426500Y350816D02*
D03*
X442365Y379451D02*
D03*
X431000Y396316D02*
D03*
X430361Y400573D02*
D03*
X492000Y404816D02*
D03*
X449000Y424000D02*
D03*
X500500Y438000D02*
D03*
X513500Y425500D02*
D03*
X630500Y400500D02*
D03*
X625500D02*
D03*
X620000D02*
D03*
X630500Y405500D02*
D03*
X625500D02*
D03*
X620000D02*
D03*
X630500Y409500D02*
D03*
X625500D02*
D03*
X620000D02*
D03*
X578500Y432000D02*
D03*
X558000Y351500D02*
D03*
X551000Y350000D02*
D03*
X520472Y453472D02*
D03*
X519000Y418000D02*
D03*
X510500Y414000D02*
D03*
X504000Y452000D02*
D03*
X494900Y454500D02*
D03*
X521500Y413592D02*
D03*
X535000Y421000D02*
D03*
X475341Y324228D02*
D03*
X479957Y326500D02*
D03*
X563000Y397500D02*
D03*
X559674Y429555D02*
D03*
X563000Y407000D02*
D03*
X529728Y348636D02*
D03*
Y353942D02*
D03*
X542000Y395000D02*
D03*
X539500Y402000D02*
D03*
X510470Y409488D02*
D03*
X498000Y393000D02*
D03*
X507000D02*
D03*
X515500D02*
D03*
X427223Y326020D02*
D03*
X527500Y346500D02*
D03*
X538000Y389500D02*
D03*
X465439Y322579D02*
D03*
X440223Y331020D02*
D03*
X398500Y401500D02*
D03*
X421000Y408000D02*
D03*
X434500Y421500D02*
D03*
X393500Y367500D02*
D03*
X409000Y372132D02*
D03*
X403500Y357000D02*
D03*
X388351Y399032D02*
D03*
X426000Y396500D02*
D03*
X451285Y406219D02*
D03*
X454500Y409429D02*
D03*
X457500Y408500D02*
D03*
X458957Y412705D02*
D03*
X431892Y361615D02*
D03*
X426500Y344000D02*
D03*
X466874Y438339D02*
D03*
X463500Y445000D02*
D03*
X461488Y326331D02*
D03*
X515091Y377480D02*
D03*
X500500Y425000D02*
D03*
X495000Y424000D02*
D03*
X490500D02*
D03*
X475035Y427236D02*
D03*
X426177Y367824D02*
D03*
X423772Y386000D02*
D03*
Y382500D02*
D03*
X424272Y389500D02*
D03*
X423000Y393500D02*
D03*
X453500Y436500D02*
D03*
X457564Y436566D02*
D03*
X460500Y447000D02*
D03*
X486846Y444710D02*
D03*
X468000Y446000D02*
D03*
X506728Y327000D02*
D03*
X509000Y323000D02*
D03*
X471500Y446000D02*
D03*
X474640Y436685D02*
D03*
X475500Y446000D02*
D03*
X477512Y435997D02*
D03*
X453500Y328000D02*
D03*
X449500Y328500D02*
D03*
X474394Y412106D02*
D03*
X490000Y439500D02*
D03*
X497500Y441500D02*
D03*
X493000Y442000D02*
D03*
X471211Y362864D02*
D03*
X527000Y379500D02*
D03*
X507976Y425476D02*
D03*
X463500Y412000D02*
D03*
X466141Y413320D02*
D03*
X461412Y409912D02*
D03*
X505000Y425000D02*
D03*
X457500Y341000D02*
D03*
X498000Y378000D02*
D03*
X507500Y345000D02*
D03*
X507000Y340000D02*
D03*
X509772Y364913D02*
D03*
X512500Y362500D02*
D03*
X507081Y377361D02*
D03*
X473500Y387000D02*
D03*
X466000Y359000D02*
D03*
X498500Y361000D02*
D03*
X500019Y363532D02*
D03*
X496500Y358500D02*
D03*
X502000Y366000D02*
D03*
X503500Y369000D02*
D03*
X459000Y392500D02*
D03*
X456000Y391500D02*
D03*
X453000Y391000D02*
D03*
X465500Y345000D02*
D03*
X462000Y360500D02*
D03*
X468500Y386500D02*
D03*
X491000Y324500D02*
D03*
X484500Y326500D02*
D03*
X491000Y342000D02*
D03*
X494000Y348500D02*
D03*
D36*
X558500Y441500D02*
D03*
X536000Y453000D02*
D03*
X459500Y317000D02*
D03*
Y311000D02*
D03*
Y305500D02*
D03*
X507500Y308500D02*
D03*
Y316500D02*
D03*
X547500Y299000D02*
D03*
Y305000D02*
D03*
Y310500D02*
D03*
X568500Y369000D02*
D03*
X559167D02*
D03*
X549333D02*
D03*
X539500D02*
D03*
X626500Y314500D02*
D03*
X622000D02*
D03*
X616000D02*
D03*
X610500D02*
D03*
X616000Y319500D02*
D03*
X610500D02*
D03*
M02*
