M48
;Layer_Color=9474304
;FILE_FORMAT=2:4
INCH,TZ
;TYPE=PLATED
T01F00S00C0.0157
T02F00S00C0.0197
T03F00S00C0.0370
;TYPE=NON_PLATED
T04F00S00C0.1260
%
T01
X57044Y31103
X42303Y30634
X42722Y32602
X44022Y33102
X44950Y32850
X45350Y32800
X46149Y32633
X46544Y32258
X46550Y34500
X45750Y34100
X44950Y34050
X44990Y34872
X46200Y36050
X46600Y35900
X46850Y38650
X45900Y39250
X45600Y39150
X45300Y39100
X44971Y39021
X44100Y38800
X44205Y38524
X44424Y38323
X44236Y37945
X42377Y38250
Y38600
X42427Y38950
X42300Y39350
X42600Y39650
X43100Y39632
X43036Y40057
X42100Y40800
X42050Y41132
X43450Y42150
X44900Y42400
X45262Y41411
X45450Y40943
X45750Y40850
X46141Y40991
X46350Y41200
X46614Y41332
X45896Y41270
X45128Y40622
X45350Y43650
X45756Y43657
X46687Y43834
X46800Y44600
X46350Y44500
X46050Y44700
X46221Y46202
X43855Y46179
X40150Y42132
X39850Y40150
X38835Y39903
X39650Y38700
X40000Y37800
X39150
X39350Y36750
X40900Y37213
X40350Y35700
X39516Y34697
X42650Y34400
Y35082
X43189Y36162
X42618Y36782
X40761Y39328
X47350Y38700
X48750Y39232
X49800Y39300
X50700
X51550
X51509Y37748
X50708Y37736
X49800Y37800
X50350Y36900
X50200Y36600
X50002Y36353
X49850Y36100
X49650Y35850
X48763Y35986
X49400Y34850
X49100Y34200
X48999Y32781
X49100Y32450
X48450Y32650
X47996
X47534Y32423
X47244Y32882
X50300Y32882
X50673Y32700
X50900Y32300
X51850Y32782
X52000Y33932
X50700Y34000
X50750Y34500
X52750Y34650
X52973Y34864
Y35394
X52711Y36370
X51250Y36250
X50977Y36491
X52700Y37950
X53027Y38282
Y38750
X53800Y38950
X54200Y39500
X53950Y40200
X53946Y40576
X53500Y42100
X51900Y41800
X52150Y41359
X52487Y41095
X51047Y40949
X51050Y41400
X50950Y40382
X49200Y40482
X49050Y42400
X49500
X50050Y42500
X50500
X50798Y42548
X51350Y42550
X50050Y43800
X49750Y44150
X49300Y44200
X49000Y43950
X48685Y44471
X47550Y44600
X47150
X47464Y43668
X47751Y43600
X47504Y42724
X47439Y41211
X47121Y36286
X53714Y34785
X54450Y34600
X55100Y35000
X55800Y35150
X56342Y33773
X55550Y33450
X54906Y32787
X61655Y32325
X62000Y40050
Y40550
Y40950
X56300Y40700
Y39750
X55500Y39732
X55650Y43182
X55967Y42955
X57552Y42933
X57850Y43200
X57950Y37332
X52047Y45347
X51158Y45169
X50400Y45200
X49490Y45450
X62550Y40950
Y40550
Y40050
X63050
Y40550
Y40950
X63850Y33750
X64927Y33255
T02
X50750Y30850
X54750Y31050
Y30500
Y29900
X45950Y30550
Y31100
Y31700
X50750Y31650
X53950Y36900
X54933
X55917
X56850
X55850Y44150
X53600Y45300
X61050Y31950
Y31450
X61600
Y31950
X62200Y31450
X62650
T03
X59151Y33874
Y34953
Y36032
Y37111
Y38189
Y39268
Y40347
Y41426
X60269Y40886
Y39807
X60269Y38729
X60269Y37650
X60269Y36571
X60269Y35493
Y34414
T04
X59710Y31091
Y44209
M30
