G04*
G04 #@! TF.GenerationSoftware,Altium Limited,Altium Designer,25.1.2 (22)*
G04*
G04 Layer_Color=32896*
%FSLAX25Y25*%
%MOIN*%
G70*
G04*
G04 #@! TF.SameCoordinates,306FC79E-9B49-4897-B38B-A4FC230E2DB4*
G04*
G04*
G04 #@! TF.FilePolarity,Positive*
G04*
G01*
G75*
%ADD81C,0.00394*%
D81*
X611613Y420016D02*
Y423953D01*
X609645Y421984D02*
X613582D01*
X589032Y300500D02*
X592969D01*
X591000Y298532D02*
Y302468D01*
X620500Y454032D02*
Y457969D01*
X618532Y456000D02*
X622469D01*
X449532Y460500D02*
X453469D01*
X451500Y458532D02*
Y462468D01*
X421032Y451500D02*
X424968D01*
X423000Y449532D02*
Y453469D01*
X545532Y289000D02*
X549469D01*
X547500Y287032D02*
Y290968D01*
X499532Y298000D02*
X503469D01*
X501500Y296031D02*
Y299969D01*
X592531Y457500D02*
X596468D01*
X594500Y455532D02*
Y459469D01*
X611531Y411500D02*
X615469D01*
X613500Y409531D02*
Y413469D01*
X611647Y398264D02*
X615584D01*
X613615Y396295D02*
Y400232D01*
X593284Y398264D02*
X597221D01*
X595253Y396295D02*
Y400232D01*
X588657Y361200D02*
X592593Y361200D01*
X590625Y363169D02*
X590625Y359232D01*
X588683Y374078D02*
X592620D01*
X590651Y372110D02*
Y376047D01*
X589532Y385000D02*
X593469D01*
X591500Y383032D02*
Y386968D01*
X609543Y341232D02*
X613480D01*
X611512Y339264D02*
Y343201D01*
X567500Y440031D02*
Y443968D01*
X565531Y442000D02*
X569468D01*
X572638Y363491D02*
Y367428D01*
X570669Y365460D02*
X574606D01*
X554817Y380780D02*
Y384717D01*
X552849Y382748D02*
X556786D01*
X558865Y396961D02*
Y400898D01*
X556897Y398930D02*
X560834D01*
X607531Y318500D02*
X611469D01*
X609500Y316531D02*
Y320468D01*
X550504Y325662D02*
Y329599D01*
X548535Y327630D02*
X552472D01*
X557354Y360500D02*
X561291D01*
X559323Y358531D02*
Y362469D01*
X560669Y344835D02*
Y348772D01*
X558701Y346803D02*
X562638D01*
X570657Y353631D02*
X574594D01*
X572626Y351662D02*
Y355599D01*
X390032Y354500D02*
X393969D01*
X392000Y352532D02*
Y356469D01*
X518000Y442531D02*
Y446468D01*
X516032Y444500D02*
X519969D01*
X527500Y442375D02*
Y446312D01*
X525531Y444343D02*
X529468D01*
X439032Y432500D02*
X442969D01*
X441000Y430532D02*
Y434469D01*
X514362Y339077D02*
Y343014D01*
X512393Y341046D02*
X516330D01*
X444777Y344589D02*
X448714D01*
X446745Y342621D02*
Y346558D01*
X499153Y408411D02*
X503090D01*
X501121Y406442D02*
Y410379D01*
X444340Y409986D02*
Y413923D01*
X442371Y411954D02*
X446308D01*
X497874Y337000D02*
X501812D01*
X499843Y335032D02*
Y338968D01*
M02*
