G04*
G04 #@! TF.GenerationSoftware,Altium Limited,Altium Designer,25.1.2 (22)*
G04*
G04 Layer_Color=128*
%FSLAX25Y25*%
%MOIN*%
G70*
G04*
G04 #@! TF.SameCoordinates,306FC79E-9B49-4897-B38B-A4FC230E2DB4*
G04*
G04*
G04 #@! TF.FilePolarity,Positive*
G04*
G01*
G75*
%ADD19R,0.04134X0.03543*%
G04:AMPARAMS|DCode=21|XSize=61.02mil|YSize=23.62mil|CornerRadius=2.01mil|HoleSize=0mil|Usage=FLASHONLY|Rotation=0.000|XOffset=0mil|YOffset=0mil|HoleType=Round|Shape=RoundedRectangle|*
%AMROUNDEDRECTD21*
21,1,0.06102,0.01961,0,0,0.0*
21,1,0.05701,0.02362,0,0,0.0*
1,1,0.00402,0.02850,-0.00980*
1,1,0.00402,-0.02850,-0.00980*
1,1,0.00402,-0.02850,0.00980*
1,1,0.00402,0.02850,0.00980*
%
%ADD21ROUNDEDRECTD21*%
%ADD23R,0.04758X0.03985*%
%ADD25R,0.03740X0.03150*%
%ADD27R,0.03543X0.04134*%
%ADD29R,0.05906X0.05512*%
%ADD30R,0.03985X0.04758*%
%ADD50R,0.05000X0.02992*%
G04:AMPARAMS|DCode=51|XSize=41.68mil|YSize=21.53mil|CornerRadius=10.77mil|HoleSize=0mil|Usage=FLASHONLY|Rotation=270.000|XOffset=0mil|YOffset=0mil|HoleType=Round|Shape=RoundedRectangle|*
%AMROUNDEDRECTD51*
21,1,0.04168,0.00000,0,0,270.0*
21,1,0.02015,0.02153,0,0,270.0*
1,1,0.02153,0.00000,-0.01008*
1,1,0.02153,0.00000,0.01008*
1,1,0.02153,0.00000,0.01008*
1,1,0.02153,0.00000,-0.01008*
%
%ADD51ROUNDEDRECTD51*%
%ADD52R,0.02153X0.04168*%
G04:AMPARAMS|DCode=53|XSize=41.68mil|YSize=21.53mil|CornerRadius=10.77mil|HoleSize=0mil|Usage=FLASHONLY|Rotation=180.000|XOffset=0mil|YOffset=0mil|HoleType=Round|Shape=RoundedRectangle|*
%AMROUNDEDRECTD53*
21,1,0.04168,0.00000,0,0,180.0*
21,1,0.02015,0.02153,0,0,180.0*
1,1,0.02153,-0.01008,0.00000*
1,1,0.02153,0.01008,0.00000*
1,1,0.02153,0.01008,0.00000*
1,1,0.02153,-0.01008,0.00000*
%
%ADD53ROUNDEDRECTD53*%
%ADD54R,0.04168X0.02153*%
%ADD55R,0.04500X0.08000*%
%ADD56R,0.03937X0.09843*%
%ADD57R,0.02362X0.03150*%
%ADD58R,0.00900X0.02800*%
%ADD59R,0.08465X0.04921*%
%ADD60R,0.03543X0.02953*%
G04:AMPARAMS|DCode=61|XSize=68.9mil|YSize=59.06mil|CornerRadius=2.07mil|HoleSize=0mil|Usage=FLASHONLY|Rotation=180.000|XOffset=0mil|YOffset=0mil|HoleType=Round|Shape=RoundedRectangle|*
%AMROUNDEDRECTD61*
21,1,0.06890,0.05492,0,0,180.0*
21,1,0.06476,0.05906,0,0,180.0*
1,1,0.00413,-0.03238,0.02746*
1,1,0.00413,0.03238,0.02746*
1,1,0.00413,0.03238,-0.02746*
1,1,0.00413,-0.03238,-0.02746*
%
%ADD61ROUNDEDRECTD61*%
G04:AMPARAMS|DCode=62|XSize=13.78mil|YSize=33.47mil|CornerRadius=2mil|HoleSize=0mil|Usage=FLASHONLY|Rotation=180.000|XOffset=0mil|YOffset=0mil|HoleType=Round|Shape=RoundedRectangle|*
%AMROUNDEDRECTD62*
21,1,0.01378,0.02947,0,0,180.0*
21,1,0.00978,0.03347,0,0,180.0*
1,1,0.00400,-0.00489,0.01473*
1,1,0.00400,0.00489,0.01473*
1,1,0.00400,0.00489,-0.01473*
1,1,0.00400,-0.00489,-0.01473*
%
%ADD62ROUNDEDRECTD62*%
%ADD63R,0.08000X0.04500*%
%ADD66R,0.02953X0.03543*%
%ADD67R,0.10630X0.04921*%
%ADD68R,0.02362X0.03937*%
%ADD69R,0.05750X0.02100*%
%ADD70R,0.17100X0.13600*%
%ADD71R,0.01700X0.03400*%
%ADD72R,0.02000X0.04700*%
%ADD76R,0.01233X0.01585*%
%ADD77R,0.01233X0.01585*%
%ADD78R,0.01233X0.01585*%
%ADD79R,0.01585X0.01233*%
%ADD80R,0.01233X0.01585*%
G36*
X404156Y378394D02*
X399244D01*
Y384406D01*
X404156D01*
Y378394D01*
D02*
G37*
G36*
X398456D02*
X393544D01*
Y384406D01*
X398456D01*
Y378394D01*
D02*
G37*
G36*
X392756D02*
X387844D01*
Y384406D01*
X392756D01*
Y378394D01*
D02*
G37*
G36*
X404156Y371594D02*
X399244D01*
Y377606D01*
X404156D01*
Y371594D01*
D02*
G37*
G36*
X398456D02*
X393544D01*
Y377606D01*
X398456D01*
Y371594D01*
D02*
G37*
G36*
X392756D02*
X387844D01*
Y377606D01*
X392756D01*
Y371594D01*
D02*
G37*
G36*
X557055Y315228D02*
X553020D01*
Y316331D01*
X557055D01*
Y315228D01*
D02*
G37*
G36*
X567980Y315228D02*
X563945D01*
Y316331D01*
X567980D01*
Y315228D01*
D02*
G37*
G36*
Y312669D02*
X563945D01*
Y313772D01*
X567980D01*
Y312669D01*
D02*
G37*
G36*
X557055D02*
X553020D01*
Y313772D01*
X557055D01*
Y312669D01*
D02*
G37*
D19*
X587732Y317196D02*
D03*
Y311487D02*
D03*
X578465Y311000D02*
D03*
Y316708D02*
D03*
X632000Y453646D02*
D03*
Y459354D02*
D03*
X483035Y462854D02*
D03*
Y457146D02*
D03*
X464500D02*
D03*
Y462854D02*
D03*
X578468Y401093D02*
D03*
Y406802D02*
D03*
X391461Y406529D02*
D03*
Y412237D02*
D03*
X597000Y311646D02*
D03*
Y317354D02*
D03*
X473768Y462854D02*
D03*
Y457146D02*
D03*
D21*
X569495Y391429D02*
D03*
Y396429D02*
D03*
Y401430D02*
D03*
Y406429D02*
D03*
X548236D02*
D03*
Y401430D02*
D03*
Y396429D02*
D03*
Y391429D02*
D03*
D23*
X594657Y385000D02*
D03*
X588343D02*
D03*
X564343Y442000D02*
D03*
X570657D02*
D03*
X551660Y382748D02*
D03*
X557974D02*
D03*
X547347Y327630D02*
D03*
X553661D02*
D03*
X388843Y354500D02*
D03*
X395157D02*
D03*
X444157Y432500D02*
D03*
X437843D02*
D03*
X443588Y344589D02*
D03*
X449902D02*
D03*
X497964Y408411D02*
D03*
X504278D02*
D03*
X496686Y337000D02*
D03*
X503000D02*
D03*
D25*
X555500Y285941D02*
D03*
Y291059D02*
D03*
X546807Y355399D02*
D03*
Y360517D02*
D03*
D27*
X597892Y331626D02*
D03*
X592183D02*
D03*
X619354Y434000D02*
D03*
X613646D02*
D03*
X619354Y443268D02*
D03*
X613646D02*
D03*
X597744Y340893D02*
D03*
X592035D02*
D03*
X612069Y350509D02*
D03*
X606360D02*
D03*
X591974Y350161D02*
D03*
X597683D02*
D03*
D29*
X401516Y414255D02*
D03*
Y406774D02*
D03*
X537382Y441367D02*
D03*
Y448847D02*
D03*
D30*
X423000Y454657D02*
D03*
Y448343D02*
D03*
X547500Y292157D02*
D03*
Y285843D02*
D03*
X501500Y301157D02*
D03*
Y294843D02*
D03*
X518000Y441343D02*
D03*
Y447657D02*
D03*
X527500Y441186D02*
D03*
Y447500D02*
D03*
X514362Y344203D02*
D03*
Y337889D02*
D03*
X444340Y408797D02*
D03*
Y415111D02*
D03*
D50*
X608109Y421984D02*
D03*
X615117D02*
D03*
D51*
X591000Y297048D02*
D03*
X594602Y303952D02*
D03*
D52*
X587398D02*
D03*
D53*
X617048Y456000D02*
D03*
X623952Y452398D02*
D03*
X454952Y456898D02*
D03*
X448048Y460500D02*
D03*
D54*
X623952Y459602D02*
D03*
X454952Y464102D02*
D03*
D55*
X589250Y457500D02*
D03*
X599750D02*
D03*
D56*
X607594Y411500D02*
D03*
X619406D02*
D03*
X607710Y398264D02*
D03*
X619521D02*
D03*
X601158D02*
D03*
X589347D02*
D03*
X596530Y361200D02*
D03*
X584720D02*
D03*
X596557Y374078D02*
D03*
X584746D02*
D03*
D57*
X608165Y341232D02*
D03*
X614858D02*
D03*
D58*
X605531Y361200D02*
D03*
X607500Y361200D02*
D03*
X609469Y361200D02*
D03*
Y367500D02*
D03*
X607500D02*
D03*
X605531D02*
D03*
D59*
X607500Y376496D02*
D03*
Y388504D02*
D03*
D60*
X572638Y363097D02*
D03*
X572638Y367822D02*
D03*
X572626Y351269D02*
D03*
Y355993D02*
D03*
D61*
X560500Y314500D02*
D03*
D62*
X564339Y308693D02*
D03*
X561779D02*
D03*
X559221D02*
D03*
X556661D02*
D03*
X564339Y320307D02*
D03*
X561779D02*
D03*
X559221D02*
D03*
X556661D02*
D03*
D63*
X609500Y323750D02*
D03*
Y313250D02*
D03*
D66*
X558307Y346803D02*
D03*
X563031D02*
D03*
D67*
X438000Y451890D02*
D03*
Y463110D02*
D03*
D68*
X604461Y434000D02*
D03*
X599539D02*
D03*
X604461Y443500D02*
D03*
X599539D02*
D03*
D69*
X569725Y414500D02*
D03*
Y419500D02*
D03*
Y424500D02*
D03*
Y429500D02*
D03*
X548275D02*
D03*
Y424500D02*
D03*
Y419500D02*
D03*
Y414500D02*
D03*
D70*
X396000Y378000D02*
D03*
D71*
X388500Y362550D02*
D03*
X393500D02*
D03*
X398500D02*
D03*
X403500D02*
D03*
Y393450D02*
D03*
X398500D02*
D03*
X393500D02*
D03*
X388500D02*
D03*
D72*
X515795Y399100D02*
D03*
X512646D02*
D03*
X509496D02*
D03*
X506347D02*
D03*
X503197D02*
D03*
X500047D02*
D03*
X496898D02*
D03*
X493748D02*
D03*
X490598D02*
D03*
X487449D02*
D03*
X484299D02*
D03*
X481150D02*
D03*
X478000D02*
D03*
X474850D02*
D03*
X471701D02*
D03*
X468551D02*
D03*
X465402D02*
D03*
X462252D02*
D03*
X459102D02*
D03*
X455953D02*
D03*
X452803D02*
D03*
X449653D02*
D03*
X446504D02*
D03*
X443354D02*
D03*
X440205D02*
D03*
X440205Y353900D02*
D03*
X443354D02*
D03*
X446504D02*
D03*
X449653D02*
D03*
X452803D02*
D03*
X455953D02*
D03*
X459102D02*
D03*
X462252D02*
D03*
X465402D02*
D03*
X468551D02*
D03*
X471701D02*
D03*
X474850D02*
D03*
X478000D02*
D03*
X481150D02*
D03*
X484299D02*
D03*
X487449D02*
D03*
X490598D02*
D03*
X493748D02*
D03*
X496898D02*
D03*
X500047D02*
D03*
X503197D02*
D03*
X506347D02*
D03*
X509496D02*
D03*
X512646D02*
D03*
X515795D02*
D03*
D76*
X563260Y365323D02*
D03*
D77*
X561291D02*
D03*
X559323D02*
D03*
X557354D02*
D03*
X555386Y355677D02*
D03*
X557354D02*
D03*
X559323D02*
D03*
X561291Y355677D02*
D03*
D78*
X555386Y365323D02*
D03*
D79*
X554500Y362469D02*
D03*
Y360500D02*
D03*
Y358531D02*
D03*
X564146Y358531D02*
D03*
X564146Y360500D02*
D03*
Y362469D02*
D03*
D80*
X563260Y355677D02*
D03*
M02*
