M48
;Layer_Color=9474304
;FILE_FORMAT=2:4
INCH,TZ
;TYPE=PLATED
T01F00S00C0.0157
T02F00S00C0.0197
T03F00S00C0.0280
T04F00S00C0.0350
T05F00S00C0.0354
T06F00S00C0.0402
T07F00S00C0.0650
T08F00S00C0.1260
;TYPE=NON_PLATED
T09F00S00C0.0295
T10F00S00C0.1260
%
T01
X49050Y28250
X50150Y29000
X57177Y29815
X57900Y30900
X60893Y30357
X46544Y32258
X46149Y32633
X45404Y32800
X44950Y32850
X44250Y32623
X44950Y34050
X45750Y34100
X46550Y34500
X46535Y35898
X46200Y36050
X46350Y37061
X46850Y38650
X45900Y39250
X45600Y39150
X45300Y39100
X44971Y39021
X44100Y38800
X44205Y38524
X44424Y38323
X44236Y37945
X42377Y38250
Y38600
X42427Y38950
X42300Y39350
X42600Y39650
X42550Y40050
X43036Y40057
X43100Y39632
X42068Y40690
X42193Y41136
X43450Y42150
X44900Y42400
X45200Y42650
X45350Y43650
X45756Y43657
X46687Y43834
X46800Y44600
X46350Y44500
X46050Y44700
X46221Y46202
X46750Y46700
X43855Y46179
X45262Y41411
X45450Y40943
X45750Y40850
X46141Y40991
X46350Y41200
X46680Y41168
X45896Y41270
X45128Y40622
X40761Y39328
X39850Y40150
X38835Y39903
X39650Y38700
X40000Y37800
X39150
X39350Y36750
X40900Y37213
X40350Y35700
X39516Y34697
X42650Y34400
Y35082
X43189Y36162
X42618Y36782
X44990Y34872
X40150Y42132
X47504Y42724
X47464Y43668
X47751Y43600
X47550Y44600
X47150
X48685Y44471
X49000Y43950
X49300Y44200
X49750Y44150
X50050Y43800
Y42500
X50400
X50700Y42550
X51050
X51450
X51891Y41686
X52125Y41900
X52350Y41650
X52150Y41359
X52507Y41074
X51000Y41100
Y40800
X50950Y40382
X51326Y40595
X51050Y41400
X50700Y39300
X51550
X51509Y37748
X50708Y37736
X49800Y37774
X50350Y36900
X50200Y36600
X50002Y36353
X49850Y36063
X49650Y35802
X48763Y35986
X48165Y36923
X46936Y36364
X47150Y35900
X47350Y38700
X48750Y39232
X49800Y39300
X49200Y40482
X49050Y42400
X49500
X47659Y41408
X47439Y41211
X49490Y45450
X50400Y45200
X51158Y45169
X52047Y45347
X53265Y42765
X54050Y42800
X53500Y42100
X53822Y40800
X54027Y40576
Y40200
X54200Y39500
X53800Y38950
X53027Y38723
Y38282
X52700Y37950
X52711Y36370
X53050Y36350
X53064Y35514
X52995Y35227
X53100Y34750
X52794Y34694
X53714Y34785
X54450Y34600
X54602Y35057
X55100Y35000
X55380Y34680
X55800Y35150
X56342Y33773
X55550Y33450
X54850
X53928Y33363
X53988Y32716
X53122Y33658
X52000Y33932
X51850Y32782
X50673Y32700
X50300Y32882
X50900Y32300
X49277Y32415
X49150Y32700
X48450Y32650
X47534Y32423
X47244Y32882
X49100Y34200
X49400Y34850
X50750Y34500
X50700Y34000
X51500Y34850
X51239Y36239
X50977Y36491
X54260Y35540
X57263Y34637
X57013Y34219
X57000Y32050
X58750Y33150
X60850Y34600
X61850Y34100
X60100Y35450
X61300Y36750
X57779Y36721
X58350Y40300
X58388Y40619
X59000Y40952
Y41400
Y41800
X59550
Y41400
Y40900
X60050
Y41400
Y41800
X57552Y42933
X58354Y43946
X55650Y43182
T02
X50834Y30116
X50750Y30850
X54750Y31050
Y30500
X54100Y29500
X54250Y28609
X56050Y28900
X45950Y30550
Y31100
X42600Y29700
X45950Y31700
X50750Y31580
X58250Y32400
X58850
X59450
X58100Y38100
Y38800
Y39450
X56850Y36900
X55900
X54900
X53950
X53600Y45300
X55850Y44150
X60350Y45150
X60900
Y45900
X62050Y38800
Y38200
X48400Y47100
T03
X63189Y29528
X64961Y30709
X62008Y29528
X60236Y30709
X56693Y28346
X52637Y29338
X49093
X47912
X47322Y30519
X49684
X41929Y29528
X39567Y31890
X38976Y33071
X39567Y34252
X38386
Y36614
X37795Y37795
X38386Y38976
X39567Y41339
X40748
X40157Y42520
X41339Y44882
X42520
X43110Y46063
X44291
X45472
X46654
X45472Y36614
X41929
X45550Y31700
X46654Y31890
X47835Y38976
Y46063
X52559
X56102Y43701
X57283
X55512Y40157
X56102Y38976
X58465
X61417Y40157
X62008Y36614
X61417Y33071
X60236
X60827Y31890
X62008
X57283
X56770Y32881
X57874Y35433
X63189Y36614
X62598Y37795
X64961
X64370Y38976
X64961Y40157
X64370Y41339
X64961Y42520
X63780
X64370Y43701
X65551Y46063
X64961Y35433
Y33071
X64370Y31890
X63189Y34252
X62598Y47244
X61417
X59055
X57874
X56693
X55512
X54331
X53150
X51968
X50787
X49606
X47244
X46063
X44882
T04
X62732Y34003
Y35082
Y36161
Y37239
Y38318
Y39397
Y40476
Y41554
X63850Y41015
Y39936
Y38857
Y37779
Y36700
Y35621
Y34543
T05
X62916Y28350
X63900Y28350
X64884
X61932Y28350
X60947Y28350
X59963
X59979Y46800
X60963
X61947
X62931
X63916
X64900
T06
X46950Y28500
Y29500
X45950
Y28500
T07
X56097Y45800
X57656
T08
X64500Y26350
X41100Y31350
X41111Y43832
X64500Y48900
T09
X49100Y27709
Y28791
X52600Y28791
Y27709
T10
X63291Y31220
Y44338
M30
