G04*
G04 #@! TF.GenerationSoftware,Altium Limited,Altium Designer,25.1.2 (22)*
G04*
G04 Layer_Color=32896*
%FSLAX25Y25*%
%MOIN*%
G70*
G04*
G04 #@! TF.SameCoordinates,E7EE586C-05D5-46D5-8D4D-84EA4DFC6535*
G04*
G04*
G04 #@! TF.FilePolarity,Positive*
G04*
G01*
G75*
%ADD75C,0.00394*%
D75*
X559385Y326087D02*
Y330024D01*
X557417Y328055D02*
X561354D01*
X570669Y365460D02*
X574606D01*
X572638Y363491D02*
Y367428D01*
X557354Y360500D02*
X561291D01*
X559323Y358531D02*
Y362469D01*
X560669Y344835D02*
Y348772D01*
X558701Y346803D02*
X562638D01*
X570657Y353631D02*
X574594D01*
X572626Y351662D02*
Y355599D01*
X603031Y332500D02*
X606968D01*
X605000Y330532D02*
Y334469D01*
X498500Y459531D02*
Y463469D01*
X496531Y461500D02*
X500468D01*
X620651Y363610D02*
Y367547D01*
X618683Y365578D02*
X622620D01*
X643615Y387795D02*
Y391732D01*
X641647Y389764D02*
X645584D01*
X620625Y354669D02*
X620625Y350732D01*
X618656Y352700D02*
X622593Y352700D01*
X621500Y374532D02*
Y378468D01*
X619531Y376500D02*
X623468D01*
X641512Y330764D02*
Y334701D01*
X639543Y332732D02*
X643480D01*
X625253Y387795D02*
Y391732D01*
X623284Y389764D02*
X627221D01*
X643500Y401031D02*
Y404969D01*
X641532Y403000D02*
X645469D01*
X567500Y440031D02*
Y443968D01*
X565531Y442000D02*
X569468D01*
X549500Y440031D02*
Y443968D01*
X547532Y442000D02*
X551469D01*
X390032Y354500D02*
X393969D01*
X392000Y352532D02*
Y356469D01*
X527000Y442531D02*
Y446468D01*
X525032Y444500D02*
X528968D01*
X536500Y442375D02*
Y446312D01*
X534531Y444343D02*
X538469D01*
X439532Y453000D02*
X443469D01*
X441500Y451031D02*
Y454969D01*
X514362Y339077D02*
Y343014D01*
X512393Y341046D02*
X516330D01*
X444777Y344589D02*
X448714D01*
X446745Y342621D02*
Y346558D01*
X499153Y408411D02*
X503090D01*
X501121Y406442D02*
Y410379D01*
X444340Y409986D02*
Y413923D01*
X442371Y411954D02*
X446308D01*
X497874Y337000D02*
X501812D01*
X499843Y335032D02*
Y338968D01*
M02*
