G04*
G04 #@! TF.GenerationSoftware,Altium Limited,Altium Designer,25.1.2 (22)*
G04*
G04 Layer_Color=32896*
%FSLAX25Y25*%
%MOIN*%
G70*
G04*
G04 #@! TF.SameCoordinates,B1411C34-087D-4BAB-B9BA-D0973F51CA7B*
G04*
G04*
G04 #@! TF.FilePolarity,Positive*
G04*
G01*
G75*
%ADD10C,0.00984*%
%ADD11C,0.01968*%
%ADD12C,0.02000*%
%ADD13C,0.00787*%
%ADD14C,0.00600*%
%ADD15C,0.01000*%
%ADD79C,0.00394*%
%ADD80C,0.01575*%
%ADD81C,0.00300*%
G36*
X456703Y350550D02*
Y349550D01*
X455203D01*
Y350550D01*
X456703D01*
D02*
G37*
G36*
X453553Y402450D02*
Y403450D01*
X452053D01*
X452053Y402450D01*
X453553D01*
D02*
G37*
G36*
X488199Y350550D02*
Y349550D01*
X486699D01*
Y350550D01*
X488199D01*
D02*
G37*
G36*
X516545Y402450D02*
Y403450D01*
X515045D01*
Y402450D01*
X516545D01*
D02*
G37*
G36*
X485049Y402450D02*
Y403450D01*
X483549D01*
X483549Y402450D01*
X485049Y402450D01*
D02*
G37*
D10*
X605212Y341232D02*
G03*
X605212Y341232I-492J0D01*
G01*
X590079Y298945D02*
G03*
X590079Y298945I-492J0D01*
G01*
X543413Y391429D02*
G03*
X543413Y391429I-492J0D01*
G01*
X576628Y277654D02*
G03*
X576628Y277654I-492J0D01*
G01*
X563752Y352528D02*
G03*
X563752Y352528I-492J0D01*
G01*
D11*
X556995Y392138D02*
G03*
X556995Y392138I-984J0D01*
G01*
D12*
X538812Y431500D02*
G03*
X538812Y431500I-1500J0D01*
G01*
D13*
X592976Y454250D02*
X596024D01*
X592976Y460750D02*
X596024D01*
X611039Y405988D02*
X615961Y405988D01*
X611039Y417012D02*
X615961Y417012D01*
X611155Y392752D02*
X616076D01*
X611155Y403776D02*
X616076D01*
X592792D02*
X597713D01*
X592792Y392752D02*
X597713D01*
X588164Y366712D02*
X593086Y366712D01*
X588164Y355689D02*
X593086Y355689D01*
X588191Y379590D02*
X593112D01*
X588191Y368566D02*
X593112Y368566D01*
X585964Y381433D02*
X597036D01*
X585964Y388567D02*
X597036Y388567D01*
X610823Y339264D02*
X612201D01*
X610823Y343201D02*
X612201Y343201D01*
X602579Y380374D02*
Y384626D01*
X612421Y384626D02*
X612421Y380374D01*
X561964Y445567D02*
X573036D01*
X561964Y438433D02*
X573036D01*
X575984Y362015D02*
Y368904D01*
X569279Y368925D02*
X569279Y362036D01*
X588406Y302685D02*
Y306228D01*
X585256D02*
X588406D01*
X576594Y302685D02*
X576594Y306228D01*
X579744Y306228D01*
X566701Y308299D02*
X566701Y309972D01*
X566701Y319028D02*
Y320701D01*
X554299Y309972D02*
X554299Y308299D01*
X554299Y320701D02*
X554299Y319028D01*
X549281Y386315D02*
X560353D01*
X549281Y379181D02*
X560353D01*
X552960Y389087D02*
Y408772D01*
X564771D01*
Y389087D02*
Y408772D01*
X552960Y389087D02*
X564771D01*
X605976Y319750D02*
X609024D01*
X605976Y313250D02*
X609024D01*
X593547Y301316D02*
X601815D01*
X593547Y291474D02*
X601815D01*
X582238Y279622D02*
X583616D01*
X582238Y275685D02*
X583616D01*
X544968Y331197D02*
X556040D01*
X544968Y324063D02*
X556040D01*
X565425Y354299D02*
X565524D01*
X553122D02*
X553221D01*
X553122Y364634D02*
Y366701D01*
Y354299D02*
Y356366D01*
X565425Y366701D02*
X565524D01*
X553122D02*
X553221D01*
X565524Y364634D02*
Y366701D01*
Y354299D02*
Y356366D01*
X557203Y343445D02*
X564093D01*
X557224Y350150D02*
X564114D01*
X575984Y350165D02*
Y357055D01*
X569279Y350186D02*
Y357076D01*
X476815Y456579D02*
X479965Y456579D01*
X476815Y466421D02*
X479965Y466421D01*
X495508Y467484D02*
X498598D01*
X501492Y461205D02*
Y461795D01*
X495508Y455516D02*
X498598D01*
X495508D02*
Y458055D01*
Y464945D02*
Y467484D01*
X386464Y358067D02*
X397536D01*
X386464Y350933D02*
X397536D01*
X523433Y438964D02*
Y450036D01*
X530567Y438964D02*
Y450036D01*
X532933Y438807D02*
Y449879D01*
X540067Y438807D02*
Y449879D01*
X435964Y449433D02*
X447036D01*
X435964Y456567D02*
X447036D01*
X517929Y335510D02*
Y346582D01*
X510794Y335510D02*
Y346582D01*
X441210Y348156D02*
X452281D01*
X441210Y341022D02*
X452281D01*
X495585Y411978D02*
X506657D01*
X495585Y404844D02*
X506657D01*
X440772Y406419D02*
Y417490D01*
X447907Y406419D02*
Y417490D01*
X494307Y340567D02*
X505379D01*
X494307Y333433D02*
X505379D01*
D14*
X605931Y371069D02*
G03*
X605931Y371069I-400J0D01*
G01*
X388900Y400350D02*
G03*
X388900Y400350I-400J0D01*
G01*
X603650Y361300D02*
Y367400D01*
X611350Y361300D02*
Y367400D01*
X550650Y411650D02*
X567350D01*
X550650Y432350D02*
X567350D01*
X383500Y361550D02*
X386340D01*
X405660Y394450D02*
X408500D01*
X383500D02*
X386340D01*
X383500Y361550D02*
Y394450D01*
X405660Y361550D02*
X408500D01*
Y394450D01*
X436000Y355750D02*
X437895D01*
X518105D02*
X520000D01*
Y397250D01*
X436000D02*
X437895D01*
X436000Y355750D02*
Y397250D01*
X518105D02*
X520000D01*
D15*
X591656Y467968D02*
X594280D01*
Y466000D01*
X592968D01*
X594280D01*
Y464032D01*
X587720D02*
X590344D01*
X587720Y466656D01*
Y467312D01*
X588376Y467968D01*
X589688D01*
X590344Y467312D01*
X581700Y413700D02*
Y417636D01*
X579732D01*
X579076Y416980D01*
Y415668D01*
X579732Y415012D01*
X581700D01*
X580388D02*
X579076Y413700D01*
X577764Y417636D02*
X575140D01*
Y416980D01*
X577764Y414356D01*
Y413700D01*
X586480Y342652D02*
X582544D01*
Y340684D01*
X583200Y340028D01*
X584512D01*
X585168Y340684D01*
Y342652D01*
Y341340D02*
X586480Y340028D01*
Y338716D02*
Y337404D01*
Y338060D01*
X582544D01*
X583200Y338716D01*
X586480Y333469D02*
X582544D01*
X584512Y335436D01*
Y332813D01*
X590580Y327468D02*
Y323532D01*
X592548D01*
X593204Y324188D01*
Y325500D01*
X592548Y326156D01*
X590580D01*
X591892D02*
X593204Y327468D01*
X594516D02*
X595828D01*
X595172D01*
Y323532D01*
X594516Y324188D01*
X600420Y323532D02*
X597796D01*
Y325500D01*
X599108Y324844D01*
X599764D01*
X600420Y325500D01*
Y326812D01*
X599764Y327468D01*
X598452D01*
X597796Y326812D01*
X600276Y410880D02*
X600932Y411536D01*
X602244D01*
X602900Y410880D01*
Y408256D01*
X602244Y407600D01*
X600932D01*
X600276Y408256D01*
X596996Y407600D02*
Y411536D01*
X598964Y409568D01*
X596340D01*
X592405Y407600D02*
X595028D01*
X592405Y410224D01*
Y410880D01*
X593061Y411536D01*
X594373D01*
X595028Y410880D01*
X614080Y358468D02*
Y354532D01*
X616048D01*
X616704Y355188D01*
Y356500D01*
X616048Y357156D01*
X614080D01*
X615392D02*
X616704Y358468D01*
X618016D02*
X619328D01*
X618672D01*
Y354532D01*
X618016Y355188D01*
X621296Y354532D02*
X623920D01*
Y355188D01*
X621296Y357812D01*
Y358468D01*
X618532Y336780D02*
X622468D01*
Y334812D01*
X621812Y334156D01*
X619188D01*
X618532Y334812D01*
Y336780D01*
X622468Y330876D02*
X618532D01*
X620500Y332844D01*
Y330220D01*
X578080Y351968D02*
Y348032D01*
X580048D01*
X580704Y348688D01*
Y350000D01*
X580048Y350656D01*
X578080D01*
X579392D02*
X580704Y351968D01*
X582016D02*
X583328D01*
X582672D01*
Y348032D01*
X582016Y348688D01*
X587920Y348032D02*
X586608Y348688D01*
X585296Y350000D01*
Y351312D01*
X585952Y351968D01*
X587264D01*
X587920Y351312D01*
Y350656D01*
X587264Y350000D01*
X585296D01*
X613532Y367780D02*
X616812D01*
X617468Y367124D01*
Y365812D01*
X616812Y365156D01*
X613532D01*
X616812Y363844D02*
X617468Y363188D01*
Y361876D01*
X616812Y361220D01*
X614188D01*
X613532Y361876D01*
Y363188D01*
X614188Y363844D01*
X614844D01*
X615500Y363188D01*
Y361220D01*
X615032Y389624D02*
X618968D01*
Y387000D01*
Y385688D02*
Y384376D01*
Y385032D01*
X615032D01*
X615688Y385688D01*
X577188Y443296D02*
X576532Y443952D01*
Y445264D01*
X577188Y445920D01*
X579812D01*
X580468Y445264D01*
Y443952D01*
X579812Y443296D01*
X580468Y441984D02*
Y440672D01*
Y441328D01*
X576532D01*
X577188Y441984D01*
Y438704D02*
X576532Y438048D01*
Y436736D01*
X577188Y436080D01*
X577844D01*
X578500Y436736D01*
X579156Y436080D01*
X579812D01*
X580468Y436736D01*
Y438048D01*
X579812Y438704D01*
X579156D01*
X578500Y438048D01*
X577844Y438704D01*
X577188D01*
X578500Y438048D02*
Y436736D01*
X615615Y304985D02*
Y308921D01*
X613647D01*
X612991Y308265D01*
Y306953D01*
X613647Y306297D01*
X615615D01*
X614303D02*
X612991Y304985D01*
X609055D02*
X611679D01*
X609055Y307609D01*
Y308265D01*
X609711Y308921D01*
X611023D01*
X611679Y308265D01*
X607744D02*
X607088Y308921D01*
X605776D01*
X605120Y308265D01*
Y307609D01*
X605776Y306953D01*
X605120Y306297D01*
Y305641D01*
X605776Y304985D01*
X607088D01*
X607744Y305641D01*
Y306297D01*
X607088Y306953D01*
X607744Y307609D01*
Y308265D01*
X607088Y306953D02*
X605776D01*
X635065Y433532D02*
Y437468D01*
X633098D01*
X632442Y436812D01*
Y435500D01*
X633098Y434844D01*
X635065D01*
X633753D02*
X632442Y433532D01*
X631130D02*
X629818D01*
X630474D01*
Y437468D01*
X631130Y436812D01*
X627850D02*
X627194Y437468D01*
X625882D01*
X625226Y436812D01*
Y436156D01*
X625882Y435500D01*
X626538D01*
X625882D01*
X625226Y434844D01*
Y434188D01*
X625882Y433532D01*
X627194D01*
X627850Y434188D01*
X634565Y424032D02*
Y427968D01*
X632597D01*
X631942Y427312D01*
Y426000D01*
X632597Y425344D01*
X634565D01*
X633253D02*
X631942Y424032D01*
X630630D02*
X629318D01*
X629974D01*
Y427968D01*
X630630Y427312D01*
X624726Y424032D02*
X627350D01*
X624726Y426656D01*
Y427312D01*
X625382Y427968D01*
X626694D01*
X627350Y427312D01*
X589583Y292305D02*
X585647D01*
Y290337D01*
X586303Y289681D01*
X587615D01*
X588271Y290337D01*
Y292305D01*
Y290993D02*
X589583Y289681D01*
Y285745D02*
Y288369D01*
X586959Y285745D01*
X586303D01*
X585647Y286401D01*
Y287713D01*
X586303Y288369D01*
X585647Y284434D02*
Y281810D01*
X586303D01*
X588927Y284434D01*
X589583D01*
X596476Y305356D02*
Y307980D01*
X597132Y308636D01*
X598444D01*
X599100Y307980D01*
Y305356D01*
X598444Y304700D01*
X597132D01*
X597788Y306012D02*
X596476Y304700D01*
X597132D02*
X596476Y305356D01*
X595164Y307980D02*
X594508Y308636D01*
X593196D01*
X592540Y307980D01*
Y307324D01*
X593196Y306668D01*
X593852D01*
X593196D01*
X592540Y306012D01*
Y305356D01*
X593196Y304700D01*
X594508D01*
X595164Y305356D01*
X596297Y278728D02*
Y274792D01*
X594329D01*
X593673Y275448D01*
Y278072D01*
X594329Y278728D01*
X596297D01*
X589738D02*
X592361D01*
Y276760D01*
X591049Y277416D01*
X590393D01*
X589738Y276760D01*
Y275448D01*
X590393Y274792D01*
X591705D01*
X592361Y275448D01*
X539032Y283252D02*
X542968D01*
Y285220D01*
X542312Y285876D01*
X541000D01*
X540344Y285220D01*
Y283252D01*
Y284564D02*
X539032Y285876D01*
Y289812D02*
Y287188D01*
X541656Y289812D01*
X542312D01*
X542968Y289156D01*
Y287844D01*
X542312Y287188D01*
Y291124D02*
X542968Y291780D01*
Y293092D01*
X542312Y293748D01*
X541656D01*
X541000Y293092D01*
Y292436D01*
Y293092D01*
X540344Y293748D01*
X539688D01*
X539032Y293092D01*
Y291780D01*
X539688Y291124D01*
X560420Y375468D02*
Y372188D01*
X559764Y371532D01*
X558452D01*
X557796Y372188D01*
Y375468D01*
X556484Y371532D02*
X555172D01*
X555828D01*
Y375468D01*
X556484Y374812D01*
X553204D02*
X552548Y375468D01*
X551236D01*
X550580Y374812D01*
Y372188D01*
X551236Y371532D01*
X552548D01*
X553204Y372188D01*
Y374812D01*
X537339Y354366D02*
X541275D01*
Y356334D01*
X540619Y356990D01*
X539307D01*
X538651Y356334D01*
Y354366D01*
Y355678D02*
X537339Y356990D01*
Y360926D02*
Y358302D01*
X539963Y360926D01*
X540619D01*
X541275Y360270D01*
Y358958D01*
X540619Y358302D01*
X537339Y362238D02*
Y363550D01*
Y362894D01*
X541275D01*
X540619Y362238D01*
X518800Y470800D02*
Y474736D01*
X516832D01*
X516176Y474080D01*
Y472768D01*
X516832Y472112D01*
X518800D01*
X517488D02*
X516176Y470800D01*
X512240D02*
X514864D01*
X512240Y473424D01*
Y474080D01*
X512896Y474736D01*
X514208D01*
X514864Y474080D01*
X510928D02*
X510273Y474736D01*
X508961D01*
X508305Y474080D01*
Y471456D01*
X508961Y470800D01*
X510273D01*
X510928Y471456D01*
Y474080D01*
X532920Y469532D02*
Y473468D01*
X530952D01*
X530296Y472812D01*
Y471500D01*
X530952Y470844D01*
X532920D01*
X531608D02*
X530296Y469532D01*
X528984D02*
X527672D01*
X528328D01*
Y473468D01*
X528984Y472812D01*
X525704Y470188D02*
X525048Y469532D01*
X523736D01*
X523080Y470188D01*
Y472812D01*
X523736Y473468D01*
X525048D01*
X525704Y472812D01*
Y472156D01*
X525048Y471500D01*
X523080D01*
X480100Y470900D02*
Y474836D01*
X478132D01*
X477476Y474180D01*
Y472868D01*
X478132Y472212D01*
X480100D01*
X478788D02*
X477476Y470900D01*
X476164D02*
X474852D01*
X475508D01*
Y474836D01*
X476164Y474180D01*
X472885D02*
X472228Y474836D01*
X470917D01*
X470261Y474180D01*
Y473524D01*
X470917Y472868D01*
X470261Y472212D01*
Y471556D01*
X470917Y470900D01*
X472228D01*
X472885Y471556D01*
Y472212D01*
X472228Y472868D01*
X472885Y473524D01*
Y474180D01*
X472228Y472868D02*
X470917D01*
X494276Y471956D02*
Y474580D01*
X494932Y475236D01*
X496244D01*
X496900Y474580D01*
Y471956D01*
X496244Y471300D01*
X494932D01*
X495588Y472612D02*
X494276Y471300D01*
X494932D02*
X494276Y471956D01*
X492964Y471300D02*
X491652D01*
X492308D01*
Y475236D01*
X492964Y474580D01*
X548280Y435968D02*
Y432688D01*
X547624Y432032D01*
X546312D01*
X545656Y432688D01*
Y435968D01*
X544344Y435312D02*
X543688Y435968D01*
X542376D01*
X541720Y435312D01*
Y434656D01*
X542376Y434000D01*
X541720Y433344D01*
Y432688D01*
X542376Y432032D01*
X543688D01*
X544344Y432688D01*
Y433344D01*
X543688Y434000D01*
X544344Y434656D01*
Y435312D01*
X543688Y434000D02*
X542376D01*
X613500Y323532D02*
X610876D01*
Y325500D01*
X612188D01*
X610876D01*
Y327468D01*
X614812D02*
X616124D01*
X615468D01*
Y323532D01*
X614812Y324188D01*
X396920Y415532D02*
Y419468D01*
X394952D01*
X394296Y418812D01*
Y417500D01*
X394952Y416844D01*
X396920D01*
X395608D02*
X394296Y415532D01*
X392984D02*
X391672D01*
X392328D01*
Y419468D01*
X392984Y418812D01*
X389704D02*
X389048Y419468D01*
X387736D01*
X387080Y418812D01*
Y416188D01*
X387736Y415532D01*
X389048D01*
X389704Y416188D01*
Y418812D01*
X400188Y435624D02*
X399532Y436280D01*
Y437592D01*
X400188Y438248D01*
X402812D01*
X403468Y437592D01*
Y436280D01*
X402812Y435624D01*
X400188Y434312D02*
X399532Y433656D01*
Y432344D01*
X400188Y431688D01*
X400844D01*
X401500Y432344D01*
Y433000D01*
Y432344D01*
X402156Y431688D01*
X402812D01*
X403468Y432344D01*
Y433656D01*
X402812Y434312D01*
X399532Y427752D02*
X400188Y429064D01*
X401500Y430376D01*
X402812D01*
X403468Y429720D01*
Y428408D01*
X402812Y427752D01*
X402156D01*
X401500Y428408D01*
Y430376D01*
X396467Y347312D02*
X397123Y347968D01*
X398435D01*
X399091Y347312D01*
Y344688D01*
X398435Y344032D01*
X397123D01*
X396467Y344688D01*
X395155Y347312D02*
X394499Y347968D01*
X393187D01*
X392531Y347312D01*
Y346656D01*
X393187Y346000D01*
X393843D01*
X393187D01*
X392531Y345344D01*
Y344688D01*
X393187Y344032D01*
X394499D01*
X395155Y344688D01*
X388595Y347968D02*
X391219D01*
Y346000D01*
X389907Y346656D01*
X389251D01*
X388595Y346000D01*
Y344688D01*
X389251Y344032D01*
X390563D01*
X391219Y344688D01*
X569742Y329387D02*
X570398Y330043D01*
X571710D01*
X572366Y329387D01*
Y326763D01*
X571710Y326107D01*
X570398D01*
X569742Y326763D01*
X568431Y329387D02*
X567775Y330043D01*
X566463D01*
X565807Y329387D01*
Y328731D01*
X566463Y328075D01*
X567119D01*
X566463D01*
X565807Y327419D01*
Y326763D01*
X566463Y326107D01*
X567775D01*
X568431Y326763D01*
X564495Y329387D02*
X563839Y330043D01*
X562527D01*
X561871Y329387D01*
Y326763D01*
X562527Y326107D01*
X563839D01*
X564495Y326763D01*
Y329387D01*
X403280Y401468D02*
Y398188D01*
X402624Y397532D01*
X401312D01*
X400656Y398188D01*
Y401468D01*
X396720D02*
X398032Y400812D01*
X399344Y399500D01*
Y398188D01*
X398688Y397532D01*
X397376D01*
X396720Y398188D01*
Y398844D01*
X397376Y399500D01*
X399344D01*
X519900Y410336D02*
Y407056D01*
X519244Y406400D01*
X517932D01*
X517276Y407056D01*
Y410336D01*
X513340Y406400D02*
X515964D01*
X513340Y409024D01*
Y409680D01*
X513996Y410336D01*
X515308D01*
X515964Y409680D01*
D79*
X554496Y322276D02*
G03*
X554496Y322276I-197J0D01*
G01*
D80*
X606610Y424031D02*
Y427969D01*
Y433532D02*
Y437468D01*
D81*
X546025Y409620D02*
X548649Y412244D01*
X546025D02*
X548649Y409620D01*
X546025Y410932D02*
X548649D01*
X547337Y412244D02*
Y409620D01*
X520575Y351650D02*
X517951Y354274D01*
Y351650D02*
X520575Y354274D01*
X519263Y351650D02*
Y354274D01*
X517951Y352962D02*
X520575D01*
M02*
