G04*
G04 #@! TF.GenerationSoftware,Altium Limited,Altium Designer,25.1.2 (22)*
G04*
G04 Layer_Color=2752767*
%FSLAX25Y25*%
%MOIN*%
G70*
G04*
G04 #@! TF.SameCoordinates,B1411C34-087D-4BAB-B9BA-D0973F51CA7B*
G04*
G04*
G04 #@! TF.FilePolarity,Positive*
G04*
G01*
G75*
%ADD85C,0.00667*%
%ADD86C,0.00400*%
%ADD87C,0.00500*%
D85*
X420063Y313466D02*
G03*
X420063Y313466I-2000J0D01*
G01*
X647000Y263500D02*
G03*
X647000Y263500I-2000J0D01*
G01*
Y489000D02*
G03*
X647000Y489000I-2000J0D01*
G01*
X420000Y439000D02*
G03*
X420000Y439000I-2000J0D01*
G01*
X585500Y403000D02*
G03*
X585500Y403000I-2000J0D01*
G01*
X585878Y406188D02*
G03*
X585878Y406188I-2000J0D01*
G01*
X592000Y409522D02*
G03*
X592000Y409522I-2000J0D01*
G01*
X602500Y409000D02*
G03*
X602500Y409000I-2000J0D01*
G01*
X597500D02*
G03*
X597500Y409000I-2000J0D01*
G01*
X620500Y341000D02*
G03*
X620500Y341000I-2000J0D01*
G01*
X589500Y331500D02*
G03*
X589500Y331500I-2000J0D01*
G01*
X610500Y346000D02*
G03*
X610500Y346000I-2000J0D01*
G01*
X603000Y354500D02*
G03*
X603000Y354500I-2000J0D01*
G01*
X597500Y414000D02*
G03*
X597500Y414000I-2000J0D01*
G01*
X592000Y418000D02*
G03*
X592000Y418000I-2000J0D01*
G01*
Y414000D02*
G03*
X592000Y414000I-2000J0D01*
G01*
X602500D02*
G03*
X602500Y414000I-2000J0D01*
G01*
X597500Y418000D02*
G03*
X597500Y418000I-2000J0D01*
G01*
X615000Y367500D02*
G03*
X615000Y367500I-2000J0D01*
G01*
X602500Y418000D02*
G03*
X602500Y418000I-2000J0D01*
G01*
X573772Y298148D02*
G03*
X573772Y298148I-2000J0D01*
G01*
X533216Y336579D02*
G03*
X533216Y336579I-2000J0D01*
G01*
X533000Y347500D02*
G03*
X533000Y347500I-2000J0D01*
G01*
X529936Y346936D02*
G03*
X529936Y346936I-2000J0D01*
G01*
X500500Y360631D02*
G03*
X500500Y360631I-2000J0D01*
G01*
X498500Y358022D02*
G03*
X498500Y358022I-2000J0D01*
G01*
X478586Y414084D02*
G03*
X478586Y414084I-2000J0D01*
G01*
X476394Y412106D02*
G03*
X476394Y412106I-2000J0D01*
G01*
X468801Y411676D02*
G03*
X468801Y411676I-2000J0D01*
G01*
X579786Y367214D02*
G03*
X579786Y367214I-2000J0D01*
G01*
X427500Y400500D02*
G03*
X427500Y400500I-2000J0D01*
G01*
X471364Y363636D02*
G03*
X471364Y363636I-2000J0D01*
G01*
X467346Y358980D02*
G03*
X467346Y358980I-2000J0D01*
G01*
X465500Y370612D02*
G03*
X465500Y370612I-2000J0D01*
G01*
X473500Y359000D02*
G03*
X473500Y359000I-2000J0D01*
G01*
X500000Y377741D02*
G03*
X500000Y377741I-2000J0D01*
G01*
X483648Y369228D02*
G03*
X483648Y369228I-2000J0D01*
G01*
X542500Y428000D02*
G03*
X542500Y428000I-2000J0D01*
G01*
X512500Y425500D02*
G03*
X512500Y425500I-2000J0D01*
G01*
X509000D02*
G03*
X509000Y425500I-2000J0D01*
G01*
X506000Y425000D02*
G03*
X506000Y425000I-2000J0D01*
G01*
X516500Y425500D02*
G03*
X516500Y425500I-2000J0D01*
G01*
X517000Y348500D02*
G03*
X517000Y348500I-2000J0D01*
G01*
X610926Y303574D02*
G03*
X610926Y303574I-2000J0D01*
G01*
X581000Y309000D02*
G03*
X581000Y309000I-2000J0D01*
G01*
X574626Y346374D02*
G03*
X574626Y346374I-2000J0D01*
G01*
X555803Y346803D02*
G03*
X555803Y346803I-2000J0D01*
G01*
X560000Y351500D02*
G03*
X560000Y351500I-2000J0D01*
G01*
X544601Y355399D02*
G03*
X544601Y355399I-2000J0D01*
G01*
X541285Y333629D02*
G03*
X541285Y333629I-2000J0D01*
G01*
X550500Y334500D02*
G03*
X550500Y334500I-2000J0D01*
G01*
X512000Y411000D02*
G03*
X512000Y411000I-2000J0D01*
G01*
X515262Y405945D02*
G03*
X515262Y405945I-2000J0D01*
G01*
X512000Y408000D02*
G03*
X512000Y408000I-2000J0D01*
G01*
X512500Y414000D02*
G03*
X512500Y414000I-2000J0D01*
G01*
X520907Y416864D02*
G03*
X520907Y416864I-2000J0D01*
G01*
X523252Y419000D02*
G03*
X523252Y419000I-2000J0D01*
G01*
X502500Y425000D02*
G03*
X502500Y425000I-2000J0D01*
G01*
X534647Y427646D02*
G03*
X534647Y427646I-2000J0D01*
G01*
X537000Y421000D02*
G03*
X537000Y421000I-2000J0D01*
G01*
X544000Y395000D02*
G03*
X544000Y395000I-2000J0D01*
G01*
X539140Y347852D02*
G03*
X539140Y347852I-2000J0D01*
G01*
X520500Y327816D02*
G03*
X520500Y327816I-2000J0D01*
G01*
X454000Y426500D02*
G03*
X454000Y426500I-2000J0D01*
G01*
X456043Y328000D02*
G03*
X456043Y328000I-2000J0D01*
G01*
X444500Y326228D02*
G03*
X444500Y326228I-2000J0D01*
G01*
X493500Y327000D02*
G03*
X493500Y327000I-2000J0D01*
G01*
X494772Y324148D02*
G03*
X494772Y324148I-2000J0D01*
G01*
X492500Y282500D02*
G03*
X492500Y282500I-2000J0D01*
G01*
X585539Y439461D02*
G03*
X585539Y439461I-2000J0D01*
G01*
X532500Y363500D02*
G03*
X532500Y363500I-2000J0D01*
G01*
X532644Y355144D02*
G03*
X532644Y355144I-2000J0D01*
G01*
X531945Y352275D02*
G03*
X531945Y352275I-2000J0D01*
G01*
X548025Y350572D02*
G03*
X548025Y350572I-2000J0D01*
G01*
X572127Y342187D02*
G03*
X572127Y342187I-2000J0D01*
G01*
X565418Y337734D02*
G03*
X565418Y337734I-2000J0D01*
G01*
X572000Y320500D02*
G03*
X572000Y320500I-2000J0D01*
G01*
X514394Y362394D02*
G03*
X514394Y362394I-2000J0D01*
G01*
X511772Y364913D02*
G03*
X511772Y364913I-2000J0D01*
G01*
X541883Y327155D02*
G03*
X541883Y327155I-2000J0D01*
G01*
X527074Y410741D02*
G03*
X527074Y410741I-2000J0D01*
G01*
X525500Y416500D02*
G03*
X525500Y416500I-2000J0D01*
G01*
X523500Y413592D02*
G03*
X523500Y413592I-2000J0D01*
G01*
X517500Y393000D02*
G03*
X517500Y393000I-2000J0D01*
G01*
X509000D02*
G03*
X509000Y393000I-2000J0D01*
G01*
X451902Y348718D02*
G03*
X451902Y348718I-2000J0D01*
G01*
X540224Y408000D02*
G03*
X540224Y408000I-2000J0D01*
G01*
X542272Y402000D02*
G03*
X542272Y402000I-2000J0D01*
G01*
Y405757D02*
G03*
X542272Y405757I-2000J0D01*
G01*
X558500Y431816D02*
G03*
X558500Y431816I-2000J0D01*
G01*
X532272Y387228D02*
G03*
X532272Y387228I-2000J0D01*
G01*
X503500Y290000D02*
G03*
X503500Y290000I-2000J0D01*
G01*
X522000Y339316D02*
G03*
X522000Y339316I-2000J0D01*
G01*
X440551Y461795D02*
G03*
X440551Y461795I-2000J0D01*
G01*
X464209Y462025D02*
G03*
X464209Y462025I-2000J0D01*
G01*
X513579Y451692D02*
G03*
X513579Y451692I-2000J0D01*
G01*
X511500Y403816D02*
G03*
X511500Y403816I-2000J0D01*
G01*
X454618Y414109D02*
G03*
X454618Y414109I-2000J0D01*
G01*
X403500Y421316D02*
G03*
X403500Y421316I-2000J0D01*
G01*
X409610Y393277D02*
G03*
X409610Y393277I-2000J0D01*
G01*
X402000Y378000D02*
G03*
X402000Y378000I-2000J0D01*
G01*
X393500D02*
G03*
X393500Y378000I-2000J0D01*
G01*
X397157Y346973D02*
G03*
X397157Y346973I-2000J0D01*
G01*
X505000Y328816D02*
G03*
X505000Y328816I-2000J0D01*
G01*
X489633Y359857D02*
G03*
X489633Y359857I-2000J0D01*
G01*
X451712Y390212D02*
G03*
X451712Y390212I-2000J0D01*
G01*
X444046Y385239D02*
G03*
X444046Y385239I-2000J0D01*
G01*
X443000Y388000D02*
G03*
X443000Y388000I-2000J0D01*
G01*
X446244Y383228D02*
G03*
X446244Y383228I-2000J0D01*
G01*
X489500Y392316D02*
G03*
X489500Y392316I-2000J0D01*
G01*
X577521Y429328D02*
G03*
X577521Y429328I-2000J0D01*
G01*
X422500Y411316D02*
G03*
X422500Y411316I-2000J0D01*
G01*
X398500Y387000D02*
G03*
X398500Y387000I-2000J0D01*
G01*
X546496Y345996D02*
G03*
X546496Y345996I-2000J0D01*
G01*
X557500Y334500D02*
G03*
X557500Y334500I-2000J0D01*
G01*
X532272Y382816D02*
G03*
X532272Y382816I-2000J0D01*
G01*
X529113Y363703D02*
G03*
X529113Y363703I-2000J0D01*
G01*
X474439Y328816D02*
G03*
X474439Y328816I-2000J0D01*
G01*
X451500Y340500D02*
G03*
X451500Y340500I-2000J0D01*
G01*
X428500Y350816D02*
G03*
X428500Y350816I-2000J0D01*
G01*
X444365Y379451D02*
G03*
X444365Y379451I-2000J0D01*
G01*
X433000Y396316D02*
G03*
X433000Y396316I-2000J0D01*
G01*
X432361Y400573D02*
G03*
X432361Y400573I-2000J0D01*
G01*
X494000Y404816D02*
G03*
X494000Y404816I-2000J0D01*
G01*
X451000Y424000D02*
G03*
X451000Y424000I-2000J0D01*
G01*
X502500Y438000D02*
G03*
X502500Y438000I-2000J0D01*
G01*
X553000Y350000D02*
G03*
X553000Y350000I-2000J0D01*
G01*
X522472Y453472D02*
G03*
X522472Y453472I-2000J0D01*
G01*
X506000Y452000D02*
G03*
X506000Y452000I-2000J0D01*
G01*
X496900Y454500D02*
G03*
X496900Y454500I-2000J0D01*
G01*
X477341Y324228D02*
G03*
X477341Y324228I-2000J0D01*
G01*
X500000Y393000D02*
G03*
X500000Y393000I-2000J0D01*
G01*
X540000Y389500D02*
G03*
X540000Y389500I-2000J0D01*
G01*
X467439Y322579D02*
G03*
X467439Y322579I-2000J0D01*
G01*
X400500Y401500D02*
G03*
X400500Y401500I-2000J0D01*
G01*
X423000Y408000D02*
G03*
X423000Y408000I-2000J0D01*
G01*
X436500Y421500D02*
G03*
X436500Y421500I-2000J0D01*
G01*
X395500Y367500D02*
G03*
X395500Y367500I-2000J0D01*
G01*
X411000Y372132D02*
G03*
X411000Y372132I-2000J0D01*
G01*
X405500Y357000D02*
G03*
X405500Y357000I-2000J0D01*
G01*
X390351Y399032D02*
G03*
X390351Y399032I-2000J0D01*
G01*
X428000Y396500D02*
G03*
X428000Y396500I-2000J0D01*
G01*
X453285Y406219D02*
G03*
X453285Y406219I-2000J0D01*
G01*
X456500Y409429D02*
G03*
X456500Y409429I-2000J0D01*
G01*
X459500Y408500D02*
G03*
X459500Y408500I-2000J0D01*
G01*
X460957Y412705D02*
G03*
X460957Y412705I-2000J0D01*
G01*
X433892Y361615D02*
G03*
X433892Y361615I-2000J0D01*
G01*
X428500Y344000D02*
G03*
X428500Y344000I-2000J0D01*
G01*
X468874Y438339D02*
G03*
X468874Y438339I-2000J0D01*
G01*
X465500Y445000D02*
G03*
X465500Y445000I-2000J0D01*
G01*
X463488Y326331D02*
G03*
X463488Y326331I-2000J0D01*
G01*
X517091Y377480D02*
G03*
X517091Y377480I-2000J0D01*
G01*
X497000Y424000D02*
G03*
X497000Y424000I-2000J0D01*
G01*
X492500D02*
G03*
X492500Y424000I-2000J0D01*
G01*
X477035Y427236D02*
G03*
X477035Y427236I-2000J0D01*
G01*
X428177Y367824D02*
G03*
X428177Y367824I-2000J0D01*
G01*
X425772Y386000D02*
G03*
X425772Y386000I-2000J0D01*
G01*
Y382500D02*
G03*
X425772Y382500I-2000J0D01*
G01*
X426272Y389500D02*
G03*
X426272Y389500I-2000J0D01*
G01*
X425000Y393500D02*
G03*
X425000Y393500I-2000J0D01*
G01*
X455500Y436500D02*
G03*
X455500Y436500I-2000J0D01*
G01*
X459564Y436566D02*
G03*
X459564Y436566I-2000J0D01*
G01*
X462500Y447000D02*
G03*
X462500Y447000I-2000J0D01*
G01*
X488846Y444710D02*
G03*
X488846Y444710I-2000J0D01*
G01*
X470000Y446000D02*
G03*
X470000Y446000I-2000J0D01*
G01*
X508728Y327000D02*
G03*
X508728Y327000I-2000J0D01*
G01*
X511000Y323000D02*
G03*
X511000Y323000I-2000J0D01*
G01*
X473500Y446000D02*
G03*
X473500Y446000I-2000J0D01*
G01*
X476640Y436685D02*
G03*
X476640Y436685I-2000J0D01*
G01*
X477500Y446000D02*
G03*
X477500Y446000I-2000J0D01*
G01*
X479512Y435997D02*
G03*
X479512Y435997I-2000J0D01*
G01*
X451500Y328500D02*
G03*
X451500Y328500I-2000J0D01*
G01*
X492000Y439500D02*
G03*
X492000Y439500I-2000J0D01*
G01*
X499500Y441500D02*
G03*
X499500Y441500I-2000J0D01*
G01*
X495000Y442000D02*
G03*
X495000Y442000I-2000J0D01*
G01*
X529000Y379500D02*
G03*
X529000Y379500I-2000J0D01*
G01*
X465500Y412000D02*
G03*
X465500Y412000I-2000J0D01*
G01*
X463412Y409912D02*
G03*
X463412Y409912I-2000J0D01*
G01*
X459500Y341000D02*
G03*
X459500Y341000I-2000J0D01*
G01*
X509500Y345000D02*
G03*
X509500Y345000I-2000J0D01*
G01*
X509000Y340000D02*
G03*
X509000Y340000I-2000J0D01*
G01*
X509081Y377361D02*
G03*
X509081Y377361I-2000J0D01*
G01*
X475500Y387000D02*
G03*
X475500Y387000I-2000J0D01*
G01*
X502019Y363532D02*
G03*
X502019Y363532I-2000J0D01*
G01*
X504000Y366000D02*
G03*
X504000Y366000I-2000J0D01*
G01*
X505500Y369000D02*
G03*
X505500Y369000I-2000J0D01*
G01*
X461000Y392500D02*
G03*
X461000Y392500I-2000J0D01*
G01*
X458000Y391500D02*
G03*
X458000Y391500I-2000J0D01*
G01*
X455000Y391000D02*
G03*
X455000Y391000I-2000J0D01*
G01*
X467500Y345000D02*
G03*
X467500Y345000I-2000J0D01*
G01*
X464000Y360500D02*
G03*
X464000Y360500I-2000J0D01*
G01*
X470500Y386500D02*
G03*
X470500Y386500I-2000J0D01*
G01*
X486500Y326500D02*
G03*
X486500Y326500I-2000J0D01*
G01*
X493000Y342000D02*
G03*
X493000Y342000I-2000J0D01*
G01*
X496000Y348500D02*
G03*
X496000Y348500I-2000J0D01*
G01*
D86*
X419263Y313466D02*
G03*
X419263Y313466I-1200J0D01*
G01*
X646200Y263500D02*
G03*
X646200Y263500I-1200J0D01*
G01*
Y489000D02*
G03*
X646200Y489000I-1200J0D01*
G01*
X419200Y439000D02*
G03*
X419200Y439000I-1200J0D01*
G01*
D87*
X574563Y456005D02*
X575563D01*
X576563Y457005D01*
X577563Y456005D01*
X578563D01*
Y457005D01*
X577563Y458005D01*
X578563Y459005D01*
Y460005D01*
X577563D01*
X576563Y459005D01*
X575563Y460005D01*
X574563D01*
Y459005D01*
X575563Y458005D01*
X574563Y457005D01*
Y456005D01*
X558972D02*
X559972D01*
X560972Y457005D01*
X561972Y456005D01*
X562972D01*
Y457005D01*
X561972Y458005D01*
X562972Y459005D01*
Y460005D01*
X561972D01*
X560972Y459005D01*
X559972Y460005D01*
X558972D01*
Y459005D01*
X559972Y458005D01*
X558972Y457005D01*
Y456005D01*
X630909Y441378D02*
Y445378D01*
X634909D01*
Y441378D01*
X630909D01*
Y310197D02*
Y314197D01*
X634909D01*
Y310197D01*
X630909D01*
X638500Y408150D02*
X636500Y412150D01*
X640500D01*
X638500Y408150D01*
Y397362D02*
X636500Y401362D01*
X640500D01*
X638500Y397362D01*
Y386575D02*
X636500Y390575D01*
X640500D01*
X638500Y386575D01*
Y375787D02*
X636500Y379787D01*
X640500D01*
X638500Y375787D01*
Y365000D02*
X636500Y369000D01*
X640500D01*
X638500Y365000D01*
Y354213D02*
X636500Y358213D01*
X640500D01*
X638500Y354213D01*
Y343425D02*
X636500Y347425D01*
X640500D01*
X638500Y343425D01*
X627319Y413543D02*
X625319Y417543D01*
X629319D01*
X627319Y413543D01*
Y402756D02*
X625319Y406756D01*
X629319D01*
X627319Y402756D01*
Y391968D02*
X625319Y395969D01*
X629319D01*
X627319Y391968D01*
Y381181D02*
X625319Y385181D01*
X629319D01*
X627319Y381181D01*
Y370394D02*
X625319Y374394D01*
X629319D01*
X627319Y370394D01*
Y359606D02*
X625319Y363606D01*
X629319D01*
X627319Y359606D01*
Y348819D02*
X625319Y352819D01*
X629319D01*
X627319Y348819D01*
Y338032D02*
X625319Y342032D01*
X629319D01*
X627319Y338032D01*
X648000Y467000D02*
Y466000D01*
X650000D01*
Y467000D01*
X651000D01*
Y469000D01*
X650000D01*
Y470000D01*
X648000D01*
Y469000D01*
X647000D01*
Y467000D01*
X648000D01*
X638158D02*
Y466000D01*
X640158D01*
Y467000D01*
X641157D01*
Y469000D01*
X640158D01*
Y470000D01*
X638158D01*
Y469000D01*
X637157D01*
Y467000D01*
X638158D01*
X628315D02*
Y466000D01*
X630315D01*
Y467000D01*
X631315D01*
Y469000D01*
X630315D01*
Y470000D01*
X628315D01*
Y469000D01*
X627315D01*
Y467000D01*
X628315D01*
X618472D02*
Y466000D01*
X620472D01*
Y467000D01*
X621472D01*
Y469000D01*
X620472D01*
Y470000D01*
X618472D01*
Y469000D01*
X617472D01*
Y467000D01*
X618472D01*
X608630D02*
Y466000D01*
X610630D01*
Y467000D01*
X611630D01*
Y469000D01*
X610630D01*
Y470000D01*
X608630D01*
Y469000D01*
X607630D01*
Y467000D01*
X608630D01*
X598787D02*
Y466000D01*
X600787D01*
Y467000D01*
X601787D01*
Y469000D01*
X600787D01*
Y470000D01*
X598787D01*
Y469000D01*
X597787D01*
Y467000D01*
X598787D01*
X467500Y285000D02*
X469500Y287000D01*
X471500Y285000D01*
X469500Y283000D01*
X467500Y285000D01*
X457500D02*
X459500Y287000D01*
X461500Y285000D01*
X459500Y283000D01*
X457500Y285000D01*
X467500Y295000D02*
X469500Y297000D01*
X471500Y295000D01*
X469500Y293000D01*
X467500Y295000D01*
X457500D02*
X459500Y297000D01*
X461500Y295000D01*
X459500Y293000D01*
X457500Y295000D01*
X598630Y282500D02*
Y281500D01*
X600630D01*
Y282500D01*
X601630D01*
Y284500D01*
X600630D01*
Y285500D01*
X598630D01*
Y284500D01*
X597630D01*
Y282500D01*
X598630D01*
X608472D02*
Y281500D01*
X610472D01*
Y282500D01*
X611472D01*
Y284500D01*
X610472D01*
Y285500D01*
X608472D01*
Y284500D01*
X607472D01*
Y282500D01*
X608472D01*
X618315Y282500D02*
Y281500D01*
X620315D01*
Y282500D01*
X621315D01*
Y284500D01*
X620315D01*
Y285500D01*
X618315D01*
Y284500D01*
X617315D01*
Y282500D01*
X618315D01*
X628158D02*
Y281500D01*
X630158D01*
Y282500D01*
X631157D01*
Y284500D01*
X630158D01*
Y285500D01*
X628158D01*
Y284500D01*
X627157D01*
Y282500D01*
X628158D01*
X638000Y282500D02*
Y281500D01*
X640000D01*
Y282500D01*
X641000D01*
Y284500D01*
X640000D01*
Y285500D01*
X638000D01*
Y284500D01*
X637000D01*
Y282500D01*
X638000D01*
X647843D02*
Y281500D01*
X649843D01*
Y282500D01*
X650843D01*
Y284500D01*
X649843D01*
Y285500D01*
X647843D01*
Y284500D01*
X646842D01*
Y282500D01*
X647843D01*
X524000Y275087D02*
X525000Y277087D01*
X524000Y279087D01*
X526000Y278087D01*
X528000Y279087D01*
X527000Y277087D01*
X528000Y275087D01*
X526000Y276087D01*
X524000Y275087D01*
Y285913D02*
X525000Y287913D01*
X524000Y289913D01*
X526000Y288913D01*
X528000Y289913D01*
X527000Y287913D01*
X528000Y285913D01*
X526000Y286913D01*
X524000Y285913D01*
X489000Y275087D02*
X490000Y277087D01*
X489000Y279087D01*
X491000Y278087D01*
X493000Y279087D01*
X492000Y277087D01*
X493000Y275087D01*
X491000Y276087D01*
X489000Y275087D01*
Y285913D02*
X490000Y287913D01*
X489000Y289913D01*
X491000Y288913D01*
X493000Y289913D01*
X492000Y287913D01*
X493000Y285913D01*
X491000Y286913D01*
X489000Y285913D01*
X426000Y295000D02*
X427000Y296000D01*
X428000D01*
X427000Y297000D01*
X428000Y298000D01*
X427000D01*
X426000Y299000D01*
X425000Y298000D01*
X424000D01*
X425000Y297000D01*
X424000Y296000D01*
X425000D01*
X426000Y295000D01*
X565705Y326811D02*
Y330811D01*
X569705D01*
Y326811D01*
X565705D01*
X566505Y327611D02*
Y330011D01*
X568905D01*
Y327611D01*
X566505D01*
X524366Y291378D02*
Y295378D01*
X528366D01*
Y291378D01*
X524366D01*
X525166Y292178D02*
Y294578D01*
X527566D01*
Y292178D01*
X525166D01*
X494839Y303189D02*
Y307189D01*
X498839D01*
Y303189D01*
X494839D01*
X495639Y303989D02*
Y306389D01*
X498039D01*
Y303989D01*
X495639D01*
X488933Y291378D02*
Y295378D01*
X492933D01*
Y291378D01*
X488933D01*
X489733Y292178D02*
Y294578D01*
X492133D01*
Y292178D01*
X489733D01*
X471216Y303189D02*
Y307189D01*
X475216D01*
Y303189D01*
X471216D01*
X472016Y303989D02*
Y306389D01*
X474416D01*
Y303989D01*
X472016D01*
X477122Y291378D02*
Y295378D01*
X481122D01*
Y291378D01*
X477122D01*
X477922Y292178D02*
Y294578D01*
X480322D01*
Y292178D01*
X477922D01*
X453500Y315000D02*
Y319000D01*
X457500D01*
Y315000D01*
X453500D01*
X454300Y315800D02*
Y318200D01*
X456700D01*
Y315800D01*
X454300D01*
X417291Y364142D02*
Y368142D01*
X421291D01*
Y364142D01*
X417291D01*
X418091Y364942D02*
Y367342D01*
X420491D01*
Y364942D01*
X418091D01*
X653512Y458630D02*
Y462630D01*
X657512D01*
Y458630D01*
X653512D01*
X654312Y459430D02*
Y461830D01*
X656712D01*
Y459430D01*
X654312D01*
X647606Y423197D02*
Y427197D01*
X651606D01*
Y423197D01*
X647606D01*
X648406Y423997D02*
Y426397D01*
X650806D01*
Y423997D01*
X648406D01*
X647606Y399575D02*
Y403575D01*
X651606D01*
Y399575D01*
X647606D01*
X648406Y400375D02*
Y402775D01*
X650806D01*
Y400375D01*
X648406D01*
X647606Y375953D02*
Y379953D01*
X651606D01*
Y375953D01*
X647606D01*
X648406Y376753D02*
Y379153D01*
X650806D01*
Y376753D01*
X648406D01*
X647606Y352331D02*
Y356331D01*
X651606D01*
Y352331D01*
X647606D01*
X648406Y353131D02*
Y355531D01*
X650806D01*
Y353131D01*
X648406D01*
X647606Y328709D02*
Y332709D01*
X651606D01*
Y328709D01*
X647606D01*
X648406Y329509D02*
Y331909D01*
X650806D01*
Y329509D01*
X648406D01*
X647606Y305086D02*
Y309086D01*
X651606D01*
Y305086D01*
X647606D01*
X648406Y305887D02*
Y308286D01*
X650806D01*
Y305887D01*
X648406D01*
X641701Y435008D02*
Y439008D01*
X645701D01*
Y435008D01*
X641701D01*
X642501Y435808D02*
Y438208D01*
X644901D01*
Y435808D01*
X642501D01*
X635795Y423197D02*
Y427197D01*
X639795D01*
Y423197D01*
X635795D01*
X636595Y423997D02*
Y426397D01*
X638995D01*
Y423997D01*
X636595D01*
X641701Y411386D02*
Y415386D01*
X645701D01*
Y411386D01*
X641701D01*
X642501Y412186D02*
Y414586D01*
X644901D01*
Y412186D01*
X642501D01*
X641701Y387764D02*
Y391764D01*
X645701D01*
Y387764D01*
X641701D01*
X642501Y388564D02*
Y390964D01*
X644901D01*
Y388564D01*
X642501D01*
X641701Y316898D02*
Y320898D01*
X645701D01*
Y316898D01*
X641701D01*
X642501Y317698D02*
Y320097D01*
X644901D01*
Y317698D01*
X642501D01*
X623984Y470441D02*
Y474441D01*
X627984D01*
Y470441D01*
X623984D01*
X624784Y471241D02*
Y473641D01*
X627184D01*
Y471241D01*
X624784D01*
X623984Y375953D02*
Y379953D01*
X627984D01*
Y375953D01*
X623984D01*
X624784Y376753D02*
Y379153D01*
X627184D01*
Y376753D01*
X624784D01*
X629890Y364142D02*
Y368142D01*
X633890D01*
Y364142D01*
X629890D01*
X630690Y364942D02*
Y367342D01*
X633090D01*
Y364942D01*
X630690D01*
X629890Y340520D02*
Y344520D01*
X633890D01*
Y340520D01*
X629890D01*
X630690Y341320D02*
Y343720D01*
X633090D01*
Y341320D01*
X630690D01*
X629890Y293275D02*
Y297275D01*
X633890D01*
Y293275D01*
X629890D01*
X630690Y294075D02*
Y296476D01*
X633090D01*
Y294075D01*
X630690D01*
X612173Y470441D02*
Y474441D01*
X616173D01*
Y470441D01*
X612173D01*
X612973Y471241D02*
Y473641D01*
X615373D01*
Y471241D01*
X612973D01*
X612173Y399575D02*
Y403575D01*
X616173D01*
Y399575D01*
X612173D01*
X612973Y400375D02*
Y402775D01*
X615373D01*
Y400375D01*
X612973D01*
X618079Y364142D02*
Y368142D01*
X622079D01*
Y364142D01*
X618079D01*
X618879Y364942D02*
Y367342D01*
X621278D01*
Y364942D01*
X618879D01*
X612173Y328709D02*
Y332709D01*
X616173D01*
Y328709D01*
X612173D01*
X612973Y329509D02*
Y331909D01*
X615373D01*
Y329509D01*
X612973D01*
X618079Y316898D02*
Y320898D01*
X622079D01*
Y316898D01*
X618079D01*
X618879Y317698D02*
Y320097D01*
X621278D01*
Y317698D01*
X618879D01*
X618079Y293275D02*
Y297275D01*
X622079D01*
Y293275D01*
X618079D01*
X618879Y294075D02*
Y296476D01*
X621278D01*
Y294075D01*
X618879D01*
X600362Y328709D02*
Y332709D01*
X604362D01*
Y328709D01*
X600362D01*
X601162Y329509D02*
Y331909D01*
X603562D01*
Y329509D01*
X601162D01*
X606267Y316898D02*
Y320898D01*
X610267D01*
Y316898D01*
X606267D01*
X607067Y317698D02*
Y320097D01*
X609468D01*
Y317698D01*
X607067D01*
X600362Y305086D02*
Y309086D01*
X604362D01*
Y305086D01*
X600362D01*
X601162Y305887D02*
Y308286D01*
X603562D01*
Y305887D01*
X601162D01*
X588551Y470441D02*
Y474441D01*
X592551D01*
Y470441D01*
X588551D01*
X589351Y471241D02*
Y473641D01*
X591751D01*
Y471241D01*
X589351D01*
X576740Y470441D02*
Y474441D01*
X580740D01*
Y470441D01*
X576740D01*
X577540Y471241D02*
Y473641D01*
X579940D01*
Y471241D01*
X577540D01*
X582646Y387764D02*
Y391764D01*
X586646D01*
Y387764D01*
X582646D01*
X583446Y388564D02*
Y390964D01*
X585846D01*
Y388564D01*
X583446D01*
X576740Y352331D02*
Y356331D01*
X580740D01*
Y352331D01*
X576740D01*
X577540Y353131D02*
Y355531D01*
X579940D01*
Y353131D01*
X577540D01*
X564929Y470441D02*
Y474441D01*
X568929D01*
Y470441D01*
X564929D01*
X565729Y471241D02*
Y473641D01*
X568129D01*
Y471241D01*
X565729D01*
X570834Y435008D02*
Y439008D01*
X574834D01*
Y435008D01*
X570834D01*
X571634Y435808D02*
Y438208D01*
X574035D01*
Y435808D01*
X571634D01*
X570834Y316898D02*
Y320898D01*
X574834D01*
Y316898D01*
X570834D01*
X571634Y317698D02*
Y320097D01*
X574035D01*
Y317698D01*
X571634D01*
X564929Y281465D02*
Y285465D01*
X568929D01*
Y281465D01*
X564929D01*
X565729Y282264D02*
Y284665D01*
X568129D01*
Y282264D01*
X565729D01*
X553118Y470441D02*
Y474441D01*
X557118D01*
Y470441D01*
X553118D01*
X553918Y471241D02*
Y473641D01*
X556318D01*
Y471241D01*
X553918D01*
X559023Y435008D02*
Y439008D01*
X563023D01*
Y435008D01*
X559023D01*
X559823Y435808D02*
Y438208D01*
X562223D01*
Y435808D01*
X559823D01*
X553118Y399575D02*
Y403575D01*
X557118D01*
Y399575D01*
X553118D01*
X553918Y400375D02*
Y402775D01*
X556318D01*
Y400375D01*
X553918D01*
X559023Y387764D02*
Y391764D01*
X563023D01*
Y387764D01*
X559023D01*
X559823Y388564D02*
Y390964D01*
X562223D01*
Y388564D01*
X559823D01*
X541307Y470441D02*
Y474441D01*
X545307D01*
Y470441D01*
X541307D01*
X542107Y471241D02*
Y473641D01*
X544507D01*
Y471241D01*
X542107D01*
X529496Y470441D02*
Y474441D01*
X533496D01*
Y470441D01*
X529496D01*
X530296Y471241D02*
Y473641D01*
X532696D01*
Y471241D01*
X530296D01*
X517685Y470441D02*
Y474441D01*
X521685D01*
Y470441D01*
X517685D01*
X518485Y471241D02*
Y473641D01*
X520885D01*
Y471241D01*
X518485D01*
X523590Y458630D02*
Y462630D01*
X527590D01*
Y458630D01*
X523590D01*
X524390Y459430D02*
Y461830D01*
X526790D01*
Y459430D01*
X524390D01*
X505874Y470441D02*
Y474441D01*
X509874D01*
Y470441D01*
X505874D01*
X506674Y471241D02*
Y473641D01*
X509074D01*
Y471241D01*
X506674D01*
X494063Y470441D02*
Y474441D01*
X498063D01*
Y470441D01*
X494063D01*
X494863Y471241D02*
Y473641D01*
X497263D01*
Y471241D01*
X494863D01*
X470441Y470441D02*
Y474441D01*
X474441D01*
Y470441D01*
X470441D01*
X471241Y471241D02*
Y473641D01*
X473641D01*
Y471241D01*
X471241D01*
X476346Y458630D02*
Y462630D01*
X480346D01*
Y458630D01*
X476346D01*
X477146Y459430D02*
Y461830D01*
X479546D01*
Y459430D01*
X477146D01*
X476346Y387764D02*
Y391764D01*
X480346D01*
Y387764D01*
X476346D01*
X477146Y388564D02*
Y390964D01*
X479546D01*
Y388564D01*
X477146D01*
X458630Y470441D02*
Y474441D01*
X462630D01*
Y470441D01*
X458630D01*
X459430Y471241D02*
Y473641D01*
X461830D01*
Y471241D01*
X459430D01*
X464535Y458630D02*
Y462630D01*
X468535D01*
Y458630D01*
X464535D01*
X465335Y459430D02*
Y461830D01*
X467735D01*
Y459430D01*
X465335D01*
X464535Y316898D02*
Y320898D01*
X468535D01*
Y316898D01*
X464535D01*
X465335Y317698D02*
Y320097D01*
X467735D01*
Y317698D01*
X465335D01*
X446819Y470441D02*
Y474441D01*
X450819D01*
Y470441D01*
X446819D01*
X447619Y471241D02*
Y473641D01*
X450019D01*
Y471241D01*
X447619D01*
X452724Y458630D02*
Y462630D01*
X456724D01*
Y458630D01*
X452724D01*
X453524Y459430D02*
Y461830D01*
X455924D01*
Y459430D01*
X453524D01*
X452724Y364142D02*
Y368142D01*
X456724D01*
Y364142D01*
X452724D01*
X453524Y364942D02*
Y367342D01*
X455924D01*
Y364942D01*
X453524D01*
X440913Y458630D02*
Y462630D01*
X444913D01*
Y458630D01*
X440913D01*
X441713Y459430D02*
Y461830D01*
X444113D01*
Y459430D01*
X441713D01*
X429102Y458630D02*
Y462630D01*
X433102D01*
Y458630D01*
X429102D01*
X429902Y459430D02*
Y461830D01*
X432302D01*
Y459430D01*
X429902D01*
X423197Y446819D02*
Y450819D01*
X427197D01*
Y446819D01*
X423197D01*
X423997Y447619D02*
Y450019D01*
X426397D01*
Y447619D01*
X423997D01*
X411386Y446819D02*
Y450819D01*
X415386D01*
Y446819D01*
X411386D01*
X412186Y447619D02*
Y450019D01*
X414586D01*
Y447619D01*
X412186D01*
X417291Y293275D02*
Y297275D01*
X421291D01*
Y293275D01*
X417291D01*
X418091Y294075D02*
Y296476D01*
X420491D01*
Y294075D01*
X418091D01*
X405480Y435008D02*
Y439008D01*
X409480D01*
Y435008D01*
X405480D01*
X406280Y435808D02*
Y438208D01*
X408680D01*
Y435808D01*
X406280D01*
X399575Y423197D02*
Y427197D01*
X403575D01*
Y423197D01*
X399575D01*
X400375Y423997D02*
Y426397D01*
X402775D01*
Y423997D01*
X400375D01*
X405480Y411386D02*
Y415386D01*
X409480D01*
Y411386D01*
X405480D01*
X406280Y412186D02*
Y414586D01*
X408680D01*
Y412186D01*
X406280D01*
X405480Y316898D02*
Y320898D01*
X409480D01*
Y316898D01*
X405480D01*
X406280Y317698D02*
Y320097D01*
X408680D01*
Y317698D01*
X406280D01*
X393669Y411386D02*
Y415386D01*
X397669D01*
Y411386D01*
X393669D01*
X394469Y412186D02*
Y414586D01*
X396869D01*
Y412186D01*
X394469D01*
X393669Y340520D02*
Y344520D01*
X397669D01*
Y340520D01*
X393669D01*
X394469Y341320D02*
Y343720D01*
X396869D01*
Y341320D01*
X394469D01*
X387764Y328709D02*
Y332709D01*
X391764D01*
Y328709D01*
X387764D01*
X388564Y329509D02*
Y331909D01*
X390964D01*
Y329509D01*
X388564D01*
X393669Y316898D02*
Y320898D01*
X397669D01*
Y316898D01*
X393669D01*
X394469Y317698D02*
Y320097D01*
X396869D01*
Y317698D01*
X394469D01*
X381858Y387764D02*
Y391764D01*
X385858D01*
Y387764D01*
X381858D01*
X382658Y388564D02*
Y390964D01*
X385058D01*
Y388564D01*
X382658D01*
X375953Y375953D02*
Y379953D01*
X379953D01*
Y375953D01*
X375953D01*
X376753Y376753D02*
Y379153D01*
X379153D01*
Y376753D01*
X376753D01*
X381858Y364142D02*
Y368142D01*
X385858D01*
Y364142D01*
X381858D01*
X382658Y364942D02*
Y367342D01*
X385058D01*
Y364942D01*
X382658D01*
X381858Y340520D02*
Y344520D01*
X385858D01*
Y340520D01*
X381858D01*
X382658Y341320D02*
Y343720D01*
X385058D01*
Y341320D01*
X382658D01*
X603500Y449500D02*
X604500Y450500D01*
X605500D01*
X604500Y451500D01*
X605500Y452500D01*
X604500D01*
X603500Y453500D01*
X602500Y452500D01*
X601500D01*
X602500Y451500D01*
X601500Y450500D01*
X602500D01*
X603500Y449500D01*
X620500Y380000D02*
X621500Y381000D01*
X622500D01*
X621500Y382000D01*
X622500Y383000D01*
X621500D01*
X620500Y384000D01*
X619500Y383000D01*
X618500D01*
X619500Y382000D01*
X618500Y381000D01*
X619500D01*
X620500Y380000D01*
X582500Y322000D02*
X583500Y323000D01*
X584500D01*
X583500Y324000D01*
X584500Y325000D01*
X583500D01*
X582500Y326000D01*
X581500Y325000D01*
X580500D01*
X581500Y324000D01*
X580500Y323000D01*
X581500D01*
X582500Y322000D01*
X588500D02*
X589500Y323000D01*
X590500D01*
X589500Y324000D01*
X590500Y325000D01*
X589500D01*
X588500Y326000D01*
X587500Y325000D01*
X586500D01*
X587500Y324000D01*
X586500Y323000D01*
X587500D01*
X588500Y322000D01*
X594500D02*
X595500Y323000D01*
X596500D01*
X595500Y324000D01*
X596500Y325000D01*
X595500D01*
X594500Y326000D01*
X593500Y325000D01*
X592500D01*
X593500Y324000D01*
X592500Y323000D01*
X593500D01*
X594500Y322000D01*
X581000Y392500D02*
X582000Y393500D01*
X583000D01*
X582000Y394500D01*
X583000Y395500D01*
X582000D01*
X581000Y396500D01*
X580000Y395500D01*
X579000D01*
X580000Y394500D01*
X579000Y393500D01*
X580000D01*
X581000Y392500D01*
X620500Y386000D02*
X621500Y387000D01*
X622500D01*
X621500Y388000D01*
X622500Y389000D01*
X621500D01*
X620500Y390000D01*
X619500Y389000D01*
X618500D01*
X619500Y388000D01*
X618500Y387000D01*
X619500D01*
X620500Y386000D01*
X581000Y379000D02*
X582000Y380000D01*
X583000D01*
X582000Y381000D01*
X583000Y382000D01*
X582000D01*
X581000Y383000D01*
X580000Y382000D01*
X579000D01*
X580000Y381000D01*
X579000Y380000D01*
X580000D01*
X581000Y379000D01*
Y386000D02*
X582000Y387000D01*
X583000D01*
X582000Y388000D01*
X583000Y389000D01*
X582000D01*
X581000Y390000D01*
X580000Y389000D01*
X579000D01*
X580000Y388000D01*
X579000Y387000D01*
X580000D01*
X581000Y386000D01*
X568500Y367000D02*
X569500Y368000D01*
X570500D01*
X569500Y369000D01*
X570500Y370000D01*
X569500D01*
X568500Y371000D01*
X567500Y370000D01*
X566500D01*
X567500Y369000D01*
X566500Y368000D01*
X567500D01*
X568500Y367000D01*
X559000D02*
X560000Y368000D01*
X561000D01*
X560000Y369000D01*
X561000Y370000D01*
X560000D01*
X559000Y371000D01*
X558000Y370000D01*
X557000D01*
X558000Y369000D01*
X557000Y368000D01*
X558000D01*
X559000Y367000D01*
X549000D02*
X550000Y368000D01*
X551000D01*
X550000Y369000D01*
X551000Y370000D01*
X550000D01*
X549000Y371000D01*
X548000Y370000D01*
X547000D01*
X548000Y369000D01*
X547000Y368000D01*
X548000D01*
X549000Y367000D01*
X539500D02*
X540500Y368000D01*
X541500D01*
X540500Y369000D01*
X541500Y370000D01*
X540500D01*
X539500Y371000D01*
X538500Y370000D01*
X537500D01*
X538500Y369000D01*
X537500Y368000D01*
X538500D01*
X539500Y367000D01*
X484000Y469000D02*
X485000Y470000D01*
X486000D01*
X485000Y471000D01*
X486000Y472000D01*
X485000D01*
X484000Y473000D01*
X483000Y472000D01*
X482000D01*
X483000Y471000D01*
X482000Y470000D01*
X483000D01*
X484000Y469000D01*
X609000Y449500D02*
X610000Y450500D01*
X611000D01*
X610000Y451500D01*
X611000Y452500D01*
X610000D01*
X609000Y453500D01*
X608000Y452500D01*
X607000D01*
X608000Y451500D01*
X607000Y450500D01*
X608000D01*
X609000Y449500D01*
Y457000D02*
X610000Y458000D01*
X611000D01*
X610000Y459000D01*
X611000Y460000D01*
X610000D01*
X609000Y461000D01*
X608000Y460000D01*
X607000D01*
X608000Y459000D01*
X607000Y458000D01*
X608000D01*
X609000Y457000D01*
X507500Y313802D02*
X508500Y314802D01*
X509500D01*
X508500Y315802D01*
X509500Y316802D01*
X508500D01*
X507500Y317802D01*
X506500Y316802D01*
X505500D01*
X506500Y315802D01*
X505500Y314802D01*
X506500D01*
X507500Y313802D01*
X558500Y439500D02*
X559500Y440500D01*
X560500D01*
X559500Y441500D01*
X560500Y442500D01*
X559500D01*
X558500Y443500D01*
X557500Y442500D01*
X556500D01*
X557500Y441500D01*
X556500Y440500D01*
X557500D01*
X558500Y439500D01*
X542500Y284000D02*
X543500Y285000D01*
X544500D01*
X543500Y286000D01*
X544500Y287000D01*
X543500D01*
X542500Y288000D01*
X541500Y287000D01*
X540500D01*
X541500Y286000D01*
X540500Y285000D01*
X541500D01*
X542500Y284000D01*
X547500Y297000D02*
X548500Y298000D01*
X549500D01*
X548500Y299000D01*
X549500Y300000D01*
X548500D01*
X547500Y301000D01*
X546500Y300000D01*
X545500D01*
X546500Y299000D01*
X545500Y298000D01*
X546500D01*
X547500Y297000D01*
Y303000D02*
X548500Y304000D01*
X549500D01*
X548500Y305000D01*
X549500Y306000D01*
X548500D01*
X547500Y307000D01*
X546500Y306000D01*
X545500D01*
X546500Y305000D01*
X545500Y304000D01*
X546500D01*
X547500Y303000D01*
X536000Y451000D02*
X537000Y452000D01*
X538000D01*
X537000Y453000D01*
X538000Y454000D01*
X537000D01*
X536000Y455000D01*
X535000Y454000D01*
X534000D01*
X535000Y453000D01*
X534000Y452000D01*
X535000D01*
X536000Y451000D01*
X459500Y315000D02*
X460500Y316000D01*
X461500D01*
X460500Y317000D01*
X461500Y318000D01*
X460500D01*
X459500Y319000D01*
X458500Y318000D01*
X457500D01*
X458500Y317000D01*
X457500Y316000D01*
X458500D01*
X459500Y315000D01*
Y309000D02*
X460500Y310000D01*
X461500D01*
X460500Y311000D01*
X461500Y312000D01*
X460500D01*
X459500Y313000D01*
X458500Y312000D01*
X457500D01*
X458500Y311000D01*
X457500Y310000D01*
X458500D01*
X459500Y309000D01*
Y303500D02*
X460500Y304500D01*
X461500D01*
X460500Y305500D01*
X461500Y306500D01*
X460500D01*
X459500Y307500D01*
X458500Y306500D01*
X457500D01*
X458500Y305500D01*
X457500Y304500D01*
X458500D01*
X459500Y303500D01*
X507500Y306500D02*
X508500Y307500D01*
X509500D01*
X508500Y308500D01*
X509500Y309500D01*
X508500D01*
X507500Y310500D01*
X506500Y309500D01*
X505500D01*
X506500Y308500D01*
X505500Y307500D01*
X506500D01*
X507500Y306500D01*
X547500Y308500D02*
X548500Y309500D01*
X549500D01*
X548500Y310500D01*
X549500Y311500D01*
X548500D01*
X547500Y312500D01*
X546500Y311500D01*
X545500D01*
X546500Y310500D01*
X545500Y309500D01*
X546500D01*
X547500Y308500D01*
M02*
