G04*
G04 #@! TF.GenerationSoftware,Altium Limited,Altium Designer,25.1.2 (22)*
G04*
G04 Layer_Color=32768*
%FSLAX25Y25*%
%MOIN*%
G70*
G04*
G04 #@! TF.SameCoordinates,306FC79E-9B49-4897-B38B-A4FC230E2DB4*
G04*
G04*
G04 #@! TF.FilePolarity,Positive*
G04*
G01*
G75*
%ADD13C,0.00600*%
%ADD14C,0.00787*%
%ADD81C,0.00394*%
%ADD85C,0.00197*%
D13*
X428434Y428947D02*
X533134D01*
X428434D02*
Y460316D01*
X533134D01*
Y428947D02*
Y460316D01*
X607000Y456709D02*
X659000D01*
Y299110D02*
Y456709D01*
X607000Y299110D02*
X659000D01*
X607000D02*
Y456709D01*
D14*
X433327Y331800D02*
Y421564D01*
Y331800D02*
X523091D01*
Y421564D01*
X433327D02*
X523091D01*
X552902Y443044D02*
X584634D01*
X552902D02*
Y477296D01*
X584634D01*
Y443044D02*
Y477296D01*
X549425Y275173D02*
Y296827D01*
Y275173D02*
X577575D01*
Y296827D01*
X549425D02*
X577575D01*
X589551Y461307D02*
X659236D01*
X589551D02*
Y477055D01*
X659236D01*
Y461307D02*
Y477055D01*
X453856Y279449D02*
Y300551D01*
Y279449D02*
X475144D01*
Y300551D01*
X453856D02*
X475144D01*
X659079Y276807D02*
Y292555D01*
X589394D02*
X659079D01*
X589394Y276807D02*
X589394Y292555D01*
X589394Y276807D02*
X659079Y276807D01*
X548788Y298831D02*
Y306752D01*
Y298831D02*
X563797D01*
Y306752D01*
X548788D02*
X563797D01*
X512220Y270886D02*
Y290177D01*
Y270886D02*
X539780D01*
Y290177D01*
X512220D02*
X539780D01*
X477220Y270886D02*
Y290177D01*
Y270886D02*
X504779D01*
Y290177D01*
X477220D02*
X504779D01*
X545345Y305850D02*
Y313771D01*
X530337D02*
X545345D01*
X530337Y305850D02*
Y313771D01*
Y305850D02*
X545345D01*
X518579Y301665D02*
X528421D01*
Y297335D02*
Y301665D01*
X518579Y297335D02*
X528421D01*
X518579D02*
Y301665D01*
X571461Y352996D02*
Y368004D01*
X563539Y352996D02*
X571461D01*
X563539D02*
Y368004D01*
X571461D01*
X543461Y353496D02*
Y368504D01*
X535539Y353496D02*
X543461D01*
X535539D02*
Y368504D01*
X543461D01*
X537496Y415961D02*
X552504D01*
Y408039D02*
Y415961D01*
X537496Y408039D02*
X552504D01*
X537496D02*
Y415961D01*
X411496Y412039D02*
X426504D01*
X411496D02*
Y419961D01*
X426504D01*
Y412039D02*
Y419961D01*
X436084Y307482D02*
Y322490D01*
X428163Y307482D02*
X436084D01*
X428163D02*
Y322490D01*
X436084D01*
X400978Y328980D02*
X415986D01*
X400978D02*
Y336902D01*
X415986D01*
Y328980D02*
Y336902D01*
X400634Y364098D02*
X415642D01*
X400634D02*
Y372020D01*
X415642D01*
Y364098D02*
Y372020D01*
X437496Y314539D02*
X452504D01*
X437496D02*
Y322461D01*
X452504D01*
Y314539D02*
Y322461D01*
X469496Y323461D02*
X484504D01*
Y315539D02*
Y323461D01*
X469496Y315539D02*
X484504D01*
X469496D02*
Y323461D01*
X512318D02*
X527326D01*
Y315539D02*
Y323461D01*
X512318Y315539D02*
X527326D01*
X512318D02*
Y323461D01*
X566146Y371108D02*
Y386117D01*
X574068D01*
Y371108D02*
Y386117D01*
X566146Y371108D02*
X574068D01*
X413039Y375496D02*
Y390504D01*
X420961D01*
Y375496D02*
Y390504D01*
X413039Y375496D02*
X420961D01*
X535539Y370996D02*
Y386004D01*
X543461D01*
Y370996D02*
Y386004D01*
X535539Y370996D02*
X543461D01*
X403853Y337902D02*
Y363098D01*
X419207D01*
Y337902D02*
Y363098D01*
X403853Y337902D02*
X419207D01*
D81*
X421130Y452000D02*
X424870D01*
X423000Y450130D02*
Y453870D01*
X552524Y340477D02*
X556461D01*
X554492Y338509D02*
Y342446D01*
X548995Y359763D02*
Y363503D01*
X547125Y361633D02*
X550865D01*
X556392Y361496D02*
X560133D01*
X558262Y359626D02*
Y363366D01*
X583102Y284130D02*
Y287870D01*
X581232Y286000D02*
X584972D01*
X445474Y292355D02*
X449215D01*
X447344Y290484D02*
Y294225D01*
X445474Y285390D02*
X449215D01*
X447344Y283520D02*
Y287260D01*
X431918Y297919D02*
Y301659D01*
X430048Y299789D02*
X433788D01*
X501500Y303630D02*
Y307370D01*
X499630Y305500D02*
X503370D01*
X538646Y297630D02*
Y301370D01*
X536776Y299500D02*
X540516D01*
X520029Y307649D02*
Y311586D01*
X518060Y309618D02*
X521997D01*
X419270Y424299D02*
Y428039D01*
X417400Y426169D02*
X421140D01*
X547414Y378790D02*
X551351D01*
X549382Y376821D02*
Y380759D01*
X558256Y379011D02*
X562193D01*
X560225Y377043D02*
Y380980D01*
X540500Y338531D02*
Y342469D01*
X538531Y340500D02*
X542469D01*
X543367Y421929D02*
X547304D01*
X545336Y419960D02*
Y423897D01*
X537931Y317724D02*
X537931Y321661D01*
X535962Y319693D02*
X539899D01*
X445549Y306649D02*
Y310586D01*
X443580Y308618D02*
X447517D01*
X405149Y383581D02*
X409086D01*
X407118Y381613D02*
Y385550D01*
D85*
X427134Y445307D02*
Y458693D01*
X418866Y445307D02*
Y458693D01*
X427134D01*
X418866Y445307D02*
X427134D01*
X560890Y335162D02*
Y345792D01*
X548095Y335162D02*
Y345792D01*
Y335162D02*
X560890D01*
X548095Y345792D02*
X560890D01*
X544861Y354940D02*
X553128D01*
X544861Y368325D02*
X553128D01*
X544861Y354940D02*
Y368325D01*
X553128Y354940D02*
Y368325D01*
X562396Y354803D02*
Y368189D01*
X554129Y354803D02*
Y368189D01*
X562396D01*
X554129Y354803D02*
X562396D01*
X578968Y279307D02*
X587236D01*
X578968Y292693D02*
X587236D01*
X578968Y279307D02*
Y292693D01*
X587236Y279307D02*
Y292693D01*
X452463Y289402D02*
X452463Y295307D01*
X442226Y289402D02*
Y295307D01*
Y289402D02*
X452463D01*
X442226Y295307D02*
X452463D01*
X442226Y282437D02*
Y288342D01*
X452463Y282437D02*
Y288342D01*
X442226D02*
X452463D01*
X442226Y282437D02*
X452463D01*
X427784Y306482D02*
X436052D01*
X427784Y293096D02*
X436052D01*
X436052Y306482D01*
X427784D02*
X427784Y293096D01*
X498547Y300382D02*
X504453D01*
X498547Y310618D02*
X504453D01*
X498547Y300382D02*
Y310618D01*
X504453Y300382D02*
Y310618D01*
X531953Y295366D02*
X545339D01*
X531953Y303634D02*
X545339D01*
Y295366D02*
Y303634D01*
X531953Y295366D02*
Y303634D01*
X511564Y314539D02*
X528494D01*
X511564Y304697D02*
X528494D01*
X511564D02*
Y314539D01*
X528494Y304697D02*
Y314539D01*
X412577Y422035D02*
X425962D01*
X412577Y430303D02*
X425962D01*
Y422035D02*
Y430303D01*
X412577Y422035D02*
Y430303D01*
X544461Y370325D02*
Y387255D01*
X554303Y370325D02*
Y387255D01*
X544461Y370325D02*
X554303D01*
X544461Y387255D02*
X554303D01*
X555303Y370547D02*
Y387476D01*
X565146Y370547D02*
Y387476D01*
X555303Y370547D02*
X565146D01*
X555303Y387476D02*
X565146D01*
X534102Y335579D02*
X546898D01*
X534102Y345421D02*
X546898D01*
Y335579D02*
Y345421D01*
X534102Y335579D02*
Y345421D01*
X553800Y417007D02*
Y426850D01*
X536871Y417007D02*
Y426850D01*
Y417007D02*
X553800D01*
X536871Y426850D02*
X553800D01*
X529466Y324614D02*
X546395Y324614D01*
X529466Y314771D02*
X546395Y314771D01*
X529466Y314771D02*
Y324614D01*
X546395Y314771D02*
Y324614D01*
X437084Y303697D02*
X454014D01*
X437084Y313539D02*
X454014D01*
Y303697D02*
Y313539D01*
X437084Y303697D02*
Y313539D01*
X402197Y375117D02*
Y392046D01*
X412039Y375117D02*
Y392046D01*
X402197Y375117D02*
X412039D01*
X402197Y392046D02*
X412039D01*
M02*
